<svg width="80" height="80" viewBox="0 0 80 80" fill="none" xmlns="http://www.w3.org/2000/svg">
<g clip-path="url(#clip0_117_383)">
<path fill-rule="evenodd" clip-rule="evenodd" d="M42.0213 12.2121C54.8905 14.9507 65.0239 25.0846 67.7621 37.954L67.9488 37.8462C68.8553 37.4623 69.7272 37.0125 70.5583 36.5029C72.6673 37.0688 74.7763 37.6347 76.8856 38.1998C78.0114 38.5176 79.0896 37.4875 78.7811 36.3298C78.2138 34.2125 77.6463 32.0972 77.0787 29.982C85.1256 17.1593 75.5278 -0.155153 60.2742 0.000925683C52.1178 0.000769448 45.121 4.9592 42.1289 12.0256L42.0213 12.2121Z" fill="#DFC58A"/>
<path fill-rule="evenodd" clip-rule="evenodd" d="M30.836 49.1383C20.519 38.8899 35.1063 39.2983 31.3809 33.6816C30.6297 32.6995 27.2243 28.4855 27.2243 28.4855C23.5478 23.4795 8.19626 36.7841 25.6932 54.2809C43.1901 71.7778 56.4946 56.4263 51.4885 52.7498C51.4885 52.7498 47.2746 49.3443 46.2925 48.5933C40.6805 44.8668 41.0805 59.4548 30.836 49.1383Z" fill="#DFC58A"/>
<path d="M35.0193 79.9931C28.7729 79.9931 22.6642 78.335 17.3077 75.1917C13.9401 76.0952 10.571 76.999 7.20321 77.9014C5.75069 78.307 4.23959 77.9139 3.15891 76.849C2.08042 75.7862 1.66936 74.278 2.05948 72.8146C2.96674 69.428 3.874 66.0462 4.78141 62.6646C-3.25142 49.3268 -0.96023 31.044 10.2439 20.1792C32.1535 -1.80624 70.1134 13.9205 70.0578 44.9554C70.4459 63.7873 53.8533 80.3834 35.0193 79.9931ZM17.5428 71.9486C39.2453 84.9103 66.6395 70.6274 66.9331 44.9546C66.933 27.3575 52.6165 13.0411 35.0193 13.0411C10.4531 12.7308 -5.29044 40.8609 7.79425 61.6125C8.01797 61.978 8.08219 62.4196 7.97095 62.8341C7.00651 66.4288 6.04207 70.0231 5.0781 73.6211C4.93874 74.1443 5.22324 74.4965 5.35214 74.6233C5.47712 74.7578 5.87615 75.0441 6.38579 74.8855C9.96529 73.9265 13.5579 72.9622 17.1382 72.002C17.2713 71.9661 17.4074 71.9486 17.5428 71.9486Z" fill="#F7F3E3"/>
</g>
<defs>
<clipPath id="clip0_117_383">
<rect width="80" height="80" fill="white"/>
</clipPath>
</defs>
</svg>
