<svg width="720" height="822" viewBox="0 0 720 822" fill="none" xmlns="http://www.w3.org/2000/svg">
<path opacity="0.05" d="M360 821.263C360 821.263 500.283 793.774 633.106 664.438C728.547 571.511 719.789 430.498 719.789 430.498V0H0.210566V430.498C0.210566 430.498 -8.54698 571.511 86.8941 664.438C219.717 793.774 359.919 821.263 359.919 821.263H360ZM13.9956 431.309V430.904V13.785H705.923V431.39C707.464 455.473 703.491 486.449 698.625 509.884C687.354 564.213 663.514 615.542 623.375 654.627C570.749 705.874 508.959 748.365 441.899 778.449C422.033 787.368 401.517 795.234 380.678 801.559C373.947 803.586 366.73 805.694 359.757 807.235C353.107 805.775 346.296 803.748 339.89 801.802C319.131 795.477 298.616 787.612 278.749 778.773C211.365 748.689 149.251 706.037 96.4625 654.545C56.567 615.623 32.7271 564.618 21.3747 510.614C16.3472 486.855 12.4549 455.879 13.9145 431.309H13.9956Z" fill="#DFC58A"/>
<path opacity="0.05" d="M157.603 291.756C182.092 302.621 207.716 304.243 244.773 291.188C279.885 278.863 300.481 248.292 300.481 226.885C300.4 223.804 298.535 194.45 273.884 194.936C271.451 194.936 268.775 195.26 265.856 195.99C263.018 196.72 262.856 198.666 262.856 198.666C262.856 198.666 272.181 195.666 279.966 218.695C282.155 225.02 288.237 249.509 265.694 270.673C226.204 307.811 177.389 286.323 183.308 289.161C118.194 258.428 158.495 196.558 192.633 176.448C217.446 161.933 258.883 152.203 303.968 153.743C364.784 155.852 421.627 159.257 462.252 161.69C515.933 164.933 557.613 166.393 575.371 151.959C592.967 137.688 577.155 123.173 573.587 122.849C558.504 160.311 482.687 145.878 336.565 146.121C310.212 146.121 284.182 147.824 258.315 151.311C187.687 160.798 160.766 187.476 145.278 205.64C125.168 229.155 119.005 272.619 157.765 291.675L157.603 291.756Z" fill="#DFC58A"/>
<path opacity="0.05" d="M246.153 439.419C264.965 445.663 288.886 445.825 314.997 438.041C361.542 424.175 415.547 364.494 383.841 328.49C376.867 320.625 360.65 325.085 360.65 325.085C360.65 325.085 376.056 327.274 371.678 358.98C366.731 394.902 336.647 445.744 262.208 432.446C261.397 432.283 260.586 432.121 259.775 431.959C280.534 419.309 300.32 400.74 316.375 373.819C331.944 347.789 349.865 300.191 363.001 265.809C400.383 259.809 442.954 265.241 485.769 295.082C460.145 317.138 426.088 365.386 395.274 422.147C376.219 457.178 349.703 517.345 307.293 553.835C292.454 566.566 277.777 572.566 257.992 579.134C237.314 586.027 214.852 583.108 201.878 579.783C169.281 571.512 165.551 549.699 171.713 539.32C173.497 536.32 176.173 534.049 179.741 532.671C178.687 530.887 176.984 529.427 174.714 528.13C154.847 517.507 124.601 568.35 183.552 584.892C204.068 590.649 261.722 602.082 314.51 564.701C344.432 543.456 362.352 511.182 397.95 442.257C406.708 425.31 425.764 433.824 426.493 434.148C440.927 440.96 445.63 458.151 434.764 481.991C407.032 542.645 406.384 575.161 439.143 586.919C444.333 588.784 462.253 588.703 474.66 587.405C525.097 582.297 516.907 531.373 487.391 538.347C503.365 560.079 479.201 581.486 454.712 579.54C452.523 579.378 445.955 578.972 443.765 578.405C430.791 574.837 423.818 559.106 429.575 541.834C438.008 516.534 456.091 495.289 456.983 472.99C458.361 440.717 437.278 432.04 437.278 432.04C437.278 432.04 471.335 439.176 500.527 418.661C577.724 364.412 502.311 297.028 502.311 297.028C502.311 297.028 525.016 273.026 557.046 260.295C571.966 254.376 586.968 250.483 609.591 252.835C631.404 255.105 634.323 269.458 632.783 276.999C641.946 271.161 650.46 250.808 637.486 241.807C585.021 205.236 499.797 282.189 492.743 288.352C486.256 283 440.765 249.916 365.677 259.322C370.705 246.267 374.921 235.725 377.759 229.968C401.194 183.099 430.629 165.178 434.764 162.908C434.359 163.151 433.71 163.476 432.575 163.962C404.843 178.882 383.435 198.506 368.353 222.994C361.136 234.671 354.892 247.726 348.405 262.16C341.351 263.62 334.053 265.404 326.511 267.593C301.86 275.702 278.183 289.649 255.559 306.353C209.582 340.329 201.149 378.279 206.987 401.146C210.636 415.255 220.123 426.688 233.584 434.148C186.877 459.935 138.467 447.285 126.142 443.23C78.4616 421.499 97.4363 403.011 102.383 399.524C102.383 399.524 94.436 390.928 82.9215 398.389C78.0562 401.551 75.8667 406.822 75.8667 414.525C75.8667 410.471 69.9473 439.906 120.547 452.231C139.602 456.853 194.175 464.475 245.99 439.581L246.153 439.419ZM494.77 303.029C494.77 303.029 532.719 331.815 501.176 384.522C497.04 391.415 492.256 398.145 486.661 404.065C453.901 438.771 418.628 416.309 412.546 417.039C415.222 407.47 431.116 384.279 454.145 350.222C471.498 324.598 494.77 303.11 494.77 303.11V303.029ZM256.694 317.949C273.885 302.218 305.672 280.243 345.081 269.701C330.566 302.461 313.78 342.032 281.832 388.901C271.047 404.794 259.127 416.714 246.882 425.634C222.232 407.227 212.987 358.007 256.775 317.949H256.694ZM125.169 442.744C122.655 441.69 122.817 441.933 125.169 442.744V442.744Z" fill="#DFC58A"/>
</svg>
