<svg width="61" height="34" viewBox="0 0 61 34" fill="none" xmlns="http://www.w3.org/2000/svg">
<path d="M55.8166 23.6785C54.7923 23.6785 53.7911 23.9808 52.9394 24.5472C52.0878 25.1136 51.424 25.9187 51.032 26.8606C50.6401 27.8025 50.5375 28.8389 50.7373 29.8388C50.9372 30.8388 51.4304 31.7572 52.1547 32.4781C52.8789 33.199 53.8017 33.69 54.8063 33.8889C55.8109 34.0878 56.8521 33.9857 57.7984 33.5956C58.7447 33.2054 59.5536 32.5447 60.1226 31.697C60.6917 30.8493 60.9954 29.8527 60.9954 28.8332C60.9954 27.4661 60.4498 26.155 59.4786 25.1883C58.5074 24.2216 57.1901 23.6785 55.8166 23.6785Z" fill="url(#paint0_linear_59_1326)"/>
<path d="M47.456 16.7167C46.8987 16.3278 46.2698 16.0521 45.6054 15.9054C44.9409 15.7587 44.254 15.7437 43.5837 15.8614C42.9134 15.9791 42.2731 16.2272 41.6992 16.5914C41.1253 16.9557 40.6292 17.4289 40.2393 17.9841L40.2179 18.0129C39.9516 18.3749 39.5536 18.6187 39.109 18.6924C38.6644 18.7661 38.2085 18.6637 37.8387 18.4071C37.4647 18.1442 37.2106 17.7445 37.1321 17.2955C37.0536 16.8465 37.1571 16.3849 37.4199 16.0117C38.2076 14.8904 38.5156 13.5036 38.2761 12.1564C38.0366 10.8091 37.2691 9.61172 36.1427 8.82764C35.0162 8.04356 33.6229 7.737 32.2694 7.97541C30.9158 8.21381 29.7129 8.97765 28.9251 10.0989L21.7967 20.231C21.6667 20.4175 21.5009 20.5766 21.3088 20.699C21.1167 20.8214 20.9021 20.9047 20.6774 20.944C20.4528 20.9833 20.2226 20.978 20 20.9282C19.7775 20.8784 19.5671 20.7852 19.3809 20.654C19.0076 20.3906 18.754 19.9909 18.6755 19.5422C18.597 19.0934 18.7001 18.632 18.9621 18.2585L18.8097 18.4632L26.0829 8.11735C26.4729 7.56247 26.7494 6.93655 26.8964 6.27533C27.0434 5.61412 27.0582 4.93055 26.9398 4.26366C26.8214 3.59677 26.5722 2.95963 26.2064 2.3886C25.8406 1.81757 25.3655 1.32383 24.808 0.935595C24.2505 0.547357 23.6217 0.272212 22.9574 0.12587C22.2931 -0.020471 21.6063 -0.0351417 20.9363 0.0826934C20.2663 0.200529 19.6262 0.448562 19.0525 0.812634C18.4788 1.17671 17.9828 1.64969 17.5927 2.20457L0.938358 25.8815C0.548308 26.4363 0.271879 27.0623 0.124855 27.7235C-0.0221695 28.3847 -0.0369133 29.0683 0.0814717 29.7351C0.199857 30.402 0.449048 31.0392 0.814819 31.6102C1.18059 32.1812 1.65578 32.675 2.21325 33.0632C2.77072 33.4515 3.39956 33.7266 4.06386 33.8729C4.72817 34.0193 5.41493 34.034 6.08493 33.9161C6.75493 33.7983 7.39505 33.5502 7.96874 33.1862C8.54244 32.8221 9.03847 32.3491 9.42852 31.7942L14.9957 23.8832C15.2595 23.511 15.661 23.2581 16.1119 23.1802C16.5629 23.1023 17.0264 23.2058 17.4008 23.4678C17.7749 23.7284 18.0297 24.126 18.1094 24.5735C18.1891 25.0209 18.0871 25.4815 17.8258 25.8542C17.038 26.9752 16.73 28.3618 16.9693 29.7089C17.2087 31.0561 17.9759 32.2534 19.1022 33.0374C20.2285 33.8215 21.6215 34.1282 22.9749 33.8899C24.3283 33.6516 25.5312 32.888 26.319 31.767L33.4566 21.6227C33.7194 21.2509 34.1194 20.9977 34.5692 20.9184C35.019 20.8391 35.482 20.9403 35.8571 21.1998C36.226 21.4573 36.479 21.8484 36.5619 22.2893C36.6447 22.7303 36.5508 23.1859 36.3003 23.5588L34.6873 25.8511C34.2972 26.406 34.0208 27.0319 33.8738 27.6932C33.7268 28.3544 33.712 29.0379 33.8304 29.7048C33.9488 30.3717 34.198 31.0089 34.5637 31.5799C34.9295 32.1509 35.4047 32.6447 35.9622 33.0329C36.5196 33.4211 37.1485 33.6963 37.8128 33.8426C38.4771 33.989 39.1639 34.0036 39.8339 33.8858C40.5039 33.768 41.144 33.5199 41.7177 33.1559C42.2914 32.7918 42.7874 32.3188 43.1774 31.7639L48.7294 23.8726C49.5097 22.7543 49.8138 21.374 49.5752 20.0333C49.3366 18.6925 48.5748 17.5002 47.456 16.7167Z" fill="url(#paint1_linear_59_1326)"/>
<defs>
<linearGradient id="paint0_linear_59_1326" x1="60.9954" y1="28.8332" x2="50.6378" y2="28.8332" gradientUnits="userSpaceOnUse">
<stop stop-color="#FFDA55"/>
<stop offset="1" stop-color="#FFCD18"/>
</linearGradient>
<linearGradient id="paint1_linear_59_1326" x1="49.6546" y1="16.9994" x2="0.0024414" y2="16.9994" gradientUnits="userSpaceOnUse">
<stop stop-color="#FFDA55"/>
<stop offset="1" stop-color="#FFCD18"/>
</linearGradient>
</defs>
</svg>
