<svg xmlns="http://www.w3.org/2000/svg" version="1.1" id="Layer_1" x="0" y="0" viewBox="0 0 439.33 145.57" xml:space="preserve"><style>.st1{fill:#00984a}</style><path d="M121.07 123.23l-47.61 19.96c-13.31 4.44-26.17 2.66-37.7-5.32-6.06-4.58-10.35-9.91-13.45-16.86L2.34 73.4l-1.18-3.99C-3.43 49.6 5.89 30.67 24.52 22.25L72.13 2.29l3.84-1.18c19.96-4.44 38.89 4.73 47.17 23.36l20.11 47.61c4.44 13.31 2.51 26.02-5.32 37.56-4.74 6.2-9.91 10.34-16.86 13.59z" fill="#dcddde"/><path class="st1" d="M26.59 85.23l11.83 28.54c4.14 8.87 12.12 14.19 21.59 14.05.89 0 1.63 0 2.51-.15.74-.15 1.48-.3 2.22-.44-1.03-1.04-2.07-2.37-2.81-3.7-.89-1.48-1.48-3.1-1.92-4.73-.74-2.81-.74-5.91 0-9.02v-.3l17-62.4c.59-2.51 1.92-4.58 3.7-6.36.89-.89 1.92-1.77 2.96-2.37 3.25-1.77 7.24-2.51 10.94-1.48.89.3 1.77.59 2.51 1.04 2.66 1.18 4.88 3.25 6.36 5.77.74 1.33 1.18 2.81 1.63 4.29.3 1.92.3 3.84 0 5.91l3.11-11.83c.59-2.22.74-4.44.44-6.51l-1.63-3.84c-.59-1.33-1.18-2.51-1.92-3.55a21.19 21.19 0 00-2.81-3.4c-1.48-1.18-3.25-2.07-5.17-2.66 0 0-.15 0-.3-.15-4.29-1.18-8.72-.44-12.42 1.63-1.33.89-2.66 1.77-3.7 2.96-1.77 1.92-3.25 4.29-3.84 6.95L60 95.44l-4.14 15.38-7.69-1.92L60 65.27l9.17-33.86c1.18-4.58 3.7-8.43 6.95-11.39L60 26.68 31.76 38.36c-1.92 1.04-3.7 2.07-5.18 3.25-7.1 5.47-10.35 13.9-8.28 23.51l8.29 20.11zm70.52 27.8l-.3 1.04h.3l7.98-3.4 8.72-3.7c8.87-3.99 14.34-12.12 14.05-21.88-.15-2.22-.59-4.44-1.18-6.65L114.41 49.3l-9.31 34.75-7.99 28.98z"/><path class="st1" d="M105.1 53.89c-.15.15-.15.3-.15.44l.15-.44zm-7.84-1.33c.3-1.18.3-2.37-.15-3.55-.15-.44-.3-1.03-.59-1.33-.74-1.48-2.22-2.66-3.84-3.1-1.77-.44-3.55-.15-5.03.59-1.48.89-2.66 2.22-3.1 3.99L80.7 63.65l-13.01 47.91c-.74 2.81-.3 5.62 1.03 7.98 1.04 1.92 2.81 3.4 4.88 4.44l7.1-2.96 6.95-2.96c.15-.3.15-.59.3-1.03l.59-2.07-7.69-2.07 16.26-60.03.15-.3zm311.69 9.71v31.55c0 6.12 1.41 10.83 4.47 14.13 3.06 3.3 7.54 4.71 13.42 4.71 1.65 0 3.77 0 6.36-.47 2.35-.24 4.47-.47 6.12-.94v-11.3c-1.41.24-2.35.47-3.3.71-.71.24-1.88.24-3.06.24-2.83 0-4.94-.71-6.12-1.88-1.18-1.41-1.88-4.24-1.88-8.95v-27.8h14.36V50.26h-14.36V33.07l-16.01 4.94v12.24h-12.24v12.01h12.24zM235.18 50.26v61.46h16.25V50.26h-5.19zm-25.2 0L197.5 88.41l-2.59 8.95-1.88-6.36-.71-2.59-12.95-38.15h-17.66l23.08 61.46h18.84l22.84-61.46zm142.7 62.4c2.35 0 4.71-.24 6.83-.71 2.83-.47 5.18-1.65 7.3-3.3 2.12-1.41 3.77-3.3 5.42-5.89v8.95H388V73.1c0-6.59-1.41-11.77-4.47-15.31-4.24-5.65-11.77-8.48-22.84-8.48h-1.18c-3.77.24-7.06.47-10.6.94-3.53.71-7.3 1.65-10.83 3.06v12.72c3.53-1.88 7.06-3.3 10.12-4 3.06-.94 6.36-1.41 9.65-1.41h1.65c2.12.24 4.24.71 6.12 1.41 4 1.88 6.12 4.94 6.12 9.18v2.59H359.5c-10.83.24-18.37 2.59-23.31 7.06-3.53 3.3-5.42 7.77-5.42 13.19s1.65 9.65 5.18 12.95c3.78 3.78 9.43 5.66 16.73 5.66zm2.12-27.55c1.18-.24 2.59-.71 4.71-.71 2.35-.24 5.65-.47 9.42-.47h2.83v1.65c0 5.89-1.65 10.36-4.94 13.19-2.12 1.65-4.47 2.59-7.3 3.06h-2.59c-3.3 0-5.65-.71-7.3-2.12-1.65-1.65-2.35-3.53-2.35-5.89-.02-4.23 2.33-7.29 7.52-8.71zm-29.44-34.85h-16.48l-3.53 10.84-8.95 27.31-2.59 8.95-2.36-8.95-12.24-36.03-.71-2.12h-17.66l18.37 49.22 4.71 12.24h18.84l2.59-7.06 12.71-33.91z"/></svg>