<svg width="269" height="56" fill="none" xmlns="http://www.w3.org/2000/svg"><path d="M93.085 42h5.419l1.26-16.674c.126-1.974.041-4.662.041-4.662h.084s.924 2.94 1.638 4.662l4.788 11.55h4.746l4.83-11.55c.714-1.722 1.596-4.62 1.596-4.62h.084s-.084 2.646.042 4.62L118.873 42h5.376l-2.394-29.82h-5.796l-5.838 14.742c-.672 1.764-1.47 4.368-1.47 4.368h-.084s-.84-2.604-1.512-4.368l-5.838-14.742h-5.795L93.085 42Zm35.446-10.71c0 6.09 4.41 11.214 11.508 11.214 5.334 0 8.61-3.066 8.61-3.066l-2.058-3.822s-2.73 2.352-6.174 2.352c-3.192 0-6.09-1.932-6.426-5.67h14.784s.126-1.428.126-2.058c0-5.67-3.318-10.164-9.492-10.164-6.384 0-10.878 4.62-10.878 11.214Zm5.628-2.646c.504-2.772 2.394-4.452 5.124-4.452 2.352 0 4.158 1.554 4.242 4.452h-9.366Zm20.063 5.502c0 7.182 5.922 8.064 8.904 8.064 1.008 0 1.638-.126 1.638-.126v-4.662s-.378.084-.966.084c-1.47 0-4.242-.504-4.242-4.032v-8.316h4.872v-4.242h-4.872v-6.174h-5.208v6.174h-2.898v4.242h2.772v8.988ZM169.13 42h5.334v-8.484c0-1.26.126-2.436.462-3.486 1.008-3.192 3.57-4.494 5.838-4.494.714 0 1.26.084 1.26.084v-5.25s-.462-.084-.966-.084c-3.276 0-5.838 2.436-6.804 5.502h-.084s.084-.714.084-1.512V20.58h-5.124V42Zm14.893-10.71c0 6.594 5.25 11.214 11.802 11.214 6.51 0 11.76-4.62 11.76-11.214 0-6.552-5.25-11.214-11.802-11.214-6.51 0-11.76 4.662-11.76 11.214Zm5.418 0c0-3.948 2.898-6.678 6.384-6.678 3.444 0 6.342 2.73 6.342 6.678 0 3.99-2.898 6.678-6.342 6.678-3.486 0-6.384-2.688-6.384-6.678ZM211.869 42h5.334v-9.828c0-1.008.084-1.974.378-2.856.798-2.562 2.898-4.368 5.754-4.368 2.73 0 3.402 1.764 3.402 4.368V42h5.292V28.224c0-5.67-2.688-8.148-7.434-8.148-4.326 0-6.678 2.646-7.602 4.452h-.084s.084-.672.084-1.47V20.58h-5.124V42Zm25.758-25.074h5.292V12.18h-5.292v4.746Zm0 25.074h5.334V20.58h-5.334V42Zm9.643-10.71c0 6.216 4.536 11.214 11.634 11.214 5.754 0 8.82-3.486 8.82-3.486l-2.058-3.78s-2.688 2.73-6.3 2.73c-4.074 0-6.678-3.108-6.678-6.72 0-3.654 2.562-6.636 6.51-6.636 3.36 0 5.586 2.31 5.586 2.31l2.352-3.654s-2.646-3.192-8.232-3.192c-7.098 0-11.634 5.124-11.634 11.214Z" fill="#fff"/><path d="M61.114 2.777 76.323 50.13c.829 2.582-1.097 5.223-3.809 5.223H61.331a4 4 0 0 1-3.813-2.789L42.483 5.211C41.663 2.63 43.589 0 46.295 0h11.01a4 4 0 0 1 3.809 2.777Z" fill="#EF305E"/><g filter="url(#a)"><path d="M46.548 37.8 35.825 3.45a4.913 4.913 0 0 0-9.597 1.213L24.919 30.34a8.002 8.002 0 0 0 .325 2.7l5.822 19.46a4 4 0 0 0 3.832 2.854h5.411a4 4 0 0 0 3.811-2.784l2.407-7.548c.748-2.347.756-4.869.021-7.221Z" fill="#fff"/><path d="M46.548 37.8 35.825 3.45a4.913 4.913 0 0 0-9.597 1.213L24.919 30.34a8.002 8.002 0 0 0 .325 2.7l5.822 19.46a4 4 0 0 0 3.832 2.854h5.411a4 4 0 0 0 3.811-2.784l2.407-7.548c.748-2.347.756-4.869.021-7.221Z" fill="url(#b)"/></g><path d="M20.317 0h11.015c2.697 0 4.62 2.615 3.819 5.19L20.269 52.947a4 4 0 0 1-3.818 2.81H5.436c-2.697 0-4.621-2.614-3.819-5.19L16.498 2.81A4 4 0 0 1 20.317 0Z" fill="#EF305E"/><defs><linearGradient id="b" x1="29" y1="24.5" x2="40.5" y2="27.5" gradientUnits="userSpaceOnUse"><stop stop-opacity=".25"/><stop offset=".911" stop-color="#fff" stop-opacity="0"/></linearGradient><filter id="a" x="24.908" y="0" width="22.185" height="55.353" filterUnits="userSpaceOnUse" color-interpolation-filters="sRGB"><feFlood flood-opacity="0" result="BackgroundImageFix"/><feBlend in="SourceGraphic" in2="BackgroundImageFix" result="shape"/><feColorMatrix in="SourceAlpha" values="0 0 0 0 0 0 0 0 0 0 0 0 0 0 0 0 0 0 127 0" result="hardAlpha"/><feOffset dx="-4" dy="3"/><feComposite in2="hardAlpha" operator="arithmetic" k2="-1" k3="1"/><feColorMatrix values="0 0 0 0 0.904167 0 0 0 0 0.892865 0 0 0 0 0.892865 0 0 0 0.4 0"/><feBlend in2="shape" result="effect1_innerShadow"/></filter></defs></svg>