<svg width="40" height="40" viewBox="0 0 40 40" fill="none" xmlns="http://www.w3.org/2000/svg">
<g clip-path="url(#clip0_578_4588)">
<path d="M7.40797 38.7631H2.12891V16.2725L7.40797 13.0732V38.7631Z" fill="#DFC58A"/>
<path d="M34.4688 28.8379H30.3713V24.4882H34.4688V28.8379Z" fill="#DFC58A"/>
<path d="M26.9434 28.8379H22.8459V24.4882H26.9434V28.8379Z" fill="#DFC58A"/>
<path d="M34.4688 20.7715H30.3713V16.4218H34.4688V20.7715Z" fill="#DFC58A"/>
<path d="M26.9434 20.7715H22.8459V16.4218H26.9434V20.7715Z" fill="#DFC58A"/>
<path d="M34.4688 12.7051H30.3713V8.35539H34.4688V12.7051Z" fill="#DFC58A"/>
<path d="M26.9434 12.7051H22.8459V8.35539H26.9434V12.7051Z" fill="#DFC58A"/>
<path d="M10.8105 28.8194H16.0402C16.4717 28.8194 16.8215 28.4696 16.8215 28.0382V23.6885C16.8215 23.257 16.4717 22.9072 16.0402 22.9072H10.8105C10.3791 22.9072 10.0293 23.257 10.0293 23.6885V28.0382C10.0293 28.4696 10.3791 28.8194 10.8105 28.8194ZM11.5918 24.4697H15.259V27.2569H11.5918V24.4697Z" fill="#F7F3E3"/>
<path d="M10.8105 19.9542H16.0402C16.4717 19.9542 16.8215 19.6044 16.8215 19.1729V14.8232C16.8215 14.3918 16.4717 14.042 16.0402 14.042H10.8105C10.3791 14.042 10.0293 14.3918 10.0293 14.8232V19.1729C10.0293 19.6044 10.3791 19.9542 10.8105 19.9542ZM11.5918 15.6045H15.259V18.3917H11.5918V15.6045Z" fill="#F7F3E3"/>
<path d="M39.2188 37.9814H38.6509V5.23647C38.6509 4.86881 38.3946 4.551 38.0353 4.47303L19.6089 0.473887C19.3778 0.423652 19.1368 0.48084 18.9529 0.629199C18.7689 0.77748 18.662 1.00107 18.662 1.2374V3.9267L7.16297 7.74803C6.84359 7.85412 6.62812 8.15287 6.62812 8.48943V37.9815H0.78125C0.349766 37.9815 0 38.3312 0 38.7627C0 39.1942 0.349766 39.544 0.78125 39.544H39.2188C39.6502 39.544 40 39.1942 40 38.7627C40 38.3312 39.6502 37.9814 39.2188 37.9814ZM8.19062 9.05303L18.662 5.57318V37.9815H16.2852V32.8644C16.2852 32.433 15.9354 32.0832 15.5039 32.0832H11.3487C10.9172 32.0832 10.5674 32.433 10.5674 32.8644V37.9815H8.19062V9.05303ZM12.1299 37.9814V33.6456H14.7227V37.9814H12.1299ZM26.5609 37.9814V33.6456H30.7519V37.9814H26.5609ZM32.3144 37.9814V32.8644C32.3144 32.4329 31.9645 32.0831 31.5331 32.0831H25.7797C25.3483 32.0831 24.9984 32.4329 24.9984 32.8644V37.9814H20.2245V2.20639L37.0884 5.86639V37.9815H32.3144V37.9814Z" fill="#F7F3E3"/>
</g>
<defs>
<clipPath id="clip0_578_4588">
<rect width="40" height="40" fill="white"/>
</clipPath>
</defs>
</svg>
