<svg width="40" height="40" viewBox="0 0 40 40" fill="none" xmlns="http://www.w3.org/2000/svg">
<g clip-path="url(#clip0_578_4617)">
<path d="M19.9974 31.5915C24.5372 31.5915 28.2175 27.9113 28.2175 23.3714C28.2175 18.8316 24.5372 15.1514 19.9974 15.1514C15.4576 15.1514 11.7773 18.8316 11.7773 23.3714C11.7773 27.9113 15.4576 31.5915 19.9974 31.5915Z" fill="#DFC58A"/>
<path d="M19.9177 19.0645C19.4951 19.0645 19.1509 19.4 19.1369 19.8192C19.1082 19.8271 19.0794 19.8354 19.0505 19.8441C18.2738 20.0781 17.6877 20.8295 17.6253 21.6716C17.5631 22.5102 18.0061 23.2372 18.8102 23.6163C19.055 23.7318 19.5919 23.9381 20.2831 24.1825C20.7851 24.3599 21.0091 24.757 20.9709 25.0574C20.9226 25.4378 20.4824 25.5324 20.2244 25.555C19.748 25.5965 19.1217 25.46 18.8467 25.1186C18.5761 24.7827 18.0843 24.7296 17.7482 25.0002C17.4122 25.2709 17.3592 25.7628 17.6299 26.0988C18.0239 26.5879 18.5834 26.8711 19.1444 27.0115C19.1986 27.39 19.5241 27.6811 19.9177 27.6811C20.2918 27.6811 20.6045 27.418 20.681 27.0668C21.6941 26.8702 22.4029 26.184 22.5209 25.2542C22.6596 24.1621 21.9535 23.1156 20.8038 22.7092C20.0559 22.4448 19.6214 22.2713 19.4766 22.203C19.1961 22.0708 19.175 21.9023 19.1835 21.7872C19.1984 21.5858 19.338 21.3895 19.5011 21.3403C20.2428 21.1168 20.6332 21.3852 20.7116 21.4969C20.9595 21.8502 21.4467 21.9355 21.7998 21.6877C22.1531 21.4399 22.2385 20.9527 21.9907 20.5995C21.7291 20.2267 21.2783 19.9087 20.6952 19.7689C20.6566 19.3734 20.3232 19.0645 19.9177 19.0645Z" fill="#F7F3E3"/>
<path d="M39.0852 17.0183L34.6491 12.9621C34.6506 12.9426 34.6513 12.9229 34.6513 12.9031V4.11566C34.6513 3.68426 34.3014 3.33441 33.87 3.33441H29.1657C28.7343 3.33441 28.3845 3.68426 28.3845 4.11566V7.23394L20.6968 0.204727C20.3984 -0.0682422 19.9409 -0.0682422 19.6424 0.204727L1.25407 17.0183C1.09282 17.1658 1.00063 17.374 1 17.5926C0.999378 17.8111 1.09024 18.02 1.25063 18.1683L4.53141 21.2041C4.82946 21.4798 5.28914 21.4813 5.58899 21.2075L6.72508 20.1694V34.0912H4.37071C3.93922 34.0912 3.58946 34.4411 3.58946 34.8725V39.2187C3.58946 39.6501 3.93922 40 4.37071 40H35.9686C36.4 40 36.7498 39.6501 36.7498 39.2187V34.8725C36.7498 34.4411 36.4 34.0912 35.9686 34.0912H33.6141V20.1695L34.7502 21.2075C34.8995 21.3439 35.0884 21.412 35.2772 21.412C35.4677 21.412 35.6581 21.3426 35.8078 21.2042L39.0886 18.1684C39.249 18.02 39.3398 17.8112 39.3392 17.5927C39.3386 17.374 39.2465 17.1658 39.0852 17.0183ZM29.947 4.89691H33.0888V11.5354L29.947 8.66262V4.89691ZM35.1873 38.4375H5.15196V35.6537H35.1873V38.4375ZM32.0516 18.7626V34.0913H8.28766V18.7626C8.28766 18.7557 8.28758 18.7489 8.28743 18.7421L20.1696 7.88566L32.052 18.7421C32.0517 18.7489 32.0516 18.7557 32.0516 18.7626ZM35.2738 19.5694L20.6966 6.25059C20.5473 6.11426 20.3585 6.04613 20.1696 6.04613C19.9808 6.04613 19.7919 6.11426 19.6427 6.25059L5.06539 19.5694L2.93524 17.5984L20.1696 1.8398L37.404 17.5983L35.2738 19.5694Z" fill="#F7F3E3"/>
</g>
<defs>
<clipPath id="clip0_578_4617">
<rect width="40" height="40" fill="white"/>
</clipPath>
</defs>
</svg>
