<svg width="40" height="40" viewBox="0 0 40 40" fill="none" xmlns="http://www.w3.org/2000/svg">
<path d="M14.4141 8.04688H25.5798V13.7932H14.4141V8.04688Z" fill="#DFC58A"/>
<path d="M14.4141 18.2402H17.2592V25.1219H14.4141V18.2402Z" fill="#DFC58A"/>
<path d="M34.5309 38.4375H33.3152V2.90203C33.3152 1.30187 32.0133 0 30.4131 0H9.58266C7.9825 0 6.68062 1.30187 6.68062 2.90203V38.4375H5.46484C5.03336 38.4375 4.68359 38.7873 4.68359 39.2188C4.68359 39.6502 5.03336 40 5.46484 40H34.5309C34.9624 40 35.3122 39.6502 35.3122 39.2188C35.3122 38.7873 34.9624 38.4375 34.5309 38.4375ZM11.6806 38.4375V5H28.3152V38.4375H11.6806ZM29.8777 38.4375V4.21875C29.8777 3.78727 29.5279 3.4375 29.0964 3.4375H10.8994C10.4679 3.4375 10.1181 3.78727 10.1181 4.21875V38.4375H8.24312V2.90203C8.24312 2.16344 8.84398 1.5625 9.58266 1.5625H30.4132C31.1518 1.5625 31.7527 2.16336 31.7527 2.90203V38.4375H29.8777Z" fill="#F7F3E3"/>
<path d="M25.3548 35.0166H14.6406C14.2091 35.0166 13.8594 35.3664 13.8594 35.7979C13.8594 36.2293 14.2091 36.5791 14.6406 36.5791H25.3548C25.7863 36.5791 26.1361 36.2293 26.1361 35.7979C26.1361 35.3664 25.7863 35.0166 25.3548 35.0166Z" fill="#F7F3E3"/>
</svg>
