<svg width="40" height="40" viewBox="0 0 40 40" fill="none" xmlns="http://www.w3.org/2000/svg">
<g clip-path="url(#clip0_578_4642)">
<path fill-rule="evenodd" clip-rule="evenodd" d="M8.28125 8.28125H31.7187V31.7187H8.28125V8.28125Z" fill="#DFC58A"/>
<path d="M0.78125 22.7344H1.95312V23.1641C1.95312 23.5955 2.30289 23.9453 2.73438 23.9453C3.16586 23.9453 3.51562 23.5955 3.51562 23.1641V22.7344H4.6875C5.11898 22.7344 5.46875 22.3846 5.46875 21.9531V18.0469C5.46875 17.6154 5.11898 17.2656 4.6875 17.2656H3.51562V16.8359C3.51562 16.4045 3.16586 16.0547 2.73438 16.0547C2.30289 16.0547 1.95312 16.4045 1.95312 16.8359V17.2656H0.78125C0.349766 17.2656 0 17.6154 0 18.0469V21.9531C0 22.3846 0.349766 22.7344 0.78125 22.7344ZM1.5625 18.828H3.90625V21.1718H1.5625V18.828Z" fill="#F7F3E3"/>
<path d="M39.2188 0H35.3125C34.8811 0 34.5312 0.349766 34.5312 0.78125V1.95312H34.1016C33.6702 1.95312 33.3203 2.30289 33.3203 2.73437C33.3203 3.16586 33.6702 3.51562 34.1016 3.51562H34.5312V4.6875C34.5312 5.11898 34.8811 5.46875 35.3125 5.46875H36.4844V5.89852C36.4844 6.33 36.8342 6.67976 37.2656 6.67976C37.697 6.67976 38.0469 6.33 38.0469 5.89852V5.46875H39.2188C39.6502 5.46875 40 5.11898 40 4.6875V0.78125C40 0.349766 39.6502 0 39.2188 0ZM38.4375 3.90625H36.0938V1.5625H38.4375V3.90625Z" fill="#F7F3E3"/>
<path d="M39.2188 17.2656H38.0469V16.8359C38.0469 16.4045 37.697 16.0547 37.2656 16.0547C36.8342 16.0547 36.4844 16.4045 36.4844 16.8359V17.2656H35.3125C34.8811 17.2656 34.5312 17.6154 34.5312 18.0469V21.9531C34.5312 22.3846 34.8811 22.7344 35.3125 22.7344H36.4844V23.1641C36.4844 23.5956 36.8342 23.9454 37.2656 23.9454C37.697 23.9454 38.0469 23.5956 38.0469 23.1641V22.7344H39.2188C39.6502 22.7344 40 22.3846 40 21.9531V18.0469C40 17.6155 39.6502 17.2656 39.2188 17.2656ZM38.4375 21.172H36.0938V18.8282H38.4375V21.172Z" fill="#F7F3E3"/>
<path d="M39.2188 34.5312H38.047V34.1016C38.047 33.6701 37.6971 33.3203 37.2657 33.3203C36.8343 33.3203 36.4845 33.6701 36.4845 34.1016V34.5312H35.3126C34.8812 34.5312 34.5313 34.881 34.5313 35.3125V36.4844H34.1016C33.6702 36.4844 33.3203 36.8341 33.3203 37.2656C33.3203 37.6971 33.6702 38.0469 34.1016 38.0469H34.5313V39.2188C34.5313 39.6502 34.8812 40 35.3126 40H39.2188C39.6502 40 40.0001 39.6502 40.0001 39.2188V35.3125C40.0001 34.8811 39.6502 34.5312 39.2188 34.5312ZM38.4376 38.4376H36.0938V36.0938H38.4376V38.4376Z" fill="#F7F3E3"/>
<path d="M20 17.2656C19.5685 17.2656 19.2188 17.6154 19.2188 18.0469V19.2188H18.0469C17.6154 19.2188 17.2656 19.5685 17.2656 20C17.2656 20.4315 17.6154 20.7812 18.0469 20.7812H19.2188V21.9531C19.2188 22.3846 19.5685 22.7344 20 22.7344C20.4315 22.7344 20.7812 22.3846 20.7812 21.9531V20.7812H21.9531C22.3845 20.7812 22.7344 20.4315 22.7344 20C22.7344 19.5685 22.3845 19.2188 21.9531 19.2188H20.7812V18.0469C20.7813 17.6154 20.4315 17.2656 20 17.2656Z" fill="#F7F3E3"/>
<path d="M5.89859 1.95312H5.46883V0.78125C5.46883 0.349766 5.11906 0 4.68758 0H0.78125C0.349766 0 0 0.349766 0 0.78125V4.6875C0 5.11898 0.349766 5.46875 0.78125 5.46875H1.95312V5.89844C1.95312 6.32992 2.30289 6.67969 2.73438 6.67969C3.16586 6.67969 3.51562 6.32992 3.51562 5.89844V5.46875H4.6875C5.11898 5.46875 5.46875 5.11898 5.46875 4.6875V3.51562H5.89852C6.93383 3.47734 6.93344 1.99117 5.89859 1.95312ZM3.90633 3.90625H1.5625V1.5625H3.90625L3.90633 3.90625Z" fill="#F7F3E3"/>
<path d="M9.80558 1.95312H9.02433C7.98933 1.99133 7.98925 3.47742 9.02433 3.51562H9.80558C10.8406 3.47742 10.8407 1.99133 9.80558 1.95312Z" fill="#F7F3E3"/>
<path d="M13.7118 1.95312H12.9306C11.8956 1.99133 11.8955 3.47742 12.9306 3.51562H13.7118C14.7468 3.47742 14.747 1.99133 13.7118 1.95312Z" fill="#F7F3E3"/>
<path d="M23.1641 1.95312H22.7344V0.78125C22.7344 0.349766 22.3845 0 21.9531 0H18.0469C17.6154 0 17.2656 0.349766 17.2656 0.78125V1.95312H16.8359C16.4045 1.95312 16.0547 2.30289 16.0547 2.73438C16.0547 3.16586 16.4045 3.51562 16.8359 3.51562H17.2656V4.6875C17.2656 5.11898 17.6154 5.46875 18.0469 5.46875H21.9531C22.3845 5.46875 22.7344 5.11898 22.7344 4.6875V3.51562H23.1641C24.1994 3.47734 24.1989 1.99125 23.1641 1.95312ZM21.1719 3.90625H18.8281V1.5625H21.1719V3.90625Z" fill="#F7F3E3"/>
<path d="M27.0712 1.95312H26.29C25.255 1.99133 25.2549 3.47742 26.29 3.51562H27.0712C28.1062 3.47742 28.1063 1.99133 27.0712 1.95312Z" fill="#F7F3E3"/>
<path d="M30.9775 1.95312H30.1962C29.1612 1.99133 29.1611 3.47742 30.1962 3.51562H30.9775C32.0125 3.47742 32.0125 1.99133 30.9775 1.95312Z" fill="#F7F3E3"/>
<path d="M2.73438 29.4141C2.30289 29.4141 1.95312 29.7638 1.95312 30.1953V30.9766C1.99133 32.0116 3.47742 32.0116 3.51562 30.9766V30.1953C3.51562 29.7638 3.16586 29.4141 2.73438 29.4141Z" fill="#F7F3E3"/>
<path d="M3.51562 26.2909C3.47742 25.2559 1.99133 25.2558 1.95312 26.2909V27.0722C1.99133 28.1072 3.47742 28.1073 3.51562 27.0722V26.2909Z" fill="#F7F3E3"/>
<path d="M1.95312 13.7128C1.99133 14.7478 3.47742 14.7479 3.51562 13.7128V12.9316C3.47742 11.8966 1.99133 11.8965 1.95312 12.9316V13.7128Z" fill="#F7F3E3"/>
<path d="M2.73438 10.5878C3.16586 10.5878 3.51562 10.238 3.51562 9.80655V9.0253C3.47742 7.9903 1.99133 7.99022 1.95312 9.0253V9.80655C1.95312 10.238 2.30289 10.5878 2.73438 10.5878Z" fill="#F7F3E3"/>
<path d="M30.9775 36.4844H30.1962C29.1612 36.5226 29.1611 38.0087 30.1962 38.0469H30.9775C32.0125 38.0087 32.0125 36.5226 30.9775 36.4844Z" fill="#F7F3E3"/>
<path d="M27.0712 36.4844H26.29C25.255 36.5226 25.2549 38.0087 26.29 38.0469H27.0712C28.1062 38.0087 28.1063 36.5226 27.0712 36.4844Z" fill="#F7F3E3"/>
<path d="M23.1642 36.4844H22.7345V35.3125C22.7345 34.881 22.3847 34.5312 21.9533 34.5312H18.047C17.6155 34.5312 17.2658 34.881 17.2658 35.3125V36.4844H16.8359C16.4045 36.4844 16.0547 36.8341 16.0547 37.2656C16.0547 37.6971 16.4045 38.0469 16.8359 38.0469H17.2657V39.2188C17.2657 39.6502 17.6155 40 18.047 40H21.9532C22.3846 40 22.7345 39.6502 22.7345 39.2188V38.0469H23.1641C24.1995 38.0086 24.199 36.5225 23.1642 36.4844ZM21.172 38.4375H18.8283V36.0938H21.172V38.4375Z" fill="#F7F3E3"/>
<path d="M13.7118 36.4844H12.9306C11.8956 36.5226 11.8955 38.0087 12.9306 38.0469H13.7118C14.7468 38.0087 14.747 36.5226 13.7118 36.4844Z" fill="#F7F3E3"/>
<path d="M9.80558 36.4844H9.02433C7.98933 36.5226 7.98925 38.0087 9.02433 38.0469H9.80558C10.8406 38.0087 10.8407 36.5226 9.80558 36.4844Z" fill="#F7F3E3"/>
<path d="M5.89852 36.4845H5.46883V35.3127C5.46883 34.8812 5.11906 34.5314 4.68758 34.5314H3.51562V34.1016C3.51562 33.6701 3.16586 33.3203 2.73437 33.3203C2.30289 33.3203 1.95312 33.6701 1.95312 34.1016V34.5313H0.78125C0.349766 34.5313 0 34.8811 0 35.3126V39.2188C0 39.6503 0.349766 40.0001 0.78125 40.0001H4.6875C5.11898 40.0001 5.46875 39.6503 5.46875 39.2188V38.047H5.89844C6.93375 38.0088 6.93336 36.5226 5.89852 36.4845ZM3.90633 38.4377H1.5625V36.0939H3.90625L3.90633 38.4377Z" fill="#F7F3E3"/>
<path d="M37.2656 10.5878C37.697 10.5878 38.0469 10.238 38.0469 9.80655V9.0253C38.0087 7.9903 36.5226 7.99022 36.4844 9.0253V9.80655C36.4844 10.238 36.8341 10.5878 37.2656 10.5878Z" fill="#F7F3E3"/>
<path d="M36.4844 13.7128C36.5226 14.7478 38.0087 14.7479 38.0469 13.7128V12.9316C38.0087 11.8966 36.5226 11.8965 36.4844 12.9316V13.7128Z" fill="#F7F3E3"/>
<path d="M37.2656 27.8534C37.697 27.8534 38.0469 27.5037 38.0469 27.0722V26.2909C38.0087 25.2559 36.5226 25.2558 36.4844 26.2909V27.0722C36.4844 27.5037 36.8341 27.8534 37.2656 27.8534Z" fill="#F7F3E3"/>
<path d="M36.4844 30.9784C36.5226 32.0134 38.0087 32.0135 38.0469 30.9784V30.1972C38.0087 29.1622 36.5226 29.1621 36.4844 30.1972V30.9784Z" fill="#F7F3E3"/>
</g>
<defs>
<clipPath id="clip0_578_4642">
<rect width="40" height="40" fill="white"/>
</clipPath>
</defs>
</svg>
