<svg width="40" height="40" viewBox="0 0 40 40" fill="none" xmlns="http://www.w3.org/2000/svg">
<g clip-path="url(#clip0_578_4675)">
<path d="M16.4707 22.7461H39.2195V39.2193H16.4707V22.7461Z" fill="#DFC58A"/>
<path d="M36.8655 0H25.3813C25.1809 0 24.9827 0.0813281 24.8412 0.216719L0.241172 23.7499C0.0871094 23.8973 0 24.1012 0 24.3145V39.2188C0 39.6502 0.349766 40 0.78125 40H39.2188C39.6502 40 40 39.6502 40 39.2188V3.13461C40 1.40617 38.5938 0 36.8655 0ZM7.7125 18.7649L12.3001 14.3763V24.6H7.7125V18.7649ZM13.8625 12.8816L18.45 8.49305V18.45H13.8625V12.8816ZM20.0125 6.99828L24.6 2.60977V12.3H20.0125V6.99828ZM26.1625 1.5625H30.75V6.15H26.1625V1.5625ZM6.15 20.2597V30.75H1.5625V24.6482L6.15 20.2597ZM38.4375 38.4375H1.5625V32.3125H6.93125C7.36266 32.3125 7.7125 31.9627 7.7125 31.5312V26.1625H13.0813C13.5128 26.1625 13.8626 25.8127 13.8626 25.3813V20.0125H19.2313C19.6627 20.0125 20.0126 19.6627 20.0126 19.2313V13.8625H25.3813C25.8127 13.8625 26.1626 13.5127 26.1626 13.0813V7.7125H31.5313C31.9627 7.7125 32.3126 7.36273 32.3126 6.93125V1.5625H36.8655C37.7323 1.5625 38.4375 2.26773 38.4375 3.13461V38.4375Z" fill="#F7F3E3"/>
<path d="M28.4948 25.4501C28.1864 24.9874 27.5042 24.9859 27.1947 25.4501L24.057 30.1568C23.8971 30.3965 23.8823 30.7048 24.0182 30.9588C24.1542 31.2128 24.4189 31.3714 24.707 31.3714H25.4946V36.0812C25.4946 36.5126 25.8444 36.8625 26.2758 36.8625H29.4136C29.845 36.8625 30.1949 36.5126 30.1949 36.0812V31.3714H30.9825C31.605 31.3714 31.9785 30.6756 31.6325 30.1568L28.4948 25.4501ZM29.4137 29.8089C28.9823 29.8089 28.6325 30.1587 28.6325 30.5901V35.3H27.0571V30.5901C27.0571 30.1587 26.7073 29.8089 26.2759 29.8089H26.1668L27.8448 27.2919L29.5228 29.8089H29.4137Z" fill="#F7F3E3"/>
</g>
<defs>
<clipPath id="clip0_578_4675">
<rect width="40" height="40" fill="white"/>
</clipPath>
</defs>
</svg>
