<?xml version="1.0" standalone="no"?>
<!DOCTYPE svg PUBLIC "-//W3C//DTD SVG 20010904//EN"
 "http://www.w3.org/TR/2001/REC-SVG-20010904/DTD/svg10.dtd">
<svg version="1.0" xmlns="http://www.w3.org/2000/svg"
 width="512.000000pt" height="512.000000pt" viewBox="0 0 512.000000 512.000000"
 preserveAspectRatio="xMidYMid meet">

<g transform="translate(0.000000,512.000000) scale(0.100000,-0.100000)"
fill="#4f6457" stroke="none">
<path d="M3220 4909 c-215 -13 -400 -63 -605 -165 -297 -146 -531 -369 -696
-665 -57 -101 -64 -109 -91 -109 -54 0 -273 -49 -364 -81 -107 -38 -227 -97
-308 -152 -139 -94 -283 -260 -345 -399 -16 -35 -77 -204 -137 -376 l-109
-313 -114 -147 c-248 -319 -241 -308 -241 -358 0 -39 5 -51 33 -78 30 -30 41
-34 175 -56 l142 -23 0 -433 0 -433 26 -20 c76 -60 299 -88 452 -57 45 9 89
19 97 22 13 5 15 -43 15 -408 0 -342 2 -418 14 -434 14 -18 34 -19 683 -22
367 -2 683 0 701 3 21 4 36 14 42 28 5 12 13 203 18 424 l9 402 70 78 c147
166 257 328 363 534 l72 141 35 -7 c58 -11 311 -8 403 5 530 71 986 395 1224
867 58 114 120 302 142 428 20 117 22 363 5 470 -90 548 -442 994 -955 1211
-232 98 -485 139 -756 123z m376 -119 c323 -55 588 -192 820 -424 213 -214
338 -444 401 -736 26 -121 25 -440 -1 -560 -132 -608 -631 -1067 -1260 -1160
-115 -17 -346 -14 -462 5 -95 16 -258 62 -354 100 l-45 18 -303 -93 c-167 -50
-305 -90 -307 -88 -3 2 50 87 115 188 66 101 123 192 126 202 4 14 -16 42 -74
102 -223 237 -357 504 -402 806 -16 108 -14 319 5 435 18 115 78 301 128 402
142 281 410 542 697 677 140 66 328 121 475 139 99 13 331 6 441 -13z m-1781
-937 c-17 -46 -54 -185 -66 -253 -21 -114 -18 -383 5 -505 54 -291 192 -569
387 -779 l66 -71 -154 -235 c-84 -129 -153 -241 -153 -248 0 -29 21 -52 48
-52 15 0 187 49 382 108 l355 108 93 -33 c51 -18 123 -40 160 -49 37 -10 68
-18 70 -19 7 -6 -103 -213 -160 -304 -76 -121 -149 -218 -252 -334 l-81 -92
-7 -250 c-3 -137 -7 -314 -7 -392 l-1 -143 -625 0 -625 0 0 428 c0 320 -3 431
-12 440 -17 17 -37 15 -135 -15 -113 -34 -294 -39 -386 -10 l-57 18 0 439 c0
373 -2 441 -15 453 -8 8 -58 23 -112 32 -204 36 -218 39 -217 56 1 9 77 112
170 230 l168 214 49 140 c27 77 80 232 118 344 39 113 86 235 105 271 134 255
420 436 797 505 99 18 100 18 92 -2z"/>
<path d="M3392 4381 c-154 -39 -302 -134 -399 -256 -125 -157 -178 -325 -203
-650 -13 -163 -25 -243 -47 -297 -14 -36 -17 -38 -60 -38 -90 0 -153 -66 -153
-161 0 -42 6 -63 26 -92 22 -33 24 -42 15 -69 -20 -55 -13 -148 13 -203 14
-27 33 -60 43 -71 31 -37 143 -113 181 -124 83 -23 187 -6 252 40 24 17 33 18
60 9 69 -24 147 2 194 65 22 29 28 117 12 163 -7 19 0 27 53 62 34 21 132 67
219 101 276 109 418 197 527 328 70 83 138 222 161 326 24 114 16 273 -20 381
-75 223 -247 395 -471 471 -108 36 -293 43 -403 15z m376 -114 c98 -34 171
-80 244 -152 198 -198 243 -489 114 -740 -98 -190 -207 -273 -541 -412 -189
-78 -246 -107 -307 -155 l-38 -29 -45 32 -44 32 33 46 c180 248 268 366 274
369 5 1 32 -16 62 -38 30 -22 72 -45 94 -51 119 -32 245 51 262 171 22 163
-144 288 -292 221 -36 -17 -62 -42 -131 -129 l-18 -23 -32 23 c-18 13 -33 27
-33 32 0 4 14 25 30 46 52 66 73 126 67 189 -21 197 -283 255 -383 85 -62
-106 -34 -214 76 -294 33 -24 59 -47 58 -51 -2 -4 -70 -100 -153 -212 -162
-222 -151 -213 -213 -160 l-33 28 16 39 c24 57 42 162 55 321 14 182 36 313
67 400 58 162 185 310 325 377 64 31 92 40 183 62 11 3 67 4 125 2 81 -3 122
-9 178 -29z m-451 -507 c21 -13 36 -32 44 -58 13 -45 0 -81 -50 -141 -25 -30
-30 -32 -50 -21 -13 6 -40 27 -62 47 -46 42 -58 86 -35 131 32 62 93 79 153
42z m425 -309 c28 -25 33 -36 33 -76 0 -40 -5 -51 -33 -76 -46 -41 -92 -39
-160 6 -28 20 -52 40 -52 46 0 16 68 107 88 119 35 20 90 11 124 -19z m-371
-135 c-5 -6 -73 -99 -151 -206 -78 -107 -144 -196 -145 -198 -5 -5 -75 42 -72
49 1 3 69 99 151 212 l149 205 39 -25 c25 -17 35 -30 29 -37z m-401 -465 c271
-200 288 -217 256 -265 -33 -51 -54 -40 -327 160 -140 103 -257 192 -261 198
-13 19 -9 59 9 78 34 38 59 25 323 -171z m-62 -235 c50 -37 92 -69 92 -72 0
-12 -66 -34 -105 -34 -108 0 -234 116 -235 217 0 66 7 66 83 10 40 -29 114
-84 165 -121z"/>
</g>
</svg>
