<?xml version="1.0" standalone="no"?>
<!DOCTYPE svg PUBLIC "-//W3C//DTD SVG 20010904//EN"
 "http://www.w3.org/TR/2001/REC-SVG-20010904/DTD/svg10.dtd">
<svg version="1.0" xmlns="http://www.w3.org/2000/svg"
 width="512.000000pt" height="512.000000pt" viewBox="0 0 512.000000 512.000000"
 preserveAspectRatio="xMidYMid meet">

<g transform="translate(0.000000,512.000000) scale(0.100000,-0.100000)"
fill="#4f6457" stroke="none">
<path d="M3363 4910 c-23 -5 -56 -16 -74 -26 -18 -9 -257 -194 -531 -412 -399
-316 -498 -399 -498 -418 0 -29 273 -375 307 -389 36 -14 55 4 68 63 26 114
92 167 205 167 148 -2 300 -133 345 -299 47 -174 -36 -305 -192 -306 -65 0
-93 -15 -93 -49 0 -17 268 -366 294 -383 24 -17 48 -3 205 122 91 72 167 130
171 130 4 0 12 -18 19 -39 15 -51 90 -134 144 -160 156 -76 359 -28 506 117
93 92 133 174 139 287 6 110 -14 171 -77 234 -25 26 -56 54 -68 62 -22 14 -20
16 82 96 69 54 105 89 105 102 0 11 -15 39 -33 63 -99 130 -735 928 -761 956
-61 65 -173 100 -263 82z m158 -129 c30 -21 752 -921 764 -953 3 -8 -42 -50
-115 -106 -65 -52 -122 -102 -125 -113 -11 -34 12 -57 67 -69 113 -24 168 -90
168 -203 0 -51 -6 -76 -30 -124 -38 -76 -130 -165 -207 -200 -67 -31 -180 -42
-236 -24 -80 27 -129 98 -129 185 0 68 -6 86 -31 95 -30 12 -36 7 -229 -146
-93 -74 -175 -136 -181 -138 -14 -5 -170 192 -162 204 2 5 16 12 31 15 70 18
135 81 175 172 45 101 20 268 -59 390 -114 174 -325 271 -480 220 -67 -23
-126 -67 -154 -116 -13 -22 -26 -40 -29 -40 -7 0 -171 206 -170 215 0 8 912
729 947 749 43 24 142 17 185 -13z"/>
<path d="M1475 3269 c-313 -109 -587 -207 -608 -216 -53 -23 -115 -86 -140
-141 -16 -35 -21 -66 -21 -122 1 -72 14 -113 398 -1205 219 -621 407 -1155
417 -1185 48 -136 148 -211 281 -211 41 0 116 22 338 100 157 54 555 194 885
309 1159 406 1229 431 1265 460 79 64 130 183 114 269 -5 28 -294 865 -416
1206 -20 54 -34 53 -230 -15 -232 -81 -251 -102 -151 -168 66 -43 95 -88 101
-156 6 -74 -16 -128 -79 -191 -92 -93 -222 -142 -342 -129 -62 6 -138 35 -170
64 -55 50 -72 146 -40 234 16 45 16 48 -2 68 -10 11 -25 20 -32 20 -8 0 -111
-34 -228 -75 -118 -41 -218 -75 -223 -75 -8 0 -92 219 -92 240 0 4 26 10 58
13 74 8 123 29 173 74 170 153 156 473 -29 662 -74 75 -147 113 -232 119 -83
5 -137 -9 -196 -54 -25 -19 -47 -34 -49 -32 -1 2 -27 75 -58 162 -31 88 -62
163 -69 168 -7 4 -22 7 -33 7 -11 0 -276 -90 -590 -200z m625 -91 c35 -101 70
-191 78 -200 24 -29 60 -23 80 13 65 119 166 157 277 105 56 -26 133 -103 164
-165 71 -138 64 -306 -15 -400 -60 -72 -140 -84 -251 -40 -28 11 -34 11 -52
-6 -12 -10 -21 -25 -21 -34 0 -9 29 -97 64 -196 35 -99 63 -181 62 -182 -2 -2
-64 -25 -138 -51 l-136 -49 -4 66 c-22 307 -467 394 -730 143 -37 -35 -70 -79
-91 -121 -28 -57 -32 -76 -31 -141 0 -79 21 -138 67 -187 11 -13 18 -25 16
-27 -7 -7 -232 -86 -235 -83 -7 6 -395 1117 -400 1145 -12 60 33 153 90 184
11 7 273 101 581 209 308 109 561 198 561 198 1 1 30 -81 64 -181z m2003
-1280 c201 -573 211 -610 186 -675 -17 -45 -69 -92 -128 -114 -31 -11 -276
-99 -546 -194 -269 -95 -502 -178 -516 -184 l-27 -10 -57 165 c-65 185 -83
211 -130 180 -14 -9 -25 -22 -25 -28 0 -22 -52 -79 -90 -98 -120 -61 -274 20
-353 188 -30 63 -32 74 -32 177 0 94 3 116 22 150 55 102 152 139 264 99 51
-18 72 -15 87 13 11 20 5 42 -81 286 -39 109 -52 159 -44 162 7 3 82 29 168
59 l157 54 4 -66 c5 -81 28 -132 86 -190 53 -53 105 -77 201 -93 210 -35 444
82 532 266 24 50 29 73 29 135 0 82 -17 132 -63 186 l-27 32 83 30 c45 17 87
31 93 31 5 1 99 -252 207 -561z m-2154 317 c90 -27 162 -116 161 -200 -1 -11
-9 -43 -18 -71 -20 -58 -15 -89 17 -99 14 -4 88 17 210 59 105 36 194 66 198
66 4 0 31 -67 60 -149 l51 -148 -68 -5 c-107 -8 -205 -78 -249 -179 -101 -228
13 -537 236 -642 114 -53 232 -41 316 33 l34 30 37 -103 c20 -56 36 -106 36
-112 0 -15 -1128 -405 -1170 -405 -50 1 -113 32 -143 71 -15 21 -100 248 -221
593 -108 307 -196 562 -196 565 0 4 75 33 168 65 207 72 202 70 202 106 0 25
-9 36 -53 65 -126 84 -137 218 -28 337 105 115 277 165 420 123z"/>
</g>
</svg>
