<?xml version="1.0" standalone="no"?>
<!DOCTYPE svg PUBLIC "-//W3C//DTD SVG 20010904//EN"
 "http://www.w3.org/TR/2001/REC-SVG-20010904/DTD/svg10.dtd">
<svg version="1.0" xmlns="http://www.w3.org/2000/svg"
 width="512.000000pt" height="512.000000pt" viewBox="0 0 512.000000 512.000000"
 preserveAspectRatio="xMidYMid meet">

<g transform="translate(0.000000,512.000000) scale(0.100000,-0.100000)"
fill="#4f6457" stroke="none">
<path d="M2413 4845 c-188 -51 -349 -213 -398 -401 -19 -74 -19 -203 0 -277 8
-31 28 -84 45 -117 33 -65 132 -177 186 -211 l35 -21 -80 -33 c-148 -61 -294
-182 -388 -320 -90 -134 -171 -331 -209 -512 l-17 -83 -287 0 c-213 0 -290 -3
-303 -12 -9 -7 -81 -164 -160 -348 -95 -223 -156 -352 -181 -385 -50 -64 -75
-123 -91 -210 -9 -49 -64 -189 -184 -468 -94 -219 -171 -412 -171 -428 0 -32
23 -49 66 -49 20 0 25 -4 21 -17 -2 -10 -17 -58 -31 -108 -31 -105 -55 -243
-57 -334 -3 -79 -3 -79 157 -131 442 -144 913 -142 1339 5 l71 25 82 -30 c100
-36 246 -74 377 -97 144 -25 500 -25 649 0 112 19 327 75 390 101 34 14 40 13
115 -14 210 -77 401 -111 656 -117 276 -7 488 24 729 106 134 46 136 48 136
129 0 116 -30 258 -97 465 -4 14 1 17 26 17 47 0 71 16 71 48 0 15 -79 211
-175 435 -96 225 -175 414 -175 422 0 35 -44 148 -79 203 -22 33 -108 220
-191 414 -83 194 -158 359 -167 366 -13 9 -91 12 -308 12 l-292 0 -17 83 c-87
412 -299 707 -594 828 l-80 32 58 43 c136 100 220 270 220 447 0 156 -52 281
-164 393 -113 113 -238 165 -397 163 -46 0 -108 -7 -136 -14z m262 -90 c120
-31 232 -124 287 -237 34 -70 47 -126 48 -206 l0 -63 -32 18 c-63 35 -144 128
-187 214 -23 46 -47 89 -53 96 -17 21 -53 15 -79 -13 -42 -45 -141 -115 -219
-154 -82 -41 -238 -96 -300 -106 l-40 -7 0 39 c1 185 160 379 345 423 63 14
165 12 230 -4z m144 -485 c42 -41 95 -84 119 -94 24 -11 42 -26 42 -35 0 -29
-58 -117 -110 -169 -124 -120 -300 -159 -466 -102 -104 36 -209 131 -257 232
-38 81 -36 94 16 102 126 20 368 125 472 204 l50 38 29 -50 c16 -28 63 -85
105 -126z m-115 -552 c22 -31 20 -46 -10 -90 l-27 -38 -111 0 -111 0 -28 41
c-30 41 -31 84 -4 101 7 4 71 8 144 8 125 0 133 -1 147 -22z m-422 -47 c-3
-23 5 -42 38 -85 l42 -56 -77 -312 c-42 -172 -79 -321 -82 -330 -4 -17 -25
-18 -257 -18 l-254 0 15 67 c20 97 76 260 119 345 84 168 214 306 356 377 46
22 88 41 94 41 6 0 9 -12 6 -29z m658 -17 c233 -121 388 -369 474 -756 l6 -28
-254 0 -254 0 -81 332 -81 331 40 53 c27 36 40 63 40 84 0 28 3 31 23 25 12
-4 51 -23 87 -41z m-209 -474 l76 -310 -249 0 c-159 0 -248 4 -248 10 0 11
137 577 145 598 3 8 33 12 102 12 l98 0 76 -310z m1436 -658 c56 -130 105
-245 108 -254 6 -15 3 -15 -38 -3 -169 51 -346 7 -468 -115 -189 -189 -184
-480 12 -664 l67 -63 -54 -23 c-124 -51 -249 -154 -318 -264 l-37 -56 -107 0
-108 0 -22 38 c-38 67 -109 149 -170 196 -57 43 -189 116 -211 116 -6 0 20 31
59 68 116 115 166 258 142 406 -64 376 -516 527 -786 261 -146 -145 -179 -373
-80 -555 29 -53 89 -123 134 -154 18 -13 21 -19 11 -23 -138 -53 -284 -169
-364 -290 l-41 -63 -102 0 -101 0 -37 60 c-77 124 -219 245 -336 287 -28 10
-50 20 -50 24 0 3 12 12 26 20 38 20 112 105 140 161 96 189 61 401 -90 546
-34 33 -79 68 -101 80 -102 51 -228 66 -335 38 -30 -8 -56 -13 -57 -12 -1 1
44 108 100 239 l102 237 1505 0 1505 0 102 -238z m-3059 -330 c103 -33 172
-91 221 -190 104 -206 -23 -462 -254 -510 -115 -24 -252 38 -329 151 -139 204
-34 489 203 553 64 18 90 17 159 -4z m1586 -22 c75 -29 149 -98 188 -178 30
-60 33 -75 33 -157 0 -78 -4 -98 -29 -152 -35 -76 -104 -144 -184 -181 -48
-22 -71 -27 -142 -26 -110 0 -186 32 -260 110 -70 74 -93 129 -98 234 -5 107
18 176 85 250 107 119 257 156 407 100z m1481 5 c82 -14 166 -71 219 -148 127
-189 57 -437 -152 -535 -49 -23 -70 -27 -147 -27 -82 0 -97 3 -157 33 -229
112 -274 412 -89 585 57 53 119 85 190 97 46 8 60 7 136 -5z m-3473 -659 c38
-38 67 -69 66 -70 -2 0 -42 -20 -90 -44 -106 -53 -208 -144 -274 -245 -58 -87
-53 -81 -59 -75 -4 4 222 549 241 579 3 6 15 -9 27 -33 11 -24 52 -74 89 -112z
m3958 -145 c66 -156 120 -285 120 -287 0 -2 -6 -4 -14 -4 -7 0 -30 26 -51 57
-79 119 -196 216 -320 267 l-56 23 40 27 c45 31 110 111 137 168 10 21 19 36
21 35 1 -2 57 -131 123 -286z m-3410 -25 c138 -48 262 -154 343 -296 66 -115
134 -350 140 -484 l2 -59 -70 -24 c-196 -67 -413 -103 -635 -103 -229 0 -401
25 -614 91 -123 38 -118 26 -90 190 45 269 163 493 318 604 124 88 227 116
406 111 102 -3 139 -8 200 -30z m1496 -2 c255 -66 434 -301 503 -659 12 -58
21 -126 21 -150 l0 -44 -97 -31 c-327 -103 -679 -122 -1011 -55 -122 25 -307
79 -316 93 -7 12 22 202 43 284 73 282 237 484 448 552 112 37 291 41 409 10z
m1514 -5 c191 -36 369 -203 459 -430 46 -117 91 -313 91 -396 0 -30 -2 -32
-77 -57 -412 -135 -849 -137 -1252 -5 l-101 33 6 50 c21 189 75 369 145 492
151 264 405 373 729 313z m-2416 -381 c-4 -6 -17 -40 -29 -76 l-22 -66 -26 77
-26 77 55 0 c39 0 53 -3 48 -12z m1521 -50 c-13 -35 -27 -72 -30 -83 -5 -15
-13 -1 -31 55 -13 41 -24 78 -24 83 0 4 24 7 54 7 l54 0 -23 -62z"/>
</g>
</svg>
