<?xml version="1.0" standalone="no"?>
<!DOCTYPE svg PUBLIC "-//W3C//DTD SVG 20010904//EN"
 "http://www.w3.org/TR/2001/REC-SVG-20010904/DTD/svg10.dtd">
<svg version="1.0" xmlns="http://www.w3.org/2000/svg"
 width="512.000000pt" height="512.000000pt" viewBox="0 0 512.000000 512.000000"
 preserveAspectRatio="xMidYMid meet">

<g transform="translate(0.000000,512.000000) scale(0.100000,-0.100000)"
fill="#4f6457" stroke="none">
<path d="M800 4909 c-121 -13 -237 -74 -322 -168 -180 -201 -169 -515 26 -706
101 -99 216 -145 362 -145 138 0 243 42 349 141 120 113 180 281 156 442 -16
101 -74 216 -147 289 -55 55 -158 118 -219 133 -55 14 -149 20 -205 14z m231
-136 c162 -75 245 -212 237 -392 -3 -77 -7 -96 -41 -163 -44 -91 -102 -146
-197 -192 -60 -28 -73 -31 -165 -31 -130 1 -192 24 -279 105 -172 161 -180
421 -20 584 93 94 177 127 309 123 76 -2 100 -7 156 -34z"/>
<path d="M4205 4908 c-158 -17 -305 -119 -383 -266 -155 -290 -3 -642 317
-736 30 -9 91 -16 136 -16 226 0 417 140 491 360 28 82 25 225 -5 313 -39 115
-118 214 -223 280 -85 53 -215 79 -333 65z m186 -114 c195 -57 324 -260 289
-457 -25 -139 -102 -242 -226 -304 -249 -123 -534 26 -586 306 -14 75 1 170
38 244 29 57 101 137 150 168 94 58 226 75 335 43z"/>
<path d="M543 3775 c-29 -8 -72 -24 -95 -36 -58 -29 -140 -109 -171 -167 -57
-105 -57 -101 -57 -898 0 -455 4 -752 10 -785 35 -182 187 -334 369 -369 31
-6 223 -10 454 -10 375 0 399 -1 395 -17 -3 -10 -81 -232 -173 -493 -174 -492
-190 -550 -166 -623 48 -144 213 -211 349 -140 33 17 66 44 83 68 20 29 91
232 250 720 209 642 222 684 223 760 1 67 -3 89 -25 136 -48 102 -134 167
-248 189 -30 5 -190 10 -357 10 l-304 0 0 623 c0 351 -4 648 -10 681 -41 251
-288 415 -527 351z m221 -115 c69 -26 134 -83 171 -151 l30 -54 5 -708 c5
-687 6 -709 24 -723 16 -11 85 -14 383 -14 306 0 370 -2 401 -16 81 -34 135
-114 135 -204 1 -45 -40 -179 -217 -725 -120 -369 -225 -680 -233 -693 -27
-43 -73 -64 -131 -59 -45 3 -59 9 -89 39 -66 67 -69 55 146 665 105 299 191
547 191 553 0 5 -9 19 -20 30 -19 19 -33 20 -485 20 -451 0 -466 1 -522 22
-80 30 -171 121 -203 203 l-23 60 -1 755 c-1 706 0 758 17 807 31 88 123 175
217 204 50 15 148 9 204 -11z"/>
<path d="M4388 3759 c-119 -28 -230 -121 -287 -239 l-36 -75 -3 -662 -3 -661
-342 -4 -342 -3 -56 -26 c-76 -36 -133 -90 -166 -157 -24 -49 -28 -69 -28
-142 0 -84 4 -96 218 -753 119 -368 226 -685 236 -705 39 -75 120 -123 209
-123 78 -1 134 24 186 82 51 56 72 118 63 187 -4 26 -85 268 -180 537 l-173
490 431 5 c480 6 480 6 591 78 88 57 155 146 190 252 17 50 18 113 22 754 2
445 -1 730 -7 785 -19 151 -103 281 -223 342 -85 44 -210 59 -300 38z m216
-99 c69 -26 134 -83 171 -151 l30 -54 0 -790 0 -790 -22 -48 c-33 -70 -113
-149 -186 -183 l-62 -29 -475 -3 c-317 -2 -479 -7 -487 -14 -7 -6 -13 -20 -13
-31 0 -11 86 -264 191 -561 205 -581 203 -574 157 -638 -30 -43 -73 -61 -132
-55 -70 6 -104 45 -144 168 -348 1062 -414 1275 -409 1325 9 86 54 150 132
185 36 17 72 19 401 19 330 0 364 2 383 18 21 17 21 20 24 707 2 641 4 693 21
737 32 86 126 171 216 199 50 15 148 9 204 -11z"/>
<path d="M1246 3084 c-14 -13 -16 -51 -16 -259 0 -241 0 -244 22 -259 20 -14
85 -16 510 -16 l488 0 0 -1153 c0 -980 2 -1156 14 -1173 14 -18 29 -19 296
-19 267 0 282 1 296 19 12 17 14 193 14 1173 l0 1153 488 0 c425 0 490 2 510
16 22 15 22 18 22 259 0 208 -2 246 -16 259 -14 14 -147 16 -1314 16 -1167 0
-1300 -2 -1314 -16z m2544 -254 l0 -170 -1230 0 -1230 0 0 170 0 170 1230 0
1230 0 0 -170z m-1030 -1400 l0 -1120 -200 0 -200 0 0 1120 0 1120 200 0 200
0 0 -1120z"/>
</g>
</svg>
