<svg width="60" height="60" viewBox="0 0 60 60" fill="none" xmlns="http://www.w3.org/2000/svg">
<path d="M36.4438 26.2828H49.2161V22.7719C49.2161 19.2449 46.3569 16.3857 42.8299 16.3857C39.3029 16.3857 36.4438 19.2449 36.4438 22.7719V26.2828Z" fill="#DFC58A"/>
<path d="M30.1533 44.3069H16.4238V35.5536H30.1533V44.3069Z" fill="#DFC58A"/>
<path d="M30.1533 29.832H16.4238V21.0787H30.1533V29.832Z" fill="#DFC58A"/>
<path d="M49.2159 50.6942H36.4437V32.0043H49.2159V50.6942Z" fill="#DFC58A"/>
<path d="M58.8281 49.5222H56.6783V16.6695C56.8541 16.7658 57.0473 16.813 57.2396 16.813C57.5846 16.813 57.9265 16.6613 58.1578 16.3701C58.5606 15.8635 58.4762 15.1263 57.9695 14.7236L43.5589 3.27089C43.132 2.93151 42.5276 2.93151 42.1008 3.27089L38.7727 5.91593H7.08492C6.61395 5.91593 6.18891 6.19776 6.00551 6.63159L0.0924609 20.6225C-0.0604687 20.9844 -0.0219141 21.3989 0.195117 21.7263C0.412266 22.0537 0.778945 22.2506 1.17176 22.2506H2.36508V54.6398H1.17188C0.524648 54.6398 0 55.1644 0 55.8117C0 56.4589 0.524648 56.9835 1.17188 56.9835H58.8281C59.4754 56.9835 60 56.4589 60 55.8117V50.6941C60 50.0469 59.4754 49.5222 58.8281 49.5222ZM42.8298 5.68519L54.3346 14.8286V49.5222H31.3252V14.8285L42.8298 5.68519ZM7.86187 8.25968H35.8235L27.6902 14.7236C27.1835 15.1263 27.0993 15.8635 27.5019 16.3701C27.8621 16.8234 28.4902 16.9386 28.9814 16.6694V19.9067H2.93941L7.86187 8.25968ZM4.70895 54.6398V36.9793C4.70895 35.5346 5.88434 34.3593 7.32902 34.3593C8.77371 34.3593 9.9491 35.5346 9.9491 36.9793V54.6398H4.70895ZM12.2929 54.6398V36.9793C12.2929 34.2423 10.0662 32.0156 7.32902 32.0156C6.36797 32.0156 5.46984 32.2901 4.70895 32.7649V22.2506H28.9814V28.6601H15.4765C14.8293 28.6601 14.3046 29.1848 14.3046 29.832C14.3046 30.4792 14.8293 31.0039 15.4765 31.0039H28.9814V43.1351H15.4765C14.8293 43.1351 14.3046 43.6598 14.3046 44.307C14.3046 44.9542 14.8293 45.4789 15.4765 45.4789H28.9814V49.5222H15.4765C14.8293 49.5222 14.3046 50.0469 14.3046 50.6941C14.3046 51.3413 14.8293 51.866 15.4765 51.866H26.1333V54.6398H12.2929ZM57.6562 54.6398H28.477V51.866H57.6562V54.6398Z" fill="#F7F3E3"/>
</svg>
