<svg width="60" height="60" viewBox="0 0 60 60" fill="none" xmlns="http://www.w3.org/2000/svg">
<g clip-path="url(#clip0_116_97)">
<path d="M29.4651 37.7256L11.864 56.7623C9.51405 59.3731 5.45581 59.4805 2.97079 56.9955C0.486465 54.5112 0.593104 50.4519 3.20399 48.1011L22.284 30.5457L29.4651 37.7256Z" fill="#DFC58A"/>
<path d="M54.8896 47.1601L47.1249 54.9248L42.1071 50.9628L50.9276 42.1423L54.8896 47.1601Z" fill="#DFC58A"/>
<path d="M7.50877 53.9794C8.12361 53.7762 8.4573 53.113 8.25408 52.4981C8.05086 51.8833 7.38768 51.5496 6.77283 51.7528C6.15798 51.956 5.82429 52.6192 6.02751 53.2341C6.23074 53.8489 6.89392 54.1826 7.50877 53.9794Z" fill="#F7F3E3"/>
<path d="M47.8864 36.3994C47.5423 35.9639 46.9397 35.8293 46.443 36.0773L45.1216 36.7375C43.1173 37.7407 40.9502 35.6034 41.9688 33.5811L42.6273 32.2605C42.8523 31.8093 42.7635 31.2649 42.4069 30.9085C41.5232 30.0255 40.3 29.3958 39.0308 29.1043L41.558 26.3707C46.3606 28.1979 52.0727 27.2128 56.016 23.2698C60.3777 18.9078 61.1038 12.4134 58.4608 7.35137C58.0935 6.64791 57.1503 6.50834 56.5933 7.06508L50.7894 12.8691L47.1707 9.24953L52.9738 3.44547C53.5313 2.88802 53.3907 1.94503 52.6874 1.57813C47.4829 -1.13799 41.0269 -0.233553 36.7691 4.02437C32.8275 7.966 31.8425 13.6775 33.6676 18.48C32.7412 19.3324 30.8657 21.0579 28.4725 23.2599L12.2597 7.04704L12.7783 6.52826C13.33 5.97655 13.197 5.05208 12.5188 4.67533L4.43782 0.185618C3.9808 -0.0684391 3.41023 0.011364 3.04004 0.381317L0.345724 3.07575C-0.0242292 3.44571 -0.104149 4.01616 0.150025 4.47354L4.63985 12.5544C5.02011 13.2391 5.94658 13.3603 6.49278 12.8139L7.01155 12.2953L23.0059 28.2896C14.0852 36.4973 3.03465 46.6647 2.41498 47.2348C-0.693121 50.038 -0.819212 54.8629 2.14217 57.8243C5.07132 60.7534 9.90087 60.6884 12.7297 57.5523L29.3189 39.609C29.6135 40.6653 30.1246 41.6941 30.874 42.4428C31.2304 42.7988 31.7744 42.8874 32.2251 42.6625L33.5482 42.0029C35.563 40.9923 37.7113 43.1434 36.7018 45.1576L36.042 46.4784C35.7939 46.975 35.9285 47.5777 36.3642 47.9218C50.2262 58.866 47.4352 56.6621 49.935 58.6357C52.389 60.5751 55.9076 60.3671 58.1206 58.1571C60.3321 55.9455 60.5386 52.4262 58.6008 49.9709C54.6789 45.0029 60.8183 52.7787 47.8864 36.3994ZM7.84017 9.80944C7.38268 9.35207 6.64078 9.35195 6.18294 9.80944L5.93404 10.0582L2.62802 4.10792L4.07232 2.66361L10.0225 5.96964L9.77372 6.21854C9.31611 6.67615 9.31611 7.41805 9.77372 7.87577L26.7462 24.8483C26.0985 25.4442 25.4248 26.0639 24.7321 26.7014L7.84017 9.80944ZM11.0036 55.9669C11.0001 55.9706 10.9964 55.9745 10.9929 55.9785C9.11209 58.0684 5.8349 58.2025 3.7994 56.167C1.79108 54.1589 1.86995 50.8792 3.98807 48.9722C3.99111 48.9694 3.99428 48.9666 3.99732 48.9638C4.94207 48.0946 34.7417 20.6765 35.8576 19.6499C36.23 19.3073 36.3404 18.7644 36.1314 18.3037C34.2047 14.0535 35.1269 8.98118 38.4264 5.68183C41.4922 2.6158 46.0047 1.56606 50.101 3.00415L44.685 8.42115C44.2275 8.87876 44.2274 9.62054 44.6849 10.0783L49.9605 15.3551C50.4196 15.8141 51.162 15.8108 51.618 15.3552L57.0353 9.93776C58.4556 13.9811 57.4661 18.505 54.3586 21.6127C51.0581 24.9132 45.9856 25.8351 41.737 23.9077C41.2767 23.6989 40.7347 23.8086 40.3919 24.1796C40.3067 24.2718 11.0687 55.8965 11.0036 55.9669ZM56.4637 56.4993C55.0905 57.8702 52.9084 57.9983 51.3876 56.7964C47.5868 53.7966 49.2165 55.0833 38.5647 46.6729L38.7977 46.2063C40.814 42.1829 36.5213 37.8903 32.5 39.9066L32.0437 40.1339C31.581 39.3268 31.3455 38.2534 31.3572 37.4039L37.0048 31.2953C37.9957 31.163 39.1985 31.4655 40.1106 32.0549C39.9979 32.3381 39.3743 33.2231 39.3743 34.633C39.3743 38.129 43.0593 40.3902 46.1696 38.8336L46.6375 38.5998C51.9103 45.278 54.4442 48.487 56.761 51.4228C57.9627 52.9456 57.8348 55.1282 56.4637 56.4993Z" fill="#F7F3E3"/>
</g>
<defs>
<clipPath id="clip0_116_97">
<rect width="60" height="60" fill="white"/>
</clipPath>
</defs>
</svg>
