<svg width="60" height="60" viewBox="0 0 60 60" fill="none" xmlns="http://www.w3.org/2000/svg">
<path d="M44.7057 49.0295H5.88218V14.9118H44.7057V49.0295Z" fill="#DFC58A"/>
<path d="M54.1176 5.5H49.4118C48.7621 5.5 48.2353 6.02682 48.2353 6.67647V9.02941H1.17647C0.526706 9.02941 0 9.55624 0 10.2059V53.7353C0 54.3849 0.526706 54.9118 1.17647 54.9118H52.9412C56.8334 54.9118 60 51.7452 60 47.8529V11.3824C60 8.13882 57.3612 5.5 54.1176 5.5ZM50.5882 7.85294H54.1176C56.0638 7.85294 57.6471 9.43624 57.6471 11.3824V42.5973C56.3972 41.4771 54.7476 40.7941 52.9412 40.7941H50.5882V7.85294ZM52.9412 52.5588H2.35294V11.3824H48.2353V41.9706C48.2353 42.6202 48.7621 43.1471 49.4118 43.1471H52.9412C55.536 43.1471 57.6471 45.2581 57.6471 47.8529C57.6471 50.4478 55.536 52.5588 52.9412 52.5588Z" fill="#F7F3E3"/>
<path d="M29.4119 24.3893V19.6176C29.4119 18.9679 28.8852 18.4412 28.2354 18.4412H10.5884C9.9387 18.4412 9.41188 18.9679 9.41188 19.6176V37.2647C9.41188 37.9143 9.9387 38.4412 10.5884 38.4412H20.6058C22.0626 42.5494 25.9871 45.5 30.5884 45.5C36.4267 45.5 41.1766 40.7501 41.1766 34.9118C41.1766 28.6258 35.7 23.6907 29.4119 24.3893ZM11.7648 36.0882V20.7941H27.0589V24.9292C22.4742 26.5549 19.5159 31.1378 20.0659 36.0882H11.7648ZM27.0589 27.4727V36.0882H22.4385C21.9167 32.4575 23.8418 29.0053 27.0589 27.4727ZM30.5884 43.147C27.3099 43.147 24.4735 41.2208 23.1493 38.4412H28.2354C28.8852 38.4412 29.4119 37.9143 29.4119 37.2647V26.7619C34.3828 26.0475 38.8236 29.9122 38.8236 34.9118C38.8236 39.4527 35.1293 43.147 30.5884 43.147Z" fill="#F7F3E3"/>
</svg>
