<svg width="60" height="60" viewBox="0 0 60 60" fill="none" xmlns="http://www.w3.org/2000/svg">
<g clip-path="url(#clip0_116_119)">
<path d="M30 17.122L19.2074 25.6841V40.5342H27.0404V32.3181H32.9596V40.5342H40.7926V25.6841L30 17.122Z" fill="#DFC58A"/>
<path d="M59.9992 10.479C59.9515 7.57171 57.5609 5.22128 54.6287 5.22128C52.0881 5.22128 49.954 6.98613 49.3984 9.34874H10.6016C10.046 6.98613 7.91191 5.22128 5.37129 5.22128C2.43926 5.22128 0.0485156 7.57171 0.000820313 10.479C0.000351563 10.4928 0 10.5067 0 10.5206V49.5628C0 49.616 0.00363281 49.6683 0.0104297 49.7196C0.185508 52.5386 2.54379 54.7787 5.4177 54.7787H54.5822C57.5063 54.7787 59.8965 52.4597 59.9966 49.5715C59.9988 49.5421 60 49.5124 60 49.4824V10.5206C60 10.5067 59.9996 10.4928 59.9992 10.479ZM51.6014 10.5675C51.6014 8.91199 52.9595 7.56503 54.6288 7.56503C56.2982 7.56503 57.6562 8.91199 57.6562 10.5675V45.2566C56.7994 44.7118 55.7603 44.3966 54.6288 44.3966C53.5317 44.3966 52.4803 44.7333 51.6014 45.3321V10.5675ZM5.37117 7.56503C7.04051 7.56503 8.39859 8.91199 8.39859 10.5675V45.3321C7.51969 44.7332 6.46828 44.3966 5.37117 44.3966C4.23973 44.3966 3.20051 44.7168 2.34375 45.2702V10.5675C2.34375 8.91199 3.70184 7.56503 5.37117 7.56503ZM54.5823 52.435H5.4177C3.75328 52.435 2.39355 51.1147 2.34504 49.4737C2.39215 47.9092 3.67723 46.7403 5.37117 46.7403C6.46559 46.7403 7.47984 47.335 8.01832 48.2923C8.22586 48.6613 8.61633 48.8897 9.03973 48.8897H9.57047C10.2177 48.8897 10.7423 48.365 10.7423 47.7178V11.6925H49.2575V47.7177C49.2575 48.3649 49.7822 48.8896 50.4294 48.8896H50.9602C51.3836 48.8896 51.774 48.6612 51.9816 48.2921C52.52 47.335 53.5343 46.7402 54.6287 46.7402C56.3367 46.7402 57.6291 47.8948 57.6557 49.4338C57.6284 51.0934 56.2602 52.435 54.5823 52.435Z" fill="#F7F3E3"/>
<path d="M18.6607 27.6137L30 18.6179L41.3393 27.6138C41.5547 27.7847 41.8117 27.8678 42.0668 27.8678C42.4121 27.8678 42.7543 27.7158 42.9855 27.4241C43.3878 26.917 43.3029 26.18 42.7958 25.7777L41.9644 25.1181V21.6224C41.9644 20.9751 41.4397 20.4505 40.7925 20.4505C40.1453 20.4505 39.6206 20.9751 39.6206 21.6224V23.2587L30.7282 16.204C30.3016 15.8655 29.6981 15.8655 29.2716 16.204L17.2039 25.7776C16.6969 26.1799 16.6119 26.9169 17.0142 27.424C17.4166 27.9312 18.1539 28.016 18.6607 27.6137Z" fill="#F7F3E3"/>
<path d="M44.2969 42.6456C43.6496 42.6456 43.125 43.1702 43.125 43.8175V44.6203H16.875V43.8175C16.875 43.1702 16.3504 42.6456 15.7031 42.6456C15.0559 42.6456 14.5312 43.1702 14.5312 43.8175V47.7669C14.5312 48.4141 15.0559 48.9388 15.7031 48.9388C16.3504 48.9388 16.875 48.4141 16.875 47.7669V46.9641H43.125V47.7669C43.125 48.4141 43.6496 48.9388 44.2969 48.9388C44.9441 48.9388 45.4688 48.4141 45.4688 47.7669V43.8175C45.4688 43.1702 44.9441 42.6456 44.2969 42.6456Z" fill="#F7F3E3"/>
</g>
<defs>
<clipPath id="clip0_116_119">
<rect width="60" height="60" fill="white"/>
</clipPath>
</defs>
</svg>
