<svg width="60" height="60" viewBox="0 0 60 60" fill="none" xmlns="http://www.w3.org/2000/svg">
<path d="M58.8281 45.9688H55.8049V12.9161C55.8049 10.9401 54.1973 9.33252 52.2213 9.33252H36.2309C35.5836 9.33252 35.059 9.85729 35.059 10.5044C35.059 11.1515 35.5836 11.6763 36.2309 11.6763H52.2213C52.905 11.6763 53.4612 12.2324 53.4612 12.9161V45.9688H39.8047C37.7763 45.9688 36.0632 47.344 35.5485 49.2111H24.4515C23.9368 47.344 22.2237 45.9688 20.1953 45.9688H6.53883V12.9161C6.53883 12.2324 7.095 11.6763 7.77867 11.6763H22.1086C22.7558 11.6763 23.2805 11.1515 23.2805 10.5044C23.2805 9.85729 22.7558 9.33252 22.1086 9.33252H7.77867C5.80266 9.33252 4.19508 10.9401 4.19508 12.9161V45.9688H1.17188C0.524648 45.9688 0 46.4936 0 47.1407V52.8188C0 54.8717 1.67016 56.5419 3.72305 56.5419H56.277C58.3298 56.5419 60 54.8717 60 52.8188V47.1407C60 46.4935 59.4754 45.9688 58.8281 45.9688ZM57.6562 52.8188C57.6562 53.5794 57.0375 54.1981 56.277 54.1981H3.72305C2.9625 54.1981 2.34375 53.5795 2.34375 52.8188V48.3126H20.1953C21.3369 48.3126 22.2656 49.2414 22.2656 50.3829C22.2656 51.0301 22.7903 51.5548 23.4375 51.5548H36.5625C37.2097 51.5548 37.7344 51.0301 37.7344 50.3829C37.7344 49.2414 38.6631 48.3126 39.8047 48.3126H57.6562V52.8188Z" fill="#F7F3E3"/>
<path d="M22.5583 34.42L12.6847 41.4813C12.1581 41.8578 12.0366 42.5897 12.4131 43.1161C12.6419 43.4359 13.0019 43.6065 13.3673 43.6065C13.6033 43.6065 13.8414 43.5354 14.048 43.3877L23.421 36.6845L33.3981 40.2863C33.7884 40.427 34.2243 40.3511 34.5439 40.0863L44.6831 31.6827C44.7752 32.0894 45.0818 32.4338 45.5117 32.5538C45.6169 32.5831 45.7229 32.5972 45.827 32.5972C46.3399 32.597 46.8107 32.2578 46.9552 31.7398L47.7626 28.8445C47.869 28.4629 47.7755 28.0536 47.5141 27.756C47.2526 27.4586 46.8592 27.3129 46.4667 27.3698L43.4894 27.799C42.8488 27.8914 42.4044 28.4855 42.4968 29.1261C42.5501 29.4961 42.7711 29.8008 43.0717 29.9743L33.5641 37.8543L23.6381 34.2709C23.2751 34.14 22.8717 34.1958 22.5583 34.42Z" fill="#F7F3E3"/>
<path d="M29.9116 31.0052C37.645 31.0052 43.9142 24.736 43.9142 17.0026C43.9142 9.26919 37.645 3 29.9116 3C22.1781 3 15.9089 9.26919 15.9089 17.0026C15.9089 24.736 22.1781 31.0052 29.9116 31.0052Z" fill="#DFC58A"/>
<path d="M31.7343 16.0543C31.5376 15.9849 31.3508 15.9182 31.1737 15.8543V12.0888C31.6375 12.2302 31.9589 12.4664 32.1165 12.6912C32.4882 13.221 33.219 13.3491 33.7489 12.9772C34.2787 12.6055 34.4068 11.8747 34.035 11.3448C33.4824 10.5573 32.4807 9.90013 31.1736 9.6872V9.4397C31.1736 8.79259 30.649 8.26782 30.0017 8.26782C29.3545 8.26782 28.8299 8.79259 28.8299 9.4397V9.77638C28.6518 9.81587 28.4709 9.8631 28.2874 9.91829C26.817 10.3613 25.707 11.7898 25.5883 13.392C25.471 14.9741 26.3135 16.3488 27.8417 17.0695C28.0585 17.1718 28.398 17.3129 28.8299 17.4813V21.9906C28.2269 21.8105 27.6732 21.5085 27.3136 21.0618C26.9076 20.5579 26.1699 20.4783 25.6658 20.8842C25.1618 21.2903 25.0823 22.028 25.4883 22.5321C26.3422 23.5922 27.6027 24.1592 28.8299 24.4001V24.5654C28.8299 25.2125 29.3545 25.7373 30.0017 25.7373C30.649 25.7373 31.1736 25.2125 31.1736 24.5654V24.4895C33.7631 24.1617 34.8935 22.4774 35.0845 20.9736C35.3519 18.8691 33.9743 16.8462 31.7343 16.0543ZM27.9258 13.5653C27.969 12.9825 28.3476 12.4272 28.83 12.2125V14.9442C28.027 14.5607 27.8948 13.9832 27.9258 13.5653ZM32.7596 20.6783C32.6663 21.4124 32.0967 21.9211 31.1737 22.1148V18.3503C32.3979 18.8754 32.8578 19.9047 32.7596 20.6783Z" fill="#F7F3E3"/>
</svg>
