<svg width="60" height="60" viewBox="0 0 60 60" fill="none" xmlns="http://www.w3.org/2000/svg">
<g clip-path="url(#clip0_116_144)">
<path d="M33.5766 33.4934C35.2798 33.4365 36.7426 34.6934 36.9431 36.3857C37.1652 38.2602 35.763 39.9348 33.8786 40.0457L40.1145 39.7362C40.7823 39.7362 41.4229 39.4709 41.8951 38.9986L42.2725 38.6213V22.3662H29.3204V33.6353L33.5766 33.4934Z" fill="#DFC58A"/>
<path d="M57.3623 27.7284C55.8006 26.1668 53.3108 26.1148 51.6865 27.5609V17.6407L53.4588 18.6697C54.2354 19.1205 55.219 18.5616 55.219 17.6564V11.769C55.219 11.3514 54.9969 10.9653 54.6357 10.7557L51.6867 9.04336V1.17187C51.6867 0.524647 51.1619 -1.22283e-06 50.5148 -1.22283e-06H45.805C45.1579 -1.22283e-06 44.6331 0.524647 44.6331 1.17187V4.94766L36.385 0.158436C36.0211 -0.0528528 35.572 -0.0528528 35.2081 0.158436L16.9573 10.7556C16.5961 10.9652 16.3738 11.3514 16.3738 11.7689V17.6563C16.3738 18.5577 17.3529 19.123 18.1341 18.6696L19.9061 17.6407V34.2843L11.8238 42.3667C11.3662 42.8243 11.3662 43.5663 11.8238 44.0241C12.2817 44.4817 13.0233 44.4816 13.4812 44.0241L22.4686 35.0364L33.6155 34.6644C34.7176 34.6271 35.6493 35.4266 35.7793 36.5232C35.9151 37.6697 35.1106 38.6925 33.9949 38.8554L28.6786 39.1096C28.0321 39.1405 27.5331 39.6895 27.5641 40.336C27.5941 40.9636 28.1122 41.452 28.7336 41.452C28.7772 41.452 27.9658 41.4901 40.1697 40.9065C41.1347 40.8923 42.0398 40.5109 42.7235 39.8271L53.1649 29.3857C53.8666 28.684 55.0025 28.6837 55.7045 29.3856C56.4047 30.0859 56.4047 31.2252 55.7045 31.9254L39.5368 48.0935C39.0854 48.5449 38.4854 48.7935 37.8473 48.7935H27.3671C26.1027 48.7935 24.9141 49.2858 24.0201 50.1797L21.8285 52.3714C21.3708 52.8292 21.3708 53.5711 21.8285 54.0288C22.2862 54.4864 23.0281 54.4864 23.4858 54.0288L25.6775 51.8371C26.1288 51.3858 26.7288 51.1372 27.3671 51.1372H37.8473C39.1115 51.1372 40.3001 50.6449 41.1942 49.7509L57.3623 33.5828C58.9762 31.9689 58.9762 29.3427 57.3623 27.7284ZM46.9768 2.34375H49.3428V7.68246L46.9768 6.30867V2.34375ZM18.7177 12.4437L35.7965 2.52703L52.8753 12.4437V15.6209L36.385 6.04582C36.0223 5.83523 35.5735 5.83371 35.2081 6.04582L18.7177 15.6209V12.4437ZM41.0664 38.17C40.8122 38.4243 40.4743 38.5642 40.1146 38.5642C40.0859 38.5642 37.7463 38.6761 37.7076 38.678C39.1042 35.7232 36.9496 32.2066 33.5375 32.3221L22.2501 32.6987V16.28L35.7966 8.4143L49.3429 16.2799V29.8936L41.0664 38.17Z" fill="#F7F3E3"/>
<path d="M20.6262 60L1.42737 49.4194L10.9806 39.8661L26.0138 54.6123L20.6262 60Z" fill="#DFC58A"/>
</g>
<defs>
<clipPath id="clip0_116_144">
<rect width="60" height="60" fill="white"/>
</clipPath>
</defs>
</svg>
