<svg width="60" height="60" viewBox="0 0 60 60" fill="none" xmlns="http://www.w3.org/2000/svg">
<g clip-path="url(#clip0_116_178)">
<path d="M5.87848 18.8217V23.5283H12.9384V18.8217C12.9384 16.8722 11.358 15.2918 9.4084 15.2918C7.45898 15.2918 5.87848 16.8722 5.87848 18.8217Z" fill="#DFC58A"/>
<path d="M18.8169 23.5283V1.17188C18.8169 0.524648 18.2921 0 17.645 0H1.17188C0.524648 0 0 0.524648 0 1.17188V23.5283C0 24.1755 0.524648 24.7002 1.17188 24.7002H17.645C18.2923 24.7002 18.8169 24.1755 18.8169 23.5283ZM16.4732 22.3564H2.34375V2.34375H16.4732V22.3564Z" fill="#F7F3E3"/>
<path d="M56.4748 43.5363C55.8277 43.5363 55.3029 44.0611 55.3029 44.7082V57.6562H51.1751V54.1215C51.1751 51.5289 49.0658 49.4196 46.4732 49.4196C43.8806 49.4196 41.7714 51.5289 41.7714 54.1215V57.6562H37.6434V44.7082C37.6434 44.0611 37.1187 43.5363 36.4716 43.5363C35.8243 43.5363 35.2997 44.0611 35.2997 44.7082V58.8281C35.2997 59.4752 35.8243 60 36.4716 60H56.4746C57.1218 60 57.6465 59.4752 57.6465 58.8281V44.7082C57.6466 44.061 57.1219 43.5363 56.4748 43.5363ZM44.1151 57.6562V54.1215C44.1151 52.8212 45.1728 51.7633 46.4732 51.7633C47.7735 51.7633 48.8313 52.8212 48.8313 54.1215V57.6562H44.1151Z" fill="#F7F3E3"/>
<path d="M30 26.4749C28.0562 26.4749 26.4748 28.0563 26.4748 30C26.4748 31.9437 28.0562 33.5252 30 33.5252C31.9438 33.5252 33.5252 31.9438 33.5252 30C33.5252 28.0562 31.9438 26.4749 30 26.4749ZM30 31.1815C29.3484 31.1815 28.8185 30.6516 28.8185 30C28.8185 29.3486 29.3484 28.8186 30 28.8186C30.6516 28.8186 31.1815 29.3487 31.1815 30C31.1815 30.6516 30.6516 31.1815 30 31.1815Z" fill="#F7F3E3"/>
<path d="M37.9904 37.3307L40.3437 33.2546C40.6673 32.6941 40.4753 31.9775 39.9148 31.6539L38.205 30.6667C38.242 30.2214 38.242 29.7786 38.205 29.3334L39.9148 28.3464C40.4753 28.0228 40.6673 27.3061 40.3437 26.7456L37.9904 22.6694C37.6669 22.1091 36.9506 21.917 36.3896 22.2405L34.6788 23.2282C34.3124 22.9743 33.9272 22.7514 33.5252 22.5608V20.5868C33.5252 19.9396 33.0005 19.4149 32.3534 19.4149H27.6466C26.9994 19.4149 26.4748 19.9396 26.4748 20.5868V22.5608C26.0728 22.7514 25.6876 22.9743 25.3212 23.2282L23.6104 22.2405C23.0497 21.9169 22.3331 22.1089 22.0096 22.6694L19.6563 26.7456C19.3327 27.3061 19.5247 28.0228 20.0852 28.3464L21.795 29.3334C21.758 29.7787 21.758 30.2215 21.795 30.6667L20.0852 31.6539C19.5247 31.9775 19.3327 32.6941 19.6563 33.2546L22.0096 37.3307C22.3332 37.891 23.0497 38.0832 23.6104 37.7596L25.3212 36.7719C25.6876 37.0257 26.0728 37.2486 26.4748 37.4392V39.4132C26.4748 40.0603 26.9994 40.5851 27.6466 40.5851H32.3534C33.0005 40.5851 33.5252 40.0603 33.5252 39.4132V37.4392C33.9272 37.2486 34.3124 37.0257 34.6788 36.7719L36.3896 37.7596C36.9503 38.0832 37.667 37.891 37.9904 37.3307ZM33.8243 34.4748C33.2707 34.9485 32.6445 35.3108 31.9627 35.5519C31.4945 35.7175 31.1815 36.1601 31.1815 36.6567V38.2413H28.8185V36.6567C28.8185 36.1602 28.5055 35.7175 28.0373 35.5519C27.3557 35.3107 26.7293 34.9485 26.1757 34.4748C25.7981 34.1521 25.2582 34.1019 24.8279 34.3503L23.4533 35.1439L22.272 33.0976L23.6456 32.3045C24.0754 32.0564 24.3022 31.5647 24.2121 31.0766C24.0782 30.3523 24.0782 29.648 24.2121 28.9232C24.3022 28.4353 24.0752 27.9436 23.6456 27.6955L22.272 26.9024L23.4533 24.856L24.8279 25.6495C25.2582 25.898 25.7981 25.848 26.1757 25.5251C26.7293 25.0515 27.3555 24.6892 28.0373 24.4481C28.5055 24.2825 28.8185 23.8399 28.8185 23.3433V21.7586H31.1815V23.3433C31.1815 23.8399 31.4945 24.2825 31.9627 24.4481C32.6443 24.6892 33.2707 25.0515 33.8243 25.5251C34.2018 25.848 34.7416 25.8981 35.1721 25.6495L36.5466 24.856L37.7279 26.9024L36.3543 27.6955C35.9245 27.9436 35.6977 28.4353 35.7878 28.9233C35.9217 29.6476 35.9217 30.3521 35.7878 31.0768C35.6978 31.5647 35.9245 32.0564 36.3543 32.3046L37.7279 33.0977L36.5466 35.1441L35.1721 34.3505C34.7419 34.102 34.2018 34.1519 33.8243 34.4748Z" fill="#F7F3E3"/>
<path d="M35.295 8.22702H48.243V20.6992L46.7135 19.1698C46.2558 18.7121 45.514 18.7121 45.0561 19.1699C44.5985 19.6275 44.5985 20.3695 45.0561 20.8271L48.5862 24.3571C49.0379 24.8088 49.7842 24.8164 50.2436 24.3571L53.7735 20.8271C54.2311 20.3695 54.2311 19.6275 53.7735 19.1698C53.3157 18.7123 52.5739 18.7123 52.1161 19.1698L50.5867 20.6992V7.05515C50.5867 6.40792 50.0619 5.88327 49.4148 5.88327H35.2949C34.6478 5.88327 34.123 6.40792 34.123 7.05515C34.1231 7.70237 34.6478 8.22702 35.295 8.22702Z" fill="#F7F3E3"/>
<path d="M24.3571 48.5863L20.8272 45.0563C20.3695 44.5989 19.6277 44.5988 19.1698 45.0563C18.7122 45.5139 18.7122 46.2559 19.1698 46.7136L20.6993 48.2432H8.22703V32.9417C8.22703 32.2945 7.70227 31.7698 7.05516 31.7698C6.40805 31.7698 5.88328 32.2945 5.88328 32.9417V49.4149C5.88328 50.062 6.40793 50.5868 7.05516 50.5868H20.6992L19.1698 52.1162C18.7122 52.5738 18.7122 53.3159 19.1698 53.7736C19.6277 54.2313 20.3693 54.2311 20.8272 53.7736L24.3571 50.2437C24.8157 49.7849 24.8102 49.0395 24.3571 48.5863Z" fill="#F7F3E3"/>
<path d="M5.87848 7.05035H7.05515C7.70226 7.05035 8.22703 6.52571 8.22703 5.87848C8.22703 5.23125 7.70226 4.7066 7.05515 4.7066H5.87848C5.23125 4.7066 4.7066 5.23125 4.7066 5.87848C4.7066 6.52571 5.23137 7.05035 5.87848 7.05035Z" fill="#F7F3E3"/>
<path d="M5.87848 11.7571H7.05515C7.70226 11.7571 8.22703 11.2324 8.22703 10.5852C8.22703 9.93798 7.70226 9.41333 7.05515 9.41333H5.87848C5.23125 9.41333 4.7066 9.93798 4.7066 10.5852C4.7066 11.2324 5.23137 11.7571 5.87848 11.7571Z" fill="#F7F3E3"/>
<path d="M11.7618 7.05035H12.9384C13.5855 7.05035 14.1103 6.52571 14.1103 5.87848C14.1103 5.23125 13.5855 4.7066 12.9384 4.7066H11.7618C11.1146 4.7066 10.5899 5.23125 10.5899 5.87848C10.5899 6.52571 11.1146 7.05035 11.7618 7.05035Z" fill="#F7F3E3"/>
<path d="M11.7618 11.7571H12.9384C13.5855 11.7571 14.1103 11.2324 14.1103 10.5852C14.1103 9.93798 13.5855 9.41333 12.9384 9.41333H11.7618C11.1146 9.41333 10.5899 9.93798 10.5899 10.5852C10.5899 11.2324 11.1146 11.7571 11.7618 11.7571Z" fill="#F7F3E3"/>
<path d="M60 45.8801H32.6834L47.0953 33.8214L60 45.8801Z" fill="#DFC58A"/>
</g>
<defs>
<clipPath id="clip0_116_178">
<rect width="60" height="60" fill="white"/>
</clipPath>
</defs>
</svg>
