<svg style="display: none;" aria-hidden="true" xmlns="http://www.w3.org/2000/svg" xmlns:xlink="http://www.w3.org/1999/xlink"><symbol viewBox="0 0 10 22" fill="none" id="svg-arrow-left"><path d="M9 20.2728L0.99997 10.7739L9 1" stroke="#A7A2BD" stroke-width="2" stroke-miterlimit="10" stroke-linecap="round" stroke-linejoin="round"/></symbol><symbol viewBox="0 0 10 22" fill="none" id="svg-arrow-right"><path d="M1 20.2728L9.00003 10.7739L1 1" stroke="#A7A2BD" stroke-width="2" stroke-miterlimit="10" stroke-linecap="round" stroke-linejoin="round"/></symbol><symbol viewBox="0 0 10 18" fill="none" id="svg-facebook"><path d="M7.99813 2.98875H9.64138V0.12675C9.35788 0.08775 8.38288 0 7.24738 0C4.87813 0 3.25513 1.49025 3.25513 4.22925V6.75H0.640625V9.9495H3.25513V18H6.46063V9.95025H8.96938L9.36763 6.75075H6.45988V4.5465C6.46063 3.62175 6.70963 2.98875 7.99813 2.98875Z" fill="#A7A2BD"/></symbol><symbol viewBox="0 0 22 22" fill="none" id="svg-instagram"><path d="M21.9339 6.46478C21.8803 5.29388 21.6944 4.49426 21.4224 3.79468C21.1463 3.06068 20.7133 2.39584 20.1537 1.84631C19.6043 1.28671 18.9393 0.8535 18.2053 0.577225C17.5056 0.305481 16.7061 0.119675 15.5352 0.0664673C14.3621 0.0127563 13.9873 0 11 0C8.01266 0 7.63786 0.0127563 6.46478 0.0661316C5.29388 0.119675 4.49443 0.305649 3.79468 0.57756C3.06068 0.853668 2.39584 1.28671 1.84631 1.84631C1.28671 2.39568 0.8535 3.06052 0.577225 3.79451C0.305481 4.49426 0.119675 5.29388 0.0664673 6.46461C0.0127563 7.63786 0 8.0125 0 10.9998C0 13.9873 0.0127563 14.3621 0.0664673 15.5352C0.119843 16.7059 0.305817 17.5056 0.577728 18.2053C0.853836 18.9391 1.28688 19.6042 1.84648 20.1535C2.39584 20.7131 3.06085 21.1462 3.79485 21.4223C4.49443 21.6944 5.29405 21.8802 6.46495 21.9337C7.6382 21.9872 8.01283 21.9998 11.0002 21.9998C13.9875 21.9998 14.3623 21.9872 15.5354 21.9337C16.7063 21.8802 17.5057 21.6944 18.2055 21.4223C19.683 20.8509 20.8511 19.6829 21.4224 18.2053C21.6945 17.5056 21.8803 16.7059 21.9339 15.5352C21.9872 14.362 22 13.9873 22 11C22 8.0125 21.9872 7.63786 21.9339 6.46478ZM19.9538 15.4451C19.9049 16.5176 19.7257 17.1001 19.5751 17.4876C19.205 18.447 18.4469 19.2052 17.4874 19.5753C17.0999 19.7258 16.5175 19.9051 15.4449 19.9539C14.2853 20.007 13.9373 20.0181 11 20.0181C8.06252 20.0181 7.71474 20.007 6.55492 19.9539C5.48254 19.9051 4.90012 19.7258 4.51239 19.5753C4.0347 19.3989 3.60249 19.1177 3.24767 18.7523C2.88226 18.3975 2.60112 17.9655 2.42471 17.4876C2.27415 17.1001 2.09489 16.5176 2.04605 15.4451C1.99318 14.2853 1.98193 13.9373 1.98193 11.0002C1.98193 8.06285 1.99318 7.71507 2.04605 6.55508C2.09506 5.48254 2.27415 4.90012 2.42471 4.51256C2.60112 4.0347 2.88243 3.60249 3.24767 3.24767C3.60249 2.88226 4.0347 2.60112 4.51256 2.42488C4.90012 2.27415 5.48254 2.09506 6.55508 2.04605C7.7149 1.99318 8.06285 1.98193 11 1.98193H10.9998C13.937 1.98193 14.2849 1.99318 15.4449 2.04622C16.5175 2.09506 17.0997 2.27432 17.4874 2.42488C17.9651 2.60129 18.3973 2.88243 18.7522 3.24767C19.1176 3.60249 19.3987 4.0347 19.575 4.51256C19.7257 4.90012 19.9049 5.48254 19.9538 6.55508C20.0067 7.7149 20.0179 8.06285 20.0179 11C20.0179 13.9373 20.0068 14.2851 19.9538 15.4451Z" fill="#A7A2BD"/><path d="M11.0001 5.35156C7.88051 5.35156 5.35156 7.88068 5.35156 11.0003 5.35156 14.1199 7.88051 16.6488 11.0001 16.6488 14.1199 16.6488 16.6488 14.1199 16.6488 11.0003 16.6488 7.88068 14.1199 5.35156 11.0001 5.35156zM11.0001 14.6669C8.9752 14.6667 7.3335 13.0252 7.33366 11.0001 7.33366 8.9752 8.9752 7.3335 11.0003 7.3335 13.0253 7.33366 14.6669 8.9752 14.6669 11.0001 14.6669 13.0252 13.0252 14.6669 11.0001 14.6669zM18.1918 5.12773C18.1918 5.85669 17.6008 6.44768 16.8719 6.44768 16.1427 6.44768 15.5518 5.85669 15.5518 5.12773 15.5518 4.39861 16.1427 3.80762 16.8719 3.80762 17.6008 3.80762 18.1918 4.39861 18.1918 5.12773z" fill="#A7A2BD"/></symbol><symbol viewBox="0 0 18 17" fill="none" id="svg-linkedin"><path d="M4.08621 16.9997V5.5293H0.227593V16.9997H4.08654H4.08621ZM2.15757 3.96349C3.5029 3.96349 4.34043 3.08264 4.34043 1.98191C4.31515 0.856196 3.50289 0 2.18319 0C0.862486 0 0 0.856196 0 1.98191C0 3.08264 0.837198 3.96349 2.13228 3.96349H2.15723H2.15757ZM6.22186 16.9997H10.0801V10.5948C10.0801 10.2524 10.1054 9.90923 10.2072 9.66469C10.4861 8.9794 11.121 8.27013 12.1871 8.27013C13.583 8.27013 14.1417 9.32188 14.1417 10.864V16.9997H18V10.4229C18 6.89988 16.0967 5.26044 13.5581 5.26044C11.4767 5.26044 10.5626 6.40981 10.0548 7.19272H10.0805V5.52963H6.2222C6.27244 6.60571 6.22186 17 6.22186 17V16.9997Z" fill="#A7A2BD"/></symbol><symbol viewBox="0 0 21 21" fill="none" id="svg-telegram"><rect x="1" y="1" width="19" height="19" rx="9.5" stroke="#E35BE1" stroke-width="2"/><rect x="1" y="1" width="19" height="19" rx="9.5" stroke="url(#fpaint0_linear_107_249)" stroke-width="2"/><path d="M4.95817 10.3043L7.37759 11.2472L8.31405 14.3918C8.37399 14.5931 8.60985 14.6675 8.76635 14.5339L10.115 13.386C10.2563 13.2656 10.4577 13.2597 10.6054 13.3717L13.0379 15.2156C13.2053 15.3427 13.4426 15.2469 13.4846 15.0356L15.2665 6.08612C15.3124 5.8553 15.0952 5.66276 14.8847 5.74779L4.95537 9.74735C4.71031 9.84596 4.71241 10.2082 4.95817 10.3043ZM8.16312 10.7453L12.8916 7.70454C12.9765 7.65007 13.064 7.77004 12.9909 7.84073L9.08865 11.6282C8.95145 11.7615 8.86299 11.9399 8.83792 12.1336L8.70505 13.1622C8.68735 13.2995 8.50269 13.3131 8.46632 13.1802L7.95509 11.3045C7.89659 11.0906 7.98189 10.8621 8.16312 10.7453Z" fill="#E35BE1"/><path d="M4.95817 10.3043L7.37759 11.2472L8.31405 14.3918C8.37399 14.5931 8.60985 14.6675 8.76635 14.5339L10.115 13.386C10.2563 13.2656 10.4577 13.2597 10.6054 13.3717L13.0379 15.2156C13.2053 15.3427 13.4426 15.2469 13.4846 15.0356L15.2665 6.08612C15.3124 5.8553 15.0952 5.66276 14.8847 5.74779L4.95537 9.74735C4.71031 9.84596 4.71241 10.2082 4.95817 10.3043ZM8.16312 10.7453L12.8916 7.70454C12.9765 7.65007 13.064 7.77004 12.9909 7.84073L9.08865 11.6282C8.95145 11.7615 8.86299 11.9399 8.83792 12.1336L8.70505 13.1622C8.68735 13.2995 8.50269 13.3131 8.46632 13.1802L7.95509 11.3045C7.89659 11.0906 7.98189 10.8621 8.16312 10.7453Z" fill="url(#fpaint1_linear_107_249)"/><defs><linearGradient id="fpaint0_linear_107_249" x1="25.223" y1="1.544" x2="-.508" y2="2.241" gradientUnits="userSpaceOnUse"><stop stop-color="#F291FF"/><stop offset=".807" stop-color="#A9B6FF"/></linearGradient><linearGradient id="fpaint1_linear_107_249" x1="17.384" y1="6.429" x2="4.521" y2="6.812" gradientUnits="userSpaceOnUse"><stop stop-color="#F291FF"/><stop offset=".807" stop-color="#A9B6FF"/></linearGradient></defs></symbol><symbol viewBox="0 0 22 16" fill="none" id="svg-youtube"><path fill-rule="evenodd" clip-rule="evenodd" d="M18.502 0.1265C19.8206 0.20075 20.4683 0.396 21.065 1.4575C21.6865 2.51762 22 4.34363 22 7.55975V7.56388V7.57075C22 10.7717 21.6865 12.6115 21.0664 13.6606C20.4696 14.7221 19.822 14.9146 18.5034 15.004C17.1847 15.0796 13.8724 15.125 11.0027 15.125C8.12762 15.125 4.81388 15.0796 3.49662 15.0026C2.18075 14.9132 1.53312 14.7207 0.930875 13.6593C0.31625 12.6101 0 10.7704 0 7.56938V7.56663V7.5625V7.55838C0 4.34363 0.31625 2.51762 0.930875 1.4575C1.53312 0.394625 2.18212 0.20075 3.498 0.125125C4.81387 0.0371251 8.12762 0 11.0027 0C13.8724 0 17.1847 0.037125 18.502 0.1265ZM15.125 7.5625L8.25 3.4375V11.6875L15.125 7.5625Z" fill="#A7A2BD"/></symbol></svg>