<svg width="148" height="37" viewBox="0 0 148 37" fill="none" xmlns="http://www.w3.org/2000/svg">
<g clip-path="url(#clip0_59_961)">
<path fill-rule="evenodd" clip-rule="evenodd" d="M47.348 29.1333L49.1951 24.8928C51.1901 26.3668 53.8482 27.133 56.4708 27.133C58.4066 27.133 59.632 26.396 59.632 25.2789C59.6024 22.1556 48.0348 24.6004 47.946 16.7688C47.9164 12.7915 51.492 9.72671 56.5596 9.72671C59.5728 9.72671 62.5802 10.4637 64.7292 12.1423L63.0005 16.4705C61.0351 15.2305 58.5901 14.3473 56.2636 14.3473C54.6829 14.3473 53.641 15.0843 53.641 16.026C53.6706 19.0908 65.3271 17.4121 65.4455 24.8928C65.4455 28.9578 61.9586 31.8179 56.9503 31.8179C53.2799 31.8121 49.9114 30.9581 47.348 29.1333ZM118.276 23.3604C117.352 24.9513 115.623 26.0392 113.622 26.0392C110.668 26.0392 108.289 23.6821 108.289 20.7694C108.289 17.8567 110.674 15.4996 113.622 15.4996C115.617 15.4996 117.352 16.5874 118.276 18.1783L123.373 15.3826C121.466 12.0253 117.796 9.72671 113.622 9.72671C107.448 9.72671 102.44 14.6749 102.44 20.7752C102.44 26.8756 107.448 31.8238 113.622 31.8238C117.826 31.8238 121.466 29.5544 123.373 26.1679L118.276 23.3604ZM68.0088 0.561523H74.3906V31.4027H68.0088V0.561523ZM125.877 0.561523V31.4027H132.259V22.1497L139.83 31.4027H148L138.368 20.4126L147.284 10.1595H139.469L132.253 18.6696V0.561523H125.877Z" fill="#848A9C"/>
<path d="M93.3518 23.4188C92.4283 24.9219 90.5221 26.0391 88.3731 26.0391C85.419 26.0391 83.0392 23.682 83.0392 20.7692C83.0392 17.8565 85.4249 15.4994 88.3731 15.4994C90.5221 15.4994 92.4283 16.675 93.3518 18.2074V23.4188ZM93.3518 10.1652V12.6685C92.3099 10.9314 89.7169 9.7207 86.9997 9.7207C81.3934 9.7207 76.983 14.6104 76.983 20.74C76.983 26.8696 81.3934 31.8178 86.9997 31.8178C89.711 31.8178 92.304 30.6129 93.3518 28.8699V31.3732H99.7336V10.1652H93.3518Z" fill="#848A9C"/>
<path fill-rule="evenodd" clip-rule="evenodd" d="M7.9039 23.3895C7.9039 25.5419 6.14566 27.279 3.9671 27.279C1.78854 27.279 0.030304 25.536 0.030304 23.3895C0.030304 21.243 1.78854 19.5 3.9671 19.5H7.9039V23.3895ZM9.86934 23.3895C9.86934 21.2371 11.6276 19.5 13.8061 19.5C15.9847 19.5 17.7429 21.2371 17.7429 23.3895V33.1103C17.7429 35.2627 15.9847 36.9998 13.8061 36.9998C11.6276 36.9998 9.86934 35.2627 9.86934 33.1103V23.3895Z" fill="#848A9C"/>
<path fill-rule="evenodd" clip-rule="evenodd" d="M13.8054 7.77901C11.6269 7.77901 9.86864 6.04189 9.86864 3.8895C9.86864 1.73712 11.6269 0 13.8054 0C15.984 0 17.7422 1.73712 17.7422 3.8895V7.77901H13.8054ZM13.8054 9.75008C15.984 9.75008 17.7422 11.4872 17.7422 13.6396C17.7422 15.792 15.984 17.5291 13.8054 17.5291H3.9368C1.75824 17.5291 0 15.7861 0 13.6396C0 11.493 1.75824 9.75008 3.9368 9.75008H13.8054Z" fill="#848A9C"/>
<path fill-rule="evenodd" clip-rule="evenodd" d="M29.5766 13.6396C29.5766 11.4872 31.3349 9.75008 33.5134 9.75008C35.692 9.75008 37.4502 11.4872 37.4502 13.6396C37.4502 15.792 35.692 17.5291 33.5134 17.5291H29.5766V13.6396ZM27.6112 13.6396C27.6112 15.792 25.8529 17.5291 23.6744 17.5291C21.4958 17.5291 19.7375 15.792 19.7375 13.6396V3.8895C19.7375 1.73712 21.4958 0 23.6744 0C25.8529 0 27.6112 1.73712 27.6112 3.8895V13.6396Z" fill="#848A9C"/>
<path fill-rule="evenodd" clip-rule="evenodd" d="M23.6744 29.2208C25.8529 29.2208 27.6112 30.9579 27.6112 33.1103C27.6112 35.2627 25.8529 36.9998 23.6744 36.9998C21.4958 36.9998 19.7375 35.2627 19.7375 33.1103V29.2208H23.6744ZM23.6744 27.279C21.4958 27.279 19.7375 25.5419 19.7375 23.3895C19.7375 21.2371 21.4958 19.5 23.6744 19.5H33.543C35.7216 19.5 37.4798 21.2371 37.4798 23.3895C37.4798 25.5419 35.7216 27.279 33.543 27.279H23.6744Z" fill="#848A9C"/>
</g>
<defs>
<clipPath id="clip0_59_961">
<rect width="148" height="37" fill="white"/>
</clipPath>
</defs>
</svg>
