<svg xmlns="http://www.w3.org/2000/svg" width="495" height="400"><path fill="#292F6D" d="M374.152 338.787c-4.963-4.063-8.572-18.498-9.926-35.193-1.354-16.693-8.573-27.068-13.084-33.387-4.512-6.316-4.512-16.24-4.512-16.24l4.512-.904s0-9.473-.451-20.301.29-19.482 4.232-31.309c3.943-11.826-3.66-22.806-3.66-22.806s2.254-1.128 4.787-4.223c2.533-3.097-4.506-6.476-4.506-6.476s7.322-12.387 9.574-18.864c2.251-6.476 2.532-9.292 0-22.242-2.533-12.951-2.252-23.086-2.252-30.125 0-4.13-1.162-7.571-2.124-9.718 7.772-7.39-2.573-9.472 2.207-16.717 5.202-7.881-7.263-6.796-3.313-16.381 3.949-9.586-7.943 2.556-7.684-16.514.157-11.576-10.094-18.322-20.579-18.562a22.647 22.647 0 00-2.011-.094 13.233 13.233 0 00-4.676.861c-4.375 1.142-8.389 3.558-11.211 7.413-3.401 4.644-2.194 13.057.958 17.795-.157.993-.365 2.407-.22 4.874.289 4.939 3.777 11.912 5.229 15.689 1.453 3.777 4.068 4.067 6.974 3.777.165-.017.319-.008.467.014-.2 2.771-3.694 5.756-1.86 8.608 2.807 4.363-3.428 7.479-1.87 13.401.181.686.526 1.285.996 1.813-3.854 4.614-8.647 10.121-12.55 16.549-4.939 8.135-4.068 17.724-4.068 24.986 0 7.264-1.161 22.372-1.161 22.372l-22.082-.289-3.128 48.022 23.665.789s-2.366 6.313-2.892 9.729c-.525 3.42.789 7.889.789 9.992 0 2.105 2.893 0 3.681 2.105.788 2.102 2.894 2.893 2.894 0s.525-6.574.525-6.574 2.367-.527 2.893 6.311c.525 6.836-1.316 21.299-1.316 24.717s5.523 2.365 5.523 2.365 0 3.684 1.051 8.68c1.053 4.992 4.207 16.828 4.207 16.828s0 6.311-.262 9.727c-.265 3.42-1.842 11.307-2.893 21.561-1.053 10.258-4.997 27.609-8.416 36.025-3.418 8.414-8.939 22.35-11.832 23.928-2.891 1.578-7.625-.787-9.992 2.104-2.366 2.893 3.945 7.891 13.41 10.256 9.467 2.365 9.994-3.943 12.887-8.414 2.891-4.471 9.991-10.781 11.569-9.992 1.578.791.788 3.943.788 8.414s-1.053 9.992-1.053 9.992h3.418v-7.363c0-2.367.791-7.889 2.63-12.359 1.842-4.469 3.156-10.252.788-12.621-2.366-2.365-5.258-5.258-3.68-9.729s9.729-25.77 12.095-31.291c2.366-5.523 2.104-17.09 2.104-17.09s3.68 8.676 6.311 16.039c2.63 7.363 9.203 27.082 11.043 33.395 1.842 6.311 0 18.406-1.052 23.139-1.052 4.734-6.573 2.629-11.044 3.943-4.469 1.314-1.578 6.838 6.838 9.203 8.414 2.367 12.621-1.314 14.725-5.258 2.104-3.945 6.574-12.357 9.466-14.199 2.891-1.84 4.206 4.207 4.733 8.678.527 4.469 0 8.414 0 8.414l2.104-.525v-8.152c0-3.418 1.314-11.307 1.314-18.145.001-6.838-5.064-6.392-10.027-10.451zM326.798 83.904c1.76-2.862 1.534-7.284 1.438-9.436 2.761-2.742 6.878-5.536 10.565-7.035 3.146-1.28 6.713-1.763 9.105-1.829.18.621.363 1.224.547 1.812l.113.363c.152.483.305.95.453 1.396.021.061.042.13.063.19-11.359-.557-17.592 8.063-22.284 14.539z"/><path fill="#FFF" d="M348.453 67.416a85.629 85.629 0 01-.547-1.812c-2.393.066-5.959.548-9.105 1.829-3.688 1.5-7.805 4.293-10.565 7.035.097 2.152.322 6.574-1.438 9.436 4.692-6.476 10.925-15.096 22.284-14.539l-.063-.19a98.234 98.234 0 01-.453-1.396l-.113-.363z"/><path fill="none" d="M447.357 270.766c-.406 2.406-.864 4.916-1.229 6.373-.858 3.441.519 5.68.519 8.09s.517 5.508.517 5.508.039-1.656.193-3.664c.168-2.191.472-4.801 1.012-6.148 1.031-2.58.171-8.262 0-16.523 0-.002-.458 3.088-1.012 6.364z"/><path fill="#292F6D" d="M490.647 149.906c2.88-6.024 3.666-15.452 2.618-23.57-1.049-8.12-1.572-20.167-4.191-27.238-2.618-7.072-13.093-7.596-13.093-7.596s.521-3.666-2.621-7.333c-3.142-3.666-3.666-7.856-4.452-14.142s-2.355-10.476-2.355-14.405c0-3.927-1.311-3.404-2.884-10.475-1.559-7.018-8.275-14.549-16.312-14.408l-.185.004c-12.832.104-15.96 19.44-17.099 25.696-1.137 6.255-2.559 9.951-.569 14.786 1.992 4.834-.567 6.257-5.118 9.953-4.549 3.698-.852 7.963-.852 7.963s-4.551 2.843-8.249 3.413c-3.692.568-7.391 13.079-8.245 20.188-.854 7.108-1.137 6.541-1.989 11.944-.853 5.401-.567 18.481 0 27.581.569 9.1 11.374 9.668 11.374 9.668s.284 8.815-1.14 13.933c-1.42 5.119-8.529 17.916-6.538 18.767 1.989.855 7.962 1.423 7.962 1.423s-1.14 14.503-.569 21.896c.569 7.395 1.99 31.848 1.99 40.379s6.256 5.688 6.256 5.688.569 5.119 1.422 11.09c.855 5.971 0 13.65-.568 22.465s9.101 43.223 11.658 51.186c2.56 7.959 4.266 11.656 2.844 16.773-1.42 5.121.568 6.541.285 15.357-.249 7.662 2.943 13.174 7.33 14.484a7.076 7.076 0 002.052.301c5.404 0 6.541-13.648 5.404-16.775-1.139-3.129-1.42-7.109-1.42-7.109s1.988 2.273 4.548 3.127c2.562.854 6.539 1.139 9.384-.854 2.844-1.988-2.558-9.953-6.255-13.932-3.695-3.98-7.109-13.648-7.109-21.611s6.823-26.73 10.235-37.818c3.413-11.092 1.423-21.611 2.561-23.889 1.14-2.273.853-11.658.853-11.658h3.412c2.276 0 2.472 1.076 2.472-4.828s4.831-29.525 6.977-38.65c2.149-9.127 2.059-23.32 2.059-23.32l4.712-.787c3.145-.523.523-6.285-3.143-17.285s-2.617-23.571-2.617-23.571 6.282-.788 9.165-6.811zm-57.139-6.917c-.151 2.9-.916 5.339-.916 5.339s-1.638.023-2.986-1.199c.609-1.832.852-7.498.852-7.498l3.051-.458c-.001.001.151.916-.001 3.816zm14.861 137.935c-.54 1.348-.844 3.957-1.012 6.148-.154 2.008-.193 3.664-.193 3.664s-.517-3.098-.517-5.508-1.377-4.648-.519-8.09c.364-1.457.822-3.967 1.229-6.373.554-3.275 1.012-6.365 1.012-6.365.171 8.262 1.031 13.944 0 16.524zm2.488-159.568c-.295 2.374-3.359-4.645-5.139-12.258-1.78-7.612-5.044-18.684-4.84-25.93 0 0 5.688 4.835 5.688 8.531 0 3.697 2.559 15.926 3.698 19.622 1.137 3.695 1.704-4.551 3.695-8.248 1.989-3.696 2.845-6.825 1.705-9.667-1.137-2.845 3.238-4.093 6.084-11.202.372 2.679.182 4.848.082 7.518-.1 2.67-4.646 15.916-5.932 18.488-1.284 2.568-4.742 10.774-5.041 13.146zm13.215 43.579s-4.444 1.692-4.231 0c.212-1.692 1.057-7.407 1.057-7.407h3.175v7.407z"/><path fill="#FFF" d="M461.75 82.204c-2.846 7.109-7.221 8.357-6.084 11.202 1.14 2.843.284 5.971-1.705 9.667-1.991 3.696-2.559 11.943-3.695 8.248-1.14-3.696-3.698-15.925-3.698-19.622 0-3.696-5.688-8.531-5.688-8.531-.204 7.247 3.06 18.318 4.84 25.93 1.779 7.614 4.844 14.632 5.139 12.258.299-2.372 3.757-10.578 5.043-13.147 1.285-2.572 5.832-15.817 5.932-18.488.098-2.669.288-4.838-.084-7.517zm-31.293 57.428s-.242 5.666-.852 7.498c1.349 1.222 2.986 1.199 2.986 1.199s.765-2.439.916-5.339c.152-2.9 0-3.815 0-3.815l-3.05.457zm29.384 25.303c-.213 1.692 4.231 0 4.231 0v-7.407h-3.175s-.844 5.715-1.056 7.407z"/><path fill="#292F6D" d="M33.306 85.454c1.521 2.529 5.229 3.88 6.746 5.567 1.521 1.688-1.517 3.545 0 6.243 1.521 2.699 2.87 4.217 2.87 4.217s-.503-2.868.171-5.229c.673-2.364 2.53-.171 3.878-3.882 1.259-3.455 2.369-10.419 3.331-15.448.025.034.046.058.071.089-.519-.677-1.19-1.852-1.19-3.416 0-2.545.09-3.991 1.615-5.011 1.531-1.016 3.133-6.281 2.627-7.632 3.383.091 5.042-12.563 2.209-12.563-.15-10.963-2.912-20.633-14.938-20.715C27.149 27.582 25.8 38.276 25.04 48.069c-2.796.223-1.273 13.946 2.793 14.025-.338 4.958 2.299 7.426 3.648 9.726.925 1.577.042 3.33-1.283 4.804l.004-.005c.401 2.724 1.751 6.582 3.104 8.835z"/><path fill="#292F6D" d="M84.319 115.353c-1.275-6.11-1.528-12.987-3.054-12.477-1.53.51-1.786-6.621-1.786-10.186 0-3.563-8.656-6.618-13.493-6.873-4.837-.255-9.165-1.782-9.673-4.585-.324-1.773-2.382-2.728-3.849-3.19 1.788 3.729 2.604 19.306 2.604 24.282 0 5.061-3.205 15.184-5.062 20.417-1.855 5.228-2.024 10.291-2.024 10.291s-2.192-8.944-4.723-16.029c-2.53-7.086-7.594-16.362-11.136-22.945-2.945-5.467-4.025-10.82-4.305-15.282-1.92 1.724-3.62 4.775-7.768 7.829-4.438 3.273-7.709 2.571-12.852 3.976-5.141 1.402-4.207 2.804-4.207 6.31s-1.4 13.556-1.637 27.347c-.233 13.788.109 24.787 1.902 31.604 1.792 6.815 8.071 6.636 8.071 6.636s-.718 5.378-1.616 11.656c-.894 6.279 0 7.535 0 7.535s0 2.868-.894 11.301c-.899 8.432-1.391 22.443-1.391 32.629S6.405 258.445 6.15 260.48c-.254 2.037 10.696 2.037 10.696 2.037s0 .766.253 4.84c.255 4.072-1.019 10.439-1.275 19.096-.252 8.656.511 28.518 4.329 38.701 3.818 10.184 5.348 26.479 4.583 31.824-.766 5.348-1.527 10.695-.253 13.494 1.272 2.801.508 12.477 1.527 15.787 1.019 3.307 11.203 6.111 14.768 6.111 3.564 0 3.31-4.074 4.074-6.367.763-2.289-3.818-10.947-3.818-10.947v-3.563s2.545 3.053 4.327 6.111c1.784 3.053.254 8.398 2.29 10.18 2.039 1.781 12.989 1.531 17.826 1.275s.763-2.801-1.274-4.582c-2.037-1.783-3.054-3.82-6.111-8.656-3.056-4.84-5.602-14.514-5.855-24.189-.255-9.678 2.291-25.207 3.054-32.082.764-6.875.764-34.627 1.274-40.227.508-5.602 1.019-14.004 1.019-14.004s2.291.254 5.09.254c2.803 0 11.459.254 11.459-2.291v-42.266c0-14.002-1.017-41.249.509-41.249 1.528 0 0-5.602-1.017-13.748-1.018-8.147-1.274-11.965-1.274-11.965s11.223.235 16.022-5.937c4.801-6.172-2.781-26.656-4.054-32.764zm-28.527 64.171c-5.214 0-6.894-2.237-6.894-2.237s-7.639 5.032-14.903 3.913c-7.266-1.117-9.126-3.542-9.126-3.542s9.685 1.678 13.785-1.675c4.1-3.353 4.286-6.521 4.472-12.108h2.792s2.794 8.383 7.081 10.247c4.285 1.862 11.924 2.048 11.924 2.048s-3.912 3.354-9.131 3.354z"/><path fill="#FFF" d="M43.261 117.002c2.531 7.085 4.723 16.029 4.723 16.029s.168-5.063 2.024-10.291c1.856-5.232 5.062-15.355 5.062-20.417 0-4.977-.817-20.554-2.604-24.282l-.001-.002c-.048-.015-.086-.024-.133-.038a9.503 9.503 0 00-.528-.149 15.042 15.042 0 00-.4-.096l-.05-.011-.25-.051-.058-.011-.082-.014-.065-.061a3.894 3.894 0 01-.181-.185c-.02-.021-.042-.047-.063-.071a7.205 7.205 0 01-.198-.235c-.027-.034-.055-.068-.083-.106-.025-.031-.046-.055-.071-.089-.962 5.029-2.072 11.994-3.331 15.448-1.348 3.71-3.206 1.518-3.878 3.882-.674 2.361-.171 5.229-.171 5.229s-1.348-1.518-2.87-4.217c-1.517-2.698 1.521-4.555 0-6.243-1.517-1.687-5.225-3.038-6.746-5.567-1.354-2.252-2.703-6.11-3.104-8.835l-.004.005a13.26 13.26 0 01-.934.933l-.062.056c-.322.291-.649.565-.969.814a6.918 6.918 0 00-.393.329l-.021.018v.002c.28 4.461 1.36 9.815 4.305 15.282 3.542 6.583 8.606 15.859 11.136 22.944zm2.657 46.873h-2.792c-.187 5.588-.373 8.756-4.472 12.108-4.1 3.353-13.785 1.675-13.785 1.675s1.86 2.424 9.126 3.542c7.264 1.119 14.903-3.913 14.903-3.913s1.679 2.237 6.894 2.237c5.219 0 9.131-3.354 9.131-3.354s-7.64-.187-11.924-2.048c-4.287-1.864-7.081-10.247-7.081-10.247z"/><path fill="none" d="M218.236 208.193a2.23 2.23 0 01-.429.039c-2.368 0-3.256.297-3.256.297s.889 3.553.889 6.811c0 3.256-.296 6.512-.296 6.512l3.093-.463 2.83-.422s-.594-4.441.296-7.404c.888-2.963.589-5.627 0-8.885-.001 0-1.043 3.129-3.127 3.515z"/><path fill="#1E1E1E" d="M192.892 55.792zm-26.984 4.586z"/><path fill="#292F6D" d="M180.858 67.667c3.976 0 9.391-7.853 11.855-12.442.02.08.051.156.074.234-.346-1.2-.41-2.541-.41-4.162 0-3.403 1.213-9.48 1.213-9.48s4.622.729 6.564-3.161c1.947-3.89-.486-8.75-.486-8.75s.486-10.211-.485-17.506C198.209 5.105 190.186 0 183.137 0c-12.031.443-18.649 6.032-19.134 12.471-.535 7.106-.142 13.653-.046 14.777-.738-.096-1.278-.168-1.877.411-.6.579-.071 7.601.795 10.848.865 3.247 4.33.651 4.33 2.382 0 1.732.219 4.113.649 7.145.294 2.05.09 5.778-.606 8.784.008-.035.018-.066.025-.101 2.8 5.601 9.529 10.95 13.585 10.95z"/><path fill="#292F6D" d="M235.473 219.432s-.906-2.947.906-5.215 1.816-5.441 1.133-8.844a7.606 7.606 0 01-.164-1.443c-.416-.303-4.202-2.955-8.833-2.816-4.909.146-4.982.217-7.153 2.527 0 0 0-5.449 7.373-5.449 6.67 0 8.35 4.705 8.611 5.605.037-1.818 1.117-1.98 1.301-3.637.227-2.042-.682-20.407-.906-29.022-.229-8.615-4.012-35.887-5.379-48.631-1.367-12.746-2.302-31.824-2.546-41.546-.216-8.646-5.044-10.376-11.58-12.361-.815-.247-1.659-.5-2.522-.769-7.78-2.431-17.745-6.564-20.421-8.754a8.482 8.482 0 01-1.549-1.617c.189.265.4.527.646.786-1.482 8.018-4.849 31.902-6.14 49.569-1.481 20.199 2.214 59.117 2.214 59.117s-1.346.242-5.292.387c.917-10.678.121-40.416.121-52.607 0-13.546-1.97-34.239-2.216-38.178-.247-3.944 5.667-2.71 5.667-2.71s-3.45-4.927-8.868-4.927-8.624 4.927-8.624 4.927c2.957-1.478 5.667.491 6.651 2.956.984 2.463-.491 21.183-.739 30.051-.223 8.061-.446 47.06.256 60.56-9.405-.445-25.874-5.631-25.874-5.631s2.958-5.419 5.419-12.562c2.467-7.144 6.899-38.179 8.13-64.291.624-13.229.679-19.881-.093-23.577.091-.076.161-.15.243-.225-2.722 2.497-11.044 5.608-22.075 8.366-12.127 3.032-12.56 9.745-12.776 19.057-.217 9.31-1.733 26.633-3.898 37.461-2.166 10.826 1.3 25.116-1.08 27.716-2.383 2.6-1.951 11.045 0 16.024 1.948 4.982 2.38 11.045 4.114 17.542 1.731 6.496.215 7.145.215 10.824 0 3.684 3.898 1.734 3.898 1.734s1.517 7.361-.218 17.324c-1.729 9.959-.649 45.689-.216 57.598.434 11.908-.433 44.391-.215 50.885.215 6.498-.218 18.625 1.731 21.223 1.949 2.598 5.196 5.846 2.165 8.879-3.032 3.031-1.946 7.578-.865 10.607 1.082 3.033-2.6 8.23-5.631 15.811-3.032 7.576-3.032 15.59 3.031 17.32 6.064 1.73 11.045-1.082 14.075-4.549 3.033-3.463 2.6-13.424 4.982-14.721 2.381-1.301 3.032-6.281 2.816-12.127-.218-5.848 3.896-9.529 3.896-14.076s-5.63-7.795-5.63-7.795 1.083-3.898 3.247-6.711c2.167-2.816 1.519-29.666 2.6-38.762 1.08-9.094 4.763-40.275 8.226-46.555 3.466-6.279 7.582-31.4 7.582-31.4s1.514 7.363 2.381 13.211c.868 5.848 2.815 17.541 6.065 44.391 3.245 26.85 4.33 34.213 3.895 40.492-.433 6.277-2.379 22.086-1.298 27.283 1.082 5.197-3.465 5.846.648 11.479 4.116 5.627.434 10.822 2.816 12.99 2.382 2.166 1.517 5.846 1.517 11.693s5.411 8.66 12.559 8.879c7.146.213 8.229-6.498 8.444-10.828.217-4.332-6.712-17.107-6.712-21.869 0-4.764.431-6.498 3.68-11.912s3.897-17.105 3.897-24.467-.991-26.018-.991-26.018 1.813-.227 5.442-.227c.222 0 .448.012.673.033 3.439.32 7.033 2.914 7.033 2.914l24.94-19.27 1.132-62.803-15.867.681zM134.49 186.009c-2.885 2.245-1.923 3.848-2.565 8.016 0 0-3.206-5.128 0-9.298 3.207-4.166 10.579-.961 10.579-.961s-5.129-.001-8.014 2.243zm86.872 27.554c-.89 2.963-.296 7.404-.296 7.404l-2.83.422-3.093.463s.296-3.256.296-6.512c0-3.258-.889-6.811-.889-6.811s.889-.297 3.256-.297c.149 0 .291-.012.429-.039 2.084-.387 3.126-3.516 3.126-3.516.59 3.259.889 5.923.001 8.886z"/><path fill="#1E1E1E" d="M166.278 59.718c.034-.07.067-.144.101-.217-.034.073-.067.147-.101.217zm.698-1.853l.026-.085c-.008.029-.018.055-.026.085zm-.356 1.057c.032-.083.064-.165.095-.25-.031.085-.063.167-.095.25z"/><path fill="#FFF" d="M131.925 184.727c-3.206 4.17 0 9.298 0 9.298.642-4.168-.32-5.771 2.565-8.016 2.885-2.244 8.014-2.244 8.014-2.244s-7.373-3.204-10.579.962zm96.81 13.464c-7.373 0-7.373 5.449-7.373 5.449 2.171-2.311 2.244-2.381 7.153-2.527 4.631-.139 8.417 2.514 8.833 2.816l.042.029-.044-.162c-.261-.9-1.941-5.605-8.611-5.605zM165.096 84.907c-1.231 26.111-5.664 57.147-8.13 64.291-2.461 7.143-5.419 12.562-5.419 12.562s16.468 5.186 25.874 5.631c-.702-13.5-.479-52.5-.256-60.56.248-8.868 1.724-27.587.739-30.051-.984-2.465-3.694-4.434-6.651-2.956 0 0 3.205-4.927 8.624-4.927 5.418 0 8.868 4.927 8.868 4.927s-5.914-1.233-5.667 2.71c.247 3.939 2.216 24.632 2.216 38.178 0 12.191.796 41.929-.121 52.607 3.946-.145 5.292-.387 5.292-.387s-3.695-38.918-2.214-59.117c1.291-17.667 4.658-41.552 6.14-49.569a7.335 7.335 0 01-.646-.786c-.052-.073-.093-.147-.141-.22a6.608 6.608 0 01-.353-.593c-.049-.097-.091-.195-.135-.292a6.031 6.031 0 01-.329-.895c-.023-.079-.054-.154-.074-.234-2.464 4.589-7.879 12.442-11.855 12.442-4.056 0-10.786-5.349-13.585-10.949-.008.035-.018.066-.025.101-.076.329-.156.653-.245.962l-.026.085c-.082.28-.169.549-.261.807-.031.086-.063.167-.095.25a9.556 9.556 0 01-.242.58c-.033.073-.066.147-.101.217a6.06 6.06 0 01-.37.66 3.558 3.558 0 01-.391.477c-.079.082-.18.167-.271.25-.082.075-.152.149-.243.225.772 3.693.716 10.345.093 23.574z"/></svg>