<svg style="display: none;" aria-hidden="true" xmlns="http://www.w3.org/2000/svg" xmlns:xlink="http://www.w3.org/1999/xlink"><symbol viewBox="0 0 24 24" fill="none" id="svg-all-nft"><path d="M4 8H8V4H4V8ZM10 20H14V16H10V20ZM4 20H8V16H4V20ZM4 14H8V10H4V14ZM10 14H14V10H10V14ZM16 4V8H20V4H16ZM10 8H14V4H10V8ZM16 14H20V10H16V14ZM16 20H20V16H16V20Z" fill="#848A9C"/></symbol><symbol viewBox="0 0 23 16" fill="none" id="svg-arrow-left"><path d="M0.292892 8.70711C-0.0976315 8.31658 -0.0976315 7.68342 0.292892 7.29289L6.65685 0.928932C7.04738 0.538408 7.68054 0.538408 8.07107 0.928932C8.46159 1.31946 8.46159 1.95262 8.07107 2.34315L2.41421 8L8.07107 13.6569C8.46159 14.0474 8.46159 14.6805 8.07107 15.0711C7.68054 15.4616 7.04738 15.4616 6.65685 15.0711L0.292892 8.70711ZM23 9H1V7H23V9Z" fill="#848A9C"/></symbol><symbol viewBox="0 0 23 16" fill="none" id="svg-arrow-right"><path d="M22.7071 8.70711C23.0976 8.31658 23.0976 7.68342 22.7071 7.29289L16.3431 0.928932C15.9526 0.538408 15.3195 0.538408 14.9289 0.928932C14.5384 1.31946 14.5384 1.95262 14.9289 2.34315L20.5858 8L14.9289 13.6569C14.5384 14.0474 14.5384 14.6805 14.9289 15.0711C15.3195 15.4616 15.9526 15.4616 16.3431 15.0711L22.7071 8.70711ZM0 9H22V7H0V9Z" fill="#848A9C"/></symbol><symbol viewBox="0 0 24 24" fill="none" id="svg-art"><path d="M7 16C7.55 16 8 16.45 8 17C8 18.1 7.1 19 6 19C5.83 19 5.67 18.98 5.5 18.95C5.81 18.4 6 17.74 6 17C6 16.45 6.45 16 7 16ZM18.67 3C18.41 3 18.16 3.1 17.96 3.29L9 12.25L11.75 15L20.71 6.04C21.1 5.65 21.1 5.02 20.71 4.63L19.37 3.29C19.17 3.09 18.92 3 18.67 3ZM7 14C5.34 14 4 15.34 4 17C4 18.31 2.84 19 2 19C2.92 20.22 4.49 21 6 21C8.21 21 10 19.21 10 17C10 15.34 8.66 14 7 14Z" fill="#848A9C"/></symbol><symbol viewBox="0 0 22 22" fill="none" id="svg-check"><circle cx="11" cy="11" r="11" fill="#FFD438"/><path d="M6 10.5714L9.63636 14L16 8" stroke="#050B1C" stroke-width="2" stroke-linecap="round"/></symbol><symbol viewBox="0 0 24 24" fill="none" id="svg-collectibles"><path d="M17 14C16.76 13.76 16.56 13.51 16.35 13.25C17.51 11.5 19 8.56 19 5C19 3.05 18.26 2 17 2C15.46 2 13.04 4.06 12 7.97C10.96 4.06 8.54 2 7 2C5.74 2 5 3.05 5 5C5 8.56 6.49 11.5 7.65 13.25C7.44 13.51 7.24 13.76 7 14C6.75 14.25 5 15.39 5 17.5C5 19.98 7.02 22 9.5 22C11 22 12 21.5 12 21.5C12 21.5 13 22 14.5 22C16.98 22 19 19.98 19 17.5C19 15.39 17.25 14.25 17 14ZM16.88 4.03C16.94 4.2 17 4.51 17 5C17 7.84 15.89 10.24 14.93 11.78C14.55 11.52 14.1 11.3 13.53 11.16C13.77 6.64 15.97 4.33 16.88 4.03ZM7 5C7 4.51 7.06 4.2 7.12 4.03C8.03 4.33 10.23 6.64 10.48 11.16C9.9 11.3 9.45 11.51 9.08 11.78C8.11 10.24 7 7.84 7 5ZM14.5 20C13.5 20 12.7 19.67 12.28 19.44C12.7 19.26 13 18.73 13 18.5C13 18.22 12.55 18 12 18C11.45 18 11 18.22 11 18.5C11 18.73 11.3 19.26 11.72 19.44C11.3 19.67 10.5 20 9.5 20C8.12 20 7 18.88 7 17.5C7 16.8 7.43 16.26 8 15.77C8.44 15.41 8.61 15.25 9.3 14.4C10.06 13.45 10.39 13 12 13C13.61 13 13.94 13.45 14.7 14.4C15.39 15.25 15.56 15.41 16 15.77C16.57 16.26 17 16.8 17 17.5C17 18.88 15.88 20 14.5 20ZM14 16C14 16.41 13.78 16.75 13.5 16.75C13.22 16.75 13 16.41 13 16C13 15.59 13.22 15.25 13.5 15.25C13.78 15.25 14 15.59 14 16ZM11 16C11 16.41 10.78 16.75 10.5 16.75C10.22 16.75 10 16.41 10 16C10 15.59 10.22 15.25 10.5 15.25C10.78 15.25 11 15.59 11 16Z" fill="#848A9C"/></symbol><symbol viewBox="0 0 19 18" fill="none" id="svg-connect"><path d="M18 4.28V2C18 0.9 17.1 0 16 0H2C0.89 0 0 0.9 0 2V16C0 17.1 0.89 18 2 18H16C17.1 18 18 17.1 18 16V13.72C18.59 13.37 19 12.74 19 12V6C19 5.26 18.59 4.63 18 4.28ZM17 6V12H10V6H17ZM2 16V2H16V4H10C8.9 4 8 4.9 8 6V12C8 13.1 8.9 14 10 14H16V16H2Z" fill="#fff"/><path d="M13 10.5C13.8284 10.5 14.5 9.82843 14.5 9C14.5 8.17157 13.8284 7.5 13 7.5C12.1716 7.5 11.5 8.17157 11.5 9C11.5 9.82843 12.1716 10.5 13 10.5Z" fill="#fff"/></symbol><symbol viewBox="0 0 20 20" fill="none" id="svg-discord"><path d="M16.9419 3.52317C15.6473 2.91744 14.263 2.47723 12.8157 2.22656C12.638 2.5479 12.4304 2.98012 12.2872 3.32394C10.7487 3.09258 9.22445 3.09258 7.7143 3.32394C7.57116 2.98012 7.3588 2.5479 7.17947 2.22656C5.73067 2.47723 4.3448 2.91906 3.05016 3.52638C0.438869 7.47238 -0.269009 11.3204 0.0849305 15.1137C1.81688 16.4071 3.49534 17.1928 5.14548 17.7069C5.55291 17.1462 5.91628 16.5501 6.22931 15.9219C5.63313 15.6954 5.06211 15.4158 4.52256 15.0912C4.6657 14.9852 4.80571 14.8743 4.94098 14.7603C8.23183 16.2995 11.8074 16.2995 15.0589 14.7603C15.1958 14.8743 15.3358 14.9852 15.4774 15.0912C14.9362 15.4174 14.3637 15.6969 13.7675 15.9235C14.0805 16.5501 14.4423 17.1478 14.8513 17.7085C16.503 17.1944 18.183 16.4087 19.915 15.1137C20.3303 10.7163 19.2056 6.90361 16.9419 3.52317ZM6.67765 12.7809C5.68977 12.7809 4.87963 11.8586 4.87963 10.7355C4.87963 9.61247 5.67247 8.68864 6.67765 8.68864C7.68285 8.68864 8.49297 9.61086 8.47567 10.7355C8.47723 11.8586 7.68285 12.7809 6.67765 12.7809ZM13.3223 12.7809C12.3344 12.7809 11.5243 11.8586 11.5243 10.7355C11.5243 9.61247 12.3171 8.68864 13.3223 8.68864C14.3275 8.68864 15.1376 9.61086 15.1203 10.7355C15.1203 11.8586 14.3275 12.7809 13.3223 12.7809Z" fill="#050B1C"/></symbol><symbol viewBox="0 0 20 20" fill="none" id="svg-discord-gray"><path d="M16.9419 3.52317C15.6473 2.91744 14.263 2.47723 12.8157 2.22656C12.638 2.5479 12.4304 2.98012 12.2872 3.32394C10.7487 3.09258 9.22445 3.09258 7.7143 3.32394C7.57116 2.98012 7.3588 2.5479 7.17947 2.22656C5.73067 2.47723 4.3448 2.91906 3.05016 3.52638C0.438869 7.47238 -0.269009 11.3204 0.0849305 15.1137C1.81688 16.4071 3.49534 17.1928 5.14548 17.7069C5.55291 17.1462 5.91628 16.5501 6.22931 15.9219C5.63313 15.6954 5.06211 15.4158 4.52256 15.0912C4.6657 14.9852 4.80571 14.8743 4.94098 14.7603C8.23183 16.2995 11.8074 16.2995 15.0589 14.7603C15.1958 14.8743 15.3358 14.9852 15.4774 15.0912C14.9362 15.4174 14.3637 15.6969 13.7675 15.9235C14.0805 16.5501 14.4423 17.1478 14.8513 17.7085C16.503 17.1944 18.183 16.4087 19.915 15.1137C20.3303 10.7163 19.2056 6.90361 16.9419 3.52317ZM6.67765 12.7809C5.68977 12.7809 4.87963 11.8586 4.87963 10.7355C4.87963 9.61247 5.67247 8.68864 6.67765 8.68864C7.68285 8.68864 8.49297 9.61086 8.47567 10.7355C8.47723 11.8586 7.68285 12.7809 6.67765 12.7809ZM13.3223 12.7809C12.3344 12.7809 11.5243 11.8586 11.5243 10.7355C11.5243 9.61247 12.3171 8.68864 13.3223 8.68864C14.3275 8.68864 15.1376 9.61086 15.1203 10.7355C15.1203 11.8586 14.3275 12.7809 13.3223 12.7809Z" fill="#848A9C"/></symbol><symbol viewBox="0 0 24 24" fill="none" id="svg-domain"><path d="M19 15V19H5V15H19ZM20 13H4C3.45 13 3 13.45 3 14V20C3 20.55 3.45 21 4 21H20C20.55 21 21 20.55 21 20V14C21 13.45 20.55 13 20 13ZM7 18.5C6.18 18.5 5.5 17.83 5.5 17C5.5 16.17 6.18 15.5 7 15.5C7.82 15.5 8.5 16.17 8.5 17C8.5 17.83 7.83 18.5 7 18.5ZM19 5V9H5V5H19ZM20 3H4C3.45 3 3 3.45 3 4V10C3 10.55 3.45 11 4 11H20C20.55 11 21 10.55 21 10V4C21 3.45 20.55 3 20 3ZM7 8.5C6.18 8.5 5.5 7.83 5.5 7C5.5 6.17 6.18 5.5 7 5.5C7.82 5.5 8.5 6.18 8.5 7C8.5 7.82 7.83 8.5 7 8.5Z" fill="#848A9C"/></symbol><symbol viewBox="0 0 18 18" fill="none" id="svg-explore"><path d="M1 0C0.447715 0 0 0.447715 0 1V7C0 7.55228 0.447715 8 1 8H7C7.55228 8 8 7.55228 8 7V1C8 0.447715 7.55228 0 7 0H1ZM6 5C6 5.55228 5.55228 6 5 6H3C2.44772 6 2 5.55228 2 5V3C2 2.44772 2.44772 2 3 2H5C5.55228 2 6 2.44772 6 3V5ZM1 10C0.447715 10 0 10.4477 0 11V17C0 17.5523 0.447715 18 1 18H7C7.55228 18 8 17.5523 8 17V11C8 10.4477 7.55228 10 7 10H1ZM6 15C6 15.5523 5.55228 16 5 16H3C2.44772 16 2 15.5523 2 15V13C2 12.4477 2.44772 12 3 12H5C5.55228 12 6 12.4477 6 13V15ZM11 0C10.4477 0 10 0.447715 10 1V7C10 7.55228 10.4477 8 11 8H17C17.5523 8 18 7.55228 18 7V1C18 0.447715 17.5523 0 17 0H11ZM16 5C16 5.55228 15.5523 6 15 6H13C12.4477 6 12 5.55228 12 5V3C12 2.44772 12.4477 2 13 2H15C15.5523 2 16 2.44772 16 3V5ZM11 10C10.4477 10 10 10.4477 10 11V17C10 17.5523 10.4477 18 11 18H17C17.5523 18 18 17.5523 18 17V11C18 10.4477 17.5523 10 17 10H11ZM16 15C16 15.5523 15.5523 16 15 16H13C12.4477 16 12 15.5523 12 15V13C12 12.4477 12.4477 12 13 12H15C15.5523 12 16 12.4477 16 13V15Z" fill="#050B1C"/></symbol><symbol viewBox="0 0 18 18" fill="none" id="svg-explore-yellow"><path d="M1 0C0.447715 0 0 0.447715 0 1V7C0 7.55228 0.447715 8 1 8H7C7.55228 8 8 7.55228 8 7V1C8 0.447715 7.55228 0 7 0H1ZM6 5C6 5.55228 5.55228 6 5 6H3C2.44772 6 2 5.55228 2 5V3C2 2.44772 2.44772 2 3 2H5C5.55228 2 6 2.44772 6 3V5ZM1 10C0.447715 10 0 10.4477 0 11V17C0 17.5523 0.447715 18 1 18H7C7.55228 18 8 17.5523 8 17V11C8 10.4477 7.55228 10 7 10H1ZM6 15C6 15.5523 5.55228 16 5 16H3C2.44772 16 2 15.5523 2 15V13C2 12.4477 2.44772 12 3 12H5C5.55228 12 6 12.4477 6 13V15ZM11 0C10.4477 0 10 0.447715 10 1V7C10 7.55228 10.4477 8 11 8H17C17.5523 8 18 7.55228 18 7V1C18 0.447715 17.5523 0 17 0H11ZM16 5C16 5.55228 15.5523 6 15 6H13C12.4477 6 12 5.55228 12 5V3C12 2.44772 12.4477 2 13 2H15C15.5523 2 16 2.44772 16 3V5ZM11 10C10.4477 10 10 10.4477 10 11V17C10 17.5523 10.4477 18 11 18H17C17.5523 18 18 17.5523 18 17V11C18 10.4477 17.5523 10 17 10H11ZM16 15C16 15.5523 15.5523 16 15 16H13C12.4477 16 12 15.5523 12 15V13C12 12.4477 12.4477 12 13 12H15C15.5523 12 16 12.4477 16 13V15Z" fill="#FFD438"/></symbol><symbol viewBox="0 0 16 18" fill="none" id="svg-fire"><path d="M8 10.9001L5.97 12.9001C5.51 13.3601 5.15 13.9301 5.04 14.5701C4.74 16.4101 6.18 18.0001 8 18.0001C9.82 18.0001 11.26 16.4101 10.96 14.5801C10.85 13.9401 10.5 13.3601 10.03 12.9101L8 10.9001Z" fill="#FFD438"/><path d="M11.56 4.55011C10.38 6.02011 8 5.19011 8 3.30011V1.77011C8 0.970114 7.11 0.490114 6.45 0.930114C4.12 2.49011 0 5.97011 0 11.0001C0 13.9201 1.56 16.4701 3.89 17.8601C3.18 16.8401 2.83 15.5501 3.08 14.1801C3.27 13.1401 3.83 12.2001 4.59 11.4601L7.3 8.79011C7.69 8.41011 8.31 8.41011 8.7 8.79011L11.43 11.4801C12.17 12.2101 12.73 13.1301 12.91 14.1601C13.16 15.5201 12.84 16.8001 12.14 17.8201C14.03 16.6701 15.43 14.7601 15.85 12.5201C16.46 9.25011 15.04 6.15011 12.63 4.42011C12.3 4.17011 11.83 4.22011 11.56 4.55011Z" fill="#FFD438"/></symbol><symbol viewBox="0 0 22 22" fill="none" id="svg-instagram"><path d="M21.9339 6.46478C21.8803 5.29388 21.6944 4.49426 21.4224 3.79468C21.1463 3.06068 20.7133 2.39584 20.1537 1.84631C19.6043 1.28671 18.9393 0.8535 18.2053 0.577225C17.5056 0.305481 16.7061 0.119675 15.5352 0.0664673C14.3621 0.0127563 13.9873 0 11 0C8.01266 0 7.63786 0.0127563 6.46478 0.0661316C5.29388 0.119675 4.49443 0.305649 3.79468 0.57756C3.06068 0.853668 2.39584 1.28671 1.84631 1.84631C1.28671 2.39568 0.8535 3.06052 0.577225 3.79451C0.305481 4.49426 0.119675 5.29388 0.0664673 6.46461C0.0127563 7.63786 0 8.0125 0 10.9998C0 13.9873 0.0127563 14.3621 0.0664673 15.5352C0.119843 16.7059 0.305817 17.5056 0.577728 18.2053C0.853836 18.9391 1.28688 19.6042 1.84648 20.1535C2.39584 20.7131 3.06085 21.1462 3.79485 21.4223C4.49443 21.6944 5.29405 21.8802 6.46495 21.9337C7.6382 21.9872 8.01283 21.9998 11.0002 21.9998C13.9875 21.9998 14.3623 21.9872 15.5354 21.9337C16.7063 21.8802 17.5057 21.6944 18.2055 21.4223C19.683 20.8509 20.8511 19.6829 21.4224 18.2053C21.6945 17.5056 21.8803 16.7059 21.9339 15.5352C21.9872 14.362 22 13.9873 22 11C22 8.0125 21.9872 7.63786 21.9339 6.46478ZM19.9538 15.4451C19.9049 16.5176 19.7257 17.1001 19.5751 17.4876C19.205 18.447 18.4469 19.2052 17.4874 19.5753C17.0999 19.7258 16.5175 19.9051 15.4449 19.9539C14.2853 20.007 13.9373 20.0181 11 20.0181C8.06252 20.0181 7.71474 20.007 6.55492 19.9539C5.48254 19.9051 4.90012 19.7258 4.51239 19.5753C4.0347 19.3989 3.60249 19.1177 3.24767 18.7523C2.88226 18.3975 2.60112 17.9655 2.42471 17.4876C2.27415 17.1001 2.09489 16.5176 2.04605 15.4451C1.99318 14.2853 1.98193 13.9373 1.98193 11.0002C1.98193 8.06285 1.99318 7.71507 2.04605 6.55508C2.09506 5.48254 2.27415 4.90012 2.42471 4.51256C2.60112 4.0347 2.88243 3.60249 3.24767 3.24767C3.60249 2.88226 4.0347 2.60112 4.51256 2.42488C4.90012 2.27415 5.48254 2.09506 6.55508 2.04605C7.7149 1.99318 8.06285 1.98193 11 1.98193H10.9998C13.937 1.98193 14.2849 1.99318 15.4449 2.04622C16.5175 2.09506 17.0997 2.27432 17.4874 2.42488C17.9651 2.60129 18.3973 2.88243 18.7522 3.24767C19.1176 3.60249 19.3987 4.0347 19.575 4.51256C19.7257 4.90012 19.9049 5.48254 19.9538 6.55508C20.0067 7.7149 20.0179 8.06285 20.0179 11C20.0179 13.9373 20.0068 14.2851 19.9538 15.4451Z" fill="#050B1C"/><path d="M11.0001 5.35156C7.88051 5.35156 5.35156 7.88068 5.35156 11.0003 5.35156 14.1199 7.88051 16.6488 11.0001 16.6488 14.1199 16.6488 16.6488 14.1199 16.6488 11.0003 16.6488 7.88068 14.1199 5.35156 11.0001 5.35156zM11.0001 14.6669C8.9752 14.6667 7.3335 13.0252 7.33366 11.0001 7.33366 8.9752 8.9752 7.3335 11.0003 7.3335 13.0253 7.33366 14.6669 8.9752 14.6669 11.0001 14.6669 13.0252 13.0252 14.6669 11.0001 14.6669zM18.1918 5.12773C18.1918 5.85669 17.6008 6.44768 16.8719 6.44768 16.1427 6.44768 15.5518 5.85669 15.5518 5.12773 15.5518 4.39861 16.1427 3.80762 16.8719 3.80762 17.6008 3.80762 18.1918 4.39861 18.1918 5.12773z" fill="#050B1C"/></symbol><symbol viewBox="0 0 22 22" fill="none" id="svg-instagram-gray"><path d="M21.9339 6.46478C21.8803 5.29388 21.6944 4.49426 21.4224 3.79468C21.1463 3.06068 20.7133 2.39584 20.1537 1.84631C19.6043 1.28671 18.9393 0.8535 18.2053 0.577225C17.5056 0.305481 16.7061 0.119675 15.5352 0.0664673C14.3621 0.0127563 13.9873 0 11 0C8.01266 0 7.63786 0.0127563 6.46478 0.0661316C5.29388 0.119675 4.49443 0.305649 3.79468 0.57756C3.06068 0.853668 2.39584 1.28671 1.84631 1.84631C1.28671 2.39568 0.8535 3.06052 0.577225 3.79451C0.305481 4.49426 0.119675 5.29388 0.0664673 6.46461C0.0127563 7.63786 0 8.0125 0 10.9998C0 13.9873 0.0127563 14.3621 0.0664673 15.5352C0.119843 16.7059 0.305817 17.5056 0.577728 18.2053C0.853836 18.9391 1.28688 19.6042 1.84648 20.1535C2.39584 20.7131 3.06085 21.1462 3.79485 21.4223C4.49443 21.6944 5.29405 21.8802 6.46495 21.9337C7.6382 21.9872 8.01283 21.9998 11.0002 21.9998C13.9875 21.9998 14.3623 21.9872 15.5354 21.9337C16.7063 21.8802 17.5057 21.6944 18.2055 21.4223C19.683 20.8509 20.8511 19.6829 21.4224 18.2053C21.6945 17.5056 21.8803 16.7059 21.9339 15.5352C21.9872 14.362 22 13.9873 22 11C22 8.0125 21.9872 7.63786 21.9339 6.46478ZM19.9538 15.4451C19.9049 16.5176 19.7257 17.1001 19.5751 17.4876C19.205 18.447 18.4469 19.2052 17.4874 19.5753C17.0999 19.7258 16.5175 19.9051 15.4449 19.9539C14.2853 20.007 13.9373 20.0181 11 20.0181C8.06252 20.0181 7.71474 20.007 6.55492 19.9539C5.48254 19.9051 4.90012 19.7258 4.51239 19.5753C4.0347 19.3989 3.60249 19.1177 3.24767 18.7523C2.88226 18.3975 2.60112 17.9655 2.42471 17.4876C2.27415 17.1001 2.09489 16.5176 2.04605 15.4451C1.99318 14.2853 1.98193 13.9373 1.98193 11.0002C1.98193 8.06285 1.99318 7.71507 2.04605 6.55508C2.09506 5.48254 2.27415 4.90012 2.42471 4.51256C2.60112 4.0347 2.88243 3.60249 3.24767 3.24767C3.60249 2.88226 4.0347 2.60112 4.51256 2.42488C4.90012 2.27415 5.48254 2.09506 6.55508 2.04605C7.7149 1.99318 8.06285 1.98193 11 1.98193H10.9998C13.937 1.98193 14.2849 1.99318 15.4449 2.04622C16.5175 2.09506 17.0997 2.27432 17.4874 2.42488C17.9651 2.60129 18.3973 2.88243 18.7522 3.24767C19.1176 3.60249 19.3987 4.0347 19.575 4.51256C19.7257 4.90012 19.9049 5.48254 19.9538 6.55508C20.0067 7.7149 20.0179 8.06285 20.0179 11C20.0179 13.9373 20.0068 14.2851 19.9538 15.4451Z" fill="#848A9C"/><path d="M11.0001 5.35156C7.88051 5.35156 5.35156 7.88068 5.35156 11.0003 5.35156 14.1199 7.88051 16.6488 11.0001 16.6488 14.1199 16.6488 16.6488 14.1199 16.6488 11.0003 16.6488 7.88068 14.1199 5.35156 11.0001 5.35156zM11.0001 14.6669C8.9752 14.6667 7.3335 13.0252 7.33366 11.0001 7.33366 8.9752 8.9752 7.3335 11.0003 7.3335 13.0253 7.33366 14.6669 8.9752 14.6669 11.0001 14.6669 13.0252 13.0252 14.6669 11.0001 14.6669zM18.1918 5.12773C18.1918 5.85669 17.6008 6.44768 16.8719 6.44768 16.1427 6.44768 15.5518 5.85669 15.5518 5.12773 15.5518 4.39861 16.1427 3.80762 16.8719 3.80762 17.6008 3.80762 18.1918 4.39861 18.1918 5.12773z" fill="#848A9C"/></symbol><symbol viewBox="0 0 61 34" fill="none" id="svg-logo"><path d="M55.8166 23.6785C54.7923 23.6785 53.7911 23.9808 52.9394 24.5472C52.0878 25.1136 51.424 25.9187 51.032 26.8606C50.6401 27.8025 50.5375 28.8389 50.7373 29.8388C50.9372 30.8388 51.4304 31.7572 52.1547 32.4781C52.8789 33.199 53.8017 33.69 54.8063 33.8889C55.8109 34.0878 56.8521 33.9857 57.7984 33.5956C58.7447 33.2054 59.5536 32.5447 60.1226 31.697C60.6917 30.8493 60.9954 29.8527 60.9954 28.8332C60.9954 27.4661 60.4498 26.155 59.4786 25.1883C58.5074 24.2216 57.1901 23.6785 55.8166 23.6785Z" fill="url(#appaint0_linear_59_1326)"/><path d="M47.456 16.7167C46.8987 16.3278 46.2698 16.0521 45.6054 15.9054C44.9409 15.7587 44.254 15.7437 43.5837 15.8614C42.9134 15.9791 42.2731 16.2272 41.6992 16.5914C41.1253 16.9557 40.6292 17.4289 40.2393 17.9841L40.2179 18.0129C39.9516 18.3749 39.5536 18.6187 39.109 18.6924C38.6644 18.7661 38.2085 18.6637 37.8387 18.4071C37.4647 18.1442 37.2106 17.7445 37.1321 17.2955C37.0536 16.8465 37.1571 16.3849 37.4199 16.0117C38.2076 14.8904 38.5156 13.5036 38.2761 12.1564C38.0366 10.8091 37.2691 9.61172 36.1427 8.82764C35.0162 8.04356 33.6229 7.737 32.2694 7.97541C30.9158 8.21381 29.7129 8.97765 28.9251 10.0989L21.7967 20.231C21.6667 20.4175 21.5009 20.5766 21.3088 20.699C21.1167 20.8214 20.9021 20.9047 20.6774 20.944C20.4528 20.9833 20.2226 20.978 20 20.9282C19.7775 20.8784 19.5671 20.7852 19.3809 20.654C19.0076 20.3906 18.754 19.9909 18.6755 19.5422C18.597 19.0934 18.7001 18.632 18.9621 18.2585L18.8097 18.4632L26.0829 8.11735C26.4729 7.56247 26.7494 6.93655 26.8964 6.27533C27.0434 5.61412 27.0582 4.93055 26.9398 4.26366C26.8214 3.59677 26.5722 2.95963 26.2064 2.3886C25.8406 1.81757 25.3655 1.32383 24.808 0.935595C24.2505 0.547357 23.6217 0.272212 22.9574 0.12587C22.2931 -0.020471 21.6063 -0.0351417 20.9363 0.0826934C20.2663 0.200529 19.6262 0.448562 19.0525 0.812634C18.4788 1.17671 17.9828 1.64969 17.5927 2.20457L0.938358 25.8815C0.548308 26.4363 0.271879 27.0623 0.124855 27.7235C-0.0221695 28.3847 -0.0369133 29.0683 0.0814717 29.7351C0.199857 30.402 0.449048 31.0392 0.814819 31.6102C1.18059 32.1812 1.65578 32.675 2.21325 33.0632C2.77072 33.4515 3.39956 33.7266 4.06386 33.8729C4.72817 34.0193 5.41493 34.034 6.08493 33.9161C6.75493 33.7983 7.39505 33.5502 7.96874 33.1862C8.54244 32.8221 9.03847 32.3491 9.42852 31.7942L14.9957 23.8832C15.2595 23.511 15.661 23.2581 16.1119 23.1802C16.5629 23.1023 17.0264 23.2058 17.4008 23.4678C17.7749 23.7284 18.0297 24.126 18.1094 24.5735C18.1891 25.0209 18.0871 25.4815 17.8258 25.8542C17.038 26.9752 16.73 28.3618 16.9693 29.7089C17.2087 31.0561 17.9759 32.2534 19.1022 33.0374C20.2285 33.8215 21.6215 34.1282 22.9749 33.8899C24.3283 33.6516 25.5312 32.888 26.319 31.767L33.4566 21.6227C33.7194 21.2509 34.1194 20.9977 34.5692 20.9184C35.019 20.8391 35.482 20.9403 35.8571 21.1998C36.226 21.4573 36.479 21.8484 36.5619 22.2893C36.6447 22.7303 36.5508 23.1859 36.3003 23.5588L34.6873 25.8511C34.2972 26.406 34.0208 27.0319 33.8738 27.6932C33.7268 28.3544 33.712 29.0379 33.8304 29.7048C33.9488 30.3717 34.198 31.0089 34.5637 31.5799C34.9295 32.1509 35.4047 32.6447 35.9622 33.0329C36.5196 33.4211 37.1485 33.6963 37.8128 33.8426C38.4771 33.989 39.1639 34.0036 39.8339 33.8858C40.5039 33.768 41.144 33.5199 41.7177 33.1559C42.2914 32.7918 42.7874 32.3188 43.1774 31.7639L48.7294 23.8726C49.5097 22.7543 49.8138 21.374 49.5752 20.0333C49.3366 18.6925 48.5748 17.5002 47.456 16.7167Z" fill="url(#appaint1_linear_59_1326)"/><defs><linearGradient id="appaint0_linear_59_1326" x1="60.995" y1="28.833" x2="50.638" y2="28.833" gradientUnits="userSpaceOnUse"><stop stop-color="#FFDA55"/><stop offset="1" stop-color="#FFCD18"/></linearGradient><linearGradient id="appaint1_linear_59_1326" x1="49.655" y1="16.999" x2=".002" y2="16.999" gradientUnits="userSpaceOnUse"><stop stop-color="#FFDA55"/><stop offset="1" stop-color="#FFCD18"/></linearGradient></defs></symbol><symbol viewBox="0 0 20 16" fill="none" id="svg-mail"><path d="M20 2C20 0.9 19.1 0 18 0H2C0.9 0 0 0.9 0 2V14C0 15.1 0.9 16 2 16H18C19.1 16 20 15.1 20 14V2ZM18 2L10 7L2 2H18ZM18 14H2V4L10 9L18 4V14Z" fill="#848A9C"/></symbol><symbol viewBox="0 0 24 24" fill="none" id="svg-music"><path d="M12 3L12.01 13.55C11.42 13.21 10.74 13 10.01 13C7.79 13 6 14.79 6 17C6 19.21 7.79 21 10.01 21C12.23 21 14 19.21 14 17V7H18V3H12ZM10.01 19C8.91 19 8.01 18.1 8.01 17C8.01 15.9 8.91 15 10.01 15C11.11 15 12.01 15.9 12.01 17C12.01 18.1 11.11 19 10.01 19Z" fill="#848A9C"/></symbol><symbol viewBox="0 0 16 16" fill="none" id="svg-nft"><path fill-rule="evenodd" clip-rule="evenodd" d="M2.55319 7.06703e-05L13.5319 0C13.9204 0 14.3085 0.0570457 14.7141 0.246149C15.2003 0.472793 15.4581 0.830026 15.6388 1.09421C15.6528 1.11476 15.666 1.13595 15.6781 1.15762C15.8905 1.53568 16 1.94388 16 2.38298C16 2.80019 15.9007 3.25474 15.6781 3.65091C15.676 3.65476 15.6739 3.65846 15.6717 3.66224L8.7355 15.5771C8.58254 15.8399 8.30102 16.001 7.99698 16C7.69295 15.9989 7.41255 15.8357 7.26148 15.5719L0.45264 3.68244C0.450683 3.67922 0.448725 3.67601 0.446768 3.67272C0.290941 3.41595 0.0499661 3.01887 0.00781111 2.50644C-0.0309183 2.03518 0.0749929 1.56302 0.311774 1.15363C0.548555 0.744178 0.90502 0.416865 1.33377 0.216507C1.79349 0.00167782 2.25936 7.06703e-05 2.55319 7.06703e-05ZM7.14892 1.70214H2.55319C2.25125 1.70214 2.13534 1.72073 2.05432 1.75862C1.94226 1.81091 1.84816 1.89697 1.78524 2.00575C1.72232 2.1146 1.69387 2.24071 1.70422 2.36697C1.71016 2.43932 1.73966 2.52209 1.91366 2.80907C1.9173 2.81508 1.92086 2.82116 1.92436 2.82725L7.14892 11.9503V1.70214ZM8.85106 1.70214V11.9953L14.1966 2.81278C14.257 2.70316 14.2979 2.54475 14.2979 2.38298C14.2979 2.25176 14.2707 2.13781 14.2098 2.02036C14.146 1.92857 14.1072 1.87998 14.0746 1.84671C14.0467 1.81826 14.0253 1.80301 13.9949 1.78889C13.8686 1.72996 13.7392 1.70214 13.5319 1.70214H8.85106Z" fill="#FFD438"/></symbol><symbol viewBox="0 0 16 16" fill="none" id="svg-nft-gray"><path fill-rule="evenodd" clip-rule="evenodd" d="M2.55319 7.06703e-05L13.5319 0C13.9204 0 14.3085 0.0570457 14.7141 0.246149C15.2003 0.472793 15.4581 0.830026 15.6388 1.09421C15.6528 1.11476 15.666 1.13595 15.6781 1.15762C15.8905 1.53568 16 1.94388 16 2.38298C16 2.80019 15.9007 3.25474 15.6781 3.65091C15.676 3.65476 15.6739 3.65846 15.6717 3.66224L8.7355 15.5771C8.58254 15.8399 8.30102 16.001 7.99698 16C7.69295 15.9989 7.41255 15.8357 7.26148 15.5719L0.45264 3.68244C0.450683 3.67922 0.448725 3.67601 0.446768 3.67272C0.290941 3.41595 0.0499661 3.01887 0.00781111 2.50644C-0.0309183 2.03518 0.0749929 1.56302 0.311774 1.15363C0.548555 0.744178 0.90502 0.416865 1.33377 0.216507C1.79349 0.00167782 2.25936 7.06703e-05 2.55319 7.06703e-05ZM7.14892 1.70214H2.55319C2.25125 1.70214 2.13534 1.72073 2.05432 1.75862C1.94226 1.81091 1.84816 1.89697 1.78524 2.00575C1.72232 2.1146 1.69387 2.24071 1.70422 2.36697C1.71016 2.43932 1.73966 2.52209 1.91366 2.80907C1.9173 2.81508 1.92086 2.82116 1.92436 2.82725L7.14892 11.9503V1.70214ZM8.85106 1.70214V11.9953L14.1966 2.81278C14.257 2.70316 14.2979 2.54475 14.2979 2.38298C14.2979 2.25176 14.2707 2.13781 14.2098 2.02036C14.146 1.92857 14.1072 1.87998 14.0746 1.84671C14.0467 1.81826 14.0253 1.80301 13.9949 1.78889C13.8686 1.72996 13.7392 1.70214 13.5319 1.70214H8.85106Z" fill="#848A9C"/></symbol><symbol viewBox="0 0 24 24" fill="none" id="svg-photography"><path d="M20 4H16.83L15 2H9L7.17 4H4C2.9 4 2 4.9 2 6V18C2 19.1 2.9 20 4 20H20C21.1 20 22 19.1 22 18V6C22 4.9 21.1 4 20 4ZM20 18H4V6H8.05L9.88 4H14.12L15.95 6H20V18ZM12 7C9.24 7 7 9.24 7 12C7 14.76 9.24 17 12 17C14.76 17 17 14.76 17 12C17 9.24 14.76 7 12 7ZM12 15C10.35 15 9 13.65 9 12C9 10.35 10.35 9 12 9C13.65 9 15 10.35 15 12C15 13.65 13.65 15 12 15Z" fill="#848A9C"/></symbol><symbol viewBox="0 0 16 21" fill="none" id="svg-play"><path d="M14.726 9.66395C15.3278 10.0589 15.3278 10.9411 14.726 11.336L1.54866 19.9837C0.883652 20.4201 8.19353e-08 19.9431 1.16704e-07 19.1476L8.72705e-07 1.85235C9.07474e-07 1.05694 0.883651 0.579895 1.54866 1.01631L14.726 9.66395Z" fill="#848A9C"/></symbol><symbol viewBox="0 0 20 20" fill="none" id="svg-search"><path d="M13.7071 12.2929C13.3166 11.9024 12.6834 11.9024 12.2929 12.2929C11.9024 12.6834 11.9024 13.3166 12.2929 13.7071L13.7071 12.2929ZM18.2929 19.7071C18.6834 20.0976 19.3166 20.0976 19.7071 19.7071C20.0976 19.3166 20.0976 18.6834 19.7071 18.2929L18.2929 19.7071ZM2 8C2 4.68629 4.68629 2 8 2V0C3.58172 0 0 3.58172 0 8H2ZM8 2C11.3137 2 14 4.68629 14 8H16C16 3.58172 12.4183 0 8 0V2ZM14 8C14 11.3137 11.3137 14 8 14V16C12.4183 16 16 12.4183 16 8H14ZM8 14C4.68629 14 2 11.3137 2 8H0C0 12.4183 3.58172 16 8 16V14ZM12.2929 13.7071L18.2929 19.7071L19.7071 18.2929L13.7071 12.2929L12.2929 13.7071ZM19.7071 18.2929L13.7071 12.2929L12.2929 13.7071L18.2929 19.7071L19.7071 18.2929Z" fill="#848A9C"/></symbol><symbol viewBox="0 0 24 24" fill="none" id="svg-solana"><path d="M21.8919 17.1917L18.4252 20.7549C18.3498 20.8323 18.2586 20.894 18.1573 20.9361C18.056 20.9783 17.9467 21.0001 17.8362 21H1.40246C1.32404 21 1.24734 20.978 1.18176 20.9368C1.11619 20.8956 1.06461 20.837 1.03335 20.768C1.0021 20.6991 0.992532 20.6229 1.00583 20.5489C1.01913 20.4748 1.05471 20.4061 1.10821 20.3511L4.57751 16.788C4.65267 16.7108 4.74355 16.6492 4.84454 16.6071C4.94555 16.5649 5.0545 16.543 5.16467 16.5429H21.5975C21.676 16.5429 21.7527 16.5648 21.8183 16.606C21.8838 16.6472 21.9353 16.7059 21.9667 16.7748C21.9979 16.8438 22.0075 16.9199 21.9942 16.994C21.9809 17.068 21.9453 17.1368 21.8919 17.1917ZM18.4252 10.0166C18.3498 9.93916 18.2586 9.87745 18.1573 9.83528C18.056 9.79312 17.9467 9.77138 17.8362 9.77144H1.40246C1.32404 9.77144 1.24734 9.79338 1.18176 9.8346C1.11619 9.87582 1.06461 9.93448 1.03335 10.0034C1.0021 10.0723 0.992532 10.1485 1.00583 10.2226C1.01913 10.2966 1.05471 10.3653 1.10821 10.4203L4.57751 13.9834C4.65267 14.0606 4.74355 14.1222 4.84454 14.1644C4.94555 14.2065 5.0545 14.2284 5.16467 14.2286H21.5975C21.676 14.2286 21.7527 14.2066 21.8183 14.1654C21.8838 14.1242 21.9353 14.0655 21.9667 13.9966C21.9979 13.9277 22.0075 13.8515 21.9942 13.7774C21.9809 13.7034 21.9453 13.6347 21.8919 13.5797L18.4252 10.0166ZM1.40246 7.45715H17.8362C17.9467 7.45719 18.056 7.43547 18.1573 7.39329C18.2586 7.35111 18.3498 7.2894 18.4252 7.212L21.8919 3.64886C21.9453 3.59391 21.9809 3.52519 21.9942 3.45112C22.0075 3.37706 21.9979 3.30089 21.9667 3.23197C21.9353 3.16305 21.8838 3.10438 21.8183 3.06317C21.7527 3.02196 21.676 3 21.5975 3H5.16467C5.0545 3.00018 4.94555 3.02203 4.84454 3.0642C4.74355 3.10636 4.65267 3.16795 4.57751 3.24514L1.1091 6.80829C1.05566 6.86317 1.02009 6.93183 1.00676 7.0058C0.993433 7.07978 1.00292 7.15589 1.03407 7.22478C1.06521 7.29367 1.11666 7.35234 1.1821 7.39362C1.24754 7.43489 1.32412 7.45696 1.40246 7.45715Z" fill="#848A9C"/></symbol><symbol viewBox="0 0 24 24" fill="none" id="svg-sports"><path d="M12 2C6.48 2 2 6.48 2 12C2 17.52 6.48 22 12 22C17.52 22 22 17.52 22 12C22 6.48 17.52 2 12 2ZM13 5.3L14.35 4.35C16.17 4.91 17.72 6.11 18.73 7.69L18.34 9.03L16.99 9.49L13 6.7V5.3ZM9.65 4.35L11 5.3V6.7L7.01 9.49L5.66 9.03L5.27 7.69C6.28 6.12 7.83 4.92 9.65 4.35ZM7.08 17.11L5.94 17.21C4.73 15.81 4 13.99 4 12C4 11.88 4.01 11.77 4.02 11.65L5.02 10.92L6.4 11.4L7.86 15.74L7.08 17.11ZM14.5 19.59C13.71 19.85 12.87 20 12 20C11.13 20 10.29 19.85 9.5 19.59L8.81 18.1L9.45 17H14.56L15.2 18.11L14.5 19.59ZM14.27 15H9.73L8.38 10.98L12 8.44L15.63 10.98L14.27 15ZM18.06 17.21L16.92 17.11L16.13 15.74L17.59 11.4L18.98 10.93L19.98 11.66C19.99 11.77 20 11.88 20 12C20 13.99 19.27 15.81 18.06 17.21Z" fill="#848A9C"/></symbol><symbol viewBox="0 0 21 17" fill="none" id="svg-telegram"><path d="M7.92988 11.1565L7.50074 15.7173C7.50074 15.7173 7.32111 17.1148 8.71827 15.7173C10.1154 14.3198 11.4528 13.2422 11.4528 13.2422" fill="#050B1C"/><path d="M5.00621 9.79032L0.407717 8.29204C0.407717 8.29204 -0.141853 8.06907 0.0351083 7.56347C0.071537 7.4592 0.145022 7.37049 0.36485 7.21802C1.38375 6.50782 19.2239 0.0955885 19.2239 0.0955885C19.2239 0.0955885 19.7276 -0.0741502 20.0247 0.0387473C20.0982 0.0614974 20.1643 0.103362 20.2163 0.160057C20.2683 0.216752 20.3044 0.286244 20.3207 0.361424C20.3528 0.494211 20.3662 0.630825 20.3606 0.767321C20.3592 0.8854 20.3449 0.994843 20.334 1.16647C20.2254 2.9196 16.9738 16.0038 16.9738 16.0038C16.9738 16.0038 16.7793 16.7694 16.0823 16.7956C15.911 16.8012 15.7403 16.7721 15.5805 16.7103C15.4206 16.6485 15.2749 16.5551 15.1519 16.4357C13.7841 15.2592 9.05654 12.082 8.01189 11.3833C7.98832 11.3672 7.96848 11.3463 7.95369 11.3219C7.9389 11.2976 7.92951 11.2703 7.92615 11.242C7.91155 11.1683 7.99163 11.0771 7.99163 11.0771C7.99163 11.0771 16.2236 3.75997 16.4426 2.99182C16.4596 2.93231 16.3955 2.90295 16.3095 2.92902C15.7627 3.13016 6.28467 9.11561 5.2386 9.77619C5.1633 9.79897 5.08371 9.80381 5.00621 9.79032Z" fill="#050B1C"/></symbol><symbol viewBox="0 0 21 17" fill="none" id="svg-telegram-gray"><path d="M7.92994 11.1562L7.5008 15.7171C7.5008 15.7171 7.32117 17.1145 8.71834 15.7171C10.1155 14.3196 11.4528 13.2419 11.4528 13.2419" fill="#848A9C"/><path d="M5.00621 9.79032L0.407717 8.29204C0.407717 8.29204 -0.141853 8.06907 0.0351083 7.56347C0.071537 7.4592 0.145022 7.37049 0.36485 7.21802C1.38375 6.50782 19.2239 0.0955885 19.2239 0.0955885C19.2239 0.0955885 19.7276 -0.0741502 20.0247 0.0387473C20.0982 0.0614974 20.1643 0.103362 20.2163 0.160057C20.2683 0.216752 20.3044 0.286244 20.3207 0.361424C20.3528 0.494211 20.3662 0.630825 20.3606 0.767321C20.3592 0.8854 20.3449 0.994843 20.334 1.16647C20.2254 2.9196 16.9738 16.0038 16.9738 16.0038C16.9738 16.0038 16.7793 16.7694 16.0822 16.7956C15.911 16.8012 15.7403 16.7721 15.5805 16.7103C15.4206 16.6485 15.2749 16.5551 15.1519 16.4357C13.7841 15.2592 9.05654 12.082 8.01189 11.3833C7.98832 11.3672 7.96848 11.3463 7.95369 11.3219C7.9389 11.2976 7.92951 11.2703 7.92615 11.242C7.91155 11.1683 7.99163 11.0771 7.99163 11.0771C7.99163 11.0771 16.2236 3.75997 16.4426 2.99182C16.4596 2.93231 16.3955 2.90295 16.3095 2.92902C15.7627 3.13016 6.28467 9.11561 5.2386 9.77619C5.1633 9.79897 5.08371 9.80381 5.00621 9.79032V9.79032Z" fill="#848A9C"/></symbol><symbol viewBox="0 0 24 24" fill="none" id="svg-trading"><path d="M21 5H23V19H21V5ZM17 5H19V19H17V5ZM14 5H2C1.45 5 1 5.45 1 6V18C1 18.55 1.45 19 2 19H14C14.55 19 15 18.55 15 18V6C15 5.45 14.55 5 14 5ZM13 17H3V7H13V17Z" fill="#848A9C"/><path d="M8.00005 11.89C9.077 11.89 9.95005 11.0169 9.95005 9.93999 9.95005 8.86303 9.077 7.98999 8.00005 7.98999 6.92309 7.98999 6.05005 8.86303 6.05005 9.93999 6.05005 11.0169 6.92309 11.89 8.00005 11.89zM11.89 15.3499C11.89 14.0499 9.29998 13.3999 7.99999 13.3999 6.69999 13.3999 4.10999 14.0499 4.10999 15.3499V15.9999H11.89V15.3499z" fill="#848A9C"/></symbol><symbol viewBox="0 0 20 16" fill="none" id="svg-twitter"><path d="M19.6491 1.96491C18.9006 2.24561 18.152 2.52632 17.3099 2.61988C18.152 2.15205 18.807 1.30994 19.0877 0.374269C18.3392 0.842105 17.4035 1.12281 16.5614 1.30994C15.8129 0.561403 14.7836 0 13.6608 0C11.4152 0 9.63743 1.77778 9.63743 4.02339C9.63743 4.30409 9.63743 4.67836 9.73099 4.95906C6.36257 4.8655 3.36842 3.27485 1.40351 0.842105C1.02924 1.40351 0.842105 2.15205 0.842105 2.90058C0.842105 4.30409 1.59064 5.52047 2.61988 6.26901C1.96491 6.26901 1.30994 6.08187 0.748538 5.80117C0.748538 5.80117 0.748538 5.80117 0.748538 5.89474C0.748538 7.85965 2.15205 9.45029 4.02339 9.82456C3.64912 9.91813 3.36842 10.0117 2.99415 10.0117C2.71345 10.0117 2.52632 10.0117 2.24561 9.91813C2.71345 11.5088 4.21053 12.6316 5.9883 12.7251C4.58479 13.6608 2.80702 14.3158 0.935672 14.3158C0.654971 14.3158 0.280702 14.3158 0 14.2222C1.77778 15.345 3.92982 16 6.17544 16C13.5673 16 17.6842 9.91813 17.6842 4.5848C17.6842 4.39766 17.6842 4.21053 17.6842 4.02339C18.4327 3.46199 19.0877 2.80702 19.6491 1.96491Z" fill="#050B1C"/></symbol><symbol viewBox="0 0 20 16" fill="none" id="svg-twitter-gray"><path d="M19.6491 1.96491C18.9006 2.24561 18.152 2.52632 17.3099 2.61988C18.152 2.15205 18.807 1.30994 19.0877 0.374269C18.3392 0.842105 17.4035 1.12281 16.5614 1.30994C15.8129 0.561403 14.7836 0 13.6608 0C11.4152 0 9.63743 1.77778 9.63743 4.02339C9.63743 4.30409 9.63743 4.67836 9.73099 4.95906C6.36257 4.8655 3.36842 3.27485 1.40351 0.842105C1.02924 1.40351 0.842105 2.15205 0.842105 2.90058C0.842105 4.30409 1.59064 5.52047 2.61988 6.26901C1.96491 6.26901 1.30994 6.08187 0.748538 5.80117C0.748538 5.80117 0.748538 5.80117 0.748538 5.89474C0.748538 7.85965 2.15205 9.45029 4.02339 9.82456C3.64912 9.91813 3.36842 10.0117 2.99415 10.0117C2.71345 10.0117 2.52632 10.0117 2.24561 9.91813C2.71345 11.5088 4.21053 12.6316 5.9883 12.7251C4.58479 13.6608 2.80702 14.3158 0.935672 14.3158C0.654971 14.3158 0.280702 14.3158 0 14.2222C1.77778 15.345 3.92982 16 6.17544 16C13.5673 16 17.6842 9.91813 17.6842 4.5848C17.6842 4.39766 17.6842 4.21053 17.6842 4.02339C18.4327 3.46199 19.0877 2.80702 19.6491 1.96491Z" fill="#848A9C"/></symbol><symbol viewBox="0 0 24 24" fill="none" id="svg-utility"><path d="M19 14V6C19 4.9 18.1 4 17 4H3C1.9 4 1 4.9 1 6V14C1 15.1 1.9 16 3 16H17C18.1 16 19 15.1 19 14ZM17 14H3V6H17V14ZM10 7C8.34 7 7 8.34 7 10C7 11.66 8.34 13 10 13C11.66 13 13 11.66 13 10C13 8.34 11.66 7 10 7ZM23 7V18C23 19.1 22.1 20 21 20H4C4 19 4 19.1 4 18H21V7C22.1 7 22 7 23 7Z" fill="#848A9C"/></symbol><symbol viewBox="0 0 24 24" fill="none" id="svg-virtual"><path d="M21.01 4C20.45 4 17.4 5.5 12 5.5C6.69 5.5 3.51 4.01 2.99 4.01C2.46 4.01 2 4.45 2 5.02V19C2 19.57 2.46 20 2.99 20C3.56 20 6.54 18.5 12 18.5C17.42 18.5 20.44 20 21.01 20C21.54 20 22 19.57 22 19V5C22 4.43 21.54 4 21.01 4ZM20 17.63C17.99 17.04 15.38 16.5 12 16.5C8.61 16.5 6.01 17.04 4 17.63V6.38C6.58 7.11 9.32 7.5 12 7.5C15.38 7.5 17.99 6.96 20 6.37V17.63Z" fill="#848A9C"/><path d="M9.16998 10.99L5.47998 15.41C7.47998 15.15 9.65998 15 12 15C14.3 15 16.52 15.15 18.51 15.4L14 10L11.17 13.39L9.16998 10.99Z" fill="#848A9C"/></symbol></svg>