<svg width="180" height="180" viewBox="0 0 180 180" fill="none" xmlns="http://www.w3.org/2000/svg">
<path d="M25.7613 35.0389C24.2014 36.1213 23.4374 37.7767 23.6284 39.7504C23.8194 41.6923 24.6153 42.8065 26.4298 43.7297L27.8306 44.4619H68.5149H109.199V63.2124V81.931L109.9 82.9815C110.313 83.5545 111.046 84.3504 111.523 84.7006C112.414 85.3691 112.701 85.3691 133.33 85.4646L154.245 85.5601L157.969 90.3989L161.726 95.2377V108.353V121.501H156.823H151.921L151.252 119.496C149.47 114.179 144.217 109.022 138.646 107.176C128.045 103.642 116.235 109.34 112.733 119.655L112.16 121.342H96.9748H81.7898L80.8984 119.05C79.1157 114.529 75.7094 110.773 71.3163 108.481C68.2284 106.857 65.4588 106.157 62.0843 106.157C58.487 106.125 56.0995 106.666 53.0115 108.131C48.0135 110.55 43.9387 115.039 42.4425 119.814L41.9332 121.469L34.5794 121.565C26.4935 121.66 25.9205 121.788 24.3924 123.825C23.4056 125.162 23.4374 128.282 24.4561 129.714C25.8887 131.72 26.4298 131.847 34.6113 131.943L41.965 132.07L42.6654 133.916C44.1934 137.959 48.2682 142.607 52.1202 144.676C56.2268 146.841 62.2753 147.605 66.7003 146.491C73.1627 144.867 78.5745 140.092 80.8984 134.012L81.6625 132.006H96.9748H112.255L112.828 133.757C113.56 136.113 116.139 139.901 118.367 141.875C120.437 143.721 125.021 146.109 127.599 146.618C130.274 147.16 134.571 147.032 137.373 146.332C143.357 144.804 148.642 140.124 150.998 134.235L151.825 132.166L160.039 132.006C167.902 131.847 168.316 131.815 169.43 131.115C170.098 130.701 170.862 129.842 171.244 129.014C171.881 127.709 171.913 127.231 171.913 110.327C171.913 99.9492 171.786 92.5636 171.595 91.8951C171.404 91.2584 169.143 88.0432 166.31 84.414L161.344 78.0472L153.704 62.7667C149.501 54.3624 145.713 47.0087 145.268 46.4038C143.803 44.4937 143.517 44.4619 130.878 44.4619H119.45L119.323 40.992C119.227 37.14 118.909 36.4078 116.839 34.9753L115.789 34.2749H71.3481H26.9074L25.7613 35.0389ZM143.262 64.8359C146.063 70.4388 148.355 75.0866 148.355 75.1821C148.355 75.2776 141.829 75.3412 133.871 75.3412H119.386V64.9951V54.6489H128.777H138.168L143.262 64.8359ZM65.4906 117.076C67.91 117.999 70.0429 120.037 71.1571 122.52C71.9212 124.239 72.0167 124.716 71.8893 127.04C71.6983 130.192 70.7433 132.293 68.5785 134.171C63.9307 138.278 56.768 137.386 53.4254 132.261C50.5603 127.9 51.1015 122.838 54.8261 119.209C57.6275 116.503 61.7023 115.675 65.4906 117.076ZM136.386 117.331C142.721 120.419 144.185 128.982 139.187 133.821C134.253 138.628 126.071 137.323 122.983 131.274C120.087 125.512 122.983 118.731 129.255 116.694C130.847 116.185 134.73 116.535 136.386 117.331Z" fill="#2F3035"/>
<path d="M20.1906 55.7312C18.2487 56.5908 16.9754 59.1693 17.4847 61.3659C17.8667 63.0531 18.6944 64.1037 20.1906 64.8359C21.5595 65.4725 21.8778 65.4725 44.8304 65.4089C67.8467 65.3134 68.1013 65.3134 68.9927 64.6448C69.4702 64.2947 70.2024 63.4988 70.6163 62.9258C72.0806 60.7611 71.1893 57.3229 68.7699 55.9541C67.592 55.2855 67.4328 55.2855 44.3847 55.2855C25.6661 55.3174 20.9865 55.381 20.1906 55.7312Z" fill="#2F3035"/>
<path d="M11.7862 76.0417C9.84434 77.0285 8.85747 78.7794 9.01664 80.8487C9.17582 82.5677 9.87617 83.7456 11.4679 84.7961L12.5184 85.5283H35.9804H59.4423L60.4928 84.7961C62.0209 83.7774 62.7849 82.5996 62.9441 81.0397C63.1351 79.0023 62.0527 76.9967 60.1745 76.0417L58.7738 75.3413H35.9804H13.1869L11.7862 76.0417Z" fill="#2F3035"/>
<path d="M19.8404 96.3519C17.1345 98.0073 16.5615 101.796 18.6944 104.056C20.4135 105.902 20.4771 105.902 34.3251 105.902C46.9951 105.902 47.027 105.902 48.4277 105.17C51.2291 103.674 52.0568 99.9492 50.0831 97.6253C48.4595 95.6834 48.7142 95.7152 34.1659 95.7152C21.5277 95.7152 20.7955 95.7471 19.8404 96.3519Z" fill="#2F3035"/>
</svg>
