<svg width="180" height="180" viewBox="0 0 180 180" fill="none" xmlns="http://www.w3.org/2000/svg">
<path d="M150.547 14.8789C148.015 15.7578 99.1131 43.9883 97.953 45.2188C96.4764 46.7656 96.5819 48.7344 98.1991 50.3516C99.3241 51.4766 99.6053 51.582 100.941 51.4063C102.066 51.3008 108.324 47.8203 127.73 36.6055C147.207 25.3555 153.324 21.9805 154.203 21.9805C158.14 21.9805 160.531 26.2344 158.387 29.3985C157.754 30.3125 152.445 33.5469 132.476 45.0781C118.66 53.0586 107.058 59.9141 106.742 60.336C105.828 61.4258 105.898 63.8867 106.918 65.0469C107.972 66.2422 109.519 66.6641 111.066 66.1367C111.734 65.8906 117.008 62.9727 122.808 59.6328C149.949 43.9531 158.351 39.1016 158.738 38.961C159.09 38.8203 159.195 45.0781 159.195 70.6016V102.418L155.68 103.824L152.164 105.23V79.6016C152.164 57.5235 152.094 53.7969 151.637 52.918C150.441 50.5625 147.734 50.0703 145.765 51.8281L144.605 52.8477L144.43 80.6914L144.254 108.5L140.562 110.047C138.523 110.855 132.687 113.246 127.555 115.355C117.289 119.539 116.305 120.172 116.305 122.422C116.34 123.16 116.515 124.109 116.762 124.531C117.219 125.34 134.023 136.977 136.765 138.383C144.922 142.566 154.308 141.09 160.812 134.656C162.394 133.039 163.73 131.316 164.574 129.699C167.07 124.848 166.93 128.082 166.859 73.0625L166.754 23.5625L165.84 21.5938C163.765 17.1641 159.898 14.5625 155.047 14.3516C153.078 14.2461 151.847 14.3867 150.547 14.8789ZM159.125 117.148C159.019 123.23 158.984 123.477 158 125.48C156.629 128.258 154.414 130.402 151.531 131.773C149.527 132.723 148.824 132.863 146.363 132.863C142.531 132.863 141.16 132.23 134.094 127.449C128.328 123.512 128.258 123.441 129.207 123.055C129.769 122.809 134.375 120.945 139.508 118.836C144.64 116.762 151.039 114.125 153.746 113C156.453 111.875 158.808 110.926 158.949 110.926C159.125 110.926 159.195 113.738 159.125 117.148Z" fill="#2F3035"/>
<path d="M57.6992 48.6992C54.8164 49.2969 52.3906 51.1953 51.0547 53.832C50.457 55.0977 50.3867 56.1523 50.2812 66.875L50.1758 78.582H41.457C31.4375 78.582 30.1719 78.793 27.6406 81.043C26.7617 81.8164 25.6719 83.1875 25.2148 84.1016L24.3711 85.7891V100.379V114.969L25.3203 116.762C27.2891 120.488 30.4531 122.176 35.5156 122.176H38.2578V126.57V130.965H35.3047C27.6406 130.965 22.7891 132.688 19.0625 136.66C15.5469 140.457 14 144.219 14 149.07C14 156.84 18.7812 163.52 26.3047 166.191L28.5898 167H66.5586H104.527L106.883 166.191C114.512 163.555 119.258 156.98 119.258 149.07C119.223 141.195 114.582 134.727 107.094 132.125C105.16 131.457 103.648 131.246 99.7461 131.07L94.8594 130.859V126.57V122.281L98.4805 122.105C101.223 121.965 102.418 121.754 103.508 121.191C105.336 120.242 106.953 118.66 107.973 116.762C108.746 115.32 108.746 115.18 108.746 98.7969C108.746 82.6602 108.746 82.2383 107.973 80.4102C107.551 79.3906 103.93 72.9219 99.8867 65.9961C91.8711 52.2148 90.7461 50.7383 87.2305 49.3672C85.2617 48.5586 84.8398 48.5586 72.1836 48.4883C65.0469 48.418 58.5078 48.5234 57.6992 48.6992ZM85.0156 56.8555C86 57.5234 100.309 81.6758 100.871 83.5742C101.047 84.207 101.187 86.2812 101.187 88.1797V91.625L83.0117 91.5195L64.8008 91.4141L63.1484 90.4648C60.8984 89.1289 59.457 87.2656 58.6484 84.5938C58.0156 82.5547 57.9453 81.3242 57.9453 69.793V57.1719L58.7539 56.6094C59.4219 56.1172 61.0391 56.082 71.832 56.1523C82.7305 56.2578 84.2422 56.3281 85.0156 56.8555ZM52.0039 89.0234C53.9727 93.6641 58.4023 97.5312 63.3594 98.832C64.7656 99.2188 69.0547 99.3242 83.1875 99.3242H101.187V106.25C101.187 112.191 101.117 113.246 100.59 113.809C100.062 114.406 98.5508 114.441 66.6641 114.441C33.793 114.441 33.3359 114.441 32.6328 113.738C31.9648 113.07 31.9297 112.578 31.9297 100.379C31.9297 88.1445 31.9648 87.6875 32.6328 87.0195C33.3008 86.3516 33.7227 86.3164 42.1602 86.3867L50.9492 86.4922L52.0039 89.0234ZM87.125 126.57V130.965H66.5586H45.9922V126.57V122.176H66.5586H87.125V126.57ZM105.23 139.684C109.168 141.477 111.383 144.887 111.383 149.07C111.383 153.219 109.309 156.559 105.547 158.422L103.824 159.266H66.7344H29.6445L27.7812 158.422C18.7812 154.344 20.4336 140.703 30.1367 139.051C31.0156 138.91 47.8906 138.805 67.6133 138.84L103.473 138.875L105.23 139.684Z" fill="#2F3035"/>
</svg>
