<svg width="179" height="180" viewBox="0 0 179 180" fill="none" xmlns="http://www.w3.org/2000/svg">
<path d="M55.7381 27.5904C54.6394 27.9096 53.1011 29.5547 52.7837 30.6841C52.6372 31.1997 52.5151 32.8447 52.5151 34.3425V37.0924L47.8272 37.1906C43.6031 37.2888 42.8951 37.387 40.9173 37.9763C34.6667 39.8668 29.637 44.8756 27.6837 51.2593L27 53.4691V95.0861V136.703L27.6837 138.913C29.637 145.272 34.5935 150.256 40.9173 152.22L43.1148 152.908H64.2594H85.3796L86.3807 152.245C87.8945 151.238 88.5293 150.035 88.5293 148.12C88.5293 146.205 87.8945 145.002 86.3807 143.995L85.3796 143.332L64.8698 143.21L44.3356 143.087L42.9195 142.522C40.2093 141.417 38.1583 139.257 37.2061 136.482C36.791 135.304 36.7666 133.094 36.7666 95.0861C36.7666 57.0784 36.791 54.8686 37.2061 53.6901C38.1583 50.9156 40.2337 48.7304 42.9195 47.6746C44.1403 47.2081 44.9216 47.1099 48.3888 47.0117L52.4663 46.9135L52.5396 50.2036C52.6372 53.1254 52.686 53.5673 53.2232 54.4021C53.5406 54.9177 54.2487 55.6297 54.7859 55.998C55.616 56.5628 56.0555 56.661 57.3984 56.661C58.7413 56.661 59.1808 56.5628 60.011 55.998C60.5481 55.6297 61.2562 54.9177 61.5736 54.4021C62.1108 53.5673 62.1596 53.1254 62.2329 50.2036L62.3305 46.9626H73.2691H84.2076L84.3053 50.2281C84.3785 53.2972 84.4274 53.5673 85.0378 54.5003C86.0388 56.0471 87.2352 56.661 89.1641 56.661C90.4826 56.661 90.9221 56.5382 91.7523 55.998C92.2894 55.6297 92.9975 54.9177 93.3149 54.4021C93.8521 53.5673 93.9009 53.1254 93.9742 50.2036L94.0718 46.9626H105.132H116.193L116.291 50.2281C116.364 53.2972 116.413 53.5673 117.023 54.5003C118.024 56.0471 119.221 56.661 121.15 56.661C122.468 56.661 122.908 56.5382 123.738 55.998C124.275 55.6297 124.983 54.9177 125.3 54.4021C125.838 53.5673 125.886 53.1254 125.984 50.2036L126.057 46.9135L130.257 47.0117C133.797 47.1099 134.627 47.1836 135.751 47.6501C138.461 48.7304 140.365 50.621 141.44 53.2727L142.001 54.6967L142.123 70.5333L142.245 86.3699L142.831 87.3029C143.149 87.8185 143.857 88.5305 144.394 88.8988C145.224 89.439 145.664 89.5617 146.982 89.5617C148.911 89.5617 150.107 88.9479 151.109 87.4011L151.768 86.3944V69.944V53.4691L151.084 51.2593C149.131 44.9002 144.101 39.8668 137.85 37.9763C135.873 37.387 135.165 37.2888 130.843 37.1906L126.057 37.0924L125.96 33.8514C125.886 30.8069 125.838 30.5368 125.227 29.6038C124.226 28.0815 123.03 27.4431 121.125 27.4431C119.221 27.4431 118.024 28.0815 117.023 29.6038C116.413 30.5368 116.364 30.8069 116.291 33.876L116.193 37.1415H105.132H94.0718L93.9742 33.876C93.9009 30.9787 93.8521 30.5368 93.3149 29.702C92.9975 29.1864 92.2894 28.4743 91.7523 28.1061C90.9221 27.5659 90.4826 27.4431 89.1641 27.4431C87.2352 27.4431 86.0388 28.057 85.0378 29.6038C84.4274 30.5368 84.3785 30.8069 84.3053 33.876L84.2076 37.1415H73.2691H62.3305L62.2329 33.876C62.1596 30.8069 62.1108 30.5368 61.5004 29.6038C61.1341 29.0636 60.4505 28.3761 59.9866 28.0815C58.9855 27.4431 56.9345 27.2222 55.7381 27.5904Z" fill="#2F3035"/>
<path d="M55.7381 74.2407C54.5661 74.5845 53.0767 76.2049 52.7349 77.4571C52.1733 79.6423 53.0279 81.9257 54.8835 83.0797C56.2752 83.9636 58.6436 83.9145 60.0109 83.0061C61.5248 81.9994 62.1596 80.7963 62.1596 78.8812C62.1596 76.9906 61.5248 75.763 60.0842 74.8054C59.0343 74.0934 57.0321 73.8479 55.7381 74.2407Z" fill="#2F3035"/>
<path d="M76.9803 74.2407C75.8083 74.5845 74.3189 76.2049 73.977 77.4571C73.4155 79.6423 74.27 81.9257 76.1257 83.0797C77.5174 83.9636 79.8858 83.9145 81.2531 83.0061C82.7669 81.9994 83.4018 80.7963 83.4018 78.8812C83.4018 76.9906 82.7669 75.763 81.3264 74.8054C80.2765 74.0934 78.2743 73.8479 76.9803 74.2407Z" fill="#2F3035"/>
<path d="M98.2225 74.2407C97.0505 74.5845 95.5611 76.2049 95.2192 77.4571C94.6577 79.6423 95.5122 81.9257 97.3679 83.0797C98.7596 83.9636 101.128 83.9145 102.495 83.0061C104.009 81.9994 104.644 80.7963 104.644 78.8812C104.644 76.9906 104.009 75.763 102.569 74.8054C101.519 74.0934 99.5165 73.8479 98.2225 74.2407Z" fill="#2F3035"/>
<path d="M119.465 74.2407C118.293 74.5845 116.803 76.2049 116.461 77.4571C115.9 79.6423 116.754 81.9257 118.61 83.0797C120.002 83.9636 122.37 83.9145 123.738 83.0061C125.251 81.9994 125.886 80.7963 125.886 78.8812C125.886 76.9906 125.251 75.763 123.811 74.8054C122.761 74.0934 120.759 73.8479 119.465 74.2407Z" fill="#2F3035"/>
<path d="M118.073 93.9812C111.627 94.9879 105.743 98.0079 101.299 102.599C98.9552 104.981 97.3437 107.313 95.8299 110.432C91.8256 118.706 91.8256 127.938 95.8299 136.212C98.8331 142.375 103.423 146.991 109.503 149.962C117.78 154.013 126.912 154.013 135.189 149.962C141.269 146.991 145.859 142.375 148.862 136.212C152.867 127.938 152.867 118.706 148.862 110.432C145.859 104.269 141.269 99.6529 135.189 96.682C129.769 94.0303 123.738 93.0728 118.073 93.9812ZM125.813 103.778C135.336 105.668 142.123 113.771 142.123 123.322C142.123 132.873 135.336 140.975 125.813 142.866C119.05 144.192 111.53 141.417 107.135 135.966C101.079 128.453 101.079 118.19 107.135 110.677C111.53 105.251 119.05 102.452 125.813 103.778Z" fill="#2F3035"/>
<path d="M120.686 108.615C119.538 108.958 118.025 110.579 117.707 111.782C117.536 112.445 117.463 114.949 117.512 118.878L117.585 124.967L118.244 125.949C118.611 126.489 119.319 127.201 119.831 127.52C120.735 128.085 120.906 128.11 125.887 128.11C130.868 128.11 131.039 128.085 131.942 127.52C132.455 127.201 133.163 126.489 133.529 125.949C134.432 124.574 134.481 122.192 133.602 120.793C132.65 119.246 131.429 118.583 129.183 118.46L127.278 118.362L127.181 114.998C127.108 112.003 127.059 111.561 126.522 110.726C125.374 108.86 122.835 107.952 120.686 108.615Z" fill="#2F3035"/>
<path d="M55.7381 95.6017C54.5661 95.9454 53.0767 97.5659 52.7349 98.8181C52.1733 101.003 53.0279 103.287 54.8835 104.441C56.2752 105.325 58.6436 105.275 60.0109 104.367C61.5248 103.36 62.1596 102.157 62.1596 100.242C62.1596 98.3516 61.5248 97.124 60.0842 96.1664C59.0343 95.4544 57.0321 95.2088 55.7381 95.6017Z" fill="#2F3035"/>
<path d="M76.9803 95.6017C75.8083 95.9454 74.3189 97.5659 73.977 98.8181C73.4155 101.003 74.27 103.287 76.1257 104.441C77.5174 105.325 79.8858 105.275 81.2531 104.367C82.7669 103.36 83.4018 102.157 83.4018 100.242C83.4018 98.3516 82.7669 97.124 81.3264 96.1664C80.2765 95.4544 78.2743 95.2088 76.9803 95.6017Z" fill="#2F3035"/>
<path d="M55.7381 116.963C54.5661 117.306 53.0767 118.927 52.7349 120.179C52.1733 122.364 53.0279 124.648 54.8835 125.802C56.2752 126.685 58.6436 126.636 60.0109 125.728C61.5248 124.721 62.1596 123.518 62.1596 121.603C62.1596 119.712 61.5248 118.485 60.0842 117.527C59.0343 116.815 57.0321 116.57 55.7381 116.963Z" fill="#2F3035"/>
<path d="M76.9803 116.963C75.8083 117.306 74.3189 118.927 73.977 120.179C73.4155 122.364 74.27 124.648 76.1257 125.802C77.5174 126.685 79.8858 126.636 81.2531 125.728C82.7669 124.721 83.4018 123.518 83.4018 121.603C83.4018 119.712 82.7669 118.485 81.3264 117.527C80.2765 116.815 78.2743 116.57 76.9803 116.963Z" fill="#2F3035"/>
</svg>
