<svg width="180" height="180" viewBox="0 0 180 180" fill="none" xmlns="http://www.w3.org/2000/svg">
<path d="M86.6254 18.8236C86.1836 18.8788 84.7479 19.0721 83.4501 19.2377C67.9602 21.3086 53.63 32.6844 47.8317 47.5668C45.5123 53.4756 44.684 57.921 44.684 64.6306C44.6564 71.3677 45.7885 76.7795 48.4115 82.7435C49.8197 85.9464 49.8197 85.974 58.8486 100.111C62.9626 106.544 66.2207 111.901 66.1103 112.011C65.9999 112.122 64.6745 112.398 63.1559 112.674C52.9674 114.469 42.5027 118.141 36.5111 122.089C30.4642 126.038 27.2613 131.753 28.1449 136.972C29.0837 142.411 33.5015 147.188 41.0669 150.888C60.7813 160.58 96.8416 162.871 123.983 156.162C135.746 153.263 144.968 148.624 148.944 143.654C154.328 136.861 152.809 128.937 144.996 123.056C139.335 118.776 128.097 114.607 116.998 112.674C115.479 112.398 114.154 112.122 114.043 112.011C113.933 111.901 117.44 106.185 121.857 99.2826C126.275 92.3798 130.417 85.5875 131.079 84.2345C132.736 80.7555 133.868 77.4146 134.724 73.3557C135.359 70.3185 135.47 69.214 135.47 64.9067C135.47 62.1732 135.304 58.9427 135.111 57.7278C132.018 38.041 116.998 22.7167 97.5319 19.3482C95.2125 18.934 88.1993 18.6027 86.6254 18.8236ZM97.449 27.742C111.586 30.6412 122.658 41.3543 126.22 55.5189C128.346 64.0783 127.269 73.6318 123.293 81.2525C121.995 83.7099 90.3529 133.521 90.0768 133.521C89.994 133.521 84.03 124.243 76.8234 112.895C69.6169 101.574 62.3 90.1157 60.5881 87.4374C58.8762 84.7591 57.0262 81.6391 56.474 80.507C48.8533 64.5477 53.5748 45.2199 67.6841 34.562C73.1512 30.4479 79.2808 28.0181 86.4874 27.1069C88.6687 26.8308 94.7155 27.1898 97.449 27.742ZM79.1704 132.002C84.7755 140.755 87.1777 144.317 87.8403 144.758C89.1104 145.614 91.0432 145.614 92.3133 144.758C92.976 144.317 95.4058 140.755 100.983 132.002L108.742 119.853L109.819 119.936C110.426 119.963 112.414 120.267 114.237 120.571C127.159 122.752 136.823 126.452 141.461 131.036C144.692 134.238 144.692 136.171 141.489 139.319C135.47 145.172 121.692 149.425 102.916 151.247C98.1945 151.689 81.6278 151.689 77.0996 151.247C67.0215 150.225 59.456 148.79 52.6636 146.608C46.0922 144.51 41.5915 142.163 38.6648 139.319C35.6551 136.392 35.5171 134.432 38.1125 131.56C41.8124 127.446 50.5652 123.636 61.5268 121.399C66.0551 120.46 70.39 119.743 71.0251 119.825C71.246 119.825 74.9183 125.32 79.1704 132.002Z" fill="#2F3035"/>
<path d="M87.4541 43.9498C87.1504 44.005 86.2116 44.1983 85.3833 44.364C79.3916 45.5788 73.5381 50.5489 70.9702 56.6233C69.8382 59.3016 69.5068 61.0963 69.5068 64.4925C69.5068 67.8887 69.8382 69.6834 70.9702 72.3617C73.5381 78.4086 78.9775 83.0473 85.3833 84.6763C87.3437 85.1733 92.8107 85.1733 94.7711 84.6763C101.177 83.0473 106.616 78.4086 109.184 72.3617C110.316 69.6834 110.648 67.8887 110.648 64.4925C110.648 62.6978 110.482 60.6546 110.261 59.7986C108.383 52.3712 102.613 46.49 95.1853 44.4192C93.7771 44.0326 88.4757 43.7013 87.4541 43.9498ZM92.3137 52.3436C98.8023 53.5861 103.331 59.9367 102.281 66.3149C101.398 71.7267 97.3113 75.8131 91.8995 76.6967C83.9199 78.022 76.5477 70.6498 77.873 62.6702C79.0327 55.7122 85.5213 51.0735 92.3137 52.3436Z" fill="#2F3035"/>
</svg>
