<svg width="60" height="60" fill="none" xmlns="http://www.w3.org/2000/svg"><path d="M30 1.2C14.094 1.2 1.2 14.094 1.2 30S14.094 58.8 30 58.8 58.8 45.906 58.8 30 45.906 1.2 30 1.2zm-7.05 40.737h-5.832V23.169h5.832v18.768zm-2.952-21.072c-1.842 0-3.033-1.305-3.033-2.92 0-1.646 1.227-2.912 3.108-2.912s3.033 1.266 3.07 2.913c0 1.614-1.189 2.919-3.145 2.919zM44.25 41.937h-5.832V31.536c0-2.421-.846-4.065-2.955-4.065-1.61 0-2.568 1.113-2.99 2.184-.157.381-.196.921-.196 1.458v10.821h-5.835v-12.78c0-2.343-.075-4.302-.153-5.988h5.067l.267 2.607h.117c.768-1.224 2.65-3.03 5.796-3.03 3.837 0 6.714 2.571 6.714 8.097v11.097z" fill="#fff"/></svg>