<svg width="60" height="60" fill="none" xmlns="http://www.w3.org/2000/svg"><path d="M39.375 30a9.375 9.375 0 11-18.75 0c0-.534.056-1.056.153-1.563H17.5v12.491c0 .869.703 1.572 1.572 1.572h21.86a1.572 1.572 0 001.568-1.572v-12.49h-3.278A8.31 8.31 0 0139.375 30zM30 36.25a6.25 6.25 0 10-.003-12.502A6.25 6.25 0 0030 36.25zm7.5-12.813h3.747a.94.94 0 00.94-.937v-3.747a.94.94 0 00-.94-.94H37.5a.94.94 0 00-.94.94V22.5a.945.945 0 00.94.938zM30 0a30 30 0 100 60 30 30 0 000-60zm15.625 42.153a3.482 3.482 0 01-3.472 3.472H17.847a3.482 3.482 0 01-3.472-3.472V17.847a3.482 3.482 0 013.472-3.472h24.306a3.482 3.482 0 013.472 3.472v24.306z" fill="#fff"/></svg>