<svg width="78" height="78" fill="none" xmlns="http://www.w3.org/2000/svg"><g filter="url(#filter0_d)"><path d="M39 5.2C23.094 5.2 10.2 18.094 10.2 34S23.094 62.8 39 62.8 67.8 49.906 67.8 34 54.906 5.2 39 5.2zm-7.05 40.737h-5.832V27.169h5.832v18.768zm-2.952-21.072c-1.842 0-3.033-1.305-3.033-2.92 0-1.646 1.227-2.912 3.108-2.912s3.033 1.266 3.07 2.913c0 1.614-1.189 2.919-3.145 2.919zM53.25 45.937h-5.832V35.536c0-2.421-.846-4.065-2.955-4.065-1.61 0-2.568 1.113-2.99 2.184-.157.381-.196.921-.196 1.458v10.821h-5.835v-12.78c0-2.343-.075-4.302-.153-5.988h5.067l.267 2.607h.117c.768-1.224 2.65-3.03 5.796-3.03 3.837 0 6.714 2.571 6.714 8.097v11.097z" fill="#fff"/></g><defs><filter id="filter0_d" x="-1" y="-1" width="80" height="80" filterUnits="userSpaceOnUse" color-interpolation-filters="sRGB"><feFlood flood-opacity="0" result="BackgroundImageFix"/><feColorMatrix in="SourceAlpha" values="0 0 0 0 0 0 0 0 0 0 0 0 0 0 0 0 0 0 127 0"/><feOffset dy="5"/><feGaussianBlur stdDeviation="5"/><feColorMatrix values="0 0 0 0 0 0 0 0 0 0 0 0 0 0 0 0 0 0 0.25 0"/><feBlend in2="BackgroundImageFix" result="effect1_dropShadow"/><feBlend in="SourceGraphic" in2="effect1_dropShadow" result="shape"/></filter></defs></svg>