<?xml version="1.0" standalone="no"?>
<!DOCTYPE svg PUBLIC "-//W3C//DTD SVG 20010904//EN"
 "http://www.w3.org/TR/2001/REC-SVG-20010904/DTD/svg10.dtd">
<svg version="1.0" xmlns="http://www.w3.org/2000/svg"
 width="512.000000pt" height="512.000000pt" viewBox="0 0 512.000000 512.000000"
 preserveAspectRatio="xMidYMid meet">
<metadata>
Created by potrace 1.14, written by Peter Selinger 2001-2017
</metadata>
<g transform="translate(0.000000,512.000000) scale(0.100000,-0.100000)"
fill="#000000" stroke="none">
<path d="M319 5108 c0 -7 -1 -643 -1 -1413 -1 -1216 2 -1517 17 -1594 1 -9 6
-41 11 -71 4 -30 8 -57 9 -60 1 -3 4 -21 8 -40 40 -190 116 -403 200 -560 29
-53 132 -211 166 -253 9 -11 61 -66 116 -122 427 -436 1069 -820 1621 -971
l94 -25 94 25 c208 57 587 213 696 287 14 9 27 16 30 16 3 0 16 6 30 15 14 8
75 45 135 81 61 36 139 86 175 111 36 25 74 52 84 58 10 7 78 60 150 117 391
311 571 538 707 890 30 77 81 254 95 326 4 22 8 42 9 45 1 3 5 30 9 60 5 30
10 64 12 75 14 74 16 325 16 1580 0 776 -1 1416 -1 1423 -1 9 -456 12 -2241
12 -1785 0 -2240 -3 -2241 -12z"/>
</g>
</svg>
