<svg style="display: none;" aria-hidden="true" xmlns="http://www.w3.org/2000/svg" xmlns:xlink="http://www.w3.org/1999/xlink"><symbol viewBox="0 0 10 22" fill="none" id="svg-arrow-left"><path d="M9 20.2728L0.99997 10.7739L9 1" stroke="#919394" stroke-width="2" stroke-miterlimit="10" stroke-linecap="round" stroke-linejoin="round"/></symbol><symbol viewBox="0 0 10 22" fill="none" id="svg-arrow-right"><path d="M1 20.2728L9.00003 10.7739L1 1" stroke="#919394" stroke-width="2" stroke-miterlimit="10" stroke-linecap="round" stroke-linejoin="round"/></symbol><symbol viewBox="0 0 24 24" fill="none" id="svg-copy"><path d="M15 20H5V7C5 6.45 4.55 6 4 6C3.45 6 3 6.45 3 7V20C3 21.1 3.9 22 5 22H15C15.55 22 16 21.55 16 21C16 20.45 15.55 20 15 20ZM20 16V4C20 2.9 19.1 2 18 2H9C7.9 2 7 2.9 7 4V16C7 17.1 7.9 18 9 18H18C19.1 18 20 17.1 20 16ZM18 16H9V4H18V16Z" fill="#fff"/></symbol><symbol viewBox="0 0 20 20" fill="none" id="svg-discord"><path d="M16.9419 3.52317C15.6473 2.91744 14.263 2.47723 12.8157 2.22656C12.638 2.5479 12.4304 2.98012 12.2872 3.32394C10.7487 3.09258 9.22445 3.09258 7.7143 3.32394C7.57116 2.98012 7.3588 2.5479 7.17947 2.22656C5.73067 2.47723 4.3448 2.91906 3.05016 3.52638C0.438869 7.47238 -0.269009 11.3204 0.0849305 15.1137C1.81688 16.4071 3.49534 17.1928 5.14548 17.7069C5.55291 17.1462 5.91628 16.5501 6.22931 15.9219C5.63313 15.6954 5.06211 15.4158 4.52256 15.0912C4.6657 14.9852 4.80571 14.8743 4.94098 14.7603C8.23183 16.2995 11.8074 16.2995 15.0589 14.7603C15.1958 14.8743 15.3358 14.9852 15.4774 15.0912C14.9362 15.4174 14.3637 15.6969 13.7675 15.9235C14.0805 16.5501 14.4423 17.1478 14.8513 17.7085C16.503 17.1944 18.183 16.4087 19.915 15.1137C20.3303 10.7163 19.2056 6.90361 16.9419 3.52317ZM6.67765 12.7809C5.68977 12.7809 4.87963 11.8586 4.87963 10.7355C4.87963 9.61247 5.67247 8.68864 6.67765 8.68864C7.68285 8.68864 8.49297 9.61086 8.47567 10.7355C8.47723 11.8586 7.68285 12.7809 6.67765 12.7809ZM13.3223 12.7809C12.3344 12.7809 11.5243 11.8586 11.5243 10.7355C11.5243 9.61247 12.3171 8.68864 13.3223 8.68864C14.3275 8.68864 15.1376 9.61086 15.1203 10.7355C15.1203 11.8586 14.3275 12.7809 13.3223 12.7809Z" fill="#8D8D8E"/></symbol><symbol viewBox="0 0 22 22" fill="none" id="svg-instagram"><path d="M21.9339 6.46478C21.8803 5.29388 21.6944 4.49426 21.4224 3.79468C21.1463 3.06068 20.7133 2.39584 20.1537 1.84631C19.6043 1.28671 18.9393 0.8535 18.2053 0.577225C17.5056 0.305481 16.7061 0.119675 15.5352 0.0664673C14.3621 0.0127563 13.9873 0 11 0C8.01266 0 7.63786 0.0127563 6.46478 0.0661316C5.29388 0.119675 4.49443 0.305649 3.79468 0.57756C3.06068 0.853668 2.39584 1.28671 1.84631 1.84631C1.28671 2.39568 0.8535 3.06052 0.577225 3.79451C0.305481 4.49426 0.119675 5.29388 0.0664673 6.46461C0.0127563 7.63786 0 8.0125 0 10.9998C0 13.9873 0.0127563 14.3621 0.0664673 15.5352C0.119843 16.7059 0.305817 17.5056 0.577728 18.2053C0.853836 18.9391 1.28688 19.6042 1.84648 20.1535C2.39584 20.7131 3.06085 21.1462 3.79485 21.4223C4.49443 21.6944 5.29405 21.8802 6.46495 21.9337C7.6382 21.9872 8.01283 21.9998 11.0002 21.9998C13.9875 21.9998 14.3623 21.9872 15.5354 21.9337C16.7063 21.8802 17.5057 21.6944 18.2055 21.4223C19.683 20.8509 20.8511 19.6829 21.4224 18.2053C21.6945 17.5056 21.8803 16.7059 21.9339 15.5352C21.9872 14.362 22 13.9873 22 11C22 8.0125 21.9872 7.63786 21.9339 6.46478ZM19.9538 15.4451C19.9049 16.5176 19.7257 17.1001 19.5751 17.4876C19.205 18.447 18.4469 19.2052 17.4874 19.5753C17.0999 19.7258 16.5175 19.9051 15.4449 19.9539C14.2853 20.007 13.9373 20.0181 11 20.0181C8.06252 20.0181 7.71474 20.007 6.55492 19.9539C5.48254 19.9051 4.90012 19.7258 4.51239 19.5753C4.0347 19.3989 3.60249 19.1177 3.24767 18.7523C2.88226 18.3975 2.60112 17.9655 2.42471 17.4876C2.27415 17.1001 2.09489 16.5176 2.04605 15.4451C1.99318 14.2853 1.98193 13.9373 1.98193 11.0002C1.98193 8.06285 1.99318 7.71507 2.04605 6.55508C2.09506 5.48254 2.27415 4.90012 2.42471 4.51256C2.60112 4.0347 2.88243 3.60249 3.24767 3.24767C3.60249 2.88226 4.0347 2.60112 4.51256 2.42488C4.90012 2.27415 5.48254 2.09506 6.55508 2.04605C7.7149 1.99318 8.06285 1.98193 11 1.98193H10.9998C13.937 1.98193 14.2849 1.99318 15.4449 2.04622C16.5175 2.09506 17.0997 2.27432 17.4874 2.42488C17.9651 2.60129 18.3973 2.88243 18.7522 3.24767C19.1176 3.60249 19.3987 4.0347 19.575 4.51256C19.7257 4.90012 19.9049 5.48254 19.9538 6.55508C20.0067 7.7149 20.0179 8.06285 20.0179 11C20.0179 13.9373 20.0068 14.2851 19.9538 15.4451Z" fill="#8D8D8E"/><path d="M11.0001 5.35156C7.88051 5.35156 5.35156 7.88068 5.35156 11.0003 5.35156 14.1199 7.88051 16.6488 11.0001 16.6488 14.1199 16.6488 16.6488 14.1199 16.6488 11.0003 16.6488 7.88068 14.1199 5.35156 11.0001 5.35156zM11.0001 14.6669C8.9752 14.6667 7.3335 13.0252 7.33366 11.0001 7.33366 8.9752 8.9752 7.3335 11.0003 7.3335 13.0253 7.33366 14.6669 8.9752 14.6669 11.0001 14.6669 13.0252 13.0252 14.6669 11.0001 14.6669zM18.1918 5.12773C18.1918 5.85669 17.6008 6.44768 16.8719 6.44768 16.1427 6.44768 15.5518 5.85669 15.5518 5.12773 15.5518 4.39861 16.1427 3.80762 16.8719 3.80762 17.6008 3.80762 18.1918 4.39861 18.1918 5.12773z" fill="#8D8D8E"/></symbol><symbol viewBox="0 0 18 17" fill="none" id="svg-linkedin"><path d="M4.08621 16.9997V5.5293H0.227593V16.9997H4.08654H4.08621ZM2.15757 3.96349C3.5029 3.96349 4.34043 3.08264 4.34043 1.98191C4.31515 0.856196 3.50289 0 2.18319 0C0.862486 0 0 0.856196 0 1.98191C0 3.08264 0.837198 3.96349 2.13228 3.96349H2.15723H2.15757ZM6.22186 16.9997H10.0801V10.5948C10.0801 10.2524 10.1054 9.90923 10.2072 9.66469C10.4861 8.9794 11.121 8.27013 12.1871 8.27013C13.583 8.27013 14.1417 9.32188 14.1417 10.864V16.9997H18V10.4229C18 6.89988 16.0967 5.26044 13.5581 5.26044C11.4767 5.26044 10.5626 6.40981 10.0548 7.19272H10.0805V5.52963H6.2222C6.27244 6.60571 6.22186 17 6.22186 17V16.9997Z" fill="#8D8D8E"/></symbol><symbol viewBox="0 0 50 50" fill="none" id="svg-logo"><g clip-path="url(#gclip0_121_335)"><path fill-rule="evenodd" clip-rule="evenodd" d="M12.6826 17.0045C12.6826 17.0045 12.8714 6.40125 23.3431 0.0270742C23.3431 0.0270742 21.3692 1.83749 20.5362 4.94997C20.5362 4.94997 23.6969 8.65534 25.1724 14.1643C25.1724 14.1643 28.3263 9.93585 35.7699 10.1253C35.7699 10.1253 34.2684 10.3772 32.3484 11.3298C32.3484 11.3361 32.7351 13.5635 30.8582 15.8686C30.8582 15.8686 31.4252 13.5663 30.8967 12.1496C29.6386 12.9491 28.5149 13.943 27.5676 15.0942C27.5676 15.0942 31.952 17.1457 34.0966 20.4273C34.0966 20.4273 29.0187 16.8615 22.9314 16.1988C22.9314 16.1988 22.805 10.5821 19.5563 6.92095C19.5563 6.92095 17.0335 9.88762 16.2108 16.2306C16.2108 16.2306 18.34 15.9305 19.8399 16.1829C19.8399 16.1829 6.87205 21.4775 5.63759 32.0642C6.60953 34.3111 7.9184 36.3965 9.51903 38.2483C9.34892 33.6397 10.0617 25.492 16.5912 21.5461C16.5912 21.5461 12.1116 25.5539 13.2162 33.191C13.2162 33.191 13.6891 30.2084 14.8408 28.8224L16.6553 28.3361C16.6553 28.3361 17.8858 25.635 20.5986 24.0243C20.5986 24.0243 15.1419 30.146 19.748 39.2979C19.748 39.2979 18.9439 36.0947 19.5586 33.5858L20.4443 33.0752C20.4443 33.0752 21.2104 30.2385 23.1032 28.5041C23.1032 28.5041 19.0585 35.9313 25.4173 41.9906C25.4173 41.9906 24.2265 39.6996 24.1131 36.9536L24.827 36.5417C24.827 36.5417 24.5293 34.2462 25.1729 32.3337C25.1729 32.3337 25.0595 36.5185 27.8982 39.7751C27.8982 39.7751 28.0779 37.9102 29.0051 36.6983C29.0051 36.6983 33.9066 37.8058 33.9066 33.8298C33.9066 33.8298 29.6294 35.1551 27.3589 32.1278C27.3589 32.1278 32.3166 34.4754 34.9664 30.5749C34.9664 30.5749 33.7189 29.4402 33.3787 28.1705C33.3787 28.1705 30.8837 26.7124 30.0484 24.5729C30.0484 24.5729 26.9824 24.5162 25.7712 21.2596C25.7712 21.2596 24.2572 20.1612 23.7083 19.915C23.7083 19.915 26.6983 19.8202 30.3699 21.9223C30.3699 21.9223 30.9937 28.0945 37.2017 28.0945C37.2017 28.0945 34.5145 26.8463 34.5145 22.8686H36.9363C36.9363 22.8686 36.667 24.4793 35.6117 24.7618C35.6117 24.7618 36.1419 27.5078 39.6616 28.4167C39.6616 28.4167 39.6049 29.7784 38.6409 30.4234C38.6409 30.4234 40.054 33.7946 36.3512 35.9335C36.3512 35.9335 35.5182 39.6066 30.7493 39.6066C30.7493 39.6066 29.3884 42.2629 30.5401 45.1762C39.4081 42.7491 45.9263 34.6303 45.9263 24.9871C45.9263 13.4279 36.561 4.05696 25.0074 4.05696C24.2306 4.05669 23.4545 4.09931 22.6825 4.18462C23.6158 2.00202 24.5259 1.33198 26.146 0.000976562C39.424 0.597262 50.0062 11.5551 50.0062 24.9871C50.0062 38.8021 38.8133 50.001 25.0062 50.001C11.1992 50.001 0 38.8009 0 24.9859C0 13.0642 8.3356 3.09133 19.4945 0.582509C17.2095 2.44249 15.2916 4.71297 13.8394 7.27724C7.35234 11.378 4.47968 15.9878 4.12017 23.3378C5.57011 21.6125 8.45808 18.7224 12.6826 17.0045Z" fill="#fff"/></g><defs><clipPath id="gclip0_121_335"><path fill="#fff" d="M0 0H50V50H0z"/></clipPath></defs></symbol><symbol viewBox="0 0 22 20" fill="none" id="svg-reddit"><path d="M21.9996 10.1511C21.9504 8.79094 20.8335 7.7288 19.4993 7.77497C18.908 7.79598 18.3457 8.04369 17.9188 8.45916C16.0384 7.14932 13.8295 6.43135 11.559 6.38106L12.6304 1.11243L16.1654 1.87244C16.2638 2.80021 17.0768 3.47202 17.9841 3.37106C18.8915 3.27047 19.5485 2.43916 19.4497 1.51139C19.351 0.583616 18.5384 -0.0881921 17.631 0.0127668C17.1095 0.067187 16.6415 0.377945 16.3831 0.839954L12.3349 0.0127668C12.06 -0.0502856 11.7847 0.126111 11.7231 0.411723C11.7231 0.415852 11.7231 0.415852 11.7231 0.419981L10.5037 6.28048C8.20455 6.31838 5.96703 7.04048 4.06206 8.35858C3.09306 7.42668 1.56578 7.47284 0.654399 8.46779C-0.256977 9.45862 -0.21183 11.0203 0.76121 11.9522C0.950239 12.1327 1.16753 12.2881 1.40978 12.3973C1.39326 12.645 1.39326 12.8927 1.40978 13.1404C1.40978 16.9228 5.72074 20 11.0374 20C16.3541 20 20.665 16.9269 20.665 13.1404C20.6816 12.8927 20.6816 12.645 20.665 12.3973C21.4946 11.9732 22.0161 11.0999 21.9996 10.1511ZM5.48253 11.843C5.48253 10.9111 6.2258 10.1511 7.13717 10.1511C8.04855 10.1511 8.79182 10.9111 8.79182 11.843C8.79182 12.7749 8.04855 13.5349 7.13717 13.5349C6.22176 13.5262 5.48253 12.7749 5.48253 11.843ZM15.0775 16.5531V16.486C13.9033 17.3886 12.4663 17.8502 10.9963 17.7875C9.52628 17.8506 8.08966 17.3886 6.91511 16.486C6.75912 16.2927 6.78775 16.0033 6.97677 15.8438C7.14084 15.7053 7.37502 15.7053 7.54349 15.8438C8.53709 16.5869 9.74834 16.9649 10.9798 16.9059C12.2116 16.9731 13.4269 16.6121 14.4326 15.8776C14.6132 15.6971 14.9086 15.7012 15.0856 15.8858C15.2621 16.0705 15.2581 16.3726 15.0775 16.5531ZM14.8518 13.6565C14.8231 13.6565 14.7985 13.6565 14.7695 13.6565L14.782 13.5934C13.8706 13.5934 13.1274 12.8334 13.1274 11.9015C13.1274 10.9696 13.8706 10.2096 14.782 10.2096C15.6934 10.2096 16.4367 10.9696 16.4367 11.9015C16.4734 12.8338 15.7631 13.6186 14.8518 13.6565Z" fill="#8D8D8E"/></symbol><symbol viewBox="0 0 47 47" fill="none" id="svg-reviews"><path d="M25.9432 24.3545V22.8545H27.4432H31.4872C31.2731 21.5038 30.8734 19.9347 30.2703 18.1377C29.4372 15.6555 28.1784 13.1003 26.477 10.4718L25.7465 9.34319L26.7887 8.49393L32.503 3.83721L33.565 2.97176L34.5229 3.95115C37.9415 7.44639 40.6284 11.1644 42.5628 15.1081C44.5135 19.0847 45.5 23.1903 45.5 27.4104V44V45.5H44H27.4432H25.9432V44V24.3545ZM2.5 24.3545V22.8545H4H8.044C7.82992 21.5038 7.43015 19.9347 6.82704 18.1377C5.99396 15.6555 4.73516 13.1003 3.0338 10.4718L2.30331 9.34319L3.34545 8.49393L9.05974 3.83721L10.1217 2.97176L11.0797 3.95115C14.4983 7.44639 17.1852 11.1644 19.1196 15.1081C21.0702 19.0847 22.0568 23.1903 22.0568 27.4104V44V45.5H20.5568H4H2.5V44V24.3545Z" stroke="#919394" stroke-width="3"/></symbol><symbol viewBox="0 0 47 47" fill="none" id="svg-reviews-decor"><path d="M25.9432 24.3545V22.8545H27.4432H31.4872C31.2731 21.5038 30.8734 19.9347 30.2703 18.1377C29.4372 15.6555 28.1784 13.1003 26.477 10.4718L25.7465 9.34319L26.7887 8.49393L32.503 3.83721L33.565 2.97176L34.5229 3.95115C37.9415 7.44639 40.6284 11.1644 42.5628 15.1081C44.5135 19.0847 45.5 23.1903 45.5 27.4104V44V45.5H44H27.4432H25.9432V44V24.3545ZM2.5 24.3545V22.8545H4H8.044C7.82992 21.5038 7.43015 19.9347 6.82704 18.1377C5.99396 15.6555 4.73516 13.1003 3.0338 10.4718L2.30331 9.34319L3.34545 8.49393L9.05974 3.83721L10.1217 2.97176L11.0797 3.95115C14.4983 7.44639 17.1852 11.1644 19.1196 15.1081C21.0702 19.0847 22.0568 23.1903 22.0568 27.4104V44V45.5H20.5568H4H2.5V44V24.3545Z" stroke="#919394" stroke-width="3"/></symbol><symbol viewBox="0 0 21 17" fill="none" id="svg-tg-black"><path d="M7.9299 11.1564L7.50076 15.7172C7.50076 15.7172 7.32113 17.1147 8.7183 15.7172C10.1155 14.3197 11.4528 13.2421 11.4528 13.2421" fill="#010405"/><path d="M5.00621 9.79032L0.407717 8.29204C0.407717 8.29204 -0.141853 8.06907 0.0351083 7.56347C0.071537 7.4592 0.145022 7.37049 0.36485 7.21802C1.38375 6.50782 19.2239 0.0955885 19.2239 0.0955885C19.2239 0.0955885 19.7276 -0.0741502 20.0247 0.0387473C20.0982 0.0614974 20.1643 0.103362 20.2163 0.160057C20.2683 0.216752 20.3044 0.286244 20.3207 0.361424C20.3528 0.494211 20.3662 0.630825 20.3606 0.767321C20.3592 0.8854 20.3449 0.994843 20.334 1.16647C20.2254 2.9196 16.9738 16.0038 16.9738 16.0038C16.9738 16.0038 16.7793 16.7694 16.0823 16.7956C15.911 16.8012 15.7403 16.7721 15.5805 16.7103C15.4206 16.6485 15.2749 16.5551 15.1519 16.4357C13.7841 15.2592 9.05654 12.082 8.01189 11.3833C7.98832 11.3672 7.96848 11.3463 7.95369 11.3219C7.9389 11.2976 7.92951 11.2703 7.92615 11.242C7.91155 11.1683 7.99163 11.0771 7.99163 11.0771C7.99163 11.0771 16.2236 3.75997 16.4426 2.99182C16.4596 2.93231 16.3955 2.90295 16.3095 2.92902C15.7627 3.13016 6.28467 9.11561 5.2386 9.77619C5.1633 9.79897 5.08371 9.80381 5.00621 9.79032Z" fill="#010405"/></symbol><symbol viewBox="0 0 21 17" fill="none" id="svg-tg-white"><path d="M7.92982 11.1562L7.50068 15.7171C7.50068 15.7171 7.32105 17.1145 8.71821 15.7171C10.1154 14.3196 11.4527 13.2419 11.4527 13.2419" fill="#8D8D8E"/><path d="M5.00621 9.79032L0.407717 8.29204C0.407717 8.29204 -0.141853 8.06907 0.0351083 7.56347C0.071537 7.4592 0.145022 7.37049 0.36485 7.21802C1.38375 6.50782 19.2239 0.0955885 19.2239 0.0955885C19.2239 0.0955885 19.7276 -0.0741502 20.0247 0.0387473C20.0982 0.0614974 20.1643 0.103362 20.2163 0.160057C20.2683 0.216752 20.3044 0.286244 20.3207 0.361424C20.3528 0.494211 20.3662 0.630825 20.3606 0.767321C20.3592 0.8854 20.3449 0.994843 20.334 1.16647C20.2254 2.9196 16.9738 16.0038 16.9738 16.0038C16.9738 16.0038 16.7793 16.7694 16.0823 16.7956C15.911 16.8012 15.7403 16.7721 15.5805 16.7103C15.4206 16.6485 15.2749 16.5551 15.1519 16.4357C13.7841 15.2592 9.05654 12.082 8.01189 11.3833C7.98832 11.3672 7.96848 11.3463 7.95369 11.3219C7.9389 11.2976 7.92951 11.2703 7.92615 11.242C7.91155 11.1683 7.99163 11.0771 7.99163 11.0771C7.99163 11.0771 16.2236 3.75997 16.4426 2.99182C16.4596 2.93231 16.3955 2.90295 16.3095 2.92902C15.7627 3.13016 6.28467 9.11561 5.2386 9.77619C5.1633 9.79897 5.08371 9.80381 5.00621 9.79032Z" fill="#8D8D8E"/></symbol><symbol viewBox="0 0 18 15" fill="none" id="svg-twitter"><path d="M18 1.8C17.3143 2.05714 16.6286 2.31429 15.8571 2.4C16.6286 1.97143 17.2286 1.2 17.4857 0.342857C16.8 0.771429 15.9429 1.02857 15.1714 1.2C14.4857 0.514286 13.5429 0 12.5143 0C10.4571 0 8.82857 1.62857 8.82857 3.68571C8.82857 3.94286 8.82857 4.28571 8.91429 4.54286C5.82857 4.45714 3.08571 3 1.28571 0.771429C0.942857 1.28571 0.771429 1.97143 0.771429 2.65714C0.771429 3.94286 1.45714 5.05714 2.4 5.74286C1.8 5.74286 1.2 5.57143 0.685714 5.31429C0.685714 5.31429 0.685714 5.31429 0.685714 5.4C0.685714 7.2 1.97143 8.65714 3.68571 9C3.34286 9.08571 3.08571 9.17143 2.74286 9.17143C2.48571 9.17143 2.31429 9.17143 2.05714 9.08571C2.48571 10.5429 3.85714 11.5714 5.48571 11.6571C4.2 12.5143 2.57143 13.1143 0.857143 13.1143C0.6 13.1143 0.257143 13.1143 0 13.0286C1.62857 14.0571 3.6 14.6571 5.65714 14.6571C12.4286 14.6571 16.2 9.08571 16.2 4.2C16.2 4.02857 16.2 3.85714 16.2 3.68571C16.8857 3.17143 17.4857 2.57143 18 1.8Z" fill="#8D8D8E"/></symbol></svg>