<svg width="32" height="32" viewBox="0 0 32 32" fill="none" xmlns="http://www.w3.org/2000/svg">
<path d="M29 15.75C29 23.7581 22.5081 30.25 14.5 30.25C6.49187 30.25 0 23.7581 0 15.75C0 7.74187 6.49187 1.25 14.5 1.25C22.5081 1.25 29 7.74187 29 15.75Z" fill="white"/>
<path d="M3.1801 24.8123L6.89947 28.4408L1.89738 29.8476L3.1801 24.8123Z" fill="white"/>
<path d="M26.7188 4.64062C23.8359 1.6875 19.8984 0 15.6797 0C7.10156 0 0.0703125 7.03125 0.0703125 15.6094C0.0703125 18.4219 0.84375 21.0938 2.17969 23.4141L0 31.5L8.22656 29.3906C10.5469 30.5859 13.0781 31.2891 15.6797 31.2891C24.3281 31.2891 31.5 24.2578 31.5 15.6797C31.5 11.4609 29.6719 7.59375 26.7188 4.64062ZM15.6797 28.6172C13.3594 28.6172 11.1094 27.9844 9.07031 26.7891L8.64844 26.5078L3.72656 27.8438L5.0625 23.0625L4.71094 22.5703C3.44531 20.4609 2.74219 18.0703 2.74219 15.6094C2.74219 8.50781 8.57812 2.67188 15.75 2.67188C19.1953 2.67188 22.4297 4.00781 24.8906 6.46875C27.3516 8.92969 28.8281 12.1641 28.8281 15.6797C28.8281 22.7812 22.8516 28.6172 15.6797 28.6172ZM22.8516 18.9141C22.4297 18.7031 20.5312 17.7891 20.1797 17.6484C19.8281 17.5078 19.5469 17.4375 19.2656 17.8594C19.0547 18.2109 18.2812 19.125 18.0703 19.4062C17.7891 19.6172 17.5781 19.6875 17.2266 19.4766C14.9062 18.3516 13.4297 17.4375 11.8828 14.8359C11.4609 14.1328 12.3047 14.2031 13.0078 12.7266C13.1484 12.4453 13.0781 12.2344 13.0078 12.0234C12.9375 11.8125 12.0938 9.91406 11.8125 9.14062C11.4609 8.36719 11.1797 8.4375 10.8984 8.4375C10.6875 8.4375 10.4062 8.4375 10.1953 8.4375C9.91406 8.4375 9.49219 8.50781 9.14062 8.92969C8.78906 9.35156 7.80469 10.2656 7.80469 12.1641C7.80469 14.1328 9.14062 15.9609 9.35156 16.2422C9.5625 16.4531 12.0938 20.3906 16.0312 22.0781C18.4922 23.2031 19.4766 23.2734 20.7422 23.0625C21.4453 22.9922 22.9922 22.1484 23.3438 21.2344C23.6953 20.3203 23.6953 19.5469 23.5547 19.4062C23.4844 19.1953 23.2031 19.125 22.8516 18.9141Z" fill="#232323"/>
</svg>
