<svg width="12" height="12" viewBox="0 0 12 12" fill="none" xmlns="http://www.w3.org/2000/svg">
<g clip-path="url(#clip0_1117_9975)">
<path fill-rule="evenodd" clip-rule="evenodd" d="M3.5 1.5C2.39543 1.5 1.5 2.39543 1.5 3.5V8.5C1.5 9.60457 2.39543 10.5 3.5 10.5H8.5C9.60457 10.5 10.5 9.60457 10.5 8.5V3.5C10.5 2.39543 9.60457 1.5 8.5 1.5H3.5ZM0.5 3.5C0.5 1.84315 1.84315 0.5 3.5 0.5H8.5C10.1569 0.5 11.5 1.84315 11.5 3.5V8.5C11.5 10.1569 10.1569 11.5 8.5 11.5H3.5C1.84315 11.5 0.5 10.1569 0.5 8.5V3.5Z" fill="#6F1A07"/>
<path fill-rule="evenodd" clip-rule="evenodd" d="M6.24151 4.49462C5.92942 4.44834 5.61068 4.50165 5.33063 4.64696C5.05058 4.79227 4.82348 5.02219 4.68163 5.30401C4.53979 5.58583 4.49041 5.9052 4.54054 6.2167C4.59066 6.5282 4.73773 6.81596 4.96083 7.03906C5.18392 7.26215 5.47168 7.40922 5.78318 7.45935C6.09468 7.50947 6.41405 7.4601 6.69587 7.31825C6.97769 7.1764 7.20761 6.9493 7.35292 6.66925C7.49823 6.3892 7.55154 6.07046 7.50526 5.75837C7.45806 5.44002 7.30971 5.1453 7.08215 4.91774C6.85458 4.69017 6.55986 4.54183 6.24151 4.49462ZM4.87006 3.75934C5.33681 3.51715 5.86804 3.42831 6.3882 3.50544C6.91877 3.58412 7.40998 3.83135 7.78925 4.21063C8.16853 4.58991 8.41577 5.08111 8.49445 5.61169C8.57158 6.13184 8.48273 6.66307 8.24054 7.12982C7.99836 7.59657 7.61516 7.97507 7.14546 8.21148C6.67576 8.4479 6.14348 8.53019 5.62431 8.44664C5.10515 8.3631 4.62555 8.11799 4.25372 7.74616C3.88189 7.37434 3.63678 6.89473 3.55324 6.37557C3.4697 5.85641 3.55199 5.32412 3.7884 4.85442C4.02481 4.38472 4.40331 4.00153 4.87006 3.75934Z" fill="#6F1A07"/>
<path fill-rule="evenodd" clip-rule="evenodd" d="M8.25 3.25C8.25 2.97386 8.47386 2.75 8.75 2.75H8.755C9.03114 2.75 9.255 2.97386 9.255 3.25C9.255 3.52614 9.03114 3.75 8.755 3.75H8.75C8.47386 3.75 8.25 3.52614 8.25 3.25Z" fill="#6F1A07"/>
</g>
<defs>
<clipPath id="clip0_1117_9975">
<rect width="12" height="12" fill="white"/>
</clipPath>
</defs>
</svg>
