<svg width="115" height="100" viewBox="0 0 115 100" fill="none" xmlns="http://www.w3.org/2000/svg">
<path d="M26.2784 45.3125C34.8011 48.8163 41.0985 53.0777 45.1705 58.0966C49.2424 63.0208 51.2784 68.8447 51.2784 75.5682C51.2784 82.3864 48.9583 88.1629 44.3182 92.8977C39.678 97.6326 34.0436 100 27.4148 100C19.0814 100 12.4053 97.0644 7.38636 91.1932C2.46212 85.322 0 77.4148 0 67.4716C0 53.3617 4.40341 40.5777 13.2102 29.1193C22.1117 17.5663 35.0852 7.85985 52.1307 0V13.0682C44.9337 17.7083 39.1572 22.7746 34.8011 28.267C30.4451 33.6648 27.6042 39.3466 26.2784 45.3125Z" fill="#192D22" fill-opacity="0.1"/>
<path d="M89.1511 45.3125C97.6738 48.8163 103.971 53.0777 108.043 58.0966C112.115 63.0208 114.151 68.8447 114.151 75.5682C114.151 82.3864 111.831 88.1629 107.191 92.8977C102.551 97.6326 96.9162 100 90.2875 100C81.9541 100 75.278 97.0644 70.259 91.1932C65.3348 85.322 62.8727 77.4148 62.8727 67.4716C62.8727 53.3617 67.2761 40.5777 76.0829 29.1193C84.9844 17.5663 97.9579 7.85985 115.003 0V13.0682C107.806 17.7083 102.03 22.7746 97.6738 28.267C93.3178 33.6648 90.4768 39.3466 89.1511 45.3125Z" fill="#192D22" fill-opacity="0.1"/>
</svg>
