<svg width="1368" height="654" viewBox="0 0 1368 654" fill="none" xmlns="http://www.w3.org/2000/svg">
<path fill-rule="evenodd" clip-rule="evenodd" d="M789 1.00004C789 0.447758 789.448 4.30994e-05 790 4.30994e-05L1282 0C1282.18 -1.59234e-08 1282.35 0.0487101 1282.5 0.133816C1282.65 0.0487368 1282.82 4.30994e-05 1283 4.30994e-05H1337.4C1345.98 4.30994e-05 1353.66 5.18254 1359.14 13.33C1364.63 21.4841 1368 32.7 1368 45.0625V285.938C1368 298.3 1364.63 309.516 1359.14 317.67C1353.66 325.818 1345.98 331 1337.4 331H1283C1282.82 331 1282.65 330.951 1282.5 330.866C1282.35 330.951 1282.18 331 1282 331L790 331C789.448 331 789 330.552 789 330C789 329.448 789.448 329 790 329L1282 329C1282.18 329 1282.35 329.049 1282.5 329.134C1282.65 329.049 1282.82 329 1283 329H1337.4C1345.12 329 1352.24 324.342 1357.48 316.553C1362.72 308.772 1366 297.956 1366 285.938V45.0625C1366 33.0438 1362.72 22.2285 1357.48 14.4467C1352.24 6.65817 1345.12 2.00004 1337.4 2.00004H1283C1282.82 2.00004 1282.65 1.95133 1282.5 1.86623C1282.35 1.95131 1282.18 2 1282 2L790 2.00004C789.448 2.00004 789 1.55233 789 1.00004ZM179 4.30994e-05C178.448 4.30994e-05 178 0.447758 178 1.00004C178 1.55233 178.448 2.00004 179 2.00004L660 2.00009C660.552 2.00009 661 1.55237 661 1.00009C661 0.447801 660.552 8.52855e-05 660 8.52372e-05L179 4.30994e-05ZM790 651C789.448 651 789 651.448 789 652C789 652.552 789.448 653 790 653L1367 653C1367.55 653 1368 652.552 1368 652C1368 651.448 1367.55 651 1367 651L790 651ZM178 652C178 651.448 178.448 651 179 651L660 651C660.552 651 661 651.448 661 652C661 652.552 660.552 653 660 653L179 653C178.448 653 178 652.552 178 652ZM179 329C178.448 329 178 329.448 178 330C178 330.552 178.448 331 179 331L660 331C660.552 331 661 330.552 661 330C661 329.448 660.552 329 660 329L179 329ZM2 374.125C2 362.37 5.27752 351.792 10.5115 344.181C15.7488 336.564 22.8745 332 30.6 332H85C85.5523 332 86 331.552 86 331C86 330.448 85.5523 330 85 330H30.6C22.0255 330 14.3512 335.067 8.86351 343.047C3.37248 351.033 0 362.017 0 374.125V609.875C0 621.983 3.37248 632.967 8.86351 640.953C14.3512 648.933 22.0255 654 30.6 654H85C85.5523 654 86 653.552 86 653C86 652.448 85.5523 652 85 652H30.6C22.8745 652 15.7488 647.436 10.5115 639.819C5.27752 632.208 2 621.63 2 609.875V374.125Z" fill="#A7A2BD"/>
<path fill-rule="evenodd" clip-rule="evenodd" d="M789 1.00004C789 0.447758 789.448 4.30994e-05 790 4.30994e-05L1282 0C1282.18 -1.59234e-08 1282.35 0.0487101 1282.5 0.133816C1282.65 0.0487368 1282.82 4.30994e-05 1283 4.30994e-05H1337.4C1345.98 4.30994e-05 1353.66 5.18254 1359.14 13.33C1364.63 21.4841 1368 32.7 1368 45.0625V285.938C1368 298.3 1364.63 309.516 1359.14 317.67C1353.66 325.818 1345.98 331 1337.4 331H1283C1282.82 331 1282.65 330.951 1282.5 330.866C1282.35 330.951 1282.18 331 1282 331L790 331C789.448 331 789 330.552 789 330C789 329.448 789.448 329 790 329L1282 329C1282.18 329 1282.35 329.049 1282.5 329.134C1282.65 329.049 1282.82 329 1283 329H1337.4C1345.12 329 1352.24 324.342 1357.48 316.553C1362.72 308.772 1366 297.956 1366 285.938V45.0625C1366 33.0438 1362.72 22.2285 1357.48 14.4467C1352.24 6.65817 1345.12 2.00004 1337.4 2.00004H1283C1282.82 2.00004 1282.65 1.95133 1282.5 1.86623C1282.35 1.95131 1282.18 2 1282 2L790 2.00004C789.448 2.00004 789 1.55233 789 1.00004ZM179 4.30994e-05C178.448 4.30994e-05 178 0.447758 178 1.00004C178 1.55233 178.448 2.00004 179 2.00004L660 2.00009C660.552 2.00009 661 1.55237 661 1.00009C661 0.447801 660.552 8.52855e-05 660 8.52372e-05L179 4.30994e-05ZM790 651C789.448 651 789 651.448 789 652C789 652.552 789.448 653 790 653L1367 653C1367.55 653 1368 652.552 1368 652C1368 651.448 1367.55 651 1367 651L790 651ZM178 652C178 651.448 178.448 651 179 651L660 651C660.552 651 661 651.448 661 652C661 652.552 660.552 653 660 653L179 653C178.448 653 178 652.552 178 652ZM179 329C178.448 329 178 329.448 178 330C178 330.552 178.448 331 179 331L660 331C660.552 331 661 330.552 661 330C661 329.448 660.552 329 660 329L179 329ZM2 374.125C2 362.37 5.27752 351.792 10.5115 344.181C15.7488 336.564 22.8745 332 30.6 332H85C85.5523 332 86 331.552 86 331C86 330.448 85.5523 330 85 330H30.6C22.0255 330 14.3512 335.067 8.86351 343.047C3.37248 351.033 0 362.017 0 374.125V609.875C0 621.983 3.37248 632.967 8.86351 640.953C14.3512 648.933 22.0255 654 30.6 654H85C85.5523 654 86 653.552 86 653C86 652.448 85.5523 652 85 652H30.6C22.8745 652 15.7488 647.436 10.5115 639.819C5.27752 632.208 2 621.63 2 609.875V374.125Z" fill="url(#paint0_linear_107_147)"/>
<defs>
<linearGradient id="paint0_linear_107_147" x1="1643.11" y1="48.0886" x2="-28.9461" y2="142.759" gradientUnits="userSpaceOnUse">
<stop stop-color="#F291FF"/>
<stop offset="0.807292" stop-color="#A9B6FF"/>
</linearGradient>
</defs>
</svg>
