<svg width="25" height="24" fill="none" xmlns="http://www.w3.org/2000/svg"><path d="M25 1.938v4.999c0 .838-.991 1.25-1.565.663l-1.364-1.395-9.3 9.512a.902.902 0 01-1.297 0l-.864-.883a.953.953 0 010-1.326l9.3-9.513L18.548 2.6c-.576-.588-.168-1.6.648-1.6h4.888c.507 0 .917.42.917.938zm-6.454 9.64l-.61.625a.94.94 0 00-.27.663V18.5H5.445V6h10.084a.906.906 0 00.648-.275l.611-.625c.578-.59.169-1.6-.648-1.6H4.833C3.821 3.5 3 4.34 3 5.375v13.75C3 20.16 3.82 21 4.833 21h13.445c1.012 0 1.833-.84 1.833-1.875v-6.884c0-.835-.987-1.254-1.565-.663z" fill="#fff"/></svg>