<svg xmlns="http://www.w3.org/2000/svg" viewBox="0 0 445 125"><linearGradient id="a" gradientUnits="userSpaceOnUse" x1="60.348" y1="1.522" x2="60.348" y2="122.066" gradientTransform="matrix(1 0 0 -1 0 124.693)"><stop offset=".1" stop-color="#cb3266"/><stop offset=".181" stop-color="#b83267"/><stop offset=".529" stop-color="#6b306a"/><stop offset=".777" stop-color="#3b2f6c"/><stop offset=".9" stop-color="#292f6d"/></linearGradient><path d="M60.3 2.4c-.8 0-1.5.3-2.2.7-.7.4-1.3.9-1.8 1.5-.6.5-1.1 1.1-1.6 1.7l-1.5 1.8c-.5.6-.9 1.2-1.4 1.9-.5.6-.9 1.2-1.4 1.9-.5.6-.9 1.2-1.4 1.9-.5.6-.9 1.2-1.4 1.9-.5.6-.9 1.2-1.4 1.9-.5.6-.9 1.2-1.4 1.9-.5.6-.9 1.2-1.4 1.9-.5.6-.9 1.2-1.4 1.9-.5.6-.9 1.3-1.3 1.9-.4.6-.8 1.3-1.2 2-.4.7-.7 1.4-.8 2.2 0 .8.2 1.6.8 2.1.5.5 1.4.7 2.1.9.8.2 1.5.3 2.3.4.8.1 1.5.1 2.3.2.8 0 1.6 0 2.3.1h23c.8 0 1.6 0 2.3-.1.8 0 1.6-.1 2.3-.2.8-.1 1.5-.2 2.3-.4.8-.2 1.6-.4 2.1-.9s.8-1.3.8-2.1-.4-1.5-.8-2.2c-.4-.7-.8-1.4-1.2-2-.4-.6-.9-1.3-1.3-1.9-.5-.6-.9-1.3-1.4-1.9-.5-.6-.9-1.2-1.4-1.9-.5-.6-.9-1.2-1.4-1.9-.5-.6-.9-1.2-1.4-1.9-.5-.6-.9-1.2-1.4-1.9-.5-.6-.9-1.2-1.4-1.9-.5-.6-.9-1.2-1.4-1.9-.5-.6-.9-1.2-1.4-1.9l-1.5-1.8c-.5-.6-1-1.2-1.6-1.7-.6-.5-1.1-1.1-1.8-1.5 0-.4-.8-.7-1.6-.7z" fill="url(#a)"/><linearGradient id="b" gradientUnits="userSpaceOnUse" x1="28.945" y1="1.518" x2="28.945" y2="122.068" gradientTransform="matrix(1 0 0 -1 0 124.693)"><stop offset=".1" stop-color="#cb3266"/><stop offset=".181" stop-color="#b83267"/><stop offset=".529" stop-color="#6b306a"/><stop offset=".777" stop-color="#3b2f6c"/><stop offset=".9" stop-color="#292f6d"/></linearGradient><path d="M46.5 7.6c-.3-.2-1.1.3-1.7.7-.6.4-1.1.6-1.6.9-.5.3-1 .6-1.6 1-.5.3-1 .7-1.5 1-.5.3-1 .7-1.5 1-.5.3-1 .7-1.5 1-.5.3-1 .7-1.5 1-.5.3-1 .7-1.5 1-.5.3-1 .7-1.5 1-.5.3-1 .7-1.5 1-.5.3-1 .7-1.5 1-.5.3-1 .7-1.5 1-.5.3-1 .7-1.5 1-.5.3-1 .7-1.5 1-.5.3-1 .7-1.5 1-.5.3-1 .7-1.5 1-.5.3-1 .7-1.5 1-.5.3-1 .7-1.5 1-.5.3-1 .7-1.5 1-.5.3-1 .7-1.5 1.1-.5.4-1 .7-1.5 1.1-.5.4-.9.8-1.4 1.1-.5.4-1 .8-1.3 1.3-.3.5-.3 1.2 0 1.5.4.3 1.1.3 1.8.3h9c.6 0 1.2 0 1.8-.1.6-.1 1.2-.1 1.8-.3.6-.1 1.2-.4 1.7-.6.5-.3 1.1-.6 1.6-1s.9-.8 1.4-1.2l1.3-1.3c.4-.5.8-.9 1.2-1.4.4-.5.8-1 1.1-1.4.4-.5.7-1 1.1-1.5.4-.5.7-1 1.1-1.5.4-.5.7-1 1.1-1.5.4-.5.7-1 1.1-1.5.4-.5.7-1 1.1-1.5.4-.5.7-1 1.1-1.5.4-.5.7-1 1.1-1.5.4-.5.7-1 1.1-1.5.4-.5.7-1 1.1-1.5.4-.5.7-1 1.1-1.5.4-.5.7-.9 1-1.5 0-.3.2-1.1-.1-1.2z" fill="url(#b)"/><linearGradient id="c" gradientUnits="userSpaceOnUse" x1="12.854" y1="1.527" x2="12.854" y2="122.063" gradientTransform="matrix(1 0 0 -1 0 124.693)"><stop offset=".1" stop-color="#cb3266"/><stop offset=".181" stop-color="#b83267"/><stop offset=".529" stop-color="#6b306a"/><stop offset=".777" stop-color="#3b2f6c"/><stop offset=".9" stop-color="#292f6d"/></linearGradient><path d="M3.6 75.2c.5.1 1.1-.6 1.5-1.2.5-.5.9-1 1.2-1.5.3-.5.7-1.1 1-1.7.3-.6.7-1.1 1-1.7.3-.6.6-1.1 1-1.7.3-.6.6-1.1 1-1.7.3-.6.6-1.1 1-1.7.3-.6.6-1.1 1-1.7.3-.6.6-1.1 1-1.7.3-.6.6-1.1 1-1.7.3-.6.6-1.1 1-1.7.3-.6.6-1.1 1-1.7.3-.6.6-1.1 1-1.7.3-.6.6-1.1 1-1.7.3-.6.6-1.1 1-1.7.3-.6.6-1.2 1-1.7.3-.6.6-1.2.9-1.7l.9-1.8c.3-.6.6-1.2.8-1.8.2-.6.5-1.2.6-1.9.2-.7.3-1.3.2-1.9-.2-.6-.7-1.1-1.3-1.4-.6-.3-1.3-.3-1.9-.4h-12c-.7 0-1.3.1-1.9.3-.6.2-1.3.4-1.8.9-.5.4-.9 1-1.2 1.6-.3.6-.5 1.2-.6 1.9-.1.6-.2 1.3-.3 1.9s-.1 1.3-.1 2-.1 1.3-.1 2v22c0 .7.1 1.3.1 2s.1 1.3.2 2c0 0 .4.7.8.8z" fill="url(#c)"/><linearGradient id="d" gradientUnits="userSpaceOnUse" x1="29.901" y1="1.521" x2="29.901" y2="122.066" gradientTransform="matrix(1 0 0 -1 0 124.693)"><stop offset=".1" stop-color="#cb3266"/><stop offset=".181" stop-color="#b83267"/><stop offset=".529" stop-color="#6b306a"/><stop offset=".777" stop-color="#3b2f6c"/><stop offset=".9" stop-color="#292f6d"/></linearGradient><path d="M29.9 46.4c-.9-.2-1.9.3-2.7.9-.8.6-1.4 1.4-2 2.2s-1.1 1.6-1.6 2.5c-.5.8-1 1.7-1.5 2.5-.5.9-1 1.7-1.4 2.6-.5.9-1 1.7-1.4 2.6-.5.9-1 1.7-1.4 2.6-.5.9-1 1.7-1.4 2.6-.5.9-1 1.7-1.4 2.6-.5.9-1 1.7-1.4 2.6-.5.9-1 1.7-1.4 2.6-.5.9-1 1.7-1.4 2.6-.5.9-.9 1.8-1.3 2.6-.4.9-.8 1.8-1.1 2.7-.3.9-.5 1.9-.6 2.9 0 1 .2 2 .8 2.8.5.8 1.3 1.4 2.2 1.9.9.5 1.8.9 2.7 1.2.9.3 1.9.6 2.8.9 1 .3 1.9.5 2.9.7 1 .2 1.9.4 2.9.7 1 .2 1.9.4 2.9.6 1 .2 1.9.4 2.9.6 1 .2 1.9.4 2.9.6 1 .2 1.9.4 2.9.6 1 .2 1.9.4 2.9.6 1 .2 1.9.4 2.9.6 1 .2 1.9.4 2.9.6 1 .2 1.9.4 2.9.5s1.9.2 2.9.3c1 0 2.1 0 2.9-.5.8-.5 1.3-1.4 1.4-2.4.1-1-.1-2-.3-2.9-.3-1-.5-1.9-.9-2.8-.3-.9-.7-1.8-1.1-2.8l-1.2-2.7-1.2-2.7-1.2-2.7-1.2-2.7-1.2-2.7-1.2-2.7-1.2-2.7-1.2-2.7-1.2-2.7-1.2-2.7-1.2-2.7c-.4-.9-.8-1.8-1.3-2.7-.5-.9-.9-1.8-1.4-2.6-.5-.8-1-1.6-1.7-2.4-1.1-.6-1.9-1.4-2.8-1.5z" fill="url(#d)"/><linearGradient id="e" gradientUnits="userSpaceOnUse" x1="60.346" y1="1.525" x2="60.346" y2="122.065" gradientTransform="matrix(1 0 0 -1 0 124.693)"><stop offset=".1" stop-color="#cb3266"/><stop offset=".181" stop-color="#b83267"/><stop offset=".529" stop-color="#6b306a"/><stop offset=".777" stop-color="#3b2f6c"/><stop offset=".9" stop-color="#292f6d"/></linearGradient><path d="M60.3 90.2c.9 0 1.9-.8 2.6-1.6.7-.8 1.3-1.7 1.8-2.6.5-.9 1-1.8 1.5-2.8.5-.9.9-1.9 1.4-2.8.4-1 .9-1.9 1.3-2.9s.9-1.9 1.3-2.9.9-1.9 1.3-2.9.9-1.9 1.3-2.9.9-1.9 1.3-2.9.9-1.9 1.3-2.9.9-1.9 1.3-2.9.9-1.9 1.3-2.9.9-1.9 1.3-2.9.8-1.9 1.2-2.9c.4-1 .8-1.9 1.1-2.9.3-1 .7-2 .9-3 .3-1 .4-2.1.4-3.1-.1-1.1-.4-2.1-1-2.9-.7-.8-1.7-1.2-2.7-1.5-1-.3-2-.5-3.1-.6-1-.1-2.1-.2-3.1-.2H48.2c-1 0-2.1.1-3.1.2s-2.1.3-3.1.6-2 .8-2.7 1.5c-.7.8-1 1.8-1 2.9-.1 1.1.1 2.1.4 3.1l.9 3c.3 1 .7 2 1.1 2.9.4 1 .8 1.9 1.2 2.9.4 1 .9 1.9 1.3 2.9s.9 1.9 1.3 2.9.9 1.9 1.3 2.9.9 1.9 1.3 2.9.9 1.9 1.3 2.9.9 1.9 1.3 2.9.9 1.9 1.3 2.9.9 1.9 1.3 2.9.9 1.9 1.3 2.9.9 1.9 1.4 2.8c.5.9 1 1.9 1.5 2.8.5.9 1.1 1.8 1.8 2.6.2.9 1.1 1.6 2 1.6z" fill="url(#e)"/><linearGradient id="f" gradientUnits="userSpaceOnUse" x1="37.491" y1="1.527" x2="37.491" y2="122.049" gradientTransform="matrix(1 0 0 -1 0 124.693)"><stop offset=".1" stop-color="#cb3266"/><stop offset=".181" stop-color="#b83267"/><stop offset=".529" stop-color="#6b306a"/><stop offset=".777" stop-color="#3b2f6c"/><stop offset=".9" stop-color="#292f6d"/></linearGradient><path d="M17.1 96.7c-.1.4.7 1.1 1.3 1.6.6.5 1.1.9 1.7 1.3.5.4 1.1.8 1.7 1.2.6.4 1.2.8 1.7 1.2l1.8 1.2 1.8 1.2 1.8 1.2 1.8 1.2 1.8 1.2 1.8 1.2 1.8 1.2 1.8 1.2 1.8 1.2 1.8 1.2 1.8 1.2 1.8 1.2 1.8 1.2 1.8 1.2c.6.4 1.2.8 1.8 1.1.6.4 1.2.7 1.8 1.1.6.3 1.2.7 1.9 1 .6.3 1.3.6 2 .7.7.1 1.5-.2 1.9-.7.4-.5.4-1.3.5-2v-8.4c0-.7 0-1.4-.1-2.1-.1-.7-.3-1.4-.6-2-.3-.6-.8-1.1-1.4-1.6-.6-.4-1.2-.8-1.8-1.1-.6-.3-1.3-.6-2-.8-.7-.2-1.3-.4-2-.6-.7-.2-1.4-.4-2-.6-.7-.2-1.4-.3-2.1-.5-.7-.2-1.4-.3-2.1-.5-.7-.2-1.4-.3-2.1-.5-.7-.2-1.4-.3-2.1-.5-.7-.2-1.4-.3-2.1-.5s-1.4-.3-2.1-.5c-.7-.2-1.4-.3-2.1-.5-.7-.2-1.4-.3-2.1-.5-.7-.2-1.4-.3-2.1-.5-.7-.2-1.4-.3-2.1-.5-.7-.2-1.4-.3-2.1-.5-.7-.2-1.4-.3-2.1-.4-.7-.1-1.4-.3-2.1-.4-.7-.1-1.3-.3-2.1-.3-1.1 0-2.1.1-2.2.5z" fill="url(#f)"/><linearGradient id="g" gradientUnits="userSpaceOnUse" x1="83.209" y1="1.527" x2="83.209" y2="122.049" gradientTransform="matrix(1 0 0 -1 0 124.693)"><stop offset=".1" stop-color="#cb3266"/><stop offset=".181" stop-color="#b83267"/><stop offset=".529" stop-color="#6b306a"/><stop offset=".777" stop-color="#3b2f6c"/><stop offset=".9" stop-color="#292f6d"/></linearGradient><path d="M103.6 96.7c.1.4-.7 1.1-1.3 1.6-.6.5-1.1.9-1.7 1.3-.5.4-1.1.8-1.7 1.2-.6.4-1.2.8-1.7 1.2l-1.8 1.2-1.8 1.2-1.8 1.2-1.8 1.2-1.8 1.2-1.8 1.2-1.8 1.2-1.8 1.2-1.8 1.2-1.8 1.2-1.8 1.2-1.8 1.2-1.8 1.2-1.8 1.2c-.6.4-1.2.8-1.8 1.1-.6.4-1.2.7-1.8 1.1-.6.3-1.2.7-1.9 1-.6.3-1.3.6-2 .7-.7.1-1.5-.2-1.9-.7-.4-.5-.4-1.3-.5-2v-8.4c0-.7 0-1.4.1-2.1.1-.7.3-1.4.6-2 .3-.6.8-1.1 1.4-1.6.6-.4 1.2-.8 1.8-1.1.6-.3 1.3-.6 2-.8.7-.2 1.3-.4 2-.6s1.4-.4 2-.6c.7-.2 1.4-.3 2.1-.5.7-.2 1.4-.3 2.1-.5.7-.2 1.4-.3 2.1-.5.7-.2 1.4-.3 2.1-.5.7-.2 1.4-.3 2.1-.5.7-.2 1.4-.3 2.1-.5.7-.2 1.4-.3 2.1-.5.7-.2 1.4-.3 2.1-.5.7-.2 1.4-.3 2.1-.5s1.4-.3 2.1-.5c.7-.2 1.4-.3 2.1-.5.7-.2 1.4-.3 2.1-.4.7-.1 1.4-.3 2.1-.4.7-.1 1.3-.3 2.1-.3 1.1 0 2.1.1 2.2.5z" fill="url(#g)"/><linearGradient id="h" gradientUnits="userSpaceOnUse" x1="90.799" y1="1.521" x2="90.799" y2="122.066" gradientTransform="matrix(1 0 0 -1 0 124.693)"><stop offset=".1" stop-color="#cb3266"/><stop offset=".181" stop-color="#b83267"/><stop offset=".529" stop-color="#6b306a"/><stop offset=".777" stop-color="#3b2f6c"/><stop offset=".9" stop-color="#292f6d"/></linearGradient><path d="M90.8 46.4c.9-.2 1.9.3 2.7.9.8.6 1.4 1.4 2 2.2.6.8 1.1 1.6 1.6 2.5.5.8 1 1.7 1.5 2.5.5.9 1 1.7 1.4 2.6.5.9 1 1.7 1.4 2.6.5.9 1 1.7 1.4 2.6.5.9 1 1.7 1.4 2.6.5.9 1 1.7 1.4 2.6.5.9 1 1.7 1.4 2.6.5.9 1 1.7 1.4 2.6.5.9 1 1.7 1.4 2.6.5.9.9 1.8 1.3 2.6.4.9.8 1.8 1.1 2.7.3.9.6 1.9.6 2.9s-.2 2-.8 2.8c-.5.8-1.3 1.4-2.2 1.9-.9.5-1.8.9-2.7 1.2-.9.3-1.9.6-2.8.9-1 .3-1.9.5-2.9.7-1 .2-1.9.4-2.9.7s-1.5.4-2.5.6c-1 .2-1.9.4-2.9.6-1 .2-1.9.4-2.9.6-1 .2-1.9.4-2.9.6-1 .2-1.9.4-2.9.6-1 .2-1.9.4-2.9.6-1 .2-1.9.4-2.9.6s-1.9.4-2.9.5c-1 .1-1.9.2-2.9.3-1 0-2.1 0-2.9-.5-.8-.5-1.3-1.4-1.4-2.4-.1-1 .1-2 .3-2.9.3-1 .5-1.9.9-2.8.3-.9.7-1.8 1.1-2.8l1.2-2.7 1.2-2.7 1.2-2.7 1.2-2.7 1.2-2.7 1.2-2.7 1.2-2.7 1.2-2.7 1.2-2.7 1.2-2.7 1.2-2.7c.4-.9.8-1.8 1.3-2.7.4-.9.9-1.8 1.4-2.6.5-.8 1-1.6 1.7-2.4.7-.6 1.5-1.4 2.4-1.5z" fill="url(#h)"/><linearGradient id="i" gradientUnits="userSpaceOnUse" x1="107.848" y1="1.527" x2="107.848" y2="122.063" gradientTransform="matrix(1 0 0 -1 0 124.693)"><stop offset=".1" stop-color="#cb3266"/><stop offset=".181" stop-color="#b83267"/><stop offset=".529" stop-color="#6b306a"/><stop offset=".777" stop-color="#3b2f6c"/><stop offset=".9" stop-color="#292f6d"/></linearGradient><path d="M117.1 75.2c-.5.1-1.1-.6-1.5-1.2-.5-.6-.8-1.1-1.2-1.6-.3-.5-.7-1.1-1-1.7-.3-.6-.7-1.1-1-1.7-.3-.6-.6-1.1-1-1.7-.3-.6-.6-1.1-1-1.7-.3-.6-.6-1.1-1-1.7-.3-.6-.6-1.1-1-1.7-.3-.6-.6-1.1-1-1.7-.3-.6-.6-1.1-1-1.7-.3-.6-.6-1.1-1-1.7-.3-.6-.6-1.1-1-1.7-.3-.6-.6-1.1-1-1.7-.3-.6-.6-1.1-1-1.7-.3-.6-.6-1.1-1-1.7-.3-.6-.6-1.2-1-1.7-.3-.6-.6-1.2-.9-1.7l-.9-1.8c-.3-.6-.6-1.2-.8-1.8-.2-.6-.5-1.2-.6-1.9-.2-.7-.3-1.3-.2-1.9.2-.6.7-1.1 1.3-1.4.6-.3 1.3-.3 1.9-.4h12c.7 0 1.3.1 1.9.3.6.2 1.3.4 1.8.9.5.4.9 1 1.2 1.6.3.6.5 1.2.6 1.9.1.6.2 1.3.3 1.9.1.7.1 1.3.1 2s.1 1.3.1 2v22c0 .7-.1 1.3-.1 2 0 .6-.1 1.3-.2 2 0 .1-.4.8-.8.9z" fill="url(#i)"/><linearGradient id="j" gradientUnits="userSpaceOnUse" x1="91.756" y1="1.518" x2="91.756" y2="122.068" gradientTransform="matrix(1 0 0 -1 0 124.693)"><stop offset=".1" stop-color="#cb3266"/><stop offset=".181" stop-color="#b83267"/><stop offset=".529" stop-color="#6b306a"/><stop offset=".777" stop-color="#3b2f6c"/><stop offset=".9" stop-color="#292f6d"/></linearGradient><path d="M74.2 7.6c.3-.2 1.1.3 1.7.7.6.4 1.1.6 1.6.9.5.3 1 .6 1.6 1 .5.3 1 .7 1.5 1 .5.3 1 .7 1.5 1 .5.3 1 .7 1.5 1 .5.3 1 .7 1.5 1 .5.3 1 .7 1.5 1 .5.3 1 .7 1.5 1 .5.3 1 .7 1.5 1 .5.3 1 .7 1.5 1 .5.3 1 .7 1.5 1 .5.3 1 .7 1.5 1 .5.3 1 .7 1.5 1 .5.3 1 .7 1.5 1 .5.3 1 .7 1.5 1 .5.3 1 .7 1.5 1 .5.3 1 .7 1.5 1 .5.3 1 .7 1.5 1 .5.3 1 .7 1.5 1.1.5.4 1 .7 1.5 1.1.5.4.9.8 1.4 1.1.5.4 1 .8 1.3 1.3.3.5.3 1.2 0 1.5-.4.3-1.1.3-1.8.3h-9c-.6 0-1.2 0-1.8-.1-.6-.1-1.2-.1-1.8-.3-.6-.1-1.2-.4-1.7-.6-.5-.3-1.1-.6-1.6-1s-.9-.8-1.4-1.2l-1.3-1.3c-.4-.5-.8-.9-1.2-1.4-.4-.5-.8-1-1.1-1.4-.4-.5-.7-1-1.1-1.5-.4-.5-.7-1-1.1-1.5-.4-.5-.7-1-1.1-1.5-.4-.5-.7-1-1.1-1.5-.4-.5-.7-1-1.1-1.5-.4-.5-.7-1-1.1-1.5-.4-.5-.7-1-1.1-1.5-.4-.5-.7-1-1.1-1.5-.4-.5-.7-1-1.1-1.5-.4-.5-.7-1-1.1-1.5-.4-.5-.7-.9-1-1.5 0-.3-.2-1.1.1-1.2z" fill="url(#j)"/><path d="M195.7 89.5c-1.9-1.1-3.3-2.7-4.1-4.9-.8-2.2-1.2-5.2-1.2-9V47.8l-18 40H171l-18.7-40.7v40.7h-2.9V40.3h6.8l17.3 37.5 16.9-37.5h6.5v35.3c0 4.5.6 7.9 1.7 10.4 1.1 2.4 2.8 3.7 5.1 3.7V91c-3.3 0-6-.5-8-1.5zm31.7-2.4c-.9-.5-1.5-1.3-1.9-2.5s-.6-3-.6-5.5V40.3h6.5v38.9c0 2.4.3 4.3 1 5.4.7 1.2 2 1.8 4 1.8h1.4v1.4h-6.5c-1.7 0-3-.2-3.9-.7zm33.7-38.2c0-2.5-.3-4.3-1-5.4-.7-1.2-2-1.8-4-1.8h-1.4v-1.4h6.5c1.8 0 3.1.2 4 .7.9.5 1.5 1.3 1.9 2.5.4 1.2.6 3 .6 5.5v36h25.6v2.9h-32l-.2-39zm54.8 38.2c-.9-.5-1.5-1.3-1.9-2.5-.4-1.2-.6-3-.6-5.5V40.3h6.5v38.9c0 2.4.3 4.3 1 5.4.7 1.2 2 1.8 4 1.8h1.4v1.4h-6.5c-1.7 0-3-.2-3.9-.7zm33.7-38.2c0-2.5-.3-4.3-1-5.4-.7-1.2-2-1.8-4-1.8h-1.4v-1.4h30.7c4.1 0 6.1 1.9 6.1 5.8v5.4h-1.4c0-5.5-3-8.3-9-8.3H356v18.7h19.4v2.9H356V85h12.6c3.3 0 5.9-.6 7.8-1.8 1.9-1.2 3.4-3.2 4.5-6.1l1.4.4-2.5 6.8c-.9 2.4-2.7 3.6-5.4 3.6h-24.8v-39zm63.8 37.3c-2.7-1.6-4.6-3.9-5.7-6.9-1.1-3.1-1.7-7.1-1.7-12V48.9c0-2.5-.3-4.3-1-5.4-.7-1.2-2-1.8-4-1.8h-1.4v-1.4h6.5c1.8 0 3.1.2 4 .7.9.5 1.5 1.3 1.9 2.5.4 1.2.6 3 .6 5.5v20.5c0 5.3 1 9.4 3 12.1 2 2.7 5.2 4.1 9.8 4.1 3.6 0 6.5-.6 8.7-1.9 2.1-1.3 3.7-3.3 4.6-5.9.9-2.6 1.4-6.1 1.4-10.5v-27h2.9v27c0 5-.5 9-1.6 12.1-1.1 3-2.9 5.3-5.6 6.9-2.7 1.5-6.4 2.3-11.2 2.3-4.9-.2-8.5-1-11.2-2.5zm-255.3 26.6c0 1.4-.5 2.5-1.4 3.3-.9.8-2.3 1.2-4 1.2h-1.4v5.1H149v-13.8h4c1.7 0 3 .4 3.9 1.1.7.7 1.2 1.7 1.2 3.1zm-6.9 2.6h1.2c1.2 0 2-.2 2.5-.6.5-.4.8-1 .8-1.9 0-.8-.2-1.4-.7-1.8-.5-.4-1.2-.6-2.3-.6h-1.6l.1 4.9zm22.5 7l-1.4-3.8H167l-1.3 3.8h-2.4l5.2-13.8h2.4l5.1 13.8h-2.3zm-2-5.8l-1.3-3.7-.4-1.2c-.2-.5-.3-.9-.3-1.2-.2.8-.4 1.6-.7 2.5l-1.2 3.6h3.9zm15.3 5.8h-2.3v-11.8h-4v-1.9H191v1.9h-4v11.8zm18.3 0h-7.8v-13.8h7.8v1.9h-5.5v3.7h5.2v1.9h-5.2v4.3h5.5v2zm18.8 0h-2.8l-6.8-11h-.1v.6c.1 1.2.1 2.2.1 3.2v7.2h-2v-13.8h2.7l6.8 10.9h.1c0-.1 0-.7-.1-1.6 0-.9-.1-1.6-.1-2.1v-7.2h2.1l.1 13.8zm12.7 0h-2.3v-11.8h-4v-1.9h10.3v1.9h-4v11.8zm21.5 0v-13.8h2.3v11.8h5.8v1.9l-8.1.1zm23.4 0l-1.4-3.8H275l-1.3 3.8h-2.4l5.1-13.8h2.4l5.1 13.8h-2.2zm-2-5.8l-1.3-3.7-.4-1.2c-.2-.5-.3-.9-.3-1.2-.2.8-.4 1.6-.7 2.5l-1.2 3.6h3.9zm23.2 5.8h-2.4l-2.3-8.2c-.1-.4-.2-.9-.4-1.5s-.2-1.1-.3-1.4c-.1.4-.2.9-.3 1.6-.1.6-.3 1.1-.4 1.4l-2.3 8.2h-2.4l-1.8-6.9-1.8-6.9h2.3l2 8c.3 1.3.5 2.4.7 3.4.1-.5.2-1.1.3-1.8.1-.7.3-1.2.4-1.6l2.2-8h2.2l2.3 8.1c.2.7.5 1.9.7 3.4.1-.9.3-2 .7-3.4l2-8h2.3l-3.7 13.6zm25.1-12c-1.3 0-2.3.5-3.1 1.4-.7.9-1.1 2.2-1.1 3.8 0 1.7.4 3 1.1 3.8.7.9 1.7 1.3 3.1 1.3.6 0 1.1-.1 1.7-.2.5-.1 1.1-.3 1.7-.4v1.9c-1.1.4-2.3.6-3.7.6-2 0-3.6-.6-4.6-1.8-1.1-1.2-1.6-3-1.6-5.2 0-1.4.3-2.7.8-3.8.5-1.1 1.3-1.9 2.3-2.5 1-.6 2.2-.9 3.5-.9 1.4 0 2.7.3 3.9.9l-.8 1.9-1.5-.6c-.6-.1-1.1-.2-1.7-.2zm22.9 5.1c0 2.2-.6 4-1.7 5.2-1.1 1.2-2.7 1.9-4.8 1.9-2.1 0-3.7-.6-4.8-1.8-1.1-1.2-1.7-3-1.7-5.3s.6-4 1.7-5.2c1.1-1.2 2.7-1.8 4.8-1.8 2 0 3.6.6 4.7 1.9 1.3 1.1 1.8 2.9 1.8 5.1zm-10.5 0c0 1.7.3 3 1 3.9.7.9 1.7 1.3 3 1.3s2.3-.4 3-1.3c.7-.9 1-2.2 1-3.9 0-1.7-.3-3-1-3.8-.7-.9-1.7-1.3-3-1.3s-2.4.4-3.1 1.3-.9 2.1-.9 3.8zm23.8 6.9l-4-11.5h-.1c.1 1.7.2 3.3.2 4.8v6.7h-2v-13.8h3.2l3.8 11h.1l3.9-11h3.2v13.8h-2.2v-6.8c0-.7 0-1.6.1-2.7 0-1.1.1-1.8.1-2h-.1l-4.1 11.5h-2.1zm25.3-9.6c0 1.4-.5 2.5-1.4 3.3-.9.8-2.3 1.2-4 1.2h-1.4v5.1h-2.3v-13.8h4c1.7 0 3 .4 3.9 1.1.7.7 1.2 1.7 1.2 3.1zm-6.9 2.6h1.2c1.2 0 2-.2 2.5-.6.5-.4.8-1 .8-1.9 0-.8-.2-1.4-.7-1.8-.5-.4-1.2-.6-2.3-.6h-1.6v4.9zm22.5 7l-1.4-3.8h-5.3l-1.3 3.8h-2.4l5.2-13.8h2.4l5.2 13.8h-2.4zm-2-5.8l-1.3-3.7-.4-1.2c-.2-.5-.3-.9-.3-1.2-.2.8-.4 1.6-.7 2.5l-1.2 3.6h3.9zm22 5.8h-2.8l-6.8-11h-.1v.6c.1 1.2.1 2.2.1 3.2v7.2h-2v-13.8h2.7l6.8 10.9h.1c0-.1 0-.7-.1-1.6 0-.9-.1-1.6-.1-2.1v-7.2h2.1l.1 13.8zm11.9-7.5l3.3-6.3h2.4l-4.6 8.4v5.3h-2.3V117l-4.6-8.5h2.4l3.4 6.4z" fill="#292f6d"/></svg>