<svg xmlns="http://www.w3.org/2000/svg" viewBox="0 0 445 125"><path d="M442.7 108.6l-4.6 8.4v5.4h-2.2v-5.3l-4.6-8.5h2.4l3.3 6.3 3.3-6.3zm-7.2-22.4c-2.7 1.5-6.4 2.3-11.2 2.3-4.6 0-8.3-.8-10.9-2.3-2.7-1.5-4.7-4-5.7-6.9-1.3-3.9-1.8-7.9-1.7-12V48.9c.1-1.9-.2-3.7-1-5.4-.7-1.2-2-1.8-4-1.8h-1.4v-1.4h6.5c1.4-.1 2.7.2 4 .7.9.5 1.6 1.4 1.9 2.5.5 1.8.7 3.6.6 5.5v20.5c0 5.3 1 9.4 3 12.1 2 2.7 5.2 4.1 9.8 4.1 3.6 0 6.5-.6 8.7-1.9 2.2-1.4 3.8-3.5 4.6-5.9 1-3.4 1.5-7 1.4-10.5v-27h2.9v27c.1 4.1-.4 8.2-1.6 12.1-1.2 2.8-3.2 5.2-5.9 6.7zm-12.3 33.3c0-.1 0-.7-.1-1.6-.1-.9-.1-1.6-.1-2.1v-7.2h2.1v13.8h-2.8l-6.8-11h-.1v.6c.1 1.2.1 2.2.1 3.2v7.2h-2v-13.8h2.7l7 10.9zm-20.2-2.9l-1.3-3.8-.4-1.2c-.2-.6-.3-.9-.3-1.2-.2.9-.4 1.7-.7 2.6l-1.3 3.6h4zm-.8-8.1l5.2 13.9H405l-1.4-3.8h-5.3l-1.4 3.8h-2.4l5.2-13.9h2.5zm-12.9 4.3c.1 1.3-.5 2.5-1.4 3.3-1.2.8-2.6 1.2-4 1.1h-1.4v5.2h-2.3v-13.8h4c1.4-.1 2.8.3 3.9 1.1.8.8 1.3 1.9 1.2 3.1zm-2.3 0c.1-.7-.2-1.3-.7-1.8-.7-.4-1.5-.7-2.3-.6h-1.6v4.9h1.2c.9.1 1.8-.1 2.6-.6.6-.4.9-1.1.8-1.9zm-29.1-4.2h3.2l3.8 11h.1l3.9-11h3.2v13.8h-2.2v-6.8c0-.7 0-1.6.1-2.7s.1-1.8.1-2h-.1l-4.1 11.5h-2l-4-11.5h-.1c.1 1.7.2 3.3.2 4.8v6.7h-2v-13.8zM356 84.9h12.6c2.7.1 5.4-.5 7.8-1.8 2.1-1.5 3.7-3.7 4.5-6.1l1.4.4-2.5 6.8c-.9 2.4-2.7 3.6-5.4 3.6h-24.8V48.9c.1-1.9-.2-3.7-1-5.4-.7-1.2-2-1.8-4-1.8h-1.4v-1.4h30.7c4.1 0 6.1 1.9 6.1 5.8v5.4h-1.4c0-5.5-3-8.3-9-8.3H356v18.7h19.4v2.9H356v20.1zm-7.8 30.6c.1-1.4-.3-2.7-1-3.9-.7-.9-1.9-1.4-3-1.3-1.2-.1-2.3.4-3.1 1.3-.8 1.1-1.1 2.5-1 3.9-.1 1.4.3 2.7 1 3.9 1.6 1.7 4.2 1.8 5.9.2l.2-.2c.8-1.2 1.1-2.5 1-3.9zm.7-5.3c2.2 3.1 2.2 7.4 0 10.5-2.7 2.5-6.9 2.5-9.6 0-2.2-3.2-2.2-7.4 0-10.5 1.3-1.3 3-1.9 4.8-1.8 1.9-.1 3.6.5 4.8 1.8zm-21.3 10.5c.6 0 1.1-.1 1.7-.2.5-.1 1.1-.3 1.7-.5v1.9c-1.2.4-2.4.6-3.7.6-1.7.1-3.5-.6-4.7-1.8-1.2-1.5-1.8-3.4-1.6-5.3 0-1.3.2-2.6.8-3.8.5-1 1.3-1.9 2.3-2.5 1.1-.6 2.3-.9 3.5-.9 1.4 0 2.7.3 3.9.9l-.8 1.9-1.5-.6c-.5-.2-1.1-.3-1.6-.3-1.2 0-2.3.5-3.1 1.4-1.5 2.4-1.5 5.3 0 7.7.8 1 1.9 1.5 3.1 1.5zm-1.2-34.3v1.4h-6.5c-1.4.1-2.7-.2-4-.7-.9-.5-1.6-1.4-1.9-2.5-.4-1.8-.6-3.6-.6-5.5V40.3h6.5v38.9c-.1 1.9.2 3.7 1 5.4.7 1.2 2 1.8 4 1.8h1.5zM306 108.6l-3.6 13.8H300l-2.3-8.2c-.1-.4-.2-.9-.4-1.6-.2-.7-.2-1.1-.3-1.4-.1.4-.2.9-.3 1.6-.1.6-.3 1.1-.4 1.4l-2.3 8.2h-2.5l-1.8-6.9-1.8-6.9h2.3l2 8c.3 1.3.5 2.4.7 3.4.1-.5.2-1.1.3-1.8.1-.7.3-1.2.4-1.6l2.3-8.1h2.2l2.3 8.1c.3 1.1.5 2.2.7 3.4.1-1.2.4-2.3.7-3.4l2-8h2.2zm-12.9-23.7v2.9h-32V48.9c.1-1.9-.2-3.7-1-5.4-.7-1.2-2-1.8-4-1.8h-1.4v-1.4h6.5c1.4-.1 2.7.2 4 .7.9.5 1.6 1.4 1.9 2.5.4 1.8.6 3.6.6 5.5v36l25.4-.1zm-14 31.7l-1.3-3.8-.4-1.2c-.2-.5-.3-.9-.4-1.2-.2.9-.4 1.7-.7 2.6l-1.2 3.6h4zm-.8-8.1l5.2 13.9h-2.4l-1.4-3.8h-5.3l-1.4 3.8h-2.4l5.2-13.9h2.5zm-12.5 12v1.9h-8.1v-13.8h2.2v11.9zm-27.9-34.1v1.4h-6.5c-1.4.1-2.7-.2-4-.7-1-.5-1.6-1.4-1.9-2.5-.5-1.8-.7-3.6-.6-5.5V40.3h6.5v38.9c-.1 1.9.2 3.7 1 5.4.7 1.2 2 1.8 4 1.8h1.5zm-.8 24.1v11.9h-2.2v-11.9h-4.1v-1.9h10.4v1.9zm-24.3-1.9h2.7l6.8 11h.1c0-.1 0-.7-.1-1.6s0-1.6 0-2.1v-7.2h2.1v13.8h-2.9l-6.8-11h-.1v.6c.1 1.2.1 2.2.1 3.2v7.2h-2l.1-13.9zm-9-19V91c-2.8.1-5.5-.4-8.1-1.6-1.9-1.1-3.4-2.8-4.1-4.9-.9-2.9-1.3-6-1.2-9V47.8l-18 40H171l-18.7-40.7v40.7h-2.9V40.3h6.8l17.3 37.5 16.9-37.5h6.6v35.3c0 4.5.6 7.9 1.7 10.4s2.8 3.6 5.1 3.6zm-3.9 30.9h5.6v1.9h-7.8v-13.8h7.8v1.9h-5.6v3.8h5.3v1.9h-5.3zm-12.8-10v11.9h-2.2v-11.9h-4.1v-1.9h10.4v1.9zm-15.3 6.1l-1.3-3.8c-.1-.2-.2-.6-.4-1.2-.2-.5-.3-.9-.3-1.2-.2.9-.4 1.7-.7 2.6l-1.3 3.6h4zm-.8-8.1l5.2 13.9h-2.4l-1.4-3.8h-5.3l-1.4 3.8h-2.4l5.2-13.9h2.5zm-15.2 4.3c.1-.7-.2-1.3-.7-1.8-.7-.4-1.5-.7-2.3-.6h-1.6v4.9h1.2c.9.1 1.8-.1 2.6-.6.5-.4.8-1.1.8-1.9zm1-3.1c.9.8 1.4 1.9 1.3 3.1.1 1.3-.5 2.5-1.4 3.3-1.2.8-2.6 1.2-4 1.1h-1.4v5.2H149v-13.8h4c1.3-.1 2.7.3 3.8 1.1zm-38.8-36c-.2.7-.5 1.5-1 1.6s-1.1-.6-1.5-1.2c-.4-.5-.8-1-1.2-1.6-.3-.5-.7-1.1-1-1.7s-.7-1.1-1-1.7l-1-1.7-1-1.7-1-1.7-1-1.7c-.3-.6-.7-1.1-1-1.7l-1-1.7-1-1.7-1-1.7-1-1.7-1-1.7-1-1.7c-.3-.6-.6-1.2-1-1.7s-.6-1.2-.9-1.7-.1-1.5-.4-2-.6-1.2-.8-1.8c-.3-.6-.5-1.2-.6-1.9-.2-.6-.3-1.3-.2-2 .2-.6.7-1.1 1.3-1.4.6-.2 1.3-.4 1.9-.4h11.9c.7 0 1.3.1 1.9.3.6.2 1.2.5 1.8.9.5.4.9 1 1.2 1.6.3.6.5 1.2.6 1.9.1.6.2 1.3.3 1.9.1.7.1 1.3.2 2s0 1.3.1 2 0 1.3 0 2v19.7c0 .7-.1 1.3-.1 2-.2.6-.3 1.2-.5 1.9zm-4.9 9.7c0 1-.2 2-.8 2.8-.6.8-1.3 1.5-2.2 1.9-.9.5-1.8.9-2.7 1.2-.9.3-1.9.6-2.8.9s-1.9.5-2.9.7l-2.9.7-2.8.7-2.9.6-2.9.7-2.9.7-2.9.6-2.9.7-2.9.6c-1 .2-1.9.4-2.9.5-1 .1-2 .2-2.9.3-1 .1-2-.1-2.8-.5-.8-.5-1.3-1.4-1.5-2.4-.1-1 0-2 .3-3s.5-1.9.9-2.8.7-1.8 1.1-2.8.8-1.8 1.2-2.7l1.2-2.7 1.2-2.7 1.2-2.7 1.2-2.7 1.2-2.7 1.2-2.7 1.2-2.7 1.2-2.7 1.2-2.7 1.2-2.7c.4-.9.8-1.8 1.3-2.7s.9-1.8 1.4-2.6c.5-.9 1.1-1.7 1.7-2.4.6-.8 1.4-1.4 2.4-1.7 1-.1 2 .3 2.7.9.8.6 1.4 1.4 2 2.2.6.8 1.1 1.6 1.6 2.5s1 1.7 1.5 2.5l1.4 2.6c.5.9 1 1.7 1.4 2.6l1.5 2.6 1.4 2.6 1.4 2.6c.5.9 1 1.7 1.4 2.6l1.4 2.6c.5.9 1 1.7 1.4 2.6s.9 1.8 1.3 2.6c.4.9.8 1.8 1.1 2.8.6.8.8 1.8.8 2.7zm-9.5 13.3c.1.4-.7 1.1-1.3 1.6s-1.1.9-1.7 1.3-1.1.8-1.7 1.2-1.2.8-1.7 1.2l-1.8 1.2-1.8 1.2-1.7 1.2-1.8 1.2-1.8 1.2-1.8 1.2-1.8 1.2-1.8 1.2-1.8 1.2-1.8 1.2-1.8 1.2-1.8 1.2-1.8 1.2-1.8 1.2-1.8 1.1c-.6.4-1.2.7-1.8 1.1s-1.2.7-1.9 1c-.6.4-1.3.6-2 .7-.7.1-1.4-.2-1.9-.7-.4-.6-.5-1.3-.5-2.1v-8.4c0-.7 0-1.4.1-2.1.1-.7.3-1.4.7-2 .4-.6.8-1.1 1.4-1.6.6-.4 1.2-.8 1.8-1.1.7-.3 1.3-.6 2-.8.7-.2 1.3-.4 2-.6s1.4-.4 2-.6 1.4-.3 2.1-.5l2.1-.5 2.1-.5 2.1-.5 2.1-.5 2.1-.5 2.1-.5 2.1-.5 2.1-.5 2.1-.5 2.1-.5c.7-.2 1.4-.3 2.1-.4l2.1-.4c.7-.2 1.4-.3 2.1-.3.9.1 1.9.2 2 .6zM82.8 42.8c0 1.1-.1 2.1-.4 3.1l-.9 3c-.3 1-.7 2-1.1 2.9s-.8 1.9-1.2 2.9-.8 1.9-1.3 2.9-.8 1.9-1.3 2.9l-1.3 2.9c-.4 1-.8 1.9-1.3 2.9s-.8 1.9-1.3 2.9-.8 1.9-1.3 2.9-.9 1.9-1.3 2.9-.8 1.9-1.3 2.9-.9 1.9-1.3 2.9-.9 1.9-1.3 2.8-1 1.9-1.5 2.8c-.5.9-1.1 1.8-1.8 2.6-.6.8-1.6 1.4-2.6 1.6-1-.2-2-.7-2.6-1.6-.7-.8-1.3-1.6-1.8-2.6-.5-.9-1-1.8-1.5-2.8s-.9-1.9-1.3-2.8-.9-1.9-1.3-2.9S51 76 50.5 75s-.8-1.9-1.3-2.9-.8-2.1-1.2-3l-1.3-2.9c-.4-1-.8-1.9-1.3-2.9s-.9-1.9-1.3-2.9-.9-1.9-1.3-2.9-.9-1.9-1.3-2.9-.8-1.9-1.2-2.9-.8-2-1.1-2.9-.7-2-.9-3c-.3-1-.4-2.1-.4-3.1s.4-2.1 1-2.9c.7-.8 1.7-1.3 2.7-1.5 1-.3 2-.5 3.1-.6 1-.1 2.1-.2 3.1-.2h25c1 0 2.1.1 3.1.2s2.1.3 3.1.6 1.9.8 2.7 1.5c.7.9 1.1 1.9 1.1 3zm-.9-13.7c.1.8-.2 1.5-.8 2.1-.6.5-1.4.8-2.1.9-.8.2-1.5.3-2.3.4-.8.1-1.6.1-2.3.2s-1.6 0-2.3.1H48.7c-.8 0-1.6 0-2.3-.1s-1.6-.1-2.3-.2c-.8-.1-1.5-.2-2.3-.4-.8-.1-1.5-.4-2.1-.9-.5-.5-.8-1.3-.8-2.1.1-.8.4-1.5.8-2.1.4-.7.8-1.4 1.2-2s.9-1.3 1.3-1.9l1.4-1.9 1.4-1.9 1.4-1.9 1.4-1.9c.5-.6.9-1.2 1.4-1.9l1.4-1.9L52 9.8l1.4-1.9 1.5-1.8c.5-.6 1-1.2 1.6-1.7.5-.6 1.2-1.1 1.8-1.5.7-.4 1.4-.7 2.2-.7.8 0 1.5.3 2.2.7.7.4 1.3.9 1.8 1.5.6.5 1.1 1.1 1.6 1.7l1.5 1.8L69 9.8l1.4 1.9 1.4 1.9c.5.6.9 1.3 1.4 1.9l1.4 1.9 1.4 1.9 1.4 1.9c.5.6.9 1.2 1.4 1.9s.9 1.3 1.3 1.9.8 1.3 1.2 2c.2.7.5 1.4.6 2.1zm-7.5-20c-.3-.6-.5-1.4-.2-1.5s1.1.3 1.7.6c.6.3 1.1.6 1.6.9s1 .6 1.6 1l1.5 1 1.5 1 1.5 1 1.5 1 1.5 1 1.5 1c.5.4 1 .7 1.5 1l1.5 1 1.5 1 1.5 1 1.5 1 1.5 1 1.5 1 1.5 1 1.5 1 1.5 1 1.5 1c.5.4 1 .7 1.5 1.1s.9.8 1.4 1.1c.6.4 1 1 1.3 1.6.3.4.3 1 0 1.5-.6.3-1.2.4-1.8.3h-9.2c-.6 0-1.2 0-1.8-.1-.6 0-1.2-.1-1.8-.3-.6-.1-1.2-.4-1.7-.6-.5-.3-1.1-.6-1.6-1s-.9-.8-1.4-1.2c-.4-.4-.8-.9-1.3-1.3s-.8-.9-1.2-1.4-.8-1-1.1-1.5-.7-1-1.1-1.5l-1.1-1.5L83 21l-1.1-1.5-1.1-1.5-1.1-1.5-1.1-1.5-1.1-1.5c-.4-.5-.7-1-1.1-1.5l-1.1-1.5c-.3-.3-.6-.8-.9-1.4zM51.8 91c.3 1 .4 2 .3 3-.1 1-.6 1.9-1.4 2.4-.9.4-1.9.6-2.9.5-1 0-2-.1-2.9-.3-1-.1-1.9-.3-2.9-.5l-2.9-.6-2.9-.7-2.9-.6-2.9-.7-2.9-.7-2.9-.6-2.9-.6-2.8-.6c-1-.2-1.9-.5-2.9-.7s-1.9-.5-2.8-.9c-.9-.3-1.8-.7-2.7-1.2-.9-.5-1.6-1.1-2.2-1.9-.5-.8-.8-1.8-.8-2.8 0-1 .2-2 .6-2.9.3-.9.7-1.9 1.1-2.8.4-.9.9-1.8 1.3-2.6s.9-1.7 1.4-2.6 1-1.7 1.4-2.6l1.4-2.6 1.4-2.6 1.4-2.6 1.4-2.6c.5-.9 1-1.7 1.5-2.6l1.4-2.6c.5-.8 1-1.7 1.5-2.5s1.1-1.7 1.6-2.5c.6-.8 1.2-1.6 2-2.2.7-.6 1.7-1 2.7-.9 1 .3 1.8.9 2.4 1.7.6.8 1.2 1.6 1.7 2.4.5.8 1 1.7 1.4 2.6s.9 1.8 1.3 2.7l1.2 2.7 1.2 2.7 1.2 2.7 1.2 2.7 1.2 2.7 1.2 2.7 1.2 2.7 1.2 2.7 1.2 2.7 1.2 2.7 1.2 2.7c.4.9.7 1.8 1.1 2.8s.9 1.9 1.1 2.8zM46.5 7.6c.3.2.1.9-.2 1.5-.3.5-.6 1.1-1 1.5-.3.5-.7 1-1.1 1.5s-.7 1-1.1 1.5L42 15.1l-1 1.5-1.1 1.4-1.1 1.5-1.1 1.5-1.1 1.5-1.1 1.5-1.1 1.5c-.4.5-.8 1-1.1 1.5s-.8.9-1.2 1.4-.8.9-1.3 1.3c-.4.4-.9.8-1.4 1.2-.5.4-1 .7-1.5 1-.6.3-1.1.5-1.7.6l-1.8.3c-.6 0-1.2.1-1.8.1h-9.1c-.6.1-1.2 0-1.8-.3-.3-.4-.3-1 0-1.5.4-.5.8-.9 1.3-1.3s1-.8 1.4-1.1 1-.7 1.5-1.1l1.5-1 1.5-1 1.5-1 1.5-1 1.5-1 1.5-1 1.5-1 1.5-1 1.5-1 1.5-1 1.5-1 1.5-1 1.5-1 1.5-1 1.5-1 1.5-1 1.5-1c.5-.3 1-.7 1.5-1s1-.6 1.6-.9 1.7-1.3 2-1.1zM17.1 96.7c.1-.4 1.1-.5 1.9-.4.7 0 1.4.1 2.1.3l2.1.4c.7.1 1.4.3 2.1.4l2.1.5 2.1.5 2.1.5 2.1.5 2.1.5 2.1.5 2.1.5 2.1.5 2.1.5 2.1.5c.7.2 1.4.3 2.1.5s1.4.3 2 .6 1.4.4 2 .6c.7.2 1.3.5 2 .8.6.3 1.3.6 1.8 1.1.6.4 1 1 1.4 1.6.3.6.6 1.3.7 2 .1.7.1 1.4.1 2.1v8.4c.1.7-.1 1.4-.5 2.1-.5.5-1.2.8-1.9.7-.7-.1-1.4-.3-2-.7-.6-.3-1.3-.6-1.9-1s-1.2-.7-1.8-1.1l-1.8-1.1-1.8-1.2-1.8-1.2-1.8-1.2-1.8-1.1-1.8-1.2-1.8-1.2-1.8-1.2-1.7-1.2-1.8-1.2-1.8-1.2-1.8-1.2-1.7-1.2-1.8-1.2-1.8-1.2-1.7-1.2c-.6-.4-1.2-.8-1.7-1.2s-1-.8-1.6-1.3-1.5-1.5-1.4-1.9zM6.3 72.4c-.3.6-.7 1.1-1.1 1.6-.5.6-1.1 1.2-1.5 1.2s-.8-.9-1-1.6c-.2-.7-.2-1.3-.2-2 0-.6-.1-1.3-.1-2V48c0-.7 0-1.3.1-2s.1-1.3.2-2 .2-1.3.3-2c.1-.6.3-1.3.6-1.9.3-.6.7-1 1.2-1.4.5-.4 1.1-.7 1.8-.9.7-.2 1.3-.3 2-.3h11.9c.6 0 1.2.1 1.8.4.6.3 1.1.8 1.3 1.4.1.7.1 1.3-.2 2-.2.6-.4 1.3-.6 1.9-.3.6-.5 1.2-.8 1.8l-.9 1.8c-.3.6-.6 1.2-.9 1.7s-.6 1.2-1 1.7-.6 1.2-1 1.7l-1 1.7-1 1.7-1 1.7-1 1.7-1 1.7c-.3.6-.6 1.2-1 1.7l-1 1.7-1 1.7-1 1.7-1 1.7c-.3.6-.7 1.1-1 1.7s-.5 1.3-.9 1.8z" fill="#fff"/></svg>