<svg width="66" height="75" viewBox="0 0 66 75" fill="none" xmlns="http://www.w3.org/2000/svg">
<path d="M32.8762 75C32.8762 75 45.6872 72.4896 57.8169 60.6783C66.5329 52.1919 65.7331 39.3143 65.7331 39.3143V0H0.0192294V39.3143C0.0192294 39.3143 -0.780533 52.1919 7.9354 60.6783C20.0651 72.4896 32.8688 75 32.8688 75H32.8762ZM1.27812 39.3883V39.3513V1.25889H64.4668V39.3957C64.6075 41.5951 64.2447 44.4239 63.8003 46.564C62.771 51.5255 60.5939 56.213 56.9283 59.7823C52.1223 64.4624 46.4795 68.3427 40.3554 71.09C38.5412 71.9046 36.6676 72.6229 34.7645 73.2005C34.1499 73.3857 33.4908 73.5782 32.854 73.7189C32.2467 73.5856 31.6247 73.4005 31.0397 73.2227C29.1439 72.6451 27.2704 71.9268 25.4561 71.1197C19.3024 68.3723 13.63 64.4772 8.80922 59.7749C5.16585 56.2204 2.98872 51.5625 1.95199 46.6306C1.49287 44.4609 1.13742 41.6321 1.27071 39.3883H1.27812Z" fill="#DFC58A"/>
<path d="M14.3928 26.6438C16.6291 27.6361 18.9692 27.7842 22.3534 26.592C25.5598 25.4664 27.4408 22.6746 27.4408 20.7196C27.4333 20.4382 27.263 17.7576 25.0118 17.802C24.7897 17.802 24.5453 17.8316 24.2787 17.8983C24.0195 17.9649 24.0047 18.1426 24.0047 18.1426C24.0047 18.1426 24.8563 17.8686 25.5672 19.9717C25.7672 20.5493 26.3226 22.7857 24.2639 24.7185C20.6576 28.11 16.1996 26.1477 16.7402 26.4068C10.7938 23.6003 14.4742 17.9501 17.5918 16.1136C19.8578 14.7881 23.6419 13.8994 27.7592 14.0401C33.3131 14.2327 38.5041 14.5437 42.2142 14.7658C47.1164 15.0621 50.9227 15.1953 52.5444 13.8772C54.1514 12.5739 52.7073 11.2484 52.3815 11.2188C51.0041 14.64 44.0803 13.3218 30.7361 13.344C28.3294 13.344 25.9523 13.4996 23.59 13.818C17.1401 14.6844 14.6816 17.1207 13.2672 18.7795C11.4307 20.927 10.8679 24.8962 14.4076 26.6364L14.3928 26.6438Z" fill="#DFC58A"/>
<path d="M22.4792 40.129C24.1972 40.6992 26.3818 40.714 28.7663 40.0031C33.0168 38.7368 37.9487 33.2866 35.0533 29.9986C34.4164 29.2803 32.9354 29.6876 32.9354 29.6876C32.9354 29.6876 34.3424 29.8876 33.9425 32.783C33.4908 36.0635 30.7434 40.7066 23.9455 39.4921C23.8714 39.4773 23.7974 39.4625 23.7233 39.4477C25.619 38.2925 27.4259 36.5967 28.8921 34.1382C30.3139 31.7611 31.9505 27.4142 33.1501 24.2744C36.5639 23.7264 40.4517 24.2226 44.3616 26.9477C42.0216 28.9619 38.9114 33.368 36.0974 38.5517C34.3572 41.7507 31.9357 47.2454 28.0628 50.5777C26.7076 51.7403 25.3673 52.2883 23.5604 52.8882C21.6721 53.5176 19.6208 53.251 18.436 52.9474C15.4591 52.1921 15.1184 50.2001 15.6812 49.2522C15.8442 48.9782 16.0885 48.7709 16.4144 48.645C16.3181 48.4821 16.1626 48.3488 15.9552 48.2303C14.141 47.2602 11.3788 51.9033 16.7624 53.4139C18.6359 53.9397 23.901 54.9838 28.7218 51.57C31.4543 49.6299 33.0909 46.6826 36.3418 40.3882C37.1416 38.8405 38.8818 39.618 38.9484 39.6476C40.2665 40.2697 40.6961 41.8396 39.7038 44.0167C37.1712 49.5558 37.1119 52.5253 40.1036 53.5991C40.5776 53.7694 42.2141 53.762 43.3471 53.6435C47.9532 53.177 47.2052 48.5265 44.5097 49.1633C45.9686 51.1479 43.7618 53.1029 41.5254 52.9252C41.3255 52.9104 40.7257 52.8733 40.5257 52.8215C39.3409 52.4957 38.7041 51.0591 39.2298 49.4818C40 47.1713 41.6513 45.2312 41.7328 43.1947C41.8587 40.2475 39.9333 39.4551 39.9333 39.4551C39.9333 39.4551 43.0435 40.1068 45.7094 38.2332C52.7591 33.2792 45.8723 27.1254 45.8723 27.1254C45.8723 27.1254 47.9458 24.9335 50.8708 23.7709C52.2334 23.2303 53.6033 22.8748 55.6694 23.0896C57.6614 23.2969 57.928 24.6076 57.7873 25.2963C58.6241 24.7632 59.4016 22.9044 58.2168 22.0825C53.4256 18.7427 45.6427 25.7703 44.9985 26.3331C44.4061 25.8443 40.2517 22.823 33.3945 23.682C33.8536 22.4898 34.2387 21.5271 34.4979 21.0013C36.638 16.7211 39.3261 15.0845 39.7038 14.8772C39.6667 14.8994 39.6075 14.929 39.5038 14.9735C36.9712 16.336 35.0163 18.1281 33.6389 20.3645C32.9798 21.4308 32.4096 22.6231 31.8172 23.9412C31.1729 24.0745 30.5065 24.2374 29.8178 24.4373C27.5666 25.1778 25.4043 26.4515 23.3382 27.977C19.1395 31.0798 18.3693 34.5454 18.9025 36.6337C19.2357 37.9222 20.1022 38.9664 21.3314 39.6476C17.066 42.0025 12.6451 40.8473 11.5195 40.477C7.16525 38.4924 8.89807 36.804 9.34978 36.4856C9.34978 36.4856 8.62407 35.7007 7.57253 36.3819C7.12822 36.6707 6.92828 37.1521 6.92828 37.8556C6.92828 37.4853 6.3877 40.1734 11.0086 41.299C12.7488 41.7211 17.7325 42.4172 22.4644 40.1438L22.4792 40.129ZM45.1836 27.6734C45.1836 27.6734 48.6493 30.3023 45.7686 35.1156C45.391 35.7451 44.9541 36.3597 44.4431 36.9003C41.4514 40.0697 38.2301 38.0185 37.6747 38.0851C37.9191 37.2113 39.3705 35.0934 41.4736 31.9832C43.0583 29.6432 45.1836 27.6808 45.1836 27.6808V27.6734ZM23.4419 29.036C25.0118 27.5994 27.9147 25.5925 31.5136 24.6299C30.1881 27.6216 28.6552 31.2353 25.7375 35.5155C24.7526 36.9669 23.6641 38.0555 22.5459 38.8701C20.2947 37.1891 19.4505 32.6941 23.4493 29.036H23.4419ZM11.4307 40.4326C11.2011 40.3363 11.2159 40.3585 11.4307 40.4326V40.4326Z" fill="#DFC58A"/>
</svg>
