<svg width="21" height="21" viewBox="0 0 21 21" fill="none" xmlns="http://www.w3.org/2000/svg">
<rect x="1" y="1" width="19" height="19" rx="9.5" stroke="#E35BE1" stroke-width="2"/>
<rect x="1" y="1" width="19" height="19" rx="9.5" stroke="url(#paint0_linear_107_249)" stroke-width="2"/>
<path d="M4.95817 10.3043L7.37759 11.2472L8.31405 14.3918C8.37399 14.5931 8.60985 14.6675 8.76635 14.5339L10.115 13.386C10.2563 13.2656 10.4577 13.2597 10.6054 13.3717L13.0379 15.2156C13.2053 15.3427 13.4426 15.2469 13.4846 15.0356L15.2665 6.08612C15.3124 5.8553 15.0952 5.66276 14.8847 5.74779L4.95537 9.74735C4.71031 9.84596 4.71241 10.2082 4.95817 10.3043ZM8.16312 10.7453L12.8916 7.70454C12.9765 7.65007 13.064 7.77004 12.9909 7.84073L9.08865 11.6282C8.95145 11.7615 8.86299 11.9399 8.83792 12.1336L8.70505 13.1622C8.68735 13.2995 8.50269 13.3131 8.46632 13.1802L7.95509 11.3045C7.89659 11.0906 7.98189 10.8621 8.16312 10.7453Z" fill="#E35BE1"/>
<path d="M4.95817 10.3043L7.37759 11.2472L8.31405 14.3918C8.37399 14.5931 8.60985 14.6675 8.76635 14.5339L10.115 13.386C10.2563 13.2656 10.4577 13.2597 10.6054 13.3717L13.0379 15.2156C13.2053 15.3427 13.4426 15.2469 13.4846 15.0356L15.2665 6.08612C15.3124 5.8553 15.0952 5.66276 14.8847 5.74779L4.95537 9.74735C4.71031 9.84596 4.71241 10.2082 4.95817 10.3043ZM8.16312 10.7453L12.8916 7.70454C12.9765 7.65007 13.064 7.77004 12.9909 7.84073L9.08865 11.6282C8.95145 11.7615 8.86299 11.9399 8.83792 12.1336L8.70505 13.1622C8.68735 13.2995 8.50269 13.3131 8.46632 13.1802L7.95509 11.3045C7.89659 11.0906 7.98189 10.8621 8.16312 10.7453Z" fill="url(#paint1_linear_107_249)"/>
<defs>
<linearGradient id="paint0_linear_107_249" x1="25.2231" y1="1.54413" x2="-0.507779" y2="2.24062" gradientUnits="userSpaceOnUse">
<stop stop-color="#F291FF"/>
<stop offset="0.807292" stop-color="#A9B6FF"/>
</linearGradient>
<linearGradient id="paint1_linear_107_249" x1="17.3843" y1="6.42917" x2="4.52079" y2="6.81218" gradientUnits="userSpaceOnUse">
<stop stop-color="#F291FF"/>
<stop offset="0.807292" stop-color="#A9B6FF"/>
</linearGradient>
</defs>
</svg>
