<svg width="500" height="418" viewBox="0 0 500 418" fill="none" xmlns="http://www.w3.org/2000/svg">
<mask id="mask0_520_22" style="mask-type:alpha" maskUnits="userSpaceOnUse" x="0" y="0" width="500" height="418">
<rect x="0.5" y="0.5" width="499" height="417" rx="29.5" fill="#120D25" stroke="#221A3A"/>
</mask>
<g mask="url(#mask0_520_22)">
<ellipse cx="428.5" cy="295" rx="199.5" ry="193" fill="url(#paint0_radial_520_22)" fill-opacity="0.5"/>
<ellipse cx="89.5" cy="115" rx="203.5" ry="197" fill="url(#paint1_radial_520_22)" fill-opacity="0.5"/>
<rect x="0.5" y="0.5" width="499" height="417" rx="29.5" fill="#120D25" stroke="#282044"/>
</g>
<circle cx="354" cy="217" r="93" stroke="#2C2543" stroke-width="4"/>
<path d="M353.662 124C369.791 124 385.646 128.165 399.679 136.088C413.712 144.011 425.445 155.422 433.733 169.209C442.022 182.996 446.583 198.688 446.973 214.754C447.362 230.82 443.567 246.713 435.956 260.883C428.345 275.052 417.179 287.015 403.546 295.604C389.913 304.193 374.279 309.116 358.169 309.892C342.058 310.667 326.02 307.27 311.62 300.032C297.219 292.793 284.947 281.959 276 268.587" stroke="url(#paint2_linear_520_22)" stroke-width="4" stroke-linecap="round"/>
<path d="M299.208 351.126C298.554 351.126 297.98 351.042 297.486 350.874C297 350.697 296.59 350.44 296.254 350.104C295.918 349.759 295.666 349.334 295.498 348.83C295.33 348.326 295.246 347.747 295.246 347.094V341.62C295.246 341.424 295.292 341.279 295.386 341.186C295.488 341.083 295.633 341.032 295.82 341.032C296.006 341.032 296.146 341.083 296.24 341.186C296.342 341.279 296.394 341.424 296.394 341.62V347.038C296.394 348.065 296.632 348.835 297.108 349.348C297.584 349.852 298.284 350.104 299.208 350.104C300.132 350.104 300.827 349.852 301.294 349.348C301.76 348.835 301.994 348.065 301.994 347.038V341.62C301.994 341.424 302.045 341.279 302.148 341.186C302.25 341.083 302.395 341.032 302.582 341.032C302.759 341.032 302.894 341.083 302.988 341.186C303.09 341.279 303.142 341.424 303.142 341.62V347.094C303.142 347.962 302.992 348.699 302.694 349.306C302.404 349.913 301.966 350.37 301.378 350.678C300.79 350.977 300.066 351.126 299.208 351.126ZM305.907 351.098C305.721 351.098 305.581 351.047 305.487 350.944C305.394 350.841 305.347 350.697 305.347 350.51V344.672C305.347 344.485 305.394 344.345 305.487 344.252C305.581 344.149 305.716 344.098 305.893 344.098C306.071 344.098 306.206 344.149 306.299 344.252C306.402 344.345 306.453 344.485 306.453 344.672V345.876L306.299 345.708C306.495 345.167 306.813 344.761 307.251 344.49C307.699 344.21 308.213 344.07 308.791 344.07C309.333 344.07 309.781 344.168 310.135 344.364C310.499 344.56 310.77 344.859 310.947 345.26C311.125 345.652 311.213 346.151 311.213 346.758V350.51C311.213 350.697 311.162 350.841 311.059 350.944C310.966 351.047 310.831 351.098 310.653 351.098C310.467 351.098 310.322 351.047 310.219 350.944C310.126 350.841 310.079 350.697 310.079 350.51V346.828C310.079 346.193 309.953 345.731 309.701 345.442C309.459 345.143 309.067 344.994 308.525 344.994C307.9 344.994 307.401 345.19 307.027 345.582C306.663 345.965 306.481 346.478 306.481 347.122V350.51C306.481 350.902 306.29 351.098 305.907 351.098ZM315.376 351.126C314.704 351.126 314.191 350.921 313.836 350.51C313.482 350.099 313.304 349.511 313.304 348.746V341.606C313.304 341.419 313.351 341.279 313.444 341.186C313.538 341.083 313.678 341.032 313.864 341.032C314.042 341.032 314.182 341.083 314.284 341.186C314.387 341.279 314.438 341.419 314.438 341.606V348.662C314.438 349.166 314.536 349.544 314.732 349.796C314.938 350.039 315.236 350.16 315.628 350.16C315.712 350.16 315.787 350.155 315.852 350.146C315.918 350.137 315.983 350.132 316.048 350.132C316.151 350.123 316.221 350.146 316.258 350.202C316.305 350.258 316.328 350.37 316.328 350.538C316.328 350.706 316.291 350.832 316.216 350.916C316.142 351 316.02 351.056 315.852 351.084C315.778 351.093 315.698 351.103 315.614 351.112C315.53 351.121 315.451 351.126 315.376 351.126ZM320.206 351.126C319.544 351.126 318.97 350.981 318.484 350.692C317.999 350.403 317.621 349.997 317.35 349.474C317.089 348.942 316.958 348.317 316.958 347.598C316.958 347.057 317.033 346.571 317.182 346.142C317.332 345.703 317.551 345.33 317.84 345.022C318.13 344.714 318.47 344.481 318.862 344.322C319.264 344.154 319.712 344.07 320.206 344.07C320.869 344.07 321.443 344.215 321.928 344.504C322.414 344.793 322.787 345.204 323.048 345.736C323.319 346.259 323.454 346.879 323.454 347.598C323.454 348.139 323.38 348.625 323.23 349.054C323.081 349.483 322.862 349.857 322.572 350.174C322.283 350.482 321.938 350.72 321.536 350.888C321.144 351.047 320.701 351.126 320.206 351.126ZM320.206 350.216C320.626 350.216 320.995 350.113 321.312 349.908C321.63 349.703 321.872 349.404 322.04 349.012C322.218 348.62 322.306 348.149 322.306 347.598C322.306 346.749 322.115 346.1 321.732 345.652C321.359 345.204 320.85 344.98 320.206 344.98C319.777 344.98 319.404 345.083 319.086 345.288C318.778 345.484 318.536 345.778 318.358 346.17C318.19 346.553 318.106 347.029 318.106 347.598C318.106 348.438 318.298 349.087 318.68 349.544C319.063 349.992 319.572 350.216 320.206 350.216ZM328.042 351.126C327.36 351.126 326.772 350.977 326.278 350.678C325.783 350.379 325.4 349.964 325.13 349.432C324.868 348.891 324.738 348.265 324.738 347.556C324.738 347.015 324.812 346.529 324.962 346.1C325.111 345.671 325.33 345.307 325.62 345.008C325.909 344.7 326.254 344.467 326.656 344.308C327.066 344.149 327.528 344.07 328.042 344.07C328.378 344.07 328.728 344.121 329.092 344.224C329.456 344.327 329.787 344.504 330.086 344.756C330.179 344.821 330.24 344.901 330.268 344.994C330.296 345.087 330.296 345.181 330.268 345.274C330.24 345.358 330.193 345.433 330.128 345.498C330.062 345.554 329.978 345.587 329.876 345.596C329.782 345.605 329.684 345.573 329.582 345.498C329.339 345.311 329.092 345.181 328.84 345.106C328.588 345.031 328.345 344.994 328.112 344.994C327.748 344.994 327.43 345.055 327.16 345.176C326.889 345.288 326.66 345.451 326.474 345.666C326.287 345.881 326.142 346.147 326.04 346.464C325.946 346.781 325.9 347.15 325.9 347.57C325.9 348.382 326.091 349.026 326.474 349.502C326.856 349.969 327.402 350.202 328.112 350.202C328.345 350.202 328.583 350.165 328.826 350.09C329.078 350.015 329.33 349.885 329.582 349.698C329.684 349.623 329.782 349.591 329.876 349.6C329.969 349.609 330.048 349.647 330.114 349.712C330.179 349.768 330.221 349.843 330.24 349.936C330.268 350.029 330.268 350.123 330.24 350.216C330.212 350.3 330.151 350.375 330.058 350.44C329.759 350.683 329.432 350.86 329.078 350.972C328.723 351.075 328.378 351.126 328.042 351.126ZM332.198 351.098C332.012 351.098 331.872 351.047 331.778 350.944C331.685 350.841 331.638 350.697 331.638 350.51V341.606C331.638 341.419 331.685 341.279 331.778 341.186C331.872 341.083 332.012 341.032 332.198 341.032C332.376 341.032 332.516 341.083 332.618 341.186C332.721 341.279 332.772 341.419 332.772 341.606V347.22H332.8L335.67 344.476C335.801 344.355 335.913 344.261 336.006 344.196C336.109 344.131 336.244 344.098 336.412 344.098C336.562 344.098 336.678 344.14 336.762 344.224C336.846 344.299 336.884 344.397 336.874 344.518C336.874 344.63 336.818 344.751 336.706 344.882L333.654 347.78V347.164L336.972 350.286C337.103 350.417 337.168 350.543 337.168 350.664C337.168 350.785 337.122 350.888 337.028 350.972C336.944 351.056 336.832 351.098 336.692 351.098C336.524 351.098 336.389 351.065 336.286 351C336.184 350.925 336.058 350.818 335.908 350.678L332.8 347.808H332.772V350.51C332.772 350.902 332.581 351.098 332.198 351.098ZM340.811 351.126C340.391 351.126 339.967 351.075 339.537 350.972C339.117 350.869 338.725 350.692 338.361 350.44C338.268 350.375 338.203 350.3 338.165 350.216C338.128 350.123 338.114 350.034 338.123 349.95C338.142 349.857 338.179 349.777 338.235 349.712C338.301 349.647 338.375 349.609 338.459 349.6C338.553 349.581 338.655 349.6 338.767 349.656C339.131 349.88 339.481 350.039 339.817 350.132C340.163 350.216 340.503 350.258 340.839 350.258C341.371 350.258 341.773 350.16 342.043 349.964C342.314 349.768 342.449 349.502 342.449 349.166C342.449 348.905 342.361 348.699 342.183 348.55C342.006 348.391 341.726 348.27 341.343 348.186L340.069 347.906C339.481 347.785 339.043 347.575 338.753 347.276C338.473 346.977 338.333 346.59 338.333 346.114C338.333 345.694 338.441 345.335 338.655 345.036C338.879 344.728 339.192 344.49 339.593 344.322C339.995 344.154 340.461 344.07 340.993 344.07C341.404 344.07 341.791 344.126 342.155 344.238C342.529 344.341 342.865 344.509 343.163 344.742C343.257 344.807 343.317 344.887 343.345 344.98C343.383 345.064 343.387 345.153 343.359 345.246C343.341 345.33 343.299 345.405 343.233 345.47C343.168 345.526 343.089 345.559 342.995 345.568C342.902 345.577 342.804 345.549 342.701 345.484C342.421 345.297 342.137 345.162 341.847 345.078C341.558 344.985 341.273 344.938 340.993 344.938C340.471 344.938 340.074 345.041 339.803 345.246C339.533 345.451 339.397 345.722 339.397 346.058C339.397 346.319 339.481 346.534 339.649 346.702C339.817 346.87 340.079 346.991 340.433 347.066L341.707 347.332C342.314 347.463 342.767 347.673 343.065 347.962C343.373 348.242 343.527 348.625 343.527 349.11C343.527 349.726 343.28 350.216 342.785 350.58C342.291 350.944 341.633 351.126 340.811 351.126ZM349.593 351.098C349.406 351.098 349.261 351.047 349.159 350.944C349.065 350.832 349.019 350.683 349.019 350.496V341.634C349.019 341.438 349.065 341.289 349.159 341.186C349.261 341.083 349.406 341.032 349.593 341.032C349.779 341.032 349.919 341.083 350.013 341.186C350.115 341.289 350.167 341.438 350.167 341.634V350.496C350.167 350.683 350.12 350.832 350.027 350.944C349.933 351.047 349.789 351.098 349.593 351.098ZM353.02 351.098C352.834 351.098 352.694 351.047 352.6 350.944C352.507 350.841 352.46 350.697 352.46 350.51V344.672C352.46 344.485 352.507 344.345 352.6 344.252C352.694 344.149 352.829 344.098 353.006 344.098C353.184 344.098 353.319 344.149 353.412 344.252C353.515 344.345 353.566 344.485 353.566 344.672V345.876L353.412 345.708C353.608 345.167 353.926 344.761 354.364 344.49C354.812 344.21 355.326 344.07 355.904 344.07C356.446 344.07 356.894 344.168 357.248 344.364C357.612 344.56 357.883 344.859 358.06 345.26C358.238 345.652 358.326 346.151 358.326 346.758V350.51C358.326 350.697 358.275 350.841 358.172 350.944C358.079 351.047 357.944 351.098 357.766 351.098C357.58 351.098 357.435 351.047 357.332 350.944C357.239 350.841 357.192 350.697 357.192 350.51V346.828C357.192 346.193 357.066 345.731 356.814 345.442C356.572 345.143 356.18 344.994 355.638 344.994C355.013 344.994 354.514 345.19 354.14 345.582C353.776 345.965 353.594 346.478 353.594 347.122V350.51C353.594 350.902 353.403 351.098 353.02 351.098ZM365.133 351C364.965 351 364.834 350.958 364.741 350.874C364.648 350.781 364.601 350.655 364.601 350.496C364.601 350.337 364.648 350.221 364.741 350.146C364.834 350.062 364.965 350.02 365.133 350.02H366.953V342.082H367.555L365.525 343.426C365.404 343.491 365.287 343.519 365.175 343.51C365.072 343.501 364.984 343.463 364.909 343.398C364.844 343.323 364.797 343.239 364.769 343.146C364.741 343.043 364.746 342.941 364.783 342.838C364.82 342.726 364.9 342.633 365.021 342.558L366.953 341.284C367.074 341.209 367.191 341.149 367.303 341.102C367.415 341.055 367.527 341.032 367.639 341.032C367.77 341.032 367.877 341.074 367.961 341.158C368.054 341.233 368.101 341.354 368.101 341.522V350.02H369.781C369.949 350.02 370.08 350.062 370.173 350.146C370.266 350.221 370.313 350.337 370.313 350.496C370.313 350.664 370.266 350.79 370.173 350.874C370.08 350.958 369.949 351 369.781 351H365.133ZM374.871 351.126C374.451 351.126 374.013 351.042 373.555 350.874C373.098 350.706 372.697 350.463 372.351 350.146C372.249 350.071 372.183 349.983 372.155 349.88C372.137 349.777 372.141 349.679 372.169 349.586C372.197 349.483 372.244 349.399 372.309 349.334C372.384 349.259 372.473 349.222 372.575 349.222C372.678 349.213 372.785 349.25 372.897 349.334C373.215 349.605 373.541 349.801 373.877 349.922C374.213 350.043 374.554 350.104 374.899 350.104C375.506 350.104 376.019 349.955 376.439 349.656C376.869 349.357 377.191 348.905 377.405 348.298C377.629 347.691 377.741 346.94 377.741 346.044V344.742H377.867C377.811 345.265 377.653 345.722 377.391 346.114C377.139 346.506 376.813 346.805 376.411 347.01C376.01 347.215 375.557 347.318 375.053 347.318C374.475 347.318 373.961 347.187 373.513 346.926C373.065 346.665 372.715 346.296 372.463 345.82C372.211 345.344 372.085 344.807 372.085 344.21C372.085 343.585 372.216 343.034 372.477 342.558C372.748 342.073 373.117 341.695 373.583 341.424C374.059 341.144 374.605 341.004 375.221 341.004C375.996 341.004 376.654 341.195 377.195 341.578C377.746 341.951 378.161 342.497 378.441 343.216C378.721 343.935 378.861 344.803 378.861 345.82C378.861 346.679 378.773 347.435 378.595 348.088C378.418 348.741 378.157 349.297 377.811 349.754C377.466 350.202 377.046 350.543 376.551 350.776C376.057 351.009 375.497 351.126 374.871 351.126ZM375.291 346.352C375.711 346.352 376.08 346.259 376.397 346.072C376.715 345.885 376.962 345.629 377.139 345.302C377.317 344.966 377.405 344.583 377.405 344.154C377.405 343.725 377.317 343.347 377.139 343.02C376.962 342.693 376.715 342.437 376.397 342.25C376.08 342.063 375.711 341.97 375.291 341.97C374.881 341.97 374.517 342.063 374.199 342.25C373.891 342.437 373.644 342.693 373.457 343.02C373.28 343.347 373.191 343.725 373.191 344.154C373.191 344.583 373.28 344.966 373.457 345.302C373.644 345.629 373.891 345.885 374.199 346.072C374.517 346.259 374.881 346.352 375.291 346.352ZM385.209 351C385.004 351 384.845 350.949 384.733 350.846C384.631 350.734 384.579 350.575 384.579 350.37V341.76C384.579 341.555 384.631 341.401 384.733 341.298C384.845 341.186 385.004 341.13 385.209 341.13H387.911C389.507 341.13 390.739 341.55 391.607 342.39C392.475 343.23 392.909 344.453 392.909 346.058C392.909 346.861 392.797 347.57 392.573 348.186C392.359 348.793 392.037 349.306 391.607 349.726C391.178 350.146 390.655 350.463 390.039 350.678C389.423 350.893 388.714 351 387.911 351H385.209ZM385.727 350.02H387.827C388.481 350.02 389.045 349.936 389.521 349.768C390.007 349.6 390.408 349.353 390.725 349.026C391.052 348.699 391.295 348.289 391.453 347.794C391.612 347.29 391.691 346.711 391.691 346.058C391.691 344.742 391.369 343.757 390.725 343.104C390.081 342.441 389.115 342.11 387.827 342.11H385.727V350.02ZM396.958 351.126C396.491 351.126 396.071 351.037 395.698 350.86C395.334 350.673 395.045 350.421 394.83 350.104C394.615 349.787 394.508 349.432 394.508 349.04C394.508 348.536 394.634 348.139 394.886 347.85C395.147 347.561 395.572 347.355 396.16 347.234C396.757 347.113 397.569 347.052 398.596 347.052H399.226V347.794H398.61C397.854 347.794 397.257 347.831 396.818 347.906C396.389 347.971 396.085 348.088 395.908 348.256C395.74 348.424 395.656 348.662 395.656 348.97C395.656 349.353 395.787 349.665 396.048 349.908C396.319 350.151 396.683 350.272 397.14 350.272C397.513 350.272 397.84 350.183 398.12 350.006C398.409 349.829 398.633 349.586 398.792 349.278C398.96 348.97 399.044 348.615 399.044 348.214V346.618C399.044 346.039 398.927 345.624 398.694 345.372C398.461 345.111 398.078 344.98 397.546 344.98C397.219 344.98 396.893 345.022 396.566 345.106C396.239 345.19 395.894 345.325 395.53 345.512C395.399 345.577 395.287 345.601 395.194 345.582C395.101 345.554 395.026 345.503 394.97 345.428C394.914 345.353 394.881 345.269 394.872 345.176C394.863 345.073 394.881 344.975 394.928 344.882C394.984 344.789 395.068 344.714 395.18 344.658C395.591 344.453 395.997 344.303 396.398 344.21C396.799 344.117 397.182 344.07 397.546 344.07C398.134 344.07 398.619 344.168 399.002 344.364C399.385 344.551 399.669 344.84 399.856 345.232C400.043 345.615 400.136 346.109 400.136 346.716V350.51C400.136 350.697 400.089 350.841 399.996 350.944C399.912 351.047 399.786 351.098 399.618 351.098C399.441 351.098 399.305 351.047 399.212 350.944C399.119 350.841 399.072 350.697 399.072 350.51V349.418H399.198C399.123 349.773 398.979 350.076 398.764 350.328C398.559 350.58 398.302 350.776 397.994 350.916C397.686 351.056 397.341 351.126 396.958 351.126ZM403.683 353.618C403.543 353.618 403.431 353.581 403.347 353.506C403.263 353.431 403.212 353.329 403.193 353.198C403.184 353.077 403.207 352.951 403.263 352.82L404.229 350.65V351.14L401.541 344.896C401.485 344.756 401.467 344.625 401.485 344.504C401.504 344.383 401.56 344.285 401.653 344.21C401.747 344.135 401.877 344.098 402.045 344.098C402.195 344.098 402.311 344.131 402.395 344.196C402.479 344.261 402.554 344.378 402.619 344.546L404.915 350.174H404.537L406.861 344.546C406.936 344.378 407.015 344.261 407.099 344.196C407.183 344.131 407.305 344.098 407.463 344.098C407.613 344.098 407.725 344.135 407.799 344.21C407.883 344.285 407.93 344.383 407.939 344.504C407.958 344.616 407.939 344.742 407.883 344.882L404.299 353.17C404.225 353.338 404.141 353.455 404.047 353.52C403.963 353.585 403.842 353.618 403.683 353.618ZM411.522 351.126C411.102 351.126 410.677 351.075 410.248 350.972C409.828 350.869 409.436 350.692 409.072 350.44C408.979 350.375 408.913 350.3 408.876 350.216C408.839 350.123 408.825 350.034 408.834 349.95C408.853 349.857 408.89 349.777 408.946 349.712C409.011 349.647 409.086 349.609 409.17 349.6C409.263 349.581 409.366 349.6 409.478 349.656C409.842 349.88 410.192 350.039 410.528 350.132C410.873 350.216 411.214 350.258 411.55 350.258C412.082 350.258 412.483 350.16 412.754 349.964C413.025 349.768 413.16 349.502 413.16 349.166C413.16 348.905 413.071 348.699 412.894 348.55C412.717 348.391 412.437 348.27 412.054 348.186L410.78 347.906C410.192 347.785 409.753 347.575 409.464 347.276C409.184 346.977 409.044 346.59 409.044 346.114C409.044 345.694 409.151 345.335 409.366 345.036C409.59 344.728 409.903 344.49 410.304 344.322C410.705 344.154 411.172 344.07 411.704 344.07C412.115 344.07 412.502 344.126 412.866 344.238C413.239 344.341 413.575 344.509 413.874 344.742C413.967 344.807 414.028 344.887 414.056 344.98C414.093 345.064 414.098 345.153 414.07 345.246C414.051 345.33 414.009 345.405 413.944 345.47C413.879 345.526 413.799 345.559 413.706 345.568C413.613 345.577 413.515 345.549 413.412 345.484C413.132 345.297 412.847 345.162 412.558 345.078C412.269 344.985 411.984 344.938 411.704 344.938C411.181 344.938 410.785 345.041 410.514 345.246C410.243 345.451 410.108 345.722 410.108 346.058C410.108 346.319 410.192 346.534 410.36 346.702C410.528 346.87 410.789 346.991 411.144 347.066L412.418 347.332C413.025 347.463 413.477 347.673 413.776 347.962C414.084 348.242 414.238 348.625 414.238 349.11C414.238 349.726 413.991 350.216 413.496 350.58C413.001 350.944 412.343 351.126 411.522 351.126Z" fill="#A7A2BD"/>
<path d="M317.488 61.126C316.517 61.126 315.687 60.9207 314.996 60.51C314.305 60.0993 313.773 59.516 313.4 58.76C313.036 58.004 312.854 57.1033 312.854 56.058C312.854 55.274 312.957 54.574 313.162 53.958C313.377 53.3327 313.68 52.8053 314.072 52.376C314.473 51.9373 314.963 51.6013 315.542 51.368C316.121 51.1253 316.769 51.004 317.488 51.004C318.067 51.004 318.617 51.088 319.14 51.256C319.663 51.4147 320.115 51.6527 320.498 51.97C320.619 52.0633 320.699 52.1707 320.736 52.292C320.783 52.404 320.787 52.516 320.75 52.628C320.722 52.7307 320.666 52.8193 320.582 52.894C320.507 52.9593 320.414 52.992 320.302 52.992C320.19 52.992 320.064 52.9453 319.924 52.852C319.588 52.5813 319.219 52.3807 318.818 52.25C318.417 52.1193 317.983 52.054 317.516 52.054C316.779 52.054 316.153 52.2127 315.64 52.53C315.127 52.838 314.739 53.2907 314.478 53.888C314.217 54.4853 314.086 55.2087 314.086 56.058C314.086 56.9073 314.217 57.6353 314.478 58.242C314.739 58.8393 315.127 59.2967 315.64 59.614C316.153 59.922 316.779 60.076 317.516 60.076C317.973 60.076 318.407 60.0107 318.818 59.88C319.229 59.74 319.607 59.5347 319.952 59.264C320.092 59.1707 320.218 59.1287 320.33 59.138C320.442 59.138 320.535 59.1707 320.61 59.236C320.685 59.3013 320.736 59.3853 320.764 59.488C320.801 59.5907 320.801 59.698 320.764 59.81C320.736 59.922 320.666 60.02 320.554 60.104C320.162 60.44 319.7 60.6967 319.168 60.874C318.645 61.042 318.085 61.126 317.488 61.126ZM324.742 61.126C324.191 61.126 323.734 61.028 323.37 60.832C323.015 60.6267 322.744 60.3233 322.558 59.922C322.38 59.5207 322.292 59.0213 322.292 58.424V54.672C322.292 54.476 322.338 54.3313 322.432 54.238C322.534 54.1447 322.674 54.098 322.852 54.098C323.038 54.098 323.178 54.1447 323.272 54.238C323.374 54.3313 323.426 54.476 323.426 54.672V58.41C323.426 59.0073 323.547 59.4553 323.79 59.754C324.042 60.0433 324.434 60.188 324.966 60.188C325.544 60.188 326.016 59.992 326.38 59.6C326.744 59.208 326.926 58.6947 326.926 58.06V54.672C326.926 54.476 326.972 54.3313 327.066 54.238C327.168 54.1447 327.313 54.098 327.5 54.098C327.677 54.098 327.812 54.1447 327.906 54.238C328.008 54.3313 328.06 54.476 328.06 54.672V60.51C328.06 60.902 327.878 61.098 327.514 61.098C327.336 61.098 327.196 61.0467 327.094 60.944C327 60.8413 326.954 60.6967 326.954 60.51V59.236L327.136 59.432C326.949 59.9827 326.641 60.4027 326.212 60.692C325.792 60.9813 325.302 61.126 324.742 61.126ZM330.755 61.098C330.569 61.098 330.424 61.0467 330.321 60.944C330.228 60.8413 330.181 60.6967 330.181 60.51V54.672C330.181 54.4853 330.228 54.3453 330.321 54.252C330.415 54.1493 330.55 54.098 330.727 54.098C330.905 54.098 331.04 54.1493 331.133 54.252C331.236 54.3453 331.287 54.4853 331.287 54.672V55.806H331.147C331.297 55.2553 331.581 54.8307 332.001 54.532C332.421 54.2333 332.939 54.0747 333.555 54.056C333.695 54.0467 333.807 54.0793 333.891 54.154C333.975 54.2193 334.022 54.336 334.031 54.504C334.041 54.6627 334.003 54.7887 333.919 54.882C333.835 54.9753 333.705 55.0313 333.527 55.05L333.303 55.078C332.669 55.134 332.179 55.3393 331.833 55.694C331.497 56.0393 331.329 56.5153 331.329 57.122V60.51C331.329 60.6967 331.278 60.8413 331.175 60.944C331.082 61.0467 330.942 61.098 330.755 61.098ZM335.773 61.098C335.586 61.098 335.441 61.0467 335.339 60.944C335.245 60.8413 335.199 60.6967 335.199 60.51V54.672C335.199 54.4853 335.245 54.3453 335.339 54.252C335.432 54.1493 335.567 54.098 335.745 54.098C335.922 54.098 336.057 54.1493 336.151 54.252C336.253 54.3453 336.305 54.4853 336.305 54.672V55.806H336.165C336.314 55.2553 336.599 54.8307 337.019 54.532C337.439 54.2333 337.957 54.0747 338.573 54.056C338.713 54.0467 338.825 54.0793 338.909 54.154C338.993 54.2193 339.039 54.336 339.049 54.504C339.058 54.6627 339.021 54.7887 338.937 54.882C338.853 54.9753 338.722 55.0313 338.545 55.05L338.321 55.078C337.686 55.134 337.196 55.3393 336.851 55.694C336.515 56.0393 336.347 56.5153 336.347 57.122V60.51C336.347 60.6967 336.295 60.8413 336.193 60.944C336.099 61.0467 335.959 61.098 335.773 61.098ZM343.2 61.126C342.482 61.126 341.861 60.986 341.338 60.706C340.825 60.4167 340.424 60.0107 340.134 59.488C339.854 58.9653 339.714 58.34 339.714 57.612C339.714 56.9027 339.854 56.2867 340.134 55.764C340.414 55.232 340.797 54.8167 341.282 54.518C341.777 54.2193 342.346 54.07 342.99 54.07C343.448 54.07 343.858 54.1493 344.222 54.308C344.586 54.4573 344.894 54.6767 345.146 54.966C345.408 55.2553 345.604 55.6053 345.734 56.016C345.874 56.4267 345.944 56.8887 345.944 57.402C345.944 57.5513 345.902 57.6633 345.818 57.738C345.734 57.8033 345.613 57.836 345.454 57.836H340.582V57.094H345.188L344.964 57.276C344.964 56.772 344.89 56.3473 344.74 56.002C344.591 55.6473 344.372 55.3767 344.082 55.19C343.802 55.0033 343.448 54.91 343.018 54.91C342.542 54.91 342.136 55.022 341.8 55.246C341.474 55.4607 341.226 55.764 341.058 56.156C340.89 56.5387 340.806 56.9867 340.806 57.5V57.584C340.806 58.4427 341.012 59.096 341.422 59.544C341.842 59.992 342.435 60.216 343.2 60.216C343.518 60.216 343.83 60.174 344.138 60.09C344.456 60.006 344.764 59.866 345.062 59.67C345.193 59.586 345.31 59.5487 345.412 59.558C345.524 59.558 345.613 59.5907 345.678 59.656C345.744 59.712 345.786 59.7867 345.804 59.88C345.832 59.964 345.823 60.0573 345.776 60.16C345.739 60.2627 345.66 60.3513 345.538 60.426C345.23 60.65 344.866 60.8227 344.446 60.944C344.026 61.0653 343.611 61.126 343.2 61.126ZM348.173 61.098C347.987 61.098 347.847 61.0467 347.753 60.944C347.66 60.8413 347.613 60.6967 347.613 60.51V54.672C347.613 54.4853 347.66 54.3453 347.753 54.252C347.847 54.1493 347.982 54.098 348.159 54.098C348.337 54.098 348.472 54.1493 348.565 54.252C348.668 54.3453 348.719 54.4853 348.719 54.672V55.904L348.565 55.708C348.743 55.1853 349.027 54.784 349.419 54.504C349.821 54.2147 350.297 54.07 350.847 54.07C351.426 54.07 351.893 54.21 352.247 54.49C352.611 54.7607 352.854 55.1853 352.975 55.764H352.765C352.933 55.2413 353.232 54.8307 353.661 54.532C354.1 54.224 354.609 54.07 355.187 54.07C355.701 54.07 356.121 54.168 356.447 54.364C356.783 54.56 357.035 54.8587 357.203 55.26C357.371 55.652 357.455 56.1513 357.455 56.758V60.51C357.455 60.6967 357.404 60.8413 357.301 60.944C357.208 61.0467 357.068 61.098 356.881 61.098C356.704 61.098 356.564 61.0467 356.461 60.944C356.368 60.8413 356.321 60.6967 356.321 60.51V56.814C356.321 56.1887 356.214 55.7313 355.999 55.442C355.785 55.1433 355.421 54.994 354.907 54.994C354.347 54.994 353.904 55.19 353.577 55.582C353.26 55.9647 353.101 56.4873 353.101 57.15V60.51C353.101 60.6967 353.05 60.8413 352.947 60.944C352.854 61.0467 352.714 61.098 352.527 61.098C352.35 61.098 352.21 61.0467 352.107 60.944C352.014 60.8413 351.967 60.6967 351.967 60.51V56.814C351.967 56.1887 351.855 55.7313 351.631 55.442C351.417 55.1433 351.057 54.994 350.553 54.994C349.993 54.994 349.55 55.19 349.223 55.582C348.906 55.9647 348.747 56.4873 348.747 57.15V60.51C348.747 60.902 348.556 61.098 348.173 61.098ZM362.306 61.126C361.774 61.126 361.326 61.0327 360.962 60.846C360.607 60.65 360.341 60.37 360.164 60.006C359.986 59.6327 359.898 59.18 359.898 58.648V55.078H358.96C358.801 55.078 358.68 55.0407 358.596 54.966C358.512 54.882 358.47 54.77 358.47 54.63C358.47 54.49 358.512 54.3827 358.596 54.308C358.68 54.2333 358.801 54.196 358.96 54.196H359.898V52.586C359.898 52.3993 359.949 52.2593 360.052 52.166C360.154 52.0633 360.294 52.012 360.472 52.012C360.649 52.012 360.784 52.0633 360.878 52.166C360.98 52.2593 361.032 52.3993 361.032 52.586V54.196H362.796C362.954 54.196 363.076 54.2333 363.16 54.308C363.244 54.3827 363.286 54.49 363.286 54.63C363.286 54.77 363.244 54.882 363.16 54.966C363.076 55.0407 362.954 55.078 362.796 55.078H361.032V58.536C361.032 59.068 361.144 59.474 361.368 59.754C361.592 60.0247 361.956 60.16 362.46 60.16C362.637 60.16 362.786 60.1413 362.908 60.104C363.038 60.0667 363.146 60.048 363.23 60.048C363.314 60.0387 363.384 60.0667 363.44 60.132C363.496 60.1973 363.524 60.3093 363.524 60.468C363.524 60.58 363.5 60.6827 363.454 60.776C363.416 60.8693 363.346 60.9347 363.244 60.972C363.132 61.0093 362.982 61.042 362.796 61.07C362.618 61.1073 362.455 61.126 362.306 61.126ZM368.78 61.098C368.602 61.098 368.467 61.0513 368.374 60.958C368.28 60.8553 368.234 60.7107 368.234 60.524V51.62C368.234 51.4333 368.28 51.2887 368.374 51.186C368.467 51.0833 368.588 51.032 368.738 51.032C368.887 51.032 368.994 51.06 369.06 51.116C369.134 51.1627 369.218 51.2513 369.312 51.382L375.416 59.516H375.08V51.592C375.08 51.4147 375.126 51.2793 375.22 51.186C375.313 51.0833 375.448 51.032 375.626 51.032C375.794 51.032 375.92 51.0833 376.004 51.186C376.097 51.2793 376.144 51.4147 376.144 51.592V60.538C376.144 60.7153 376.102 60.8553 376.018 60.958C375.943 61.0513 375.831 61.098 375.682 61.098C375.542 61.098 375.43 61.07 375.346 61.014C375.262 60.958 375.173 60.8693 375.08 60.748L368.99 52.614H369.312V60.524C369.312 60.7107 369.265 60.8553 369.172 60.958C369.078 61.0513 368.948 61.098 368.78 61.098ZM381.509 61.126C380.79 61.126 380.17 60.986 379.647 60.706C379.134 60.4167 378.732 60.0107 378.443 59.488C378.163 58.9653 378.023 58.34 378.023 57.612C378.023 56.9027 378.163 56.2867 378.443 55.764C378.723 55.232 379.106 54.8167 379.591 54.518C380.086 54.2193 380.655 54.07 381.299 54.07C381.756 54.07 382.167 54.1493 382.531 54.308C382.895 54.4573 383.203 54.6767 383.455 54.966C383.716 55.2553 383.912 55.6053 384.043 56.016C384.183 56.4267 384.253 56.8887 384.253 57.402C384.253 57.5513 384.211 57.6633 384.127 57.738C384.043 57.8033 383.922 57.836 383.763 57.836H378.891V57.094H383.497L383.273 57.276C383.273 56.772 383.198 56.3473 383.049 56.002C382.9 55.6473 382.68 55.3767 382.391 55.19C382.111 55.0033 381.756 54.91 381.327 54.91C380.851 54.91 380.445 55.022 380.109 55.246C379.782 55.4607 379.535 55.764 379.367 56.156C379.199 56.5387 379.115 56.9867 379.115 57.5V57.584C379.115 58.4427 379.32 59.096 379.731 59.544C380.151 59.992 380.744 60.216 381.509 60.216C381.826 60.216 382.139 60.174 382.447 60.09C382.764 60.006 383.072 59.866 383.371 59.67C383.502 59.586 383.618 59.5487 383.721 59.558C383.833 59.558 383.922 59.5907 383.987 59.656C384.052 59.712 384.094 59.7867 384.113 59.88C384.141 59.964 384.132 60.0573 384.085 60.16C384.048 60.2627 383.968 60.3513 383.847 60.426C383.539 60.65 383.175 60.8227 382.755 60.944C382.335 61.0653 381.92 61.126 381.509 61.126ZM388.19 61.126C387.77 61.126 387.345 61.0747 386.916 60.972C386.496 60.8693 386.104 60.692 385.74 60.44C385.647 60.3747 385.581 60.3 385.544 60.216C385.507 60.1227 385.493 60.034 385.502 59.95C385.521 59.8567 385.558 59.7773 385.614 59.712C385.679 59.6467 385.754 59.6093 385.838 59.6C385.931 59.5813 386.034 59.6 386.146 59.656C386.51 59.88 386.86 60.0387 387.196 60.132C387.541 60.216 387.882 60.258 388.218 60.258C388.75 60.258 389.151 60.16 389.422 59.964C389.693 59.768 389.828 59.502 389.828 59.166C389.828 58.9047 389.739 58.6993 389.562 58.55C389.385 58.3913 389.105 58.27 388.722 58.186L387.448 57.906C386.86 57.7847 386.421 57.5747 386.132 57.276C385.852 56.9773 385.712 56.59 385.712 56.114C385.712 55.694 385.819 55.3347 386.034 55.036C386.258 54.728 386.571 54.49 386.972 54.322C387.373 54.154 387.84 54.07 388.372 54.07C388.783 54.07 389.17 54.126 389.534 54.238C389.907 54.3407 390.243 54.5087 390.542 54.742C390.635 54.8073 390.696 54.8867 390.724 54.98C390.761 55.064 390.766 55.1527 390.738 55.246C390.719 55.33 390.677 55.4047 390.612 55.47C390.547 55.526 390.467 55.5587 390.374 55.568C390.281 55.5773 390.183 55.5493 390.08 55.484C389.8 55.2973 389.515 55.162 389.226 55.078C388.937 54.9847 388.652 54.938 388.372 54.938C387.849 54.938 387.453 55.0407 387.182 55.246C386.911 55.4513 386.776 55.722 386.776 56.058C386.776 56.3193 386.86 56.534 387.028 56.702C387.196 56.87 387.457 56.9913 387.812 57.066L389.086 57.332C389.693 57.4627 390.145 57.6727 390.444 57.962C390.752 58.242 390.906 58.6247 390.906 59.11C390.906 59.726 390.659 60.216 390.164 60.58C389.669 60.944 389.011 61.126 388.19 61.126ZM395.296 61.126C394.764 61.126 394.316 61.0327 393.952 60.846C393.597 60.65 393.331 60.37 393.154 60.006C392.977 59.6327 392.888 59.18 392.888 58.648V55.078H391.95C391.791 55.078 391.67 55.0407 391.586 54.966C391.502 54.882 391.46 54.77 391.46 54.63C391.46 54.49 391.502 54.3827 391.586 54.308C391.67 54.2333 391.791 54.196 391.95 54.196H392.888V52.586C392.888 52.3993 392.939 52.2593 393.042 52.166C393.145 52.0633 393.285 52.012 393.462 52.012C393.639 52.012 393.775 52.0633 393.868 52.166C393.971 52.2593 394.022 52.3993 394.022 52.586V54.196H395.786C395.945 54.196 396.066 54.2333 396.15 54.308C396.234 54.3827 396.276 54.49 396.276 54.63C396.276 54.77 396.234 54.882 396.15 54.966C396.066 55.0407 395.945 55.078 395.786 55.078H394.022V58.536C394.022 59.068 394.134 59.474 394.358 59.754C394.582 60.0247 394.946 60.16 395.45 60.16C395.627 60.16 395.777 60.1413 395.898 60.104C396.029 60.0667 396.136 60.048 396.22 60.048C396.304 60.0387 396.374 60.0667 396.43 60.132C396.486 60.1973 396.514 60.3093 396.514 60.468C396.514 60.58 396.491 60.6827 396.444 60.776C396.407 60.8693 396.337 60.9347 396.234 60.972C396.122 61.0093 395.973 61.042 395.786 61.07C395.609 61.1073 395.445 61.126 395.296 61.126Z" fill="#A7A2BD"/>
<g clip-path="url(#clip0_520_22)">
<path d="M365.158 177.213H377L354.5 206.823L365.158 177.213Z" fill="#0D47A1"/>
<path d="M332 177.213L343.842 163V177.213H332Z" fill="#84FFFF"/>
<path d="M365.158 163V177.213H377L365.158 163Z" fill="#1976D2"/>
<path d="M343.842 177.213L354.5 207L365.158 177.213H343.842ZM343.842 163H354.5L343.842 177.213V163ZM354.5 163L365.158 177.213V163H354.5Z" fill="#0091EA"/>
<path d="M365.158 177.213H343.842L354.5 163L365.158 177.213ZM365.158 177.213L371.079 174.844L377 177.213L371.079 179.581L365.158 177.213Z" fill="#00B0FF"/>
<path d="M343.842 177.213H332L354.5 207L343.842 177.213ZM343.842 177.213L354.5 174.844L365.158 177.213L354.5 179.581L343.842 177.213Z" fill="#00E5FF"/>
<path d="M332 177.213L337.921 174.844L343.842 177.213L337.921 179.581L332 177.213Z" fill="#E0F7FA"/>
</g>
<path d="M319.876 238.084C319.716 238.084 319.588 238.036 319.492 237.94C319.404 237.844 319.36 237.712 319.36 237.544V230.02C319.36 229.836 319.404 229.696 319.492 229.6C319.58 229.504 319.696 229.456 319.84 229.456C319.976 229.456 320.08 229.48 320.152 229.528C320.224 229.576 320.304 229.66 320.392 229.78L325.48 236.524H325.18V229.996C325.18 229.82 325.224 229.688 325.312 229.6C325.408 229.504 325.54 229.456 325.708 229.456C325.876 229.456 326.004 229.504 326.092 229.6C326.18 229.688 326.224 229.82 326.224 229.996V237.544C326.224 237.712 326.18 237.844 326.092 237.94C326.012 238.036 325.904 238.084 325.768 238.084C325.64 238.084 325.532 238.056 325.444 238C325.364 237.952 325.28 237.868 325.192 237.748L320.116 231.004H320.392V237.544C320.392 237.712 320.348 237.844 320.26 237.94C320.172 238.036 320.044 238.084 319.876 238.084ZM329.854 238C329.662 238 329.514 237.948 329.41 237.844C329.306 237.74 329.254 237.592 329.254 237.4V230.14C329.254 229.948 329.306 229.8 329.41 229.696C329.514 229.592 329.662 229.54 329.854 229.54H334.27C334.422 229.54 334.538 229.58 334.618 229.66C334.706 229.732 334.75 229.84 334.75 229.984C334.75 230.136 334.706 230.252 334.618 230.332C334.538 230.412 334.422 230.452 334.27 230.452H330.334V233.248H334.018C334.17 233.248 334.286 233.288 334.366 233.368C334.446 233.448 334.486 233.56 334.486 233.704C334.486 233.856 334.446 233.972 334.366 234.052C334.286 234.124 334.17 234.16 334.018 234.16H330.334V237.088H334.27C334.422 237.088 334.538 237.128 334.618 237.208C334.706 237.28 334.75 237.392 334.75 237.544C334.75 237.696 334.706 237.812 334.618 237.892C334.538 237.964 334.422 238 334.27 238H329.854ZM337.18 238.084C337.036 238.084 336.916 238.048 336.82 237.976C336.724 237.896 336.668 237.796 336.652 237.676C336.644 237.556 336.684 237.436 336.772 237.316L339.652 233.464V233.896L336.94 230.248C336.844 230.112 336.8 229.984 336.808 229.864C336.824 229.744 336.876 229.648 336.964 229.576C337.06 229.496 337.176 229.456 337.312 229.456C337.432 229.456 337.536 229.484 337.624 229.54C337.72 229.588 337.812 229.68 337.9 229.816L340.3 233.092H339.952L342.328 229.816C342.416 229.68 342.504 229.588 342.592 229.54C342.688 229.484 342.8 229.456 342.928 229.456C343.072 229.456 343.188 229.496 343.276 229.576C343.372 229.648 343.424 229.744 343.432 229.864C343.448 229.984 343.404 230.112 343.3 230.248L340.588 233.896V233.464L343.456 237.316C343.544 237.436 343.584 237.556 343.576 237.676C343.568 237.796 343.516 237.896 343.42 237.976C343.324 238.048 343.2 238.084 343.048 238.084C342.944 238.084 342.844 238.056 342.748 238C342.652 237.944 342.556 237.852 342.46 237.724L339.904 234.232H340.324L337.78 237.724C337.684 237.852 337.588 237.944 337.492 238C337.396 238.056 337.292 238.084 337.18 238.084ZM348.695 238.084C348.511 238.084 348.371 238.036 348.275 237.94C348.179 237.836 348.131 237.692 348.131 237.508V230.488H345.503C345.351 230.488 345.231 230.448 345.143 230.368C345.055 230.28 345.011 230.16 345.011 230.008C345.011 229.856 345.055 229.74 345.143 229.66C345.231 229.58 345.351 229.54 345.503 229.54H351.875C352.035 229.54 352.155 229.58 352.235 229.66C352.323 229.74 352.367 229.856 352.367 230.008C352.367 230.16 352.323 230.28 352.235 230.368C352.155 230.448 352.035 230.488 351.875 230.488H349.247V237.508C349.247 237.692 349.199 237.836 349.103 237.94C349.015 238.036 348.879 238.084 348.695 238.084ZM361.065 238.084C360.889 238.084 360.753 238.036 360.657 237.94C360.561 237.836 360.513 237.688 360.513 237.496V233.62L360.753 234.364L357.777 230.236C357.697 230.124 357.657 230.008 357.657 229.888C357.665 229.76 357.713 229.656 357.801 229.576C357.889 229.496 358.009 229.456 358.161 229.456C358.281 229.456 358.389 229.484 358.485 229.54C358.581 229.596 358.673 229.688 358.761 229.816L361.233 233.224H360.957L363.429 229.816C363.517 229.68 363.605 229.588 363.693 229.54C363.781 229.484 363.893 229.456 364.029 229.456C364.173 229.456 364.285 229.496 364.365 229.576C364.453 229.648 364.497 229.744 364.497 229.864C364.505 229.984 364.461 230.108 364.365 230.236L361.389 234.364L361.629 233.62V237.496C361.629 237.888 361.441 238.084 361.065 238.084ZM367.538 238C367.346 238 367.198 237.948 367.094 237.844C366.99 237.74 366.938 237.592 366.938 237.4V230.14C366.938 229.948 366.99 229.8 367.094 229.696C367.198 229.592 367.346 229.54 367.538 229.54H371.954C372.106 229.54 372.222 229.58 372.302 229.66C372.39 229.732 372.434 229.84 372.434 229.984C372.434 230.136 372.39 230.252 372.302 230.332C372.222 230.412 372.106 230.452 371.954 230.452H368.018V233.248H371.702C371.854 233.248 371.97 233.288 372.05 233.368C372.13 233.448 372.17 233.56 372.17 233.704C372.17 233.856 372.13 233.972 372.05 234.052C371.97 234.124 371.854 234.16 371.702 234.16H368.018V237.088H371.954C372.106 237.088 372.222 237.128 372.302 237.208C372.39 237.28 372.434 237.392 372.434 237.544C372.434 237.696 372.39 237.812 372.302 237.892C372.222 237.964 372.106 238 371.954 238H367.538ZM374.685 238.084C374.541 238.084 374.425 238.052 374.337 237.988C374.257 237.924 374.209 237.836 374.193 237.724C374.177 237.612 374.201 237.488 374.265 237.352L377.541 229.936C377.613 229.768 377.705 229.648 377.817 229.576C377.929 229.496 378.053 229.456 378.189 229.456C378.325 229.456 378.445 229.496 378.549 229.576C378.661 229.648 378.757 229.768 378.837 229.936L382.113 237.352C382.177 237.488 382.201 237.616 382.185 237.736C382.177 237.848 382.133 237.936 382.053 238C381.973 238.056 381.861 238.084 381.717 238.084C381.557 238.084 381.429 238.044 381.333 237.964C381.237 237.876 381.153 237.752 381.081 237.592L380.229 235.6L380.745 235.888H375.609L376.125 235.6L375.273 237.592C375.201 237.768 375.121 237.896 375.033 237.976C374.945 238.048 374.829 238.084 374.685 238.084ZM378.165 230.8L376.293 235.228L376.005 234.976H380.349L380.073 235.228L378.189 230.8H378.165ZM385.158 238.084C384.982 238.084 384.846 238.036 384.75 237.94C384.654 237.836 384.606 237.692 384.606 237.508V230.104C384.606 229.92 384.654 229.78 384.75 229.684C384.854 229.588 384.994 229.54 385.17 229.54H388.026C388.938 229.54 389.638 229.756 390.126 230.188C390.622 230.612 390.87 231.216 390.87 232C390.87 232.512 390.758 232.952 390.534 233.32C390.31 233.68 389.986 233.956 389.562 234.148C389.138 234.34 388.626 234.436 388.026 234.436L388.146 234.268H388.41C388.73 234.268 389.006 234.348 389.238 234.508C389.478 234.668 389.69 234.924 389.874 235.276L390.978 237.304C391.05 237.432 391.082 237.556 391.074 237.676C391.066 237.796 391.022 237.896 390.942 237.976C390.862 238.048 390.746 238.084 390.594 238.084C390.434 238.084 390.306 238.052 390.21 237.988C390.114 237.916 390.03 237.812 389.958 237.676L388.662 235.3C388.486 234.964 388.286 234.744 388.062 234.64C387.838 234.528 387.538 234.472 387.162 234.472H385.722V237.508C385.722 237.692 385.674 237.836 385.578 237.94C385.49 238.036 385.35 238.084 385.158 238.084ZM385.722 233.608H387.846C388.486 233.608 388.966 233.476 389.286 233.212C389.606 232.94 389.766 232.544 389.766 232.024C389.766 231.504 389.606 231.112 389.286 230.848C388.966 230.584 388.486 230.452 387.846 230.452H385.722V233.608Z" fill="#A7A2BD"/>
<path d="M316.886 266.126C316.586 266.126 316.352 266.042 316.184 265.874C316.028 265.706 315.95 265.472 315.95 265.172V254.264C315.95 253.952 316.034 253.718 316.202 253.562C316.37 253.394 316.604 253.31 316.904 253.31H321.206C322.574 253.31 323.63 253.634 324.374 254.282C325.118 254.93 325.49 255.848 325.49 257.036C325.49 257.804 325.322 258.464 324.986 259.016C324.65 259.568 324.158 259.988 323.51 260.276C322.874 260.564 322.106 260.708 321.206 260.708L321.368 260.456H321.836C322.316 260.456 322.73 260.576 323.078 260.816C323.438 261.056 323.762 261.44 324.05 261.968L325.598 264.848C325.718 265.064 325.772 265.274 325.76 265.478C325.76 265.67 325.688 265.826 325.544 265.946C325.412 266.066 325.22 266.126 324.968 266.126C324.704 266.126 324.488 266.072 324.32 265.964C324.164 265.844 324.02 265.67 323.888 265.442L321.998 261.95C321.746 261.482 321.458 261.17 321.134 261.014C320.81 260.846 320.384 260.762 319.856 260.762H317.822V265.172C317.822 265.472 317.744 265.706 317.588 265.874C317.432 266.042 317.198 266.126 316.886 266.126ZM317.822 259.358H320.9C321.812 259.358 322.502 259.166 322.97 258.782C323.438 258.398 323.672 257.828 323.672 257.072C323.672 256.328 323.438 255.764 322.97 255.38C322.502 254.996 321.812 254.804 320.9 254.804H317.822V259.358ZM330.689 266.162C330.077 266.162 329.525 266.042 329.033 265.802C328.553 265.562 328.175 265.238 327.899 264.83C327.623 264.422 327.485 263.96 327.485 263.444C327.485 262.796 327.647 262.286 327.971 261.914C328.307 261.53 328.853 261.26 329.609 261.104C330.377 260.936 331.409 260.852 332.705 260.852H333.551V261.968H332.723C331.859 261.968 331.175 262.01 330.671 262.094C330.167 262.178 329.807 262.322 329.591 262.526C329.387 262.718 329.285 262.988 329.285 263.336C329.285 263.792 329.441 264.164 329.753 264.452C330.065 264.728 330.497 264.866 331.049 264.866C331.493 264.866 331.883 264.764 332.219 264.56C332.555 264.344 332.819 264.056 333.011 263.696C333.215 263.336 333.317 262.922 333.317 262.454V260.384C333.317 259.7 333.173 259.208 332.885 258.908C332.597 258.608 332.123 258.458 331.463 258.458C331.079 258.458 330.677 258.506 330.257 258.602C329.849 258.698 329.423 258.86 328.979 259.088C328.775 259.184 328.601 259.214 328.457 259.178C328.313 259.142 328.199 259.064 328.115 258.944C328.031 258.812 327.983 258.674 327.971 258.53C327.971 258.374 328.007 258.224 328.079 258.08C328.163 257.936 328.301 257.828 328.493 257.756C329.021 257.504 329.543 257.324 330.059 257.216C330.575 257.108 331.061 257.054 331.517 257.054C332.321 257.054 332.981 257.18 333.497 257.432C334.025 257.684 334.415 258.068 334.667 258.584C334.919 259.1 335.045 259.766 335.045 260.582V265.208C335.045 265.496 334.973 265.724 334.829 265.892C334.685 266.048 334.475 266.126 334.199 266.126C333.935 266.126 333.725 266.048 333.569 265.892C333.413 265.724 333.335 265.496 333.335 265.208V264.038H333.497C333.401 264.482 333.221 264.866 332.957 265.19C332.705 265.502 332.387 265.742 332.003 265.91C331.619 266.078 331.181 266.162 330.689 266.162ZM338.467 266.126C338.167 266.126 337.939 266.048 337.783 265.892C337.627 265.724 337.549 265.496 337.549 265.208V258.008C337.549 257.708 337.627 257.48 337.783 257.324C337.939 257.168 338.155 257.09 338.431 257.09C338.719 257.09 338.935 257.168 339.079 257.324C339.235 257.48 339.313 257.708 339.313 258.008V259.322H339.133C339.325 258.602 339.679 258.056 340.195 257.684C340.711 257.312 341.371 257.096 342.175 257.036C342.391 257.024 342.559 257.078 342.679 257.198C342.811 257.318 342.883 257.504 342.895 257.756C342.919 258.008 342.865 258.212 342.733 258.368C342.601 258.512 342.397 258.596 342.121 258.62L341.779 258.656C340.999 258.728 340.405 258.974 339.997 259.394C339.589 259.814 339.385 260.39 339.385 261.122V265.208C339.385 265.496 339.307 265.724 339.151 265.892C339.007 266.048 338.779 266.126 338.467 266.126ZM348.262 266.162C347.302 266.162 346.474 265.982 345.778 265.622C345.094 265.25 344.56 264.728 344.176 264.056C343.804 263.372 343.618 262.562 343.618 261.626C343.618 260.714 343.804 259.916 344.176 259.232C344.548 258.548 345.058 258.014 345.706 257.63C346.354 257.246 347.092 257.054 347.92 257.054C348.532 257.054 349.078 257.156 349.558 257.36C350.038 257.552 350.446 257.84 350.782 258.224C351.13 258.596 351.388 259.052 351.556 259.592C351.736 260.132 351.826 260.738 351.826 261.41C351.826 261.614 351.766 261.77 351.646 261.878C351.526 261.974 351.346 262.022 351.106 262.022H345.058V260.906H350.602L350.296 261.158C350.296 260.558 350.206 260.048 350.026 259.628C349.858 259.208 349.6 258.89 349.252 258.674C348.916 258.446 348.496 258.332 347.992 258.332C347.428 258.332 346.948 258.464 346.552 258.728C346.168 258.992 345.874 259.358 345.67 259.826C345.466 260.294 345.364 260.84 345.364 261.464V261.572C345.364 262.628 345.61 263.426 346.102 263.966C346.606 264.494 347.332 264.758 348.28 264.758C348.64 264.758 349.018 264.71 349.414 264.614C349.822 264.518 350.206 264.356 350.566 264.128C350.77 264.008 350.95 263.954 351.106 263.966C351.274 263.978 351.406 264.032 351.502 264.128C351.61 264.224 351.676 264.344 351.7 264.488C351.724 264.632 351.7 264.782 351.628 264.938C351.556 265.082 351.43 265.214 351.25 265.334C350.842 265.61 350.368 265.82 349.828 265.964C349.288 266.096 348.766 266.162 348.262 266.162ZM359.634 266.126C359.358 266.126 359.142 266.048 358.986 265.892C358.83 265.736 358.752 265.514 358.752 265.226V254.12C358.752 253.82 358.824 253.592 358.968 253.436C359.124 253.268 359.328 253.184 359.58 253.184C359.796 253.184 359.958 253.226 360.066 253.31C360.186 253.382 360.324 253.52 360.48 253.724L367.896 263.498H367.446V254.066C367.446 253.79 367.518 253.574 367.662 253.418C367.818 253.262 368.034 253.184 368.31 253.184C368.598 253.184 368.814 253.262 368.958 253.418C369.102 253.574 369.174 253.79 369.174 254.066V265.244C369.174 265.52 369.102 265.736 368.958 265.892C368.826 266.048 368.646 266.126 368.418 266.126C368.202 266.126 368.022 266.084 367.878 266C367.746 265.916 367.602 265.772 367.446 265.568L360.066 255.812H360.48V265.226C360.48 265.514 360.408 265.736 360.264 265.892C360.12 266.048 359.91 266.126 359.634 266.126ZM376.053 266.162C375.093 266.162 374.265 265.982 373.569 265.622C372.885 265.25 372.351 264.728 371.967 264.056C371.595 263.372 371.409 262.562 371.409 261.626C371.409 260.714 371.595 259.916 371.967 259.232C372.339 258.548 372.849 258.014 373.497 257.63C374.145 257.246 374.883 257.054 375.711 257.054C376.323 257.054 376.869 257.156 377.349 257.36C377.829 257.552 378.237 257.84 378.573 258.224C378.921 258.596 379.179 259.052 379.347 259.592C379.527 260.132 379.617 260.738 379.617 261.41C379.617 261.614 379.557 261.77 379.437 261.878C379.317 261.974 379.137 262.022 378.897 262.022H372.849V260.906H378.393L378.087 261.158C378.087 260.558 377.997 260.048 377.817 259.628C377.649 259.208 377.391 258.89 377.043 258.674C376.707 258.446 376.287 258.332 375.783 258.332C375.219 258.332 374.739 258.464 374.343 258.728C373.959 258.992 373.665 259.358 373.461 259.826C373.257 260.294 373.155 260.84 373.155 261.464V261.572C373.155 262.628 373.401 263.426 373.893 263.966C374.397 264.494 375.123 264.758 376.071 264.758C376.431 264.758 376.809 264.71 377.205 264.614C377.613 264.518 377.997 264.356 378.357 264.128C378.561 264.008 378.741 263.954 378.897 263.966C379.065 263.978 379.197 264.032 379.293 264.128C379.401 264.224 379.467 264.344 379.491 264.488C379.515 264.632 379.491 264.782 379.419 264.938C379.347 265.082 379.221 265.214 379.041 265.334C378.633 265.61 378.159 265.82 377.619 265.964C377.079 266.096 376.557 266.162 376.053 266.162ZM384.677 266.162C384.149 266.162 383.603 266.102 383.039 265.982C382.487 265.862 381.977 265.658 381.509 265.37C381.353 265.262 381.245 265.142 381.185 265.01C381.125 264.878 381.101 264.746 381.113 264.614C381.137 264.47 381.191 264.35 381.275 264.254C381.371 264.146 381.485 264.08 381.617 264.056C381.761 264.032 381.911 264.062 382.067 264.146C382.535 264.41 382.985 264.596 383.417 264.704C383.849 264.8 384.275 264.848 384.695 264.848C385.331 264.848 385.811 264.734 386.135 264.506C386.459 264.278 386.621 263.972 386.621 263.588C386.621 263.276 386.513 263.036 386.297 262.868C386.081 262.688 385.757 262.55 385.325 262.454L383.615 262.112C382.871 261.956 382.307 261.68 381.923 261.284C381.539 260.888 381.347 260.384 381.347 259.772C381.347 259.22 381.497 258.74 381.797 258.332C382.097 257.924 382.517 257.612 383.057 257.396C383.597 257.168 384.221 257.054 384.929 257.054C385.457 257.054 385.955 257.12 386.423 257.252C386.891 257.384 387.323 257.582 387.719 257.846C387.875 257.93 387.977 258.044 388.025 258.188C388.073 258.32 388.079 258.452 388.043 258.584C388.019 258.716 387.959 258.836 387.863 258.944C387.767 259.04 387.647 259.1 387.503 259.124C387.371 259.136 387.221 259.1 387.053 259.016C386.693 258.788 386.333 258.626 385.973 258.53C385.625 258.434 385.277 258.386 384.929 258.386C384.293 258.386 383.813 258.506 383.489 258.746C383.177 258.974 383.021 259.286 383.021 259.682C383.021 259.982 383.117 260.228 383.309 260.42C383.501 260.612 383.801 260.75 384.209 260.834L385.919 261.176C386.699 261.332 387.287 261.596 387.683 261.968C388.091 262.34 388.295 262.844 388.295 263.48C388.295 264.308 387.965 264.962 387.305 265.442C386.645 265.922 385.769 266.162 384.677 266.162ZM393.974 266.162C393.254 266.162 392.648 266.036 392.156 265.784C391.664 265.532 391.298 265.16 391.058 264.668C390.818 264.176 390.698 263.576 390.698 262.868V258.62H389.618C389.378 258.62 389.192 258.56 389.06 258.44C388.928 258.308 388.862 258.134 388.862 257.918C388.862 257.69 388.928 257.516 389.06 257.396C389.192 257.276 389.378 257.216 389.618 257.216H390.698V255.362C390.698 255.062 390.776 254.834 390.932 254.678C391.1 254.522 391.328 254.444 391.616 254.444C391.904 254.444 392.126 254.522 392.282 254.678C392.438 254.834 392.516 255.062 392.516 255.362V257.216H394.622C394.862 257.216 395.048 257.276 395.18 257.396C395.312 257.516 395.378 257.69 395.378 257.918C395.378 258.134 395.312 258.308 395.18 258.44C395.048 258.56 394.862 258.62 394.622 258.62H392.516V262.724C392.516 263.36 392.648 263.84 392.912 264.164C393.188 264.488 393.632 264.65 394.244 264.65C394.46 264.65 394.646 264.632 394.802 264.596C394.97 264.548 395.108 264.518 395.216 264.506C395.348 264.506 395.456 264.554 395.54 264.65C395.624 264.734 395.666 264.902 395.666 265.154C395.666 265.334 395.63 265.502 395.558 265.658C395.498 265.814 395.384 265.916 395.216 265.964C395.072 266.012 394.874 266.054 394.622 266.09C394.382 266.138 394.166 266.162 393.974 266.162Z" fill="white"/>
<path d="M290.91 89.22C289.297 89.22 287.911 88.8973 286.752 88.252C285.608 87.592 284.728 86.668 284.112 85.48C283.496 84.2773 283.188 82.862 283.188 81.234C283.188 80.0167 283.364 78.924 283.716 77.956C284.068 76.9733 284.574 76.1373 285.234 75.448C285.894 74.744 286.701 74.2087 287.654 73.842C288.622 73.4607 289.707 73.27 290.91 73.27C291.717 73.27 292.509 73.3727 293.286 73.578C294.063 73.7833 294.745 74.0767 295.332 74.458C295.64 74.6487 295.845 74.8833 295.948 75.162C296.051 75.426 296.073 75.69 296.014 75.954C295.955 76.2033 295.831 76.416 295.64 76.592C295.464 76.768 295.237 76.8707 294.958 76.9C294.694 76.9147 294.401 76.8193 294.078 76.614C293.623 76.3207 293.132 76.108 292.604 75.976C292.076 75.844 291.541 75.778 290.998 75.778C289.957 75.778 289.077 75.9907 288.358 76.416C287.639 76.8413 287.097 77.4573 286.73 78.264C286.363 79.0707 286.18 80.0607 286.18 81.234C286.18 82.3927 286.363 83.3827 286.73 84.204C287.097 85.0253 287.639 85.6487 288.358 86.074C289.077 86.4993 289.957 86.712 290.998 86.712C291.555 86.712 292.105 86.646 292.648 86.514C293.191 86.3673 293.704 86.1473 294.188 85.854C294.511 85.6633 294.797 85.5827 295.046 85.612C295.31 85.6267 295.53 85.7147 295.706 85.876C295.882 86.0373 295.999 86.2427 296.058 86.492C296.117 86.7267 296.102 86.976 296.014 87.24C295.926 87.4893 295.75 87.7093 295.486 87.9C294.899 88.3253 294.195 88.6553 293.374 88.89C292.567 89.11 291.746 89.22 290.91 89.22ZM302.516 89.22C301.401 89.22 300.433 88.9927 299.612 88.538C298.79 88.0833 298.152 87.438 297.698 86.602C297.243 85.7513 297.016 84.754 297.016 83.61C297.016 82.7447 297.14 81.9747 297.39 81.3C297.654 80.6107 298.028 80.024 298.512 79.54C298.996 79.0413 299.575 78.6673 300.25 78.418C300.924 78.154 301.68 78.022 302.516 78.022C303.63 78.022 304.598 78.2493 305.42 78.704C306.241 79.1587 306.879 79.804 307.334 80.64C307.788 81.476 308.016 82.466 308.016 83.61C308.016 84.4753 307.884 85.2527 307.62 85.942C307.37 86.6313 307.004 87.2253 306.52 87.724C306.036 88.208 305.456 88.582 304.782 88.846C304.107 89.0953 303.352 89.22 302.516 89.22ZM302.516 87.13C303.058 87.13 303.535 86.998 303.946 86.734C304.356 86.47 304.672 86.0813 304.892 85.568C305.126 85.04 305.244 84.3873 305.244 83.61C305.244 82.4367 304.994 81.564 304.496 80.992C303.997 80.4053 303.337 80.112 302.516 80.112C301.973 80.112 301.496 80.244 301.086 80.508C300.675 80.7573 300.352 81.146 300.118 81.674C299.898 82.1873 299.788 82.8327 299.788 83.61C299.788 84.7687 300.037 85.6487 300.536 86.25C301.034 86.8367 301.694 87.13 302.516 87.13ZM311.693 89.176C311.253 89.176 310.916 89.0587 310.681 88.824C310.447 88.5747 310.329 88.2227 310.329 87.768V79.452C310.329 78.9973 310.447 78.6527 310.681 78.418C310.916 78.1833 311.246 78.066 311.671 78.066C312.097 78.066 312.427 78.1833 312.661 78.418C312.896 78.6527 313.013 78.9973 313.013 79.452V81.058L312.771 80.398C313.065 79.6647 313.519 79.0853 314.135 78.66C314.751 78.2347 315.485 78.022 316.335 78.022C317.201 78.022 317.912 78.2273 318.469 78.638C319.027 79.0487 319.415 79.6793 319.635 80.53H319.327C319.621 79.7527 320.105 79.144 320.779 78.704C321.454 78.2493 322.231 78.022 323.111 78.022C323.933 78.022 324.607 78.1833 325.135 78.506C325.678 78.8287 326.081 79.32 326.345 79.98C326.609 80.6253 326.741 81.4467 326.741 82.444V87.768C326.741 88.2227 326.617 88.5747 326.367 88.824C326.133 89.0587 325.795 89.176 325.355 89.176C324.915 89.176 324.578 89.0587 324.343 88.824C324.109 88.5747 323.991 88.2227 323.991 87.768V82.554C323.991 81.7327 323.852 81.1313 323.573 80.75C323.309 80.3687 322.855 80.178 322.209 80.178C321.491 80.178 320.926 80.4347 320.515 80.948C320.105 81.4467 319.899 82.1433 319.899 83.038V87.768C319.899 88.2227 319.782 88.5747 319.547 88.824C319.313 89.0587 318.975 89.176 318.535 89.176C318.095 89.176 317.751 89.0587 317.501 88.824C317.267 88.5747 317.149 88.2227 317.149 87.768V82.554C317.149 81.7327 317.01 81.1313 316.731 80.75C316.467 80.3687 316.02 80.178 315.389 80.178C314.671 80.178 314.106 80.4347 313.695 80.948C313.285 81.4467 313.079 82.1433 313.079 83.038V87.768C313.079 88.7067 312.617 89.176 311.693 89.176ZM330.986 89.176C330.546 89.176 330.209 89.0587 329.974 88.824C329.74 88.5747 329.622 88.2227 329.622 87.768V79.452C329.622 78.9973 329.74 78.6527 329.974 78.418C330.209 78.1833 330.539 78.066 330.964 78.066C331.39 78.066 331.72 78.1833 331.954 78.418C332.189 78.6527 332.306 78.9973 332.306 79.452V81.058L332.064 80.398C332.358 79.6647 332.812 79.0853 333.428 78.66C334.044 78.2347 334.778 78.022 335.628 78.022C336.494 78.022 337.205 78.2273 337.762 78.638C338.32 79.0487 338.708 79.6793 338.928 80.53H338.62C338.914 79.7527 339.398 79.144 340.072 78.704C340.747 78.2493 341.524 78.022 342.404 78.022C343.226 78.022 343.9 78.1833 344.428 78.506C344.971 78.8287 345.374 79.32 345.638 79.98C345.902 80.6253 346.034 81.4467 346.034 82.444V87.768C346.034 88.2227 345.91 88.5747 345.66 88.824C345.426 89.0587 345.088 89.176 344.648 89.176C344.208 89.176 343.871 89.0587 343.636 88.824C343.402 88.5747 343.284 88.2227 343.284 87.768V82.554C343.284 81.7327 343.145 81.1313 342.866 80.75C342.602 80.3687 342.148 80.178 341.502 80.178C340.784 80.178 340.219 80.4347 339.808 80.948C339.398 81.4467 339.192 82.1433 339.192 83.038V87.768C339.192 88.2227 339.075 88.5747 338.84 88.824C338.606 89.0587 338.268 89.176 337.828 89.176C337.388 89.176 337.044 89.0587 336.794 88.824C336.56 88.5747 336.442 88.2227 336.442 87.768V82.554C336.442 81.7327 336.303 81.1313 336.024 80.75C335.76 80.3687 335.313 80.178 334.682 80.178C333.964 80.178 333.399 80.4347 332.988 80.948C332.578 81.4467 332.372 82.1433 332.372 83.038V87.768C332.372 88.7067 331.91 89.176 330.986 89.176ZM353.777 89.22C352.663 89.22 351.695 88.9927 350.873 88.538C350.052 88.0833 349.414 87.438 348.959 86.602C348.505 85.7513 348.277 84.754 348.277 83.61C348.277 82.7447 348.402 81.9747 348.651 81.3C348.915 80.6107 349.289 80.024 349.773 79.54C350.257 79.0413 350.837 78.6673 351.511 78.418C352.186 78.154 352.941 78.022 353.777 78.022C354.892 78.022 355.86 78.2493 356.681 78.704C357.503 79.1587 358.141 79.804 358.595 80.64C359.05 81.476 359.277 82.466 359.277 83.61C359.277 84.4753 359.145 85.2527 358.881 85.942C358.632 86.6313 358.265 87.2253 357.781 87.724C357.297 88.208 356.718 88.582 356.043 88.846C355.369 89.0953 354.613 89.22 353.777 89.22ZM353.777 87.13C354.32 87.13 354.797 86.998 355.207 86.734C355.618 86.47 355.933 86.0813 356.153 85.568C356.388 85.04 356.505 84.3873 356.505 83.61C356.505 82.4367 356.256 81.564 355.757 80.992C355.259 80.4053 354.599 80.112 353.777 80.112C353.235 80.112 352.758 80.244 352.347 80.508C351.937 80.7573 351.614 81.146 351.379 81.674C351.159 82.1873 351.049 82.8327 351.049 83.61C351.049 84.7687 351.299 85.6487 351.797 86.25C352.296 86.8367 352.956 87.13 353.777 87.13ZM362.911 89.176C362.471 89.176 362.134 89.0587 361.899 88.824C361.665 88.5747 361.547 88.2227 361.547 87.768V79.452C361.547 78.9973 361.665 78.6527 361.899 78.418C362.134 78.1833 362.464 78.066 362.889 78.066C363.315 78.066 363.645 78.1833 363.879 78.418C364.114 78.6527 364.231 78.9973 364.231 79.452V80.948L363.989 80.398C364.312 79.6207 364.811 79.034 365.485 78.638C366.175 78.2273 366.952 78.022 367.817 78.022C368.683 78.022 369.394 78.1833 369.951 78.506C370.509 78.8287 370.927 79.32 371.205 79.98C371.484 80.6253 371.623 81.4467 371.623 82.444V87.768C371.623 88.2227 371.506 88.5747 371.271 88.824C371.037 89.0587 370.699 89.176 370.259 89.176C369.819 89.176 369.475 89.0587 369.225 88.824C368.991 88.5747 368.873 88.2227 368.873 87.768V82.576C368.873 81.74 368.712 81.1313 368.389 80.75C368.081 80.3687 367.597 80.178 366.937 80.178C366.131 80.178 365.485 80.4347 365.001 80.948C364.532 81.4467 364.297 82.114 364.297 82.95V87.768C364.297 88.7067 363.835 89.176 362.911 89.176ZM381.973 89.176C381.548 89.176 381.218 89.0587 380.983 88.824C380.763 88.5893 380.653 88.252 380.653 87.812V74.722C380.653 74.2673 380.763 73.9227 380.983 73.688C381.218 73.4387 381.518 73.314 381.885 73.314C382.222 73.314 382.472 73.38 382.633 73.512C382.809 73.6293 383.014 73.8347 383.249 74.128L391.675 85.062H391.103V74.656C391.103 74.2307 391.213 73.9007 391.433 73.666C391.668 73.4313 391.998 73.314 392.423 73.314C392.848 73.314 393.171 73.4313 393.391 73.666C393.611 73.9007 393.721 74.2307 393.721 74.656V87.856C393.721 88.2667 393.618 88.5893 393.413 88.824C393.208 89.0587 392.929 89.176 392.577 89.176C392.24 89.176 391.968 89.11 391.763 88.978C391.572 88.846 391.36 88.6333 391.125 88.34L382.721 77.406H383.271V87.812C383.271 88.252 383.161 88.5893 382.941 88.824C382.721 89.0587 382.398 89.176 381.973 89.176ZM402.148 89.22C400.931 89.22 399.882 88.9927 399.002 88.538C398.122 88.0833 397.44 87.438 396.956 86.602C396.487 85.766 396.252 84.776 396.252 83.632C396.252 82.5173 396.479 81.542 396.934 80.706C397.403 79.87 398.041 79.2173 398.848 78.748C399.669 78.264 400.601 78.022 401.642 78.022C402.405 78.022 403.087 78.1467 403.688 78.396C404.304 78.6453 404.825 79.0047 405.25 79.474C405.69 79.9433 406.02 80.5153 406.24 81.19C406.475 81.85 406.592 82.598 406.592 83.434C406.592 83.698 406.497 83.9033 406.306 84.05C406.13 84.182 405.873 84.248 405.536 84.248H398.474V82.664H404.656L404.304 82.994C404.304 82.3193 404.201 81.7547 403.996 81.3C403.805 80.8453 403.519 80.5007 403.138 80.266C402.771 80.0167 402.309 79.892 401.752 79.892C401.136 79.892 400.608 80.0387 400.168 80.332C399.743 80.6107 399.413 81.014 399.178 81.542C398.958 82.0553 398.848 82.6713 398.848 83.39V83.544C398.848 84.7467 399.127 85.6487 399.684 86.25C400.256 86.8367 401.092 87.13 402.192 87.13C402.573 87.13 402.999 87.086 403.468 86.998C403.952 86.8953 404.407 86.7267 404.832 86.492C405.14 86.316 405.411 86.2427 405.646 86.272C405.881 86.2867 406.064 86.3673 406.196 86.514C406.343 86.6607 406.431 86.844 406.46 87.064C406.489 87.2693 406.445 87.482 406.328 87.702C406.225 87.922 406.042 88.1127 405.778 88.274C405.265 88.5967 404.671 88.8387 403.996 89C403.336 89.1467 402.72 89.22 402.148 89.22ZM412.708 89.22C412.077 89.22 411.41 89.154 410.706 89.022C410.002 88.89 409.371 88.6627 408.814 88.34C408.579 88.1933 408.411 88.0247 408.308 87.834C408.22 87.6287 408.183 87.4307 408.198 87.24C408.227 87.0347 408.301 86.8587 408.418 86.712C408.55 86.5653 408.711 86.47 408.902 86.426C409.107 86.382 409.327 86.4187 409.562 86.536C410.149 86.8147 410.699 87.0127 411.212 87.13C411.725 87.2327 412.231 87.284 412.73 87.284C413.434 87.284 413.955 87.1667 414.292 86.932C414.644 86.6827 414.82 86.36 414.82 85.964C414.82 85.6267 414.703 85.37 414.468 85.194C414.248 85.0033 413.911 84.864 413.456 84.776L411.256 84.358C410.347 84.182 409.65 83.852 409.166 83.368C408.697 82.8693 408.462 82.2313 408.462 81.454C408.462 80.75 408.653 80.1413 409.034 79.628C409.43 79.1147 409.973 78.7187 410.662 78.44C411.351 78.1613 412.143 78.022 413.038 78.022C413.683 78.022 414.285 78.0953 414.842 78.242C415.414 78.374 415.964 78.5867 416.492 78.88C416.712 78.9973 416.859 79.1513 416.932 79.342C417.02 79.5327 417.042 79.7307 416.998 79.936C416.954 80.1267 416.866 80.3027 416.734 80.464C416.602 80.6107 416.433 80.706 416.228 80.75C416.037 80.7793 415.817 80.7353 415.568 80.618C415.113 80.3833 414.673 80.2147 414.248 80.112C413.837 80.0093 413.441 79.958 413.06 79.958C412.341 79.958 411.806 80.0827 411.454 80.332C411.117 80.5813 410.948 80.9113 410.948 81.322C410.948 81.63 411.051 81.8867 411.256 82.092C411.461 82.2973 411.777 82.4367 412.202 82.51L414.402 82.928C415.355 83.104 416.074 83.4267 416.558 83.896C417.057 84.3653 417.306 84.996 417.306 85.788C417.306 86.8587 416.888 87.702 416.052 88.318C415.216 88.9193 414.101 89.22 412.708 89.22ZM424.333 89.22C423.379 89.22 422.58 89.0587 421.935 88.736C421.304 88.4133 420.835 87.944 420.527 87.328C420.219 86.6973 420.065 85.92 420.065 84.996V80.31H418.921C418.569 80.31 418.297 80.222 418.107 80.046C417.916 79.8553 417.821 79.5987 417.821 79.276C417.821 78.9387 417.916 78.682 418.107 78.506C418.297 78.33 418.569 78.242 418.921 78.242H420.065V76.24C420.065 75.7853 420.182 75.4407 420.417 75.206C420.666 74.9713 421.011 74.854 421.451 74.854C421.891 74.854 422.228 74.9713 422.463 75.206C422.697 75.4407 422.815 75.7853 422.815 76.24V78.242H425.147C425.499 78.242 425.77 78.33 425.961 78.506C426.151 78.682 426.247 78.9387 426.247 79.276C426.247 79.5987 426.151 79.8553 425.961 80.046C425.77 80.222 425.499 80.31 425.147 80.31H422.815V84.842C422.815 85.546 422.969 86.074 423.277 86.426C423.585 86.778 424.083 86.954 424.773 86.954C425.022 86.954 425.242 86.932 425.433 86.888C425.623 86.844 425.792 86.8147 425.939 86.8C426.115 86.7853 426.261 86.844 426.379 86.976C426.496 87.0933 426.555 87.3427 426.555 87.724C426.555 88.0173 426.503 88.2813 426.401 88.516C426.313 88.736 426.144 88.89 425.895 88.978C425.704 89.0367 425.455 89.088 425.147 89.132C424.839 89.1907 424.567 89.22 424.333 89.22Z" fill="white"/>
<defs>
<radialGradient id="paint0_radial_520_22" cx="0" cy="0" r="1" gradientUnits="userSpaceOnUse" gradientTransform="translate(428.5 295) rotate(68.8019) scale(154.245 159.576)">
<stop stop-color="#7452D4" stop-opacity="0.44"/>
<stop offset="1" stop-color="#7452D4" stop-opacity="0"/>
</radialGradient>
<radialGradient id="paint1_radial_520_22" cx="0" cy="0" r="1" gradientUnits="userSpaceOnUse" gradientTransform="translate(89.5 115) rotate(68.8147) scale(157.429 162.789)">
<stop stop-color="#7452D4" stop-opacity="0.44"/>
<stop offset="1" stop-color="#7452D4" stop-opacity="0"/>
</radialGradient>
<linearGradient id="paint2_linear_520_22" x1="288.574" y1="86.595" x2="295.283" y2="314.467" gradientUnits="userSpaceOnUse">
<stop stop-color="#F291FF"/>
<stop offset="0.807292" stop-color="#A9B6FF"/>
</linearGradient>
<clipPath id="clip0_520_22">
<rect width="45" height="44" fill="white" transform="translate(332 163)"/>
</clipPath>
</defs>
</svg>
