<svg xmlns="http://www.w3.org/2000/svg" width="105" height="105"><path fill="#2A2D72" d="M86.42 21.154l-.287 2.555-3.493.504c-.189.77-.434 1.526-.728 2.261l2.548 2.45-1.253 2.24-3.424-.889a17.301 17.301 0 01-1.393 1.645l1.435 3.227-2.009 1.603-2.828-2.114a15.94 15.94 0 01-2.121 1.092l.092 3.57-2.479.7-1.785-3.094c-.728.112-1.441.168-2.163.182l-1.267 3.297-2.555-.28-.504-3.5a17.028 17.028 0 01-2.262-.728l-2.449 2.548-2.24-1.253.889-3.423a18.219 18.219 0 01-1.645-1.393l-3.228 1.442-1.603-2.009 2.114-2.835a17.173 17.173 0 01-1.085-2.114l-3.598.091-.7-2.471 3.115-1.806a17.338 17.338 0 01-.182-2.156l-3.297-1.267.287-2.548 3.493-.511c.189-.77.441-1.526.735-2.261l-2.555-2.45 1.253-2.24 3.423.896c.434-.581.896-1.127 1.399-1.652l-1.441-3.227 2.009-1.603 2.828 2.114c.672-.406 1.379-.77 2.114-1.085l-.084-3.598 2.471-.7 1.799 3.115a17.338 17.338 0 012.156-.182L67.19 0l2.556.287.504 3.493c.77.189 1.525.434 2.261.735l2.45-2.555L77.2 3.213l-.889 3.423c.574.434 1.12.896 1.646 1.4l3.227-1.442 1.61 2.009-2.121 2.828a16.06 16.06 0 011.092 2.121l3.57-.091.699 2.478-3.094 1.792c.105.721.168 1.442.183 2.156l3.297 1.267z"/><path fill="#FFF" d="M66.276 13.592a6.648 6.648 0 00-6.648 6.649 6.647 6.647 0 006.648 6.651 6.653 6.653 0 006.651-6.651 6.652 6.652 0 00-6.651-6.649z"/><path fill="#2A2D72" d="M104.731 71.148l.267 3.787-4.956 1.673a25.317 25.317 0 01-.455 3.479l4.36 2.892-1.231 3.591-5.215-.393a25.49 25.49 0 01-1.589 2.766l2.953 4.312-2.499 2.87L91.69 93.8a25.555 25.555 0 01-2.786 2.143l1.071 5.173-3.416 1.673-3.43-4.018c-1.022.35-2.051.623-3.087.833l-.959 5.138-3.793.258-1.666-4.949a24.873 24.873 0 01-3.479-.462l-2.891 4.361-3.591-1.225.392-5.216a26.044 26.044 0 01-2.772-1.596l-4.312 2.954-2.863-2.492 2.324-4.683a24.086 24.086 0 01-2.142-2.786l-5.18 1.071-1.673-3.409 4.018-3.438a24.493 24.493 0 01-.826-3.087l-5.138-.959-.266-3.787 4.956-1.673c.07-1.169.224-2.331.462-3.479l-4.368-2.884 1.232-3.599 5.215.393a25.325 25.325 0 011.589-2.766l-2.947-4.312 2.492-2.87 4.676 2.324c.868-.771 1.8-1.484 2.793-2.143l-1.077-5.173 3.416-1.673 3.437 4.018a24.157 24.157 0 013.08-.833l.966-5.138 3.787-.259 1.666 4.949c1.176.07 2.338.231 3.479.462l2.891-4.361 3.591 1.225-.385 5.215a25.274 25.274 0 012.765 1.596l4.313-2.954 2.862 2.492-2.323 4.676c.776.875 1.49 1.806 2.142 2.793l5.18-1.071 1.674 3.409-4.019 3.438a25.43 25.43 0 01.833 3.087l5.128.962z"/><ellipse fill="#FFF" cx="75.425" cy="75.127" rx="12.661" ry="12.25"/><path fill="#2A2D72" d="M53.555 48.118l-.378 3.388-4.641.672a22.398 22.398 0 01-.966 3.003l3.388 3.247-1.666 2.976-4.543-1.19a21.174 21.174 0 01-1.848 2.185l1.911 4.284-2.66 2.128-3.759-2.808a21.314 21.314 0 01-2.814 1.449l.119 4.732-3.276.931-2.38-4.102c-.952.14-1.911.224-2.863.237l-1.673 4.375-3.388-.378-.672-4.641a22.398 22.398 0 01-3.003-.966l-3.248 3.388-2.975-1.666 1.19-4.536a22.27 22.27 0 01-2.184-1.854l-4.284 1.91-2.128-2.659 2.8-3.76a21.594 21.594 0 01-1.435-2.807l-4.774.119L.48 52.5l4.13-2.394a23.222 23.222 0 01-.238-2.856l-4.375-1.68.378-3.381 4.641-.672a22.08 22.08 0 01.966-3.003l-3.388-3.248 1.666-2.975 4.543 1.183a21.848 21.848 0 011.848-2.177L8.74 27.013l2.66-2.128 3.759 2.8a21.594 21.594 0 012.807-1.435l-.119-4.774 3.276-.924 2.394 4.13a20.772 20.772 0 012.856-.238l1.68-4.375 3.381.378.672 4.641a22.08 22.08 0 013.003.966l3.248-3.388 2.975 1.666-1.183 4.543a22.753 22.753 0 012.184 1.848l4.277-1.911 2.128 2.66-2.807 3.759a21.314 21.314 0 011.449 2.814l4.739-.119.924 3.276-4.102 2.373c.14.959.224 1.918.238 2.87l4.376 1.673z"/><circle fill="#FFF" cx="26.778" cy="46.843" r="9.8"/></svg>