<svg width="148" height="30" viewBox="0 0 148 30" fill="none" xmlns="http://www.w3.org/2000/svg">
<path d="M51.48 22.4L59.32 1H66.12L74 22.4L83.28 1H90.48L78.12 29H70.24L62.72 9.28L55.2 29H47.36L35 1H42.2L51.48 22.4Z" fill="white"/>
<path d="M94.2687 29V1H119.909C131.109 1 135.509 7.48 135.509 15.08C135.509 22.68 131.109 29 119.909 29H94.2687ZM118.709 6.32H100.869V23.72H118.709C125.149 23.72 128.909 20.84 128.909 15.04C128.909 9.24 125.149 6.32 118.709 6.32Z" fill="white"/>
<path d="M140.495 29V1H147.095V29H140.495Z" fill="white"/>
<rect width="30" height="30" fill="#FD5000"/>
</svg>
