<svg width="40" height="40" fill="none" xmlns="http://www.w3.org/2000/svg"><path d="M20 .8C9.398.8.8 9.396.8 20S9.398 39.2 20 39.2c10.605 0 19.2-8.596 19.2-19.2S30.606.8 20 .8zm-4.7 27.158h-3.887V15.446H15.3v12.512zM13.334 13.91c-1.228 0-2.022-.87-2.022-1.946 0-1.098.818-1.942 2.072-1.942s2.022.844 2.046 1.942c0 1.076-.792 1.946-2.096 1.946zM29.5 27.958h-3.888v-6.934c0-1.614-.564-2.71-1.97-2.71-1.074 0-1.712.742-1.994 1.456-.104.254-.13.614-.13.972v7.214h-3.89v-8.52c0-1.562-.05-2.868-.102-3.992h3.378l.178 1.738h.078c.512-.816 1.766-2.02 3.864-2.02 2.558 0 4.476 1.714 4.476 5.398v7.398z" fill="#36A74C"/></svg>