<?xml version="1.0" standalone="no"?>
<!DOCTYPE svg PUBLIC "-//W3C//DTD SVG 20010904//EN"
 "http://www.w3.org/TR/2001/REC-SVG-20010904/DTD/svg10.dtd">
<svg version="1.0" xmlns="http://www.w3.org/2000/svg"
 width="2000.000000pt" height="2000.000000pt" viewBox="0 0 2000.000000 2000.000000"
 preserveAspectRatio="xMidYMid meet">

<g transform="translate(0.000000,2000.000000) scale(0.100000,-0.100000)"
fill="#acd0c0" stroke="none">
<path d="M12983 18445 c-6 -11 -18 -42 -26 -70 -9 -27 -39 -108 -67 -180 -28
-71 -64 -164 -79 -205 -15 -41 -56 -149 -91 -240 -34 -91 -75 -199 -91 -240
-15 -41 -60 -158 -99 -260 -39 -102 -81 -214 -95 -250 -13 -36 -33 -90 -45
-120 -12 -30 -32 -84 -45 -120 -14 -36 -56 -148 -95 -250 -39 -102 -84 -219
-99 -260 -16 -41 -61 -160 -101 -265 -39 -104 -85 -224 -100 -265 -16 -41 -72
-190 -125 -330 -160 -419 -334 -880 -364 -960 -16 -41 -69 -183 -120 -315 -50
-132 -128 -339 -174 -460 -46 -121 -87 -220 -91 -220 -5 0 -25 38 -45 85 -119
272 -143 328 -156 355 -30 64 -225 505 -263 595 -22 52 -57 131 -77 175 -21
44 -41 89 -45 100 -13 33 -269 614 -300 680 -11 22 -55 123 -99 225 -44 101
-85 186 -91 188 -5 2 -17 -14 -26 -35 -9 -21 -27 -63 -41 -93 -14 -30 -63
-140 -108 -245 -115 -263 -267 -608 -300 -680 -15 -33 -65 -145 -110 -250 -45
-104 -122 -278 -170 -385 -48 -107 -116 -262 -152 -345 -36 -82 -81 -184 -100
-225 -19 -41 -42 -92 -50 -112 -8 -21 -19 -38 -24 -38 -4 0 -15 21 -22 48 -13
41 -48 134 -217 577 -21 55 -64 168 -95 250 -69 183 -125 328 -176 460 -21 55
-75 197 -119 315 -45 118 -132 350 -195 515 -62 165 -164 433 -225 595 -61
162 -127 336 -147 385 -19 50 -50 131 -68 180 -18 50 -57 155 -88 235 -57 149
-219 574 -379 995 -50 132 -97 258 -105 280 -44 125 -66 176 -77 172 -6 -2
-25 -73 -42 -158 -46 -231 -66 -329 -75 -379 -5 -25 -15 -79 -22 -120 -8 -41
-33 -165 -55 -275 -22 -110 -46 -227 -52 -260 -7 -33 -18 -89 -25 -125 -15
-70 -39 -193 -60 -305 -7 -38 -23 -117 -35 -175 -12 -58 -26 -127 -30 -155 -5
-27 -19 -95 -30 -150 -12 -55 -28 -136 -36 -180 -9 -44 -22 -109 -29 -145 -7
-36 -20 -101 -29 -145 -9 -44 -19 -93 -22 -110 -3 -16 -28 -142 -55 -280 -27
-137 -55 -281 -63 -320 -9 -38 -24 -117 -36 -175 -28 -146 -137 -700 -154
-785 -8 -38 -22 -108 -31 -155 -9 -47 -23 -114 -30 -150 -8 -36 -21 -101 -29
-145 -9 -44 -32 -158 -51 -254 -19 -96 -35 -181 -35 -190 0 -20 4000 -4021
4020 -4021 8 0 917 902 2019 2004 l2004 2004 -7 38 c-4 22 -13 68 -21 104 -7
36 -21 103 -30 150 -9 47 -23 114 -30 150 -13 65 -35 175 -61 305 -7 39 -20
104 -29 145 -8 41 -24 125 -36 185 -11 61 -31 162 -44 225 -13 63 -29 142 -36
175 -6 33 -17 89 -24 125 -8 36 -20 102 -29 146 -8 45 -20 102 -25 125 -13 59
-35 170 -71 364 -17 88 -37 189 -45 225 -8 36 -24 115 -35 175 -12 61 -28 139
-35 175 -7 36 -21 103 -30 150 -9 47 -23 117 -31 155 -47 233 -87 438 -104
532 -5 28 -13 68 -19 90 -5 21 -19 90 -31 153 -12 63 -27 144 -35 180 -13 63
-26 128 -59 295 -9 44 -28 139 -42 210 -15 72 -32 162 -39 200 -25 135 -66
340 -73 370 -8 28 -9 29 -19 10z"/>
<path d="M4627 9812 c-944 -944 -1717 -1722 -1717 -1727 0 -14 1703 -1715
1717 -1715 17 0 73 26 316 144 121 58 220 106 222 106 1 0 83 39 181 86 299
144 880 423 1034 497 52 25 172 82 265 127 254 123 313 150 322 150 4 0 685
-677 1513 -1505 828 -828 1512 -1505 1520 -1505 8 0 692 677 1520 1505 828
828 1509 1505 1514 1505 4 0 56 -23 115 -52 123 -59 357 -171 486 -233 50 -24
193 -93 319 -154 126 -61 230 -111 232 -111 4 0 205 -96 452 -216 106 -52 195
-94 197 -94 2 0 115 -54 251 -120 173 -85 257 -120 276 -118 22 2 203 178 873
848 465 464 845 851 845 860 0 20 -3421 3440 -3441 3440 -9 0 -828 -812 -1821
-1805 -993 -993 -1811 -1805 -1819 -1805 -8 0 -826 812 -1819 1805 -993 993
-1812 1805 -1820 1805 -8 0 -788 -773 -1733 -1718z"/>
<path d="M6800 6737 c-58 -29 -177 -87 -265 -129 -88 -42 -241 -116 -340 -164
-99 -47 -216 -103 -260 -124 -286 -134 -475 -231 -475 -242 0 -22 3053 -3068
3075 -3068 22 0 1095 1066 1095 1087 0 6 -603 614 -1340 1352 -1017 1019
-1345 1341 -1362 1340 -13 0 -70 -24 -128 -52z"/>
<path d="M11708 5453 c-736 -736 -1338 -1345 -1338 -1353 0 -22 1071 -1090
1093 -1090 25 0 3067 3042 3067 3067 0 15 -22 30 -87 61 -49 22 -187 89 -308
147 -121 59 -240 116 -265 127 -25 11 -128 61 -230 111 -102 49 -230 111 -285
137 -55 26 -139 66 -186 88 -47 23 -94 42 -105 42 -12 0 -509 -491 -1356
-1337z"/>
<path d="M9449 3194 c-344 -344 -539 -546 -539 -558 0 -22 1066 -1096 1088
-1096 16 0 1092 1078 1092 1094 0 15 -1048 1069 -1080 1086 -21 11 -55 -20
-561 -526z"/>
</g>
</svg>
